<svg width="50" height="43" viewBox="0 0 50 43" fill="none" xmlns="http://www.w3.org/2000/svg">
<path fill-rule="evenodd" clip-rule="evenodd" d="M47.8016 22.8462H48.6128C48.9805 22.8462 49.3335 22.9915 49.5936 23.2503C49.8539 23.5089 50 23.8598 50 24.2257V28.1704C50 28.5363 49.8539 28.8872 49.5936 29.1458C49.3335 29.4046 48.9805 29.5499 48.6128 29.5499H47.8016C47.4039 29.5761 47.0214 29.7123 46.6972 29.9427C46.3731 30.1731 46.12 30.4891 45.9666 30.8548C45.941 30.9176 45.9151 30.9798 45.8885 31.0421C45.7368 31.4085 45.6911 31.8097 45.7564 32.2005C45.8217 32.5914 45.9952 32.9565 46.2577 33.2545L46.8315 33.8251C47.0918 34.0836 47.2379 34.4346 47.2379 34.8004C47.2379 35.1661 47.0918 35.517 46.8315 35.7756L44.0259 38.5651C43.7659 38.8239 43.4129 38.9692 43.0452 38.9692C42.6772 38.9692 42.3242 38.8239 42.0641 38.5651L41.4903 37.9945C41.1903 37.7336 40.8233 37.5611 40.4302 37.4961C40.0371 37.4312 39.6336 37.4769 39.2651 37.6275C39.2025 37.6539 39.1398 37.6797 39.0767 37.7052C38.7087 37.8579 38.3911 38.1095 38.1593 38.4316C37.9273 38.7539 37.7906 39.1342 37.7643 39.5296V40.3362C37.7643 40.7018 37.6181 41.0527 37.3578 41.3113C37.0978 41.5701 36.7448 41.7154 36.3768 41.7154H32.4093C32.0413 41.7154 31.6884 41.5701 31.4283 41.3113C31.168 41.0527 31.0219 40.7018 31.0219 40.3362V39.5296C30.9955 39.1342 30.8586 38.7539 30.6268 38.4316C30.3948 38.1093 30.0772 37.8577 29.7095 37.7052C29.6463 37.6797 29.5834 37.6539 29.521 37.6275C29.1526 37.4767 28.7491 37.4312 28.3559 37.4961C27.9629 37.5611 27.5956 37.7336 27.2958 37.9945L26.722 38.5651C26.4619 38.8239 26.109 38.9692 25.741 38.9692C25.3733 38.9692 25.0203 38.8239 24.7602 38.5651L21.9546 35.7756C21.6943 35.517 21.5482 35.1661 21.5482 34.8004C21.5482 34.4346 21.6943 34.0837 21.9546 33.8251L22.5285 33.2545C22.791 32.9563 22.9644 32.5914 23.0297 32.2005C23.0951 31.8097 23.0491 31.4085 22.8976 31.0421C22.871 30.9798 22.8452 30.9173 22.8195 30.8545C22.6659 30.4889 22.4128 30.1731 22.0886 29.9426C21.7647 29.712 21.3822 29.5761 20.9845 29.5498H20.1733C19.8056 29.5498 19.4526 29.4045 19.1926 29.1457C18.9323 28.8872 18.7861 28.5362 18.7861 28.1704V24.2256C18.7861 23.8598 18.9323 23.5088 19.1926 23.2503C19.4526 22.9914 19.8056 22.8462 20.1733 22.8462H20.9845C21.3822 22.8199 21.7647 22.6838 22.0889 22.4534C22.4131 22.2227 22.6661 21.9069 22.8195 21.5413C22.8452 21.4785 22.871 21.4162 22.8976 21.3539C23.0493 20.9876 23.0951 20.5864 23.0297 20.1955C22.9644 19.8047 22.791 19.4395 22.5285 19.1415L21.9546 18.571C21.6943 18.3124 21.5482 17.9614 21.5482 17.5956C21.5482 17.23 21.6943 16.879 21.9546 16.6205L24.7602 13.831C25.0203 13.5722 25.3733 13.4269 25.741 13.4269C26.109 13.4269 26.4619 13.5722 26.722 13.831L27.2958 14.4015C27.5958 14.6625 27.9628 14.835 28.3559 14.8999C28.749 14.9649 29.1526 14.9191 29.521 14.7686C29.5837 14.7421 29.6463 14.7164 29.7095 14.6909C30.0774 14.5381 30.395 14.2865 30.6268 13.9645C30.8588 13.6422 30.9955 13.2619 31.0219 12.8664V12.0599C31.0219 11.6943 31.168 11.3433 31.4283 11.0848C31.6884 10.8259 32.0413 10.6807 32.4093 10.6807H36.3768C36.7448 10.6807 37.0978 10.8259 37.3578 11.0848C37.6181 11.3433 37.7643 11.6943 37.7643 12.0599V12.8664C37.7906 13.2619 37.9276 13.6421 38.1593 13.9645C38.3913 14.2868 38.7089 14.5384 39.0767 14.6909C39.1398 14.7164 39.2027 14.7421 39.2651 14.7686C39.6336 14.9191 40.0371 14.9649 40.4302 14.8999C40.8233 14.835 41.1906 14.6625 41.4903 14.4015L42.0641 13.831C42.3242 13.5722 42.6772 13.4269 43.0452 13.4269C43.4129 13.4269 43.7658 13.5722 44.0262 13.831L46.8315 16.6205C47.0918 16.879 47.2379 17.23 47.2379 17.5956C47.2379 17.9615 47.0918 18.3124 46.8315 18.571L46.2577 19.1415C45.9952 19.4398 45.8217 19.8046 45.7564 20.1955C45.6911 20.5864 45.7371 20.9876 45.8885 21.3539C45.8988 21.378 45.909 21.4024 45.9191 21.4265C45.9351 21.4648 45.9509 21.5031 45.9666 21.5415C46.1203 21.9072 46.3733 22.223 46.6973 22.4534C47.0214 22.6841 47.4039 22.82 47.8016 22.8462ZM34.3249 30.1959C36.5833 30.1959 38.4141 28.3757 38.4141 26.1303C38.4141 23.8848 36.5833 22.0646 34.3249 22.0646C32.0665 22.0646 30.2358 23.8848 30.2358 26.1303C30.2358 28.3757 32.0665 30.1959 34.3249 30.1959Z" fill="url(#paint0_linear_390_219)"/>
<g filter="url(#filter0_bi_390_219)">
<mask id="path-2-inside-1_390_219" fill="white">
<path fill-rule="evenodd" clip-rule="evenodd" d="M38.6873 17.0719H39.7689C40.2592 17.0719 40.7298 17.2639 41.0766 17.6058C41.4237 17.9474 41.6185 18.411 41.6185 18.8943V24.1057C41.6185 24.5891 41.4237 25.0527 41.0766 25.3943C40.7299 25.7362 40.2592 25.9282 39.7689 25.9282H38.6873C38.157 25.9628 37.6471 26.1427 37.2148 26.4471C36.7826 26.7515 36.4452 27.169 36.2407 27.652C36.2065 27.735 36.172 27.8173 36.1365 27.8996C35.9342 28.3835 35.8732 28.9135 35.9604 29.4299C36.0474 29.9462 36.2787 30.4286 36.6287 30.8224L37.3938 31.5761C37.7409 31.9177 37.9358 32.3814 37.9358 32.8647C37.9358 33.3477 37.7409 33.8113 37.3938 34.1529L33.653 37.8381C33.3063 38.18 32.8356 38.372 32.3454 38.372C31.8547 38.372 31.3841 38.18 31.0373 37.8381L30.2722 37.0844C29.8722 36.7396 29.3829 36.5117 28.8588 36.426C28.3347 36.3402 27.7966 36.4005 27.3053 36.5994C27.2218 36.6344 27.1382 36.6684 27.054 36.7021C26.5635 36.9039 26.1399 37.2363 25.8309 37.6618C25.5216 38.0876 25.3393 38.59 25.3042 39.1124V40.1779C25.3042 40.6609 25.1093 41.1245 24.7623 41.4661C24.4155 41.8081 23.9449 42 23.4543 42H18.1642C17.6736 42 17.203 41.8081 16.8562 41.4661C16.5091 41.1246 16.3143 40.6609 16.3143 40.1779V39.1124C16.2792 38.59 16.0966 38.0876 15.7876 37.6618C15.4782 37.2359 15.0548 36.9036 14.5644 36.7021C14.4803 36.6684 14.3964 36.6344 14.3132 36.5994C13.8219 36.4002 13.2839 36.3402 12.7597 36.426C12.2356 36.5117 11.7459 36.7396 11.3463 37.0844L10.5812 37.8381C10.2344 38.18 9.76376 38.372 9.27314 38.372C8.78284 38.372 8.31222 38.18 7.96546 37.8381L4.22466 34.1529C3.87759 33.8113 3.68276 33.3477 3.68276 32.8647C3.68276 32.3813 3.87759 31.9177 4.22466 31.5761L4.98978 30.8224C5.33977 30.4283 5.57105 29.9463 5.65814 29.4299C5.74524 28.9136 5.68395 28.3835 5.48202 27.8996V27.8993C5.44655 27.8169 5.41203 27.7346 5.37784 27.6517C5.17299 27.1687 4.83559 26.7514 4.40335 26.447C3.97147 26.1423 3.46147 25.9627 2.93118 25.9281H1.84959C1.35928 25.9281 0.888668 25.7361 0.541904 25.3942C0.194829 25.0526 0 24.589 0 24.1057V18.8943C0 18.4109 0.194829 17.9473 0.541904 17.6057C0.888646 17.2638 1.35929 17.0718 1.84959 17.0718H2.93118C3.46148 17.0372 3.97144 16.8573 4.40368 16.5529C4.83593 16.2482 5.17333 15.831 5.37784 15.348C5.41203 15.265 5.44654 15.1827 5.48202 15.1004C5.68427 14.6165 5.74524 14.0865 5.65814 13.5701C5.57105 13.0538 5.33977 12.5714 4.98978 12.1776L4.22466 11.4239C3.87759 11.0823 3.68276 10.6186 3.68276 10.1353C3.68276 9.6523 3.87759 9.18867 4.22466 8.84707L7.96546 5.16188C8.31221 4.81995 8.78285 4.62802 9.27314 4.62802C9.76379 4.62802 10.2344 4.81995 10.5812 5.16188L11.3463 5.91563C11.7463 6.26039 12.2356 6.48826 12.7597 6.57404C13.2838 6.65984 13.8219 6.59946 14.3132 6.40055C14.3967 6.36558 14.4803 6.3316 14.5644 6.2979C15.055 6.09611 15.4786 5.76373 15.7876 5.33823C16.0969 4.91244 16.2792 4.41003 16.3143 3.88762V2.82211C16.3143 2.33908 16.5091 1.87546 16.8562 1.53386C17.203 1.19193 17.6736 1 18.1642 1H23.4543C23.9449 1 24.4155 1.19193 24.7623 1.53386C25.1093 1.87544 25.3042 2.33908 25.3042 2.82211V3.88762C25.3393 4.41003 25.5219 4.91242 25.8309 5.33823C26.1403 5.76406 26.5638 6.09643 27.054 6.2979C27.1382 6.3316 27.2221 6.36558 27.3053 6.40055C27.7966 6.59946 28.3346 6.65984 28.8588 6.57404C29.3829 6.48826 29.8726 6.26039 30.2722 5.91563L31.0373 5.16188C31.3841 4.81995 31.8547 4.62802 32.3454 4.62802C32.8357 4.62802 33.3063 4.81995 33.6534 5.16188L37.3938 8.84707C37.7409 9.18867 37.9358 9.6523 37.9358 10.1353C37.9358 10.6187 37.7409 11.0823 37.3938 11.4239L36.6287 12.1776C36.2787 12.5717 36.0474 13.0537 35.9604 13.5701C35.8733 14.0864 35.9346 14.6165 36.1365 15.1004V15.1007C36.1502 15.1326 36.1638 15.1645 36.1773 15.1964C36.1986 15.2469 36.2197 15.2975 36.2407 15.3483C36.4455 15.8313 36.7829 16.2486 37.2148 16.553C37.647 16.8577 38.157 17.0373 38.6873 17.0719ZM20.7184 26.7817C23.7296 26.7817 26.1706 24.3769 26.1706 21.4105C26.1706 18.444 23.7296 16.0393 20.7184 16.0393C17.7072 16.0393 15.2662 18.444 15.2662 21.4105C15.2662 24.3769 17.7072 26.7817 20.7184 26.7817Z"/>
</mask>
<path fill-rule="evenodd" clip-rule="evenodd" d="M38.6873 17.0719H39.7689C40.2592 17.0719 40.7298 17.2639 41.0766 17.6058C41.4237 17.9474 41.6185 18.411 41.6185 18.8943V24.1057C41.6185 24.5891 41.4237 25.0527 41.0766 25.3943C40.7299 25.7362 40.2592 25.9282 39.7689 25.9282H38.6873C38.157 25.9628 37.6471 26.1427 37.2148 26.4471C36.7826 26.7515 36.4452 27.169 36.2407 27.652C36.2065 27.735 36.172 27.8173 36.1365 27.8996C35.9342 28.3835 35.8732 28.9135 35.9604 29.4299C36.0474 29.9462 36.2787 30.4286 36.6287 30.8224L37.3938 31.5761C37.7409 31.9177 37.9358 32.3814 37.9358 32.8647C37.9358 33.3477 37.7409 33.8113 37.3938 34.1529L33.653 37.8381C33.3063 38.18 32.8356 38.372 32.3454 38.372C31.8547 38.372 31.3841 38.18 31.0373 37.8381L30.2722 37.0844C29.8722 36.7396 29.3829 36.5117 28.8588 36.426C28.3347 36.3402 27.7966 36.4005 27.3053 36.5994C27.2218 36.6344 27.1382 36.6684 27.054 36.7021C26.5635 36.9039 26.1399 37.2363 25.8309 37.6618C25.5216 38.0876 25.3393 38.59 25.3042 39.1124V40.1779C25.3042 40.6609 25.1093 41.1245 24.7623 41.4661C24.4155 41.8081 23.9449 42 23.4543 42H18.1642C17.6736 42 17.203 41.8081 16.8562 41.4661C16.5091 41.1246 16.3143 40.6609 16.3143 40.1779V39.1124C16.2792 38.59 16.0966 38.0876 15.7876 37.6618C15.4782 37.2359 15.0548 36.9036 14.5644 36.7021C14.4803 36.6684 14.3964 36.6344 14.3132 36.5994C13.8219 36.4002 13.2839 36.3402 12.7597 36.426C12.2356 36.5117 11.7459 36.7396 11.3463 37.0844L10.5812 37.8381C10.2344 38.18 9.76376 38.372 9.27314 38.372C8.78284 38.372 8.31222 38.18 7.96546 37.8381L4.22466 34.1529C3.87759 33.8113 3.68276 33.3477 3.68276 32.8647C3.68276 32.3813 3.87759 31.9177 4.22466 31.5761L4.98978 30.8224C5.33977 30.4283 5.57105 29.9463 5.65814 29.4299C5.74524 28.9136 5.68395 28.3835 5.48202 27.8996V27.8993C5.44655 27.8169 5.41203 27.7346 5.37784 27.6517C5.17299 27.1687 4.83559 26.7514 4.40335 26.447C3.97147 26.1423 3.46147 25.9627 2.93118 25.9281H1.84959C1.35928 25.9281 0.888668 25.7361 0.541904 25.3942C0.194829 25.0526 0 24.589 0 24.1057V18.8943C0 18.4109 0.194829 17.9473 0.541904 17.6057C0.888646 17.2638 1.35929 17.0718 1.84959 17.0718H2.93118C3.46148 17.0372 3.97144 16.8573 4.40368 16.5529C4.83593 16.2482 5.17333 15.831 5.37784 15.348C5.41203 15.265 5.44654 15.1827 5.48202 15.1004C5.68427 14.6165 5.74524 14.0865 5.65814 13.5701C5.57105 13.0538 5.33977 12.5714 4.98978 12.1776L4.22466 11.4239C3.87759 11.0823 3.68276 10.6186 3.68276 10.1353C3.68276 9.6523 3.87759 9.18867 4.22466 8.84707L7.96546 5.16188C8.31221 4.81995 8.78285 4.62802 9.27314 4.62802C9.76379 4.62802 10.2344 4.81995 10.5812 5.16188L11.3463 5.91563C11.7463 6.26039 12.2356 6.48826 12.7597 6.57404C13.2838 6.65984 13.8219 6.59946 14.3132 6.40055C14.3967 6.36558 14.4803 6.3316 14.5644 6.2979C15.055 6.09611 15.4786 5.76373 15.7876 5.33823C16.0969 4.91244 16.2792 4.41003 16.3143 3.88762V2.82211C16.3143 2.33908 16.5091 1.87546 16.8562 1.53386C17.203 1.19193 17.6736 1 18.1642 1H23.4543C23.9449 1 24.4155 1.19193 24.7623 1.53386C25.1093 1.87544 25.3042 2.33908 25.3042 2.82211V3.88762C25.3393 4.41003 25.5219 4.91242 25.8309 5.33823C26.1403 5.76406 26.5638 6.09643 27.054 6.2979C27.1382 6.3316 27.2221 6.36558 27.3053 6.40055C27.7966 6.59946 28.3346 6.65984 28.8588 6.57404C29.3829 6.48826 29.8726 6.26039 30.2722 5.91563L31.0373 5.16188C31.3841 4.81995 31.8547 4.62802 32.3454 4.62802C32.8357 4.62802 33.3063 4.81995 33.6534 5.16188L37.3938 8.84707C37.7409 9.18867 37.9358 9.6523 37.9358 10.1353C37.9358 10.6187 37.7409 11.0823 37.3938 11.4239L36.6287 12.1776C36.2787 12.5717 36.0474 13.0537 35.9604 13.5701C35.8733 14.0864 35.9346 14.6165 36.1365 15.1004V15.1007C36.1502 15.1326 36.1638 15.1645 36.1773 15.1964C36.1986 15.2469 36.2197 15.2975 36.2407 15.3483C36.4455 15.8313 36.7829 16.2486 37.2148 16.553C37.647 16.8577 38.157 17.0373 38.6873 17.0719ZM20.7184 26.7817C23.7296 26.7817 26.1706 24.3769 26.1706 21.4105C26.1706 18.444 23.7296 16.0393 20.7184 16.0393C17.7072 16.0393 15.2662 18.444 15.2662 21.4105C15.2662 24.3769 17.7072 26.7817 20.7184 26.7817Z" fill="url(#paint1_linear_390_219)"/>
<path fill-rule="evenodd" clip-rule="evenodd" d="M38.6873 17.0719H39.7689C40.2592 17.0719 40.7298 17.2639 41.0766 17.6058C41.4237 17.9474 41.6185 18.411 41.6185 18.8943V24.1057C41.6185 24.5891 41.4237 25.0527 41.0766 25.3943C40.7299 25.7362 40.2592 25.9282 39.7689 25.9282H38.6873C38.157 25.9628 37.6471 26.1427 37.2148 26.4471C36.7826 26.7515 36.4452 27.169 36.2407 27.652C36.2065 27.735 36.172 27.8173 36.1365 27.8996C35.9342 28.3835 35.8732 28.9135 35.9604 29.4299C36.0474 29.9462 36.2787 30.4286 36.6287 30.8224L37.3938 31.5761C37.7409 31.9177 37.9358 32.3814 37.9358 32.8647C37.9358 33.3477 37.7409 33.8113 37.3938 34.1529L33.653 37.8381C33.3063 38.18 32.8356 38.372 32.3454 38.372C31.8547 38.372 31.3841 38.18 31.0373 37.8381L30.2722 37.0844C29.8722 36.7396 29.3829 36.5117 28.8588 36.426C28.3347 36.3402 27.7966 36.4005 27.3053 36.5994C27.2218 36.6344 27.1382 36.6684 27.054 36.7021C26.5635 36.9039 26.1399 37.2363 25.8309 37.6618C25.5216 38.0876 25.3393 38.59 25.3042 39.1124V40.1779C25.3042 40.6609 25.1093 41.1245 24.7623 41.4661C24.4155 41.8081 23.9449 42 23.4543 42H18.1642C17.6736 42 17.203 41.8081 16.8562 41.4661C16.5091 41.1246 16.3143 40.6609 16.3143 40.1779V39.1124C16.2792 38.59 16.0966 38.0876 15.7876 37.6618C15.4782 37.2359 15.0548 36.9036 14.5644 36.7021C14.4803 36.6684 14.3964 36.6344 14.3132 36.5994C13.8219 36.4002 13.2839 36.3402 12.7597 36.426C12.2356 36.5117 11.7459 36.7396 11.3463 37.0844L10.5812 37.8381C10.2344 38.18 9.76376 38.372 9.27314 38.372C8.78284 38.372 8.31222 38.18 7.96546 37.8381L4.22466 34.1529C3.87759 33.8113 3.68276 33.3477 3.68276 32.8647C3.68276 32.3813 3.87759 31.9177 4.22466 31.5761L4.98978 30.8224C5.33977 30.4283 5.57105 29.9463 5.65814 29.4299C5.74524 28.9136 5.68395 28.3835 5.48202 27.8996V27.8993C5.44655 27.8169 5.41203 27.7346 5.37784 27.6517C5.17299 27.1687 4.83559 26.7514 4.40335 26.447C3.97147 26.1423 3.46147 25.9627 2.93118 25.9281H1.84959C1.35928 25.9281 0.888668 25.7361 0.541904 25.3942C0.194829 25.0526 0 24.589 0 24.1057V18.8943C0 18.4109 0.194829 17.9473 0.541904 17.6057C0.888646 17.2638 1.35929 17.0718 1.84959 17.0718H2.93118C3.46148 17.0372 3.97144 16.8573 4.40368 16.5529C4.83593 16.2482 5.17333 15.831 5.37784 15.348C5.41203 15.265 5.44654 15.1827 5.48202 15.1004C5.68427 14.6165 5.74524 14.0865 5.65814 13.5701C5.57105 13.0538 5.33977 12.5714 4.98978 12.1776L4.22466 11.4239C3.87759 11.0823 3.68276 10.6186 3.68276 10.1353C3.68276 9.6523 3.87759 9.18867 4.22466 8.84707L7.96546 5.16188C8.31221 4.81995 8.78285 4.62802 9.27314 4.62802C9.76379 4.62802 10.2344 4.81995 10.5812 5.16188L11.3463 5.91563C11.7463 6.26039 12.2356 6.48826 12.7597 6.57404C13.2838 6.65984 13.8219 6.59946 14.3132 6.40055C14.3967 6.36558 14.4803 6.3316 14.5644 6.2979C15.055 6.09611 15.4786 5.76373 15.7876 5.33823C16.0969 4.91244 16.2792 4.41003 16.3143 3.88762V2.82211C16.3143 2.33908 16.5091 1.87546 16.8562 1.53386C17.203 1.19193 17.6736 1 18.1642 1H23.4543C23.9449 1 24.4155 1.19193 24.7623 1.53386C25.1093 1.87544 25.3042 2.33908 25.3042 2.82211V3.88762C25.3393 4.41003 25.5219 4.91242 25.8309 5.33823C26.1403 5.76406 26.5638 6.09643 27.054 6.2979C27.1382 6.3316 27.2221 6.36558 27.3053 6.40055C27.7966 6.59946 28.3346 6.65984 28.8588 6.57404C29.3829 6.48826 29.8726 6.26039 30.2722 5.91563L31.0373 5.16188C31.3841 4.81995 31.8547 4.62802 32.3454 4.62802C32.8357 4.62802 33.3063 4.81995 33.6534 5.16188L37.3938 8.84707C37.7409 9.18867 37.9358 9.6523 37.9358 10.1353C37.9358 10.6187 37.7409 11.0823 37.3938 11.4239L36.6287 12.1776C36.2787 12.5717 36.0474 13.0537 35.9604 13.5701C35.8733 14.0864 35.9346 14.6165 36.1365 15.1004V15.1007C36.1502 15.1326 36.1638 15.1645 36.1773 15.1964C36.1986 15.2469 36.2197 15.2975 36.2407 15.3483C36.4455 15.8313 36.7829 16.2486 37.2148 16.553C37.647 16.8577 38.157 17.0373 38.6873 17.0719ZM20.7184 26.7817C23.7296 26.7817 26.1706 24.3769 26.1706 21.4105C26.1706 18.444 23.7296 16.0393 20.7184 16.0393C17.7072 16.0393 15.2662 18.444 15.2662 21.4105C15.2662 24.3769 17.7072 26.7817 20.7184 26.7817Z" stroke="url(#paint2_linear_390_219)" stroke-width="2" mask="url(#path-2-inside-1_390_219)"/>
</g>
<path d="M36.0169 13.311C36.1292 12.893 36.338 12.505 36.6287 12.1776L37.3938 11.4239C37.7409 11.0823 37.9358 10.6187 37.9358 10.1353C37.9358 9.65231 37.7409 9.18867 37.3938 8.84707L33.6534 5.16188C33.3063 4.81995 32.8357 4.62802 32.3454 4.62802C31.8547 4.62802 31.3841 4.81995 31.0373 5.16188L30.2722 5.91563C29.8726 6.26039 29.3829 6.48826 28.8588 6.57404C28.3346 6.65984 27.7966 6.59946 27.3053 6.40055C27.2221 6.36558 27.1382 6.3316 27.054 6.2979C26.5638 6.09644 26.1403 5.76406 25.8309 5.33823C25.5219 4.91242 25.3393 4.41003 25.3042 3.88762V2.82211C25.3042 2.33908 25.1093 1.87544 24.7623 1.53386C24.4155 1.19193 23.9449 1 23.4543 1H18.1642C17.6736 1 17.203 1.19193 16.8562 1.53386C16.5091 1.87546 16.3143 2.33908 16.3143 2.82211V3.88762C16.2792 4.41003 16.0969 4.91244 15.7876 5.33823C15.4786 5.76373 15.055 6.09611 14.5644 6.2979C14.4803 6.3316 14.3967 6.36558 14.3132 6.40055C13.8219 6.59946 13.2838 6.65984 12.7597 6.57404C12.2356 6.48826 11.7463 6.26039 11.3463 5.91563L10.5812 5.16188C10.2344 4.81995 9.76379 4.62802 9.27314 4.62802C8.78285 4.62802 8.31221 4.81995 7.96546 5.16188L4.22466 8.84707C3.87759 9.18867 3.68276 9.65231 3.68276 10.1353C3.68276 10.6186 3.87759 11.0823 4.22466 11.4239L4.98978 12.1776C5.33977 12.5714 5.57105 13.0538 5.65814 13.5701C5.74524 14.0865 5.68427 14.6165 5.48202 15.1004C5.44654 15.1827 5.41203 15.265 5.37784 15.348C5.17333 15.831 4.83593 16.2482 4.40368 16.5529C3.97144 16.8573 3.46148 17.0372 2.93118 17.0718H1.84959C1.35929 17.0718 0.888646 17.2638 0.541904 17.6057C0.194829 17.9473 0 18.4109 0 18.8943V24.1057C0 24.589 0.194829 25.0526 0.541904 25.3942C0.888668 25.7361 1.35928 25.9281 1.84959 25.9281H2.93118C3.46147 25.9627 3.97147 26.1423 4.40335 26.447C4.83559 26.7514 5.17299 27.1687 5.37784 27.6517C5.41203 27.7346 5.44655 27.8169 5.48202 27.8993V27.8996C5.68395 28.3835 5.74524 28.9136 5.65814 29.4299C5.57105 29.9463 5.33977 30.4283 4.98978 30.8224L4.22466 31.5761C3.87759 31.9177 3.68276 32.3813 3.68276 32.8647C3.68276 33.1365 3.74448 33.4023 3.86034 33.6436C6.68783 30.824 10.724 27.77 16.4855 24.7961C15.7231 23.8722 15.2662 22.6939 15.2662 21.4105C15.2662 18.444 17.7072 16.0393 20.7184 16.0393C23.3027 16.0393 25.4671 17.8106 26.0288 20.1882C30.2854 17.8992 33.5354 15.5575 36.0169 13.311Z" fill="white" fill-opacity="0.09"/>
<g filter="url(#filter1_d_390_219)">
<path d="M26.4816 21.4055C26.4816 24.5356 23.9059 27.073 20.7286 27.073C17.5513 27.073 14.9756 24.5356 14.9756 21.4055C14.9756 18.2755 17.5513 15.738 20.7286 15.738C23.9059 15.738 26.4816 18.2755 26.4816 21.4055Z" fill="url(#paint3_linear_390_219)"/>
<path d="M25.9816 21.4055C25.9816 24.2524 23.6368 26.573 20.7286 26.573C17.8203 26.573 15.4756 24.2524 15.4756 21.4055C15.4756 18.5586 17.8203 16.238 20.7286 16.238C23.6368 16.238 25.9816 18.5586 25.9816 21.4055Z" stroke="white" stroke-opacity="0.14"/>
</g>
<defs>
<filter id="filter0_bi_390_219" x="-17" y="-16" width="75.6187" height="75" filterUnits="userSpaceOnUse" color-interpolation-filters="sRGB">
<feFlood flood-opacity="0" result="BackgroundImageFix"/>
<feGaussianBlur in="BackgroundImage" stdDeviation="8.5"/>
<feComposite in2="SourceAlpha" operator="in" result="effect1_backgroundBlur_390_219"/>
<feBlend mode="normal" in="SourceGraphic" in2="effect1_backgroundBlur_390_219" result="shape"/>
<feColorMatrix in="SourceAlpha" type="matrix" values="0 0 0 0 0 0 0 0 0 0 0 0 0 0 0 0 0 0 127 0" result="hardAlpha"/>
<feOffset/>
<feGaussianBlur stdDeviation="2"/>
<feComposite in2="hardAlpha" operator="arithmetic" k2="-1" k3="1"/>
<feColorMatrix type="matrix" values="0 0 0 0 1 0 0 0 0 1 0 0 0 0 1 0 0 0 0.63 0"/>
<feBlend mode="normal" in2="shape" result="effect2_innerShadow_390_219"/>
</filter>
<filter id="filter1_d_390_219" x="8.97559" y="15.738" width="23.5059" height="23.335" filterUnits="userSpaceOnUse" color-interpolation-filters="sRGB">
<feFlood flood-opacity="0" result="BackgroundImageFix"/>
<feColorMatrix in="SourceAlpha" type="matrix" values="0 0 0 0 0 0 0 0 0 0 0 0 0 0 0 0 0 0 127 0" result="hardAlpha"/>
<feOffset dy="6"/>
<feGaussianBlur stdDeviation="3"/>
<feComposite in2="hardAlpha" operator="out"/>
<feColorMatrix type="matrix" values="0 0 0 0 0.635294 0 0 0 0 0.294118 0 0 0 0 0.894118 0 0 0 0.27 0"/>
<feBlend mode="normal" in2="BackgroundImageFix" result="effect1_dropShadow_390_219"/>
<feBlend mode="normal" in="SourceGraphic" in2="effect1_dropShadow_390_219" result="shape"/>
</filter>
<linearGradient id="paint0_linear_390_219" x1="12.9828" y1="26.8324" x2="21.5626" y2="5.23445" gradientUnits="userSpaceOnUse">
<stop stop-color="#DE0430"/>
<stop offset="1" stop-color="#FB3059"/>
</linearGradient>
<linearGradient id="paint1_linear_390_219" x1="20.8092" y1="1" x2="20.8092" y2="42.9464" gradientUnits="userSpaceOnUse">
<stop stop-color="#DE0430"/>
<stop offset="1" stop-color="#FA8099"/>
</linearGradient>
<linearGradient id="paint2_linear_390_219" x1="8.56024" y1="8.49313" x2="30.1678" y2="46.3674" gradientUnits="userSpaceOnUse">
<stop offset="0.331091" stop-color="white" stop-opacity="0.26"/>
<stop offset="1" stop-color="#AB4BE4" stop-opacity="0.16"/>
</linearGradient>
<linearGradient id="paint3_linear_390_219" x1="14.679" y1="23.9403" x2="26.9184" y2="23.8773" gradientUnits="userSpaceOnUse">
<stop stop-color="#FFE1E1"/>
<stop offset="1" stop-color="#FEFCFF"/>
</linearGradient>
</defs>
</svg>
