<svg width="50" height="43" viewBox="0 0 50 43" fill="none" xmlns="http://www.w3.org/2000/svg">
<g clip-path="url(#clip0_397_181)">
<path d="M13.1504 12.9236C13.1504 8.38042 16.8736 4.69748 21.4664 4.69748H41.6838C46.2766 4.69748 49.9998 8.38042 49.9998 12.9236V32.9223C49.9998 37.4655 46.2766 41.1484 41.6838 41.1484H21.4664C16.8736 41.1484 13.1504 37.4654 13.1504 32.9223V12.9236Z" fill="url(#paint0_linear_397_181)"/>
<g filter="url(#filter0_bi_397_181)">
<path d="M0 8.22609C0 3.68294 3.72321 0 8.31601 0H35.1541C39.7469 0 43.4701 3.68294 43.4701 8.22609V34.7739C43.4701 39.3171 39.7469 43 35.1541 43H8.31601C3.72321 43 0 39.3171 0 34.7739V8.22609Z" fill="url(#paint1_linear_397_181)"/>
<path d="M8.31601 0.5H35.1541C39.4759 0.5 42.9701 3.9642 42.9701 8.22609V34.7739C42.9701 39.0358 39.4759 42.5 35.1541 42.5H8.31601C3.99421 42.5 0.5 39.0358 0.5 34.7739V8.22609C0.5 3.9642 3.99421 0.5 8.31601 0.5Z" stroke="url(#paint2_linear_397_181)"/>
</g>
<path d="M1.1209 38.9012C3.01991 34.6592 8.13624 27.8081 21.9206 21.6838C35.6517 15.583 40.6359 8.61704 42.4435 4.2636C41.0285 1.72203 38.2946 0 35.1541 0H8.31601C3.72597 0 0.00447484 3.67852 2.34745e-06 8.21789L0 34.7792C0.000957248 36.2814 0.408993 37.6895 1.1209 38.9012Z" fill="white" fill-opacity="0.09"/>
<g filter="url(#filter1_d_397_181)">
<path d="M29.2213 32.5698C30.3415 32.5698 31.2497 31.6715 31.2497 30.5634L31.2497 12.5332C31.2497 11.425 30.3415 10.5267 29.2213 10.5267C28.101 10.5267 27.1929 11.425 27.1929 12.5332L27.1929 30.5634C27.1929 31.6715 28.101 32.5698 29.2213 32.5698Z" fill="url(#paint3_linear_397_181)"/>
<path d="M21.7838 32.5699C22.904 32.5699 23.8122 31.6715 23.8122 30.5634V19.2298C23.8122 18.1217 22.904 17.2234 21.7838 17.2234C20.6635 17.2234 19.7554 18.1217 19.7554 19.2298L19.7554 30.5634C19.7554 31.6715 20.6635 32.5699 21.7838 32.5699Z" fill="url(#paint4_linear_397_181)"/>
<path d="M16.3747 30.5634C16.3747 31.6715 15.4665 32.5699 14.3463 32.5699C13.226 32.5699 12.3179 31.6715 12.3179 30.5634L12.3179 25.1742C12.3179 24.066 13.226 23.1677 14.3463 23.1677C15.4665 23.1677 16.3747 24.066 16.3747 25.1742L16.3747 30.5634Z" fill="url(#paint5_linear_397_181)"/>
</g>
</g>
<defs>
<filter id="filter0_bi_397_181" x="-17" y="-17" width="77.4702" height="77" filterUnits="userSpaceOnUse" color-interpolation-filters="sRGB">
<feFlood flood-opacity="0" result="BackgroundImageFix"/>
<feGaussianBlur in="BackgroundImage" stdDeviation="8.5"/>
<feComposite in2="SourceAlpha" operator="in" result="effect1_backgroundBlur_397_181"/>
<feBlend mode="normal" in="SourceGraphic" in2="effect1_backgroundBlur_397_181" result="shape"/>
<feColorMatrix in="SourceAlpha" type="matrix" values="0 0 0 0 0 0 0 0 0 0 0 0 0 0 0 0 0 0 127 0" result="hardAlpha"/>
<feOffset/>
<feGaussianBlur stdDeviation="2"/>
<feComposite in2="hardAlpha" operator="arithmetic" k2="-1" k3="1"/>
<feColorMatrix type="matrix" values="0 0 0 0 1 0 0 0 0 1 0 0 0 0 1 0 0 0 0.63 0"/>
<feBlend mode="normal" in2="shape" result="effect2_innerShadow_397_181"/>
</filter>
<filter id="filter1_d_397_181" x="6.31787" y="10.5267" width="30.9316" height="34.0431" filterUnits="userSpaceOnUse" color-interpolation-filters="sRGB">
<feFlood flood-opacity="0" result="BackgroundImageFix"/>
<feColorMatrix in="SourceAlpha" type="matrix" values="0 0 0 0 0 0 0 0 0 0 0 0 0 0 0 0 0 0 127 0" result="hardAlpha"/>
<feOffset dy="6"/>
<feGaussianBlur stdDeviation="3"/>
<feComposite in2="hardAlpha" operator="out"/>
<feColorMatrix type="matrix" values="0 0 0 0 0.635294 0 0 0 0 0.294118 0 0 0 0 0.894118 0 0 0 0.27 0"/>
<feBlend mode="normal" in2="BackgroundImageFix" result="effect1_dropShadow_397_181"/>
<feBlend mode="normal" in="SourceGraphic" in2="effect1_dropShadow_397_181" result="shape"/>
</filter>
<linearGradient id="paint0_linear_397_181" x1="6.29926" y1="23.6681" x2="16.3389" y2="-1.73446" gradientUnits="userSpaceOnUse">
<stop stop-color="#DE0430"/>
<stop offset="1" stop-color="#FB3059"/>
</linearGradient>
<linearGradient id="paint1_linear_397_181" x1="21.735" y1="-4.41797e-07" x2="21.735" y2="43.9925" gradientUnits="userSpaceOnUse">
<stop stop-color="#DE0430"/>
<stop offset="1" stop-color="#FA8099"/>
</linearGradient>
<linearGradient id="paint2_linear_397_181" x1="8.94108" y1="7.85865" x2="31.6499" y2="47.5003" gradientUnits="userSpaceOnUse">
<stop offset="0.331091" stop-color="white" stop-opacity="0.26"/>
<stop offset="1" stop-color="#AB4BE4" stop-opacity="0.16"/>
</linearGradient>
<linearGradient id="paint3_linear_397_181" x1="11.8298" y1="26.4777" x2="31.9685" y2="26.3899" gradientUnits="userSpaceOnUse">
<stop stop-color="#FFE1E1"/>
<stop offset="1" stop-color="#FEFCFF"/>
</linearGradient>
<linearGradient id="paint4_linear_397_181" x1="11.8298" y1="26.4777" x2="31.9685" y2="26.3899" gradientUnits="userSpaceOnUse">
<stop stop-color="#FFE1E1"/>
<stop offset="1" stop-color="#FEFCFF"/>
</linearGradient>
<linearGradient id="paint5_linear_397_181" x1="11.8298" y1="26.4777" x2="31.9685" y2="26.3899" gradientUnits="userSpaceOnUse">
<stop stop-color="#FFE1E1"/>
<stop offset="1" stop-color="#FEFCFF"/>
</linearGradient>
<clipPath id="clip0_397_181">
<rect width="50" height="43" fill="white"/>
</clipPath>
</defs>
</svg>
