<svg width="811" height="511" viewBox="0 0 811 511" fill="none" xmlns="http://www.w3.org/2000/svg">
<path d="M810.5 338.059C810.5 473.322 531.34 511 327.53 511C123.72 511 0 425.263 0 290C0 154.737 87.6904 1.5 291.5 1.5C397.706 1.5 623.171 44.3405 690.5 92C752.376 135.8 810.5 273.281 810.5 338.059Z" fill="#F5F7FA"/>
<circle opacity="0.4" cx="43" cy="130.5" r="8" stroke="#DE0430" stroke-width="3"/>
<circle opacity="0.4" cx="478.5" cy="241" r="4.5" stroke="#DE0430" stroke-width="3"/>
<circle opacity="0.4" cx="128.5" cy="111" r="5" stroke="#DE0430" stroke-width="2"/>
<circle opacity="0.4" cx="545.5" cy="187" r="3" fill="#DE0430"/>
<circle opacity="0.4" cx="110.5" cy="226" r="4" fill="#DE0430"/>
<circle cx="341.5" cy="4" r="4" fill="#C2CDDA"/>
<circle cx="381.5" cy="4" r="4" fill="#C2CDDA"/>
<circle cx="421.5" cy="4" r="4" fill="#C2CDDA"/>
<circle cx="461.5" cy="4" r="4" fill="#C2CDDA"/>
<circle cx="501.5" cy="4" r="4" fill="#C2CDDA"/>
<circle cx="341.5" cy="44" r="4" fill="#C2CDDA"/>
<circle cx="381.5" cy="44" r="4" fill="#C2CDDA"/>
<circle cx="421.5" cy="44" r="4" fill="#C2CDDA"/>
<circle cx="461.5" cy="44" r="4" fill="#C2CDDA"/>
<circle cx="501.5" cy="44" r="4" fill="#C2CDDA"/>
<circle cx="341.5" cy="84" r="4" fill="#C2CDDA"/>
<circle cx="381.5" cy="84" r="4" fill="#C2CDDA"/>
<circle cx="421.5" cy="84" r="4" fill="#C2CDDA"/>
<circle cx="461.5" cy="84" r="4" fill="#C2CDDA"/>
<circle cx="501.5" cy="84" r="4" fill="#C2CDDA"/>
<circle cx="341.5" cy="124" r="4" fill="#C2CDDA"/>
<circle cx="381.5" cy="124" r="4" fill="#C2CDDA"/>
<circle cx="421.5" cy="124" r="4" fill="#C2CDDA"/>
<circle cx="461.5" cy="124" r="4" fill="#C2CDDA"/>
<circle cx="501.5" cy="124" r="4" fill="#C2CDDA"/>
<circle cx="101.5" cy="304" r="4" fill="#C2CDDA"/>
<circle cx="141.5" cy="304" r="4" fill="#C2CDDA"/>
<circle cx="181.5" cy="304" r="4" fill="#C2CDDA"/>
<circle cx="221.5" cy="304" r="4" fill="#C2CDDA"/>
<circle cx="261.5" cy="304" r="4" fill="#C2CDDA"/>
<circle cx="301.5" cy="304" r="4" fill="#C2CDDA"/>
<circle cx="341.5" cy="304" r="4" fill="#C2CDDA"/>
<circle cx="101.5" cy="344" r="4" fill="#C2CDDA"/>
<circle cx="141.5" cy="344" r="4" fill="#C2CDDA"/>
<circle cx="181.5" cy="344" r="4" fill="#C2CDDA"/>
<circle cx="221.5" cy="344" r="4" fill="#C2CDDA"/>
<circle cx="261.5" cy="344" r="4" fill="#C2CDDA"/>
<circle cx="301.5" cy="344" r="4" fill="#C2CDDA"/>
<circle cx="341.5" cy="344" r="4" fill="#C2CDDA"/>
<circle cx="101.5" cy="384" r="4" fill="#C2CDDA"/>
<circle cx="141.5" cy="384" r="4" fill="#C2CDDA"/>
<circle cx="181.5" cy="384" r="4" fill="#C2CDDA"/>
<circle cx="221.5" cy="384" r="4" fill="#C2CDDA"/>
<circle cx="261.5" cy="384" r="4" fill="#C2CDDA"/>
<circle cx="301.5" cy="384" r="4" fill="#C2CDDA"/>
<circle cx="341.5" cy="384" r="4" fill="#C2CDDA"/>
<circle cx="101.5" cy="424" r="4" fill="#C2CDDA"/>
<circle cx="141.5" cy="424" r="4" fill="#C2CDDA"/>
<circle cx="181.5" cy="424" r="4" fill="#C2CDDA"/>
<circle cx="221.5" cy="424" r="4" fill="#C2CDDA"/>
<circle cx="261.5" cy="424" r="4" fill="#C2CDDA"/>
<circle cx="301.5" cy="424" r="4" fill="#C2CDDA"/>
<circle cx="341.5" cy="424" r="4" fill="#C2CDDA"/>
<circle cx="101.5" cy="464" r="4" fill="#C2CDDA"/>
<circle cx="141.5" cy="464" r="4" fill="#C2CDDA"/>
<circle cx="181.5" cy="464" r="4" fill="#C2CDDA"/>
<circle cx="221.5" cy="464" r="4" fill="#C2CDDA"/>
<circle cx="261.5" cy="464" r="4" fill="#C2CDDA"/>
<circle cx="301.5" cy="464" r="4" fill="#C2CDDA"/>
<circle cx="341.5" cy="464" r="4" fill="#C2CDDA"/>
</svg>
