<svg width="50" height="43" viewBox="0 0 50 43" fill="none" xmlns="http://www.w3.org/2000/svg">
<g clip-path="url(#clip0_390_228)">
<path d="M28.0863 10.9714C25.9243 10.9714 21.4475 12.8444 18.3214 14.2864C16.1949 15.2673 14.7841 17.3611 14.7589 19.7486C14.7182 23.6193 15.0589 29.546 17.2044 33.2511C18.8708 36.129 22.328 38.8789 24.9008 40.6603C26.8371 42.0009 29.3356 42.0009 31.2718 40.6603C33.8447 38.8789 37.3018 36.129 38.9683 33.2511C41.1138 29.546 41.4545 23.6193 41.4137 19.7486C41.3886 17.3611 39.9777 15.2673 37.8513 14.2864C34.7251 12.8444 30.2484 10.9714 28.0863 10.9714Z" fill="url(#paint0_linear_390_228)"/>
<g filter="url(#filter0_bi_390_228)">
<path d="M18.4892 0C14.8753 0 6.49069 3.86025 2.64957 5.72586C1.40441 6.33062 0.57924 7.55556 0.509099 8.96459C0.280257 13.5617 0.203982 24.1043 3.73648 30.2048C6.24668 34.5398 11.754 38.6606 15.2837 41.0042C17.2449 42.3063 19.7336 42.3063 21.6947 41.0042C25.2245 38.6606 30.7318 34.5398 33.242 30.2048C36.7745 24.1043 36.6982 13.5616 36.4694 8.96458C36.3992 7.55555 35.574 6.33062 34.3289 5.72586C30.4878 3.86026 22.1032 0 18.4892 0Z" fill="url(#paint1_linear_390_228)"/>
<path d="M2.86802 6.17561C4.78379 5.24514 7.82741 3.81983 10.8386 2.62825C12.3444 2.03236 13.8351 1.4977 15.1685 1.11269C16.5112 0.724989 17.658 0.5 18.4892 0.5C19.3205 0.5 20.4673 0.72499 21.81 1.11269C23.1433 1.4977 24.6341 2.03236 26.1399 2.62825C29.1511 3.81984 32.1947 5.24514 34.1104 6.17562C35.193 6.7014 35.909 7.76443 35.97 8.98944C36.0837 11.2746 36.1592 15.0325 35.7686 18.9716C35.3769 22.923 34.5213 26.9977 32.8093 29.9542C31.5939 32.0531 29.6361 34.125 27.5215 35.975C25.4119 37.8206 23.172 39.4232 21.4182 40.5876C19.6246 41.7784 17.3539 41.7784 15.5603 40.5876C13.8065 39.4232 11.5666 37.8206 9.457 35.975C7.3424 34.125 5.38454 32.0531 4.16918 29.9542C2.45719 26.9977 1.60162 22.923 1.20985 18.9716C0.819313 15.0325 0.894728 11.2746 1.00848 8.98945C1.06946 7.76443 1.78548 6.7014 2.86802 6.17561Z" stroke="url(#paint2_linear_390_228)"/>
</g>
<path d="M36.3349 8.12868C32.8848 12.01 27.4112 16.3288 18.7282 20.3192C11.9077 23.4537 7.03449 26.757 3.55254 29.8772C0.206726 23.7335 0.284302 13.4804 0.509099 8.96459C0.57924 7.55556 1.40441 6.33062 2.64957 5.72586C6.4907 3.86025 14.8753 0 18.4892 0C22.1032 0 30.4878 3.86026 34.3289 5.72586C35.3199 6.20721 36.0449 7.08144 36.3349 8.12868Z" fill="white" fill-opacity="0.09"/>
<g filter="url(#filter1_d_390_228)">
<path fill-rule="evenodd" clip-rule="evenodd" d="M25.0771 13.2171C25.9039 13.7359 26.1633 14.8426 25.6566 15.689L19.5001 25.9718C18.9984 26.8098 17.9322 27.0799 17.1066 26.5781L11.9222 23.4269C11.0884 22.9201 10.8138 21.8172 11.3089 20.9636C11.8039 20.11 12.8813 19.8289 13.7151 20.3357L17.4108 22.582L22.6624 13.8104C23.1692 12.964 24.2503 12.6983 25.0771 13.2171Z" fill="url(#paint3_linear_390_228)"/>
</g>
</g>
<defs>
<filter id="filter0_bi_390_228" x="-16.583" y="-17" width="70.1445" height="75.9807" filterUnits="userSpaceOnUse" color-interpolation-filters="sRGB">
<feFlood flood-opacity="0" result="BackgroundImageFix"/>
<feGaussianBlur in="BackgroundImage" stdDeviation="8.5"/>
<feComposite in2="SourceAlpha" operator="in" result="effect1_backgroundBlur_390_228"/>
<feBlend mode="normal" in="SourceGraphic" in2="effect1_backgroundBlur_390_228" result="shape"/>
<feColorMatrix in="SourceAlpha" type="matrix" values="0 0 0 0 0 0 0 0 0 0 0 0 0 0 0 0 0 0 127 0" result="hardAlpha"/>
<feOffset/>
<feGaussianBlur stdDeviation="2"/>
<feComposite in2="hardAlpha" operator="arithmetic" k2="-1" k3="1"/>
<feColorMatrix type="matrix" values="0 0 0 0 1 0 0 0 0 1 0 0 0 0 1 0 0 0 0.63 0"/>
<feBlend mode="normal" in2="shape" result="effect2_innerShadow_390_228"/>
</filter>
<filter id="filter1_d_390_228" x="5.0625" y="12.9519" width="26.853" height="25.8784" filterUnits="userSpaceOnUse" color-interpolation-filters="sRGB">
<feFlood flood-opacity="0" result="BackgroundImageFix"/>
<feColorMatrix in="SourceAlpha" type="matrix" values="0 0 0 0 0 0 0 0 0 0 0 0 0 0 0 0 0 0 127 0" result="hardAlpha"/>
<feOffset dy="6"/>
<feGaussianBlur stdDeviation="3"/>
<feComposite in2="hardAlpha" operator="out"/>
<feColorMatrix type="matrix" values="0 0 0 0 0.635294 0 0 0 0 0.294118 0 0 0 0 0.894118 0 0 0 0.27 0"/>
<feBlend mode="normal" in2="BackgroundImageFix" result="effect1_dropShadow_390_228"/>
<feBlend mode="normal" in="SourceGraphic" in2="effect1_dropShadow_390_228" result="shape"/>
</filter>
<linearGradient id="paint0_linear_390_228" x1="9.79899" y1="26.946" x2="19.1887" y2="6.53316" gradientUnits="userSpaceOnUse">
<stop stop-color="#DE0430"/>
<stop offset="1" stop-color="#FB3059"/>
</linearGradient>
<linearGradient id="paint1_linear_390_228" x1="18.4892" y1="-4.31324e-07" x2="18.4892" y2="42.9497" gradientUnits="userSpaceOnUse">
<stop stop-color="#DE0430"/>
<stop offset="1" stop-color="#FA8099"/>
</linearGradient>
<linearGradient id="paint2_linear_390_228" x1="7.85132" y1="7.67237" x2="31.656" y2="43.0632" gradientUnits="userSpaceOnUse">
<stop offset="0.331091" stop-color="white" stop-opacity="0.26"/>
<stop offset="1" stop-color="#AB4BE4" stop-opacity="0.16"/>
</linearGradient>
<linearGradient id="paint3_linear_390_228" x1="10.6796" y1="22.9946" x2="26.4795" y2="22.9088" gradientUnits="userSpaceOnUse">
<stop stop-color="#FFE1E1"/>
<stop offset="1" stop-color="#FEFCFF"/>
</linearGradient>
<clipPath id="clip0_390_228">
<rect width="50" height="43" fill="white" transform="translate(0.708496)"/>
</clipPath>
</defs>
</svg>
