<svg width="28" height="29" viewBox="0 0 28 29" fill="none" xmlns="http://www.w3.org/2000/svg">
<ellipse cx="8.16634" cy="19.9874" rx="2.33333" ry="2.33333" stroke="#DE0430" stroke-width="2" stroke-linecap="round" stroke-linejoin="round"/>
<circle cx="19.8333" cy="19.9874" r="2.33333" stroke="#DE0430" stroke-width="2" stroke-linecap="round" stroke-linejoin="round"/>
<path d="M5.83301 20.9874C6.38529 20.9874 6.83301 20.5397 6.83301 19.9874C6.83301 19.4351 6.38529 18.9874 5.83301 18.9874V20.9874ZM3.49967 19.9874H2.49967C2.49967 20.5397 2.94739 20.9874 3.49967 20.9874V19.9874ZM4.49967 15.3207C4.49967 14.7684 4.05196 14.3207 3.49967 14.3207C2.94739 14.3207 2.49967 14.7684 2.49967 15.3207H4.49967ZM2.33301 4.98737C1.78072 4.98737 1.33301 5.43508 1.33301 5.98737C1.33301 6.53965 1.78072 6.98737 2.33301 6.98737V4.98737ZM15.1663 5.98737H16.1663C16.1663 5.43508 15.7186 4.98737 15.1663 4.98737V5.98737ZM14.1663 19.9874C14.1663 20.5396 14.6141 20.9874 15.1663 20.9874C15.7186 20.9874 16.1663 20.5396 16.1663 19.9874H14.1663ZM10.4997 18.9874C9.94739 18.9874 9.49967 19.4351 9.49967 19.9874C9.49967 20.5397 9.94739 20.9874 10.4997 20.9874V18.9874ZM17.4997 20.9874C18.052 20.9874 18.4997 20.5397 18.4997 19.9874C18.4997 19.4351 18.052 18.9874 17.4997 18.9874V20.9874ZM22.1663 18.9874C21.6141 18.9874 21.1663 19.4351 21.1663 19.9874C21.1663 20.5397 21.6141 20.9874 22.1663 20.9874V18.9874ZM24.4997 19.9874V20.9874C25.052 20.9874 25.4997 20.5397 25.4997 19.9874H24.4997ZM24.4997 12.9874H25.4997C25.4997 12.4351 25.052 11.9874 24.4997 11.9874V12.9874ZM15.1663 11.9874C14.6141 11.9874 14.1663 12.4351 14.1663 12.9874C14.1663 13.5396 14.6141 13.9874 15.1663 13.9874V11.9874ZM15.1663 6.15403C14.6141 6.15403 14.1663 6.60175 14.1663 7.15403C14.1663 7.70632 14.6141 8.15403 15.1663 8.15403V6.15403ZM20.9997 7.15403L21.8572 6.63954C21.6764 6.33833 21.3509 6.15403 20.9997 6.15403V7.15403ZM23.6422 13.5019C23.9263 13.9754 24.5406 14.129 25.0142 13.8449C25.4878 13.5607 25.6413 12.9464 25.3572 12.4729L23.6422 13.5019ZM5.83301 18.9874H3.49967V20.9874H5.83301V18.9874ZM4.49967 19.9874V15.3207H2.49967V19.9874H4.49967ZM2.33301 6.98737H15.1663V4.98737H2.33301V6.98737ZM14.1663 5.98737V19.9874H16.1663V5.98737H14.1663ZM10.4997 20.9874H17.4997V18.9874H10.4997V20.9874ZM22.1663 20.9874H24.4997V18.9874H22.1663V20.9874ZM25.4997 19.9874V12.9874H23.4997V19.9874H25.4997ZM24.4997 11.9874H15.1663V13.9874H24.4997V11.9874ZM15.1663 8.15403H20.9997V6.15403H15.1663V8.15403ZM20.1422 7.66853L23.6422 13.5019L25.3572 12.4729L21.8572 6.63954L20.1422 7.66853Z" fill="#DE0430"/>
<path d="M3.5 10.6541H8.16667" stroke="#DE0430" stroke-width="2" stroke-linecap="round" stroke-linejoin="round"/>
</svg>
