<svg width="50" height="43" viewBox="0 0 50 43" fill="none" xmlns="http://www.w3.org/2000/svg">
<circle cx="32.6246" cy="25.2711" r="16.9762" fill="url(#paint0_linear_390_237)"/>
<path d="M20.3252 4.48932C20.3252 3.3686 21.2337 2.46008 22.3544 2.46008V2.46008C23.4751 2.46008 24.3837 3.3686 24.3837 4.48932V22.076C24.3837 23.1968 23.4751 24.1053 22.3544 24.1053V24.1053C21.2337 24.1053 20.3252 23.1968 20.3252 22.076V4.48932Z" fill="#FFEEEF"/>
<path d="M21.9306 23.193C20.8099 23.193 19.9014 22.2845 19.9014 21.1638V21.1638C19.9014 20.043 20.8099 19.1345 21.9306 19.1345L35.4589 19.1345C36.5796 19.1345 37.4881 20.043 37.4881 21.1638V21.1638C37.4881 22.2845 36.5796 23.193 35.4589 23.193L21.9306 23.193Z" fill="#FFEEEF"/>
<path fill-rule="evenodd" clip-rule="evenodd" d="M20.6888 20.8229C20.6888 21.5897 21.3103 22.2111 22.077 22.2111H31.7944C32.5611 22.2111 33.1826 21.5897 33.1826 20.8229C33.1826 20.0562 32.5611 19.4348 31.7944 19.4348H23.4652V7.78272C23.4652 7.01597 22.8438 6.39452 22.077 6.39452C21.3103 6.39452 20.6888 7.01597 20.6888 7.78272V20.8229ZM22.3545 42.247C10.7016 42.247 1.25391 32.7896 1.25391 21.1235C1.25391 9.45737 10.7007 0 22.3545 0C34.0083 0 43.4551 9.45737 43.4551 21.1235C43.4551 32.7896 34.0083 42.247 22.3545 42.247V42.247Z" fill="url(#paint1_linear_390_237)"/>
<path fill-rule="evenodd" clip-rule="evenodd" d="M22.077 23.2111C20.758 23.2111 19.6888 22.142 19.6888 20.8229V7.78272C19.6888 6.46369 20.758 5.39452 22.077 5.39452C23.3961 5.39452 24.4652 6.46369 24.4652 7.78272V18.4348H31.7944C33.1134 18.4348 34.1826 19.5039 34.1826 20.8229C34.1826 22.142 33.1134 23.2111 31.7944 23.2111H22.077ZM2.25391 21.1235C2.25391 32.2384 11.2549 41.247 22.3545 41.247C33.455 41.247 42.4551 32.2384 42.4551 21.1235C42.4551 10.0086 33.455 1 22.3545 1C11.254 1 2.25391 10.0086 2.25391 21.1235ZM22.077 22.2111C21.3103 22.2111 20.6888 21.5897 20.6888 20.8229V7.78272C20.6888 7.01597 21.3103 6.39452 22.077 6.39452C22.8438 6.39452 23.4652 7.01597 23.4652 7.78272V19.4348H31.7944C32.5611 19.4348 33.1826 20.0562 33.1826 20.8229C33.1826 21.5897 32.5611 22.2111 31.7944 22.2111H22.077ZM1.25391 21.1235C1.25391 32.7896 10.7016 42.247 22.3545 42.247C34.0083 42.247 43.4551 32.7896 43.4551 21.1235C43.4551 9.45737 34.0083 0 22.3545 0C10.7007 0 1.25391 9.45737 1.25391 21.1235Z" fill="url(#paint2_linear_390_237)"/>
<defs>
<linearGradient id="paint0_linear_390_237" x1="9.33593" y1="25.9651" x2="18.7616" y2="2.37393" gradientUnits="userSpaceOnUse">
<stop stop-color="#DE0430"/>
<stop offset="1" stop-color="#FB3059"/>
</linearGradient>
<linearGradient id="paint1_linear_390_237" x1="22.3545" y1="-4.3406e-07" x2="22.3545" y2="43.2222" gradientUnits="userSpaceOnUse">
<stop stop-color="#DE0430"/>
<stop offset="1" stop-color="#FA8099"/>
</linearGradient>
<linearGradient id="paint2_linear_390_237" x1="9.93399" y1="7.72103" x2="32.3793" y2="46.437" gradientUnits="userSpaceOnUse">
<stop offset="0.331091" stop-color="white" stop-opacity="0.26"/>
<stop offset="1" stop-color="#AB4BE4" stop-opacity="0.16"/>
</linearGradient>
</defs>
</svg>
