<svg width="195" height="44" viewBox="0 0 195 44" fill="none" xmlns="http://www.w3.org/2000/svg">
<path fill-rule="evenodd" clip-rule="evenodd" d="M19.9129 0.0341201C16.4946 0.288288 12.4018 1.78353 9.52658 3.82864C8.19128 4.77844 6.42691 6.31316 5.90365 6.98005V6.98005C5.69383 7.2475 5.57984 7.57763 5.57994 7.91756L5.58105 11.5431C5.58181 13.8258 5.61369 15.7432 5.65199 15.804C5.75533 15.9684 5.82636 15.856 6.58699 14.3235C8.35414 10.763 10.9211 8.19094 14.4164 6.47837C16.4522 5.48098 18.041 5.01717 20.082 4.82458C24.0499 4.45015 27.789 5.29829 30.9481 7.28932C34.3256 9.41793 36.855 12.6581 38.1745 16.5463C39.1753 19.4951 39.3124 23.0128 38.5481 26.1317C37.577 30.0944 35.4057 33.3563 32.0051 35.9611C30.1856 37.3549 27.029 38.707 24.9433 38.9861C24.706 39.0178 24.4287 39.1116 24.3272 39.1944V39.1944C24.2235 39.2792 24.2032 39.43 24.281 39.5392L24.4131 39.7247C24.8532 40.3429 25.0288 40.8969 25.0288 41.6669C25.0288 42.2425 24.9888 42.4356 24.7651 42.9404C24.4504 43.65 24.4784 43.7968 24.9281 43.7968C25.5775 43.7968 27.4642 43.3518 28.9571 42.8465C33.6508 41.258 37.7353 37.9887 40.4497 33.6472C40.9947 32.7756 41.8542 31.0745 42.2381 30.1076C42.5858 29.2323 42.6208 29.212 43.7822 29.212C44.6672 29.212 44.7924 29.1923 45.1138 29.0023C45.5222 28.7609 45.6634 28.5677 45.8595 27.9815C45.9849 27.6064 46 26.955 46 21.9389C46 16.9815 45.9836 16.2596 45.8613 15.8345C45.5813 14.8607 44.8655 14.4567 43.4203 14.4567C42.5159 14.4567 42.4425 14.4064 42.1148 13.5611C41.8376 12.8466 40.8277 10.8864 40.362 10.1595C38.2346 6.8383 35.2489 4.10259 31.8482 2.35839C29.5404 1.17472 27.5306 0.536228 24.8174 0.124784C24.1083 0.0172317 20.9302 -0.0414479 19.9129 0.0341201ZM43.6821 16.8488C43.7792 16.8855 43.96 17.0368 44.0838 17.1852C44.623 17.8316 44.0903 18.8918 43.2262 18.8918C42.9299 18.8918 42.45 18.5817 42.2982 18.2922C42.032 17.7845 42.3322 17.0544 42.9135 16.7954C43.1548 16.6878 43.2775 16.6964 43.6821 16.8488ZM43.713 25.0408C44.2943 25.3704 44.4706 25.9852 44.1389 26.5266C43.9869 26.7748 43.8337 26.873 43.3638 27.024C43.2858 27.0491 43.0928 27.0335 42.9347 26.9895C42.0478 26.7424 41.9507 25.462 42.7853 25.0187C43.1636 24.8178 43.3263 24.8217 43.713 25.0408ZM0.056921 28.926C0.0248724 28.9582 -0.000663352 31.732 1.31368e-05 35.09C0.00136611 41.8322 0.0082963 41.9335 0.51913 42.6509C0.843929 43.1072 1.25456 43.3891 1.8864 43.5901C2.31022 43.7248 2.42176 43.7299 2.81133 43.6327C3.65804 43.4214 4.24549 42.9509 4.57629 42.2189C4.71404 41.9141 4.73062 41.6135 4.73231 39.3957L4.73388 37.297C4.73406 37.0483 4.65245 36.8065 4.50162 36.6087V36.6087C3.45433 35.2356 3.21131 34.9016 2.90486 34.4148C1.98297 32.9503 1.54604 32.0839 0.843086 30.3259C0.312295 28.9986 0.19391 28.7878 0.056921 28.926Z" fill="#44576E"/>
<path fill-rule="evenodd" clip-rule="evenodd" d="M15.0674 20.9887C13.8951 21.127 12.0193 21.7762 10.7196 22.4936C8.92975 23.4815 6.75925 25.261 6.76172 25.7386C6.76608 26.5856 7.96659 29.3238 9.00071 30.8454C11.2351 34.1331 14.4707 36.3534 18.4513 37.3302C19.2436 37.5247 19.5047 37.5455 21.5798 37.5791C23.7577 37.6145 23.8831 37.6079 24.8777 37.404C26.249 37.123 27.2564 36.7841 28.4542 36.2008C30.738 35.0888 32.437 33.781 33.7983 32.0873C36.1144 29.2057 37.2581 26.2434 37.3652 22.8483C37.4249 20.9576 37.3299 20.8479 36.232 21.5398C35.399 22.0648 34.436 22.5127 33.4182 22.8485C32.1243 23.2754 31.5499 23.3407 29.5473 23.2885C27.5207 23.2357 27.4969 23.231 23.4321 22.1077C22.0285 21.7198 20.5167 21.3263 20.0726 21.2332C18.6849 20.9425 16.404 20.831 15.0674 20.9887ZM32.0693 25.6448C32.1865 25.7853 32.2824 25.9554 32.2824 26.0227C32.2824 26.2503 32.049 26.6024 31.8319 26.7022C31.5049 26.8526 31.3825 26.8253 31.1217 26.5435C30.8047 26.201 30.7958 25.8026 31.0998 25.5613C31.4264 25.302 31.8111 25.335 32.0693 25.6448ZM27.8248 27.003C28.063 27.1273 28.2483 27.4426 28.2483 27.7235C28.2483 28.1357 27.7773 28.6293 27.3839 28.6293C27.1365 28.6293 26.7694 28.3776 26.6353 28.1159C26.5249 27.9005 26.5178 27.7993 26.5947 27.5402C26.765 26.9667 27.304 26.7312 27.8248 27.003ZM30.8662 30.1807C31.1148 30.3374 31.3761 30.7774 31.3765 31.04C31.3773 31.6019 30.7666 32.1665 30.244 32.0867C29.6571 31.9972 29.1858 31.3971 29.29 30.8718C29.3518 30.5595 29.8045 30.0693 30.0767 30.0198C30.3306 29.9736 30.6367 30.036 30.8662 30.1807Z" fill="#869BB5"/>
<path fill-rule="evenodd" clip-rule="evenodd" d="M1.43539 0.496576C0.860574 0.766674 0.461037 1.14262 0.211336 1.64833V1.64833C0.0723211 1.92989 0.000145276 2.23973 0.000424525 2.55373L0.00724465 10.2227C0.0112787 14.7033 0.0441276 19.9207 0.0804342 21.8171C0.154776 25.708 0.135676 25.5678 0.916228 27.9651C2.48425 32.7813 3.72765 34.9133 6.6358 37.7717C8.46052 39.5652 9.6998 40.4593 11.9077 41.5751C14.9667 43.1211 17.6785 43.8434 20.9189 43.9751C22.0969 44.023 22.1295 44.0197 22.6031 43.8009C23.2842 43.4862 23.5567 43.253 23.8257 42.7541C24.3093 41.8574 24.1577 40.7437 23.4522 40.01C23.0032 39.5431 22.5338 39.3506 21.628 39.2618C21.2111 39.2209 20.4441 39.1467 19.9234 39.0967C16.817 38.7989 13.5483 37.4335 11.032 35.3827C10.3581 34.8335 9.10243 33.5535 8.401 32.7007C6.97483 30.967 5.83467 28.658 5.23186 26.283C4.65384 24.0052 4.67911 24.5784 4.6349 12.7612C4.59769 2.80026 4.58526 2.06274 4.44991 1.74869C3.94145 0.569356 2.52903 -0.0173647 1.43539 0.496576Z" fill="#869BB5"/>
<path d="M58.2642 19V4.45455H64.0028C65.1013 4.45455 66.0388 4.65104 66.8153 5.04403C67.5966 5.43229 68.1908 5.9839 68.598 6.69886C69.0099 7.40909 69.2159 8.24479 69.2159 9.20597C69.2159 10.1719 69.0076 11.0028 68.5909 11.6989C68.1742 12.3902 67.5705 12.9205 66.7798 13.2898C65.9938 13.6591 65.0421 13.8438 63.9247 13.8438H60.0824V11.3722H63.4276C64.0147 11.3722 64.5024 11.2917 64.8906 11.1307C65.2789 10.9697 65.5677 10.7282 65.7571 10.4062C65.9512 10.0843 66.0483 9.68419 66.0483 9.20597C66.0483 8.72301 65.9512 8.31581 65.7571 7.98438C65.5677 7.65294 65.2765 7.40199 64.8835 7.23153C64.4953 7.05634 64.0052 6.96875 63.4134 6.96875H61.3395V19H58.2642ZM66.1193 12.3807L69.7344 19H66.3395L62.8026 12.3807H66.1193ZM71.3892 19V4.45455H77.2131C78.2831 4.45455 79.1757 4.61316 79.8906 4.9304C80.6056 5.24763 81.143 5.68797 81.5028 6.25142C81.8627 6.81013 82.0426 7.45407 82.0426 8.18324C82.0426 8.75142 81.929 9.25095 81.7017 9.68182C81.4744 10.108 81.1619 10.4583 80.7642 10.733C80.3712 11.0028 79.9214 11.1946 79.4148 11.3082V11.4503C79.9688 11.474 80.4872 11.6302 80.9702 11.919C81.4579 12.2079 81.8532 12.6127 82.1562 13.1335C82.4593 13.6496 82.6108 14.2652 82.6108 14.9801C82.6108 15.7519 82.419 16.4408 82.0355 17.0469C81.6567 17.6482 81.0956 18.1241 80.3523 18.4744C79.6089 18.8248 78.6927 19 77.6037 19H71.3892ZM74.4645 16.4858H76.9716C77.8286 16.4858 78.4536 16.3224 78.8466 15.9957C79.2396 15.6643 79.4361 15.224 79.4361 14.6747C79.4361 14.2723 79.339 13.9171 79.1449 13.6094C78.9508 13.3016 78.6738 13.0601 78.3139 12.8849C77.9588 12.7098 77.535 12.6222 77.0426 12.6222H74.4645V16.4858ZM74.4645 10.5412H76.7443C77.1657 10.5412 77.5398 10.4678 77.8665 10.321C78.1979 10.1695 78.4583 9.95644 78.6477 9.68182C78.8419 9.4072 78.9389 9.07812 78.9389 8.6946C78.9389 8.16903 78.7519 7.74527 78.3778 7.4233C78.0085 7.10133 77.483 6.94034 76.8011 6.94034H74.4645V10.5412ZM84.0579 6.99006V4.45455H96.0039V6.99006H91.5508V19H88.511V6.99006H84.0579ZM96.7816 19V8.09091H99.7148V9.99432H99.8285C100.027 9.31723 100.361 8.80587 100.83 8.46023C101.299 8.10985 101.838 7.93466 102.449 7.93466C102.601 7.93466 102.764 7.94413 102.939 7.96307C103.114 7.98201 103.268 8.00805 103.401 8.04119V10.7259C103.259 10.6832 103.062 10.6454 102.811 10.6122C102.56 10.5791 102.331 10.5625 102.123 10.5625C101.677 10.5625 101.28 10.6596 100.929 10.8537C100.584 11.0431 100.309 11.3082 100.105 11.6491C99.9066 11.9901 99.8072 12.383 99.8072 12.8281V19H96.7816ZM109.429 19.2131C108.307 19.2131 107.341 18.9858 106.531 18.5312C105.726 18.072 105.106 17.4233 104.67 16.5852C104.235 15.7424 104.017 14.7457 104.017 13.5952C104.017 12.473 104.235 11.4882 104.67 10.6406C105.106 9.79309 105.719 9.13258 106.51 8.65909C107.305 8.18561 108.238 7.94886 109.308 7.94886C110.028 7.94886 110.698 8.06487 111.318 8.29688C111.943 8.52415 112.488 8.86742 112.952 9.3267C113.42 9.78598 113.785 10.3636 114.045 11.0597C114.306 11.7509 114.436 12.5606 114.436 13.4886V14.3196H105.224V12.4446H111.588C111.588 12.009 111.493 11.6231 111.304 11.2869C111.115 10.9508 110.852 10.688 110.516 10.4986C110.184 10.3045 109.798 10.2074 109.358 10.2074C108.899 10.2074 108.491 10.3139 108.136 10.527C107.786 10.7353 107.511 11.017 107.312 11.3722C107.114 11.7225 107.012 12.1132 107.007 12.544V14.3267C107.007 14.8665 107.107 15.3329 107.305 15.7259C107.509 16.1188 107.795 16.4219 108.165 16.6349C108.534 16.848 108.972 16.9545 109.479 16.9545C109.815 16.9545 110.123 16.9072 110.402 16.8125C110.681 16.7178 110.92 16.5758 111.119 16.3864C111.318 16.197 111.47 15.965 111.574 15.6903L114.372 15.875C114.23 16.5473 113.939 17.1345 113.499 17.6364C113.063 18.1335 112.5 18.5218 111.808 18.8011C111.122 19.0758 110.329 19.2131 109.429 19.2131ZM116.411 19V8.09091H119.294V10.0156H119.422C119.649 9.37642 120.028 8.87216 120.558 8.50284C121.089 8.13352 121.723 7.94886 122.462 7.94886C123.21 7.94886 123.847 8.13589 124.372 8.50994C124.898 8.87926 125.248 9.38116 125.423 10.0156H125.537C125.759 9.39062 126.162 8.8911 126.744 8.51705C127.331 8.13826 128.025 7.94886 128.825 7.94886C129.843 7.94886 130.67 8.2732 131.304 8.92188C131.943 9.56581 132.263 10.4796 132.263 11.6634V19H129.244V12.2599C129.244 11.6539 129.083 11.1993 128.761 10.8963C128.439 10.5933 128.037 10.4418 127.554 10.4418C127.005 10.4418 126.576 10.617 126.268 10.9673C125.961 11.313 125.807 11.7699 125.807 12.3381V19H122.874V12.196C122.874 11.661 122.72 11.2348 122.412 10.9176C122.109 10.6004 121.709 10.4418 121.212 10.4418C120.875 10.4418 120.572 10.527 120.303 10.6974C120.037 10.8632 119.827 11.0975 119.67 11.4006C119.514 11.6989 119.436 12.0492 119.436 12.4517V19H116.411Z" fill="#1F222D"/>
<path d="M58.233 37V26.8182H61.6733C62.4721 26.8182 63.125 26.9624 63.6321 27.2507C64.1425 27.5357 64.5204 27.9219 64.7656 28.4091C65.0109 28.8963 65.1335 29.4399 65.1335 30.0398C65.1335 30.6397 65.0109 31.1849 64.7656 31.6754C64.5237 32.166 64.1491 32.5571 63.642 32.8487C63.1349 33.1371 62.4853 33.2812 61.6932 33.2812H59.2273V32.1875H61.6534C62.2003 32.1875 62.6394 32.093 62.9709 31.9041C63.3023 31.7152 63.5426 31.46 63.6918 31.1385C63.8442 30.8137 63.9205 30.4474 63.9205 30.0398C63.9205 29.6321 63.8442 29.2675 63.6918 28.946C63.5426 28.6245 63.3007 28.3726 62.9659 28.1903C62.6312 28.0047 62.187 27.9119 61.6335 27.9119H59.4659V37H58.233ZM70.0803 37.1591C69.3445 37.1591 68.7098 36.9967 68.1761 36.6719C67.6458 36.3438 67.2365 35.8864 66.9482 35.2997C66.6631 34.7098 66.5206 34.0237 66.5206 33.2415C66.5206 32.4593 66.6631 31.7699 66.9482 31.1733C67.2365 30.5734 67.6375 30.1061 68.1513 29.7713C68.6683 29.4332 69.2715 29.2642 69.9609 29.2642C70.3587 29.2642 70.7514 29.3305 71.1392 29.4631C71.527 29.5956 71.88 29.8111 72.1982 30.1094C72.5163 30.4044 72.7699 30.7955 72.9588 31.2827C73.1477 31.7699 73.2422 32.3698 73.2422 33.0824V33.5795H67.3558V32.5653H72.049C72.049 32.1345 71.9628 31.75 71.7905 31.4119C71.6214 31.0739 71.3795 30.8071 71.0646 30.6115C70.7531 30.416 70.3852 30.3182 69.9609 30.3182C69.4936 30.3182 69.0893 30.4342 68.7479 30.6662C68.4098 30.8949 68.1496 31.1932 67.9673 31.5611C67.785 31.929 67.6939 32.3234 67.6939 32.7443V33.4205C67.6939 33.9972 67.7933 34.486 67.9922 34.8871C68.1944 35.2848 68.4744 35.5881 68.8324 35.7969C69.1903 36.0024 69.6063 36.1051 70.0803 36.1051C70.3885 36.1051 70.6669 36.062 70.9155 35.9759C71.1674 35.8864 71.3845 35.7538 71.5668 35.5781C71.7491 35.3991 71.8899 35.1771 71.9893 34.9119L73.1229 35.2301C73.0036 35.6146 72.803 35.9527 72.5213 36.2443C72.2396 36.5327 71.8916 36.758 71.4773 36.9205C71.063 37.0795 70.5973 37.1591 70.0803 37.1591ZM79.2031 35.4091L81.8679 29.3636H82.9815L79.6804 37H78.7259L75.4844 29.3636H76.5781L79.2031 35.4091ZM76.2003 29.3636V37H75.027V29.3636H76.2003ZM82.206 37V29.3636H83.3793V37H82.206ZM88.6293 37.1591C87.9399 37.1591 87.335 36.995 86.8146 36.6669C86.2976 36.3388 85.8932 35.8797 85.6016 35.2898C85.3132 34.6998 85.169 34.0104 85.169 33.2216C85.169 32.4261 85.3132 31.7318 85.6016 31.1385C85.8932 30.5452 86.2976 30.0845 86.8146 29.7564C87.335 29.4283 87.9399 29.2642 88.6293 29.2642C89.3187 29.2642 89.9219 29.4283 90.4389 29.7564C90.9593 30.0845 91.3636 30.5452 91.652 31.1385C91.9437 31.7318 92.0895 32.4261 92.0895 33.2216C92.0895 34.0104 91.9437 34.6998 91.652 35.2898C91.3636 35.8797 90.9593 36.3388 90.4389 36.6669C89.9219 36.995 89.3187 37.1591 88.6293 37.1591ZM88.6293 36.1051C89.1529 36.1051 89.5838 35.9709 89.9219 35.7024C90.2599 35.4339 90.5102 35.081 90.6726 34.6435C90.835 34.206 90.9162 33.732 90.9162 33.2216C90.9162 32.7112 90.835 32.2356 90.6726 31.7947C90.5102 31.3539 90.2599 30.9976 89.9219 30.7259C89.5838 30.4541 89.1529 30.3182 88.6293 30.3182C88.1056 30.3182 87.6747 30.4541 87.3366 30.7259C86.9986 30.9976 86.7483 31.3539 86.5859 31.7947C86.4235 32.2356 86.3423 32.7112 86.3423 33.2216C86.3423 33.732 86.4235 34.206 86.5859 34.6435C86.7483 35.081 86.9986 35.4339 87.3366 35.7024C87.6747 35.9709 88.1056 36.1051 88.6293 36.1051ZM98.9913 32.6449V33.7386H94.7754V32.6449H98.9913ZM95.0538 29.3636V37H93.8805V29.3636H95.0538ZM99.8862 29.3636V37H98.7129V29.3636H99.8862ZM100.99 30.4574V29.3636H107.194V30.4574H104.689V37H103.515V30.4574H100.99ZM112.843 37V29.3636H118.849V37H117.676V30.4574H114.017V37H112.843ZM124.094 37.1591C123.405 37.1591 122.8 36.995 122.279 36.6669C121.762 36.3388 121.358 35.8797 121.066 35.2898C120.778 34.6998 120.634 34.0104 120.634 33.2216C120.634 32.4261 120.778 31.7318 121.066 31.1385C121.358 30.5452 121.762 30.0845 122.279 29.7564C122.8 29.4283 123.405 29.2642 124.094 29.2642C124.783 29.2642 125.387 29.4283 125.904 29.7564C126.424 30.0845 126.828 30.5452 127.117 31.1385C127.408 31.7318 127.554 32.4261 127.554 33.2216C127.554 34.0104 127.408 34.6998 127.117 35.2898C126.828 35.8797 126.424 36.3388 125.904 36.6669C125.387 36.995 124.783 37.1591 124.094 37.1591ZM124.094 36.1051C124.618 36.1051 125.049 35.9709 125.387 35.7024C125.725 35.4339 125.975 35.081 126.137 34.6435C126.3 34.206 126.381 33.732 126.381 33.2216C126.381 32.7112 126.3 32.2356 126.137 31.7947C125.975 31.3539 125.725 30.9976 125.387 30.7259C125.049 30.4541 124.618 30.3182 124.094 30.3182C123.57 30.3182 123.14 30.4541 122.801 30.7259C122.463 30.9976 122.213 31.3539 122.051 31.7947C121.888 32.2356 121.807 32.7112 121.807 33.2216C121.807 33.732 121.888 34.206 122.051 34.6435C122.213 35.081 122.463 35.4339 122.801 35.7024C123.14 35.9709 123.57 36.1051 124.094 36.1051ZM132.448 37.1591C131.732 37.1591 131.115 36.9901 130.598 36.652C130.081 36.3139 129.683 35.8482 129.405 35.255C129.127 34.6617 128.987 33.9839 128.987 33.2216C128.987 32.446 129.13 31.7616 129.415 31.1683C129.703 30.5717 130.104 30.1061 130.618 29.7713C131.135 29.4332 131.738 29.2642 132.428 29.2642C132.965 29.2642 133.449 29.3636 133.879 29.5625C134.31 29.7614 134.663 30.0398 134.938 30.3977C135.213 30.7557 135.384 31.1733 135.45 31.6506H134.277C134.188 31.3026 133.989 30.9943 133.681 30.7259C133.376 30.4541 132.965 30.3182 132.448 30.3182C131.99 30.3182 131.589 30.4375 131.244 30.6761C130.903 30.9115 130.636 31.2446 130.444 31.6754C130.255 32.103 130.161 32.6051 130.161 33.1818C130.161 33.7718 130.253 34.2855 130.439 34.723C130.628 35.1605 130.893 35.5002 131.235 35.7422C131.579 35.9841 131.984 36.1051 132.448 36.1051C132.753 36.1051 133.029 36.0521 133.278 35.946C133.526 35.84 133.737 35.6875 133.909 35.4886C134.082 35.2898 134.204 35.0511 134.277 34.7727H135.45C135.384 35.2235 135.22 35.6295 134.958 35.9908C134.7 36.3487 134.357 36.6338 133.929 36.8459C133.505 37.0547 133.011 37.1591 132.448 37.1591ZM137.921 39.8636C137.722 39.8636 137.545 39.8471 137.389 39.8139C137.234 39.7841 137.126 39.7543 137.066 39.7244L137.365 38.6903C137.65 38.7633 137.901 38.7898 138.12 38.7699C138.339 38.75 138.533 38.6522 138.702 38.4766C138.874 38.3042 139.032 38.0241 139.174 37.6364L139.393 37.0398L136.569 29.3636H137.842L139.95 35.4489H140.029L142.137 29.3636H143.41L140.169 38.1136C140.023 38.508 139.842 38.8345 139.627 39.093C139.411 39.3549 139.161 39.5488 138.876 39.6747C138.594 39.8007 138.276 39.8636 137.921 39.8636ZM143.501 39.1875V35.9062H144.137C144.293 35.7438 144.427 35.5682 144.54 35.3793C144.652 35.1903 144.75 34.9666 144.833 34.7081C144.919 34.4463 144.992 34.1281 145.052 33.7536C145.112 33.3757 145.165 32.92 145.211 32.3864L145.469 29.3636H150.322V35.9062H151.495V39.1875H150.322V37H144.674V39.1875H143.501ZM145.469 35.9062H149.148V30.4574H146.563L146.364 32.3864C146.281 33.1851 146.179 33.8828 146.056 34.4794C145.933 35.076 145.738 35.5516 145.469 35.9062ZM156.155 37.1591C155.465 37.1591 154.86 36.995 154.34 36.6669C153.823 36.3388 153.419 35.8797 153.127 35.2898C152.839 34.6998 152.694 34.0104 152.694 33.2216C152.694 32.4261 152.839 31.7318 153.127 31.1385C153.419 30.5452 153.823 30.0845 154.34 29.7564C154.86 29.4283 155.465 29.2642 156.155 29.2642C156.844 29.2642 157.447 29.4283 157.964 29.7564C158.485 30.0845 158.889 30.5452 159.177 31.1385C159.469 31.7318 159.615 32.4261 159.615 33.2216C159.615 34.0104 159.469 34.6998 159.177 35.2898C158.889 35.8797 158.485 36.3388 157.964 36.6669C157.447 36.995 156.844 37.1591 156.155 37.1591ZM156.155 36.1051C156.678 36.1051 157.109 35.9709 157.447 35.7024C157.785 35.4339 158.036 35.081 158.198 34.6435C158.36 34.206 158.442 33.732 158.442 33.2216C158.442 32.7112 158.36 32.2356 158.198 31.7947C158.036 31.3539 157.785 30.9976 157.447 30.7259C157.109 30.4541 156.678 30.3182 156.155 30.3182C155.631 30.3182 155.2 30.4541 154.862 30.7259C154.524 30.9976 154.274 31.3539 154.111 31.7947C153.949 32.2356 153.868 32.7112 153.868 33.2216C153.868 33.732 153.949 34.206 154.111 34.6435C154.274 35.081 154.524 35.4339 154.862 35.7024C155.2 35.9709 155.631 36.1051 156.155 36.1051ZM165.582 35.4091L168.247 29.3636H169.36L166.059 37H165.105L161.863 29.3636H162.957L165.582 35.4091ZM162.579 29.3636V37H161.406V29.3636H162.579ZM168.585 37V29.3636H169.758V37H168.585ZM175.008 37.1591C174.319 37.1591 173.714 36.995 173.194 36.6669C172.676 36.3388 172.272 35.8797 171.98 35.2898C171.692 34.6998 171.548 34.0104 171.548 33.2216C171.548 32.4261 171.692 31.7318 171.98 31.1385C172.272 30.5452 172.676 30.0845 173.194 29.7564C173.714 29.4283 174.319 29.2642 175.008 29.2642C175.698 29.2642 176.301 29.4283 176.818 29.7564C177.338 30.0845 177.743 30.5452 178.031 31.1385C178.323 31.7318 178.468 32.4261 178.468 33.2216C178.468 34.0104 178.323 34.6998 178.031 35.2898C177.743 35.8797 177.338 36.3388 176.818 36.6669C176.301 36.995 175.698 37.1591 175.008 37.1591ZM175.008 36.1051C175.532 36.1051 175.963 35.9709 176.301 35.7024C176.639 35.4339 176.889 35.081 177.051 34.6435C177.214 34.206 177.295 33.732 177.295 33.2216C177.295 32.7112 177.214 32.2356 177.051 31.7947C176.889 31.3539 176.639 30.9976 176.301 30.7259C175.963 30.4541 175.532 30.3182 175.008 30.3182C174.484 30.3182 174.054 30.4541 173.716 30.7259C173.377 30.9976 173.127 31.3539 172.965 31.7947C172.802 32.2356 172.721 32.7112 172.721 33.2216C172.721 33.732 172.802 34.206 172.965 34.6435C173.127 35.081 173.377 35.4339 173.716 35.7024C174.054 35.9709 174.484 36.1051 175.008 36.1051ZM183.461 37.1591C182.725 37.1591 182.091 36.9967 181.557 36.6719C181.027 36.3438 180.617 35.8864 180.329 35.2997C180.044 34.7098 179.901 34.0237 179.901 33.2415C179.901 32.4593 180.044 31.7699 180.329 31.1733C180.617 30.5734 181.018 30.1061 181.532 29.7713C182.049 29.4332 182.652 29.2642 183.342 29.2642C183.74 29.2642 184.132 29.3305 184.52 29.4631C184.908 29.5956 185.261 29.8111 185.579 30.1094C185.897 30.4044 186.151 30.7955 186.34 31.2827C186.529 31.7699 186.623 32.3698 186.623 33.0824V33.5795H180.737V32.5653H185.43C185.43 32.1345 185.344 31.75 185.171 31.4119C185.002 31.0739 184.76 30.8071 184.445 30.6115C184.134 30.416 183.766 30.3182 183.342 30.3182C182.874 30.3182 182.47 30.4342 182.129 30.6662C181.791 30.8949 181.53 31.1932 181.348 31.5611C181.166 31.929 181.075 32.3234 181.075 32.7443V33.4205C181.075 33.9972 181.174 34.486 181.373 34.8871C181.575 35.2848 181.855 35.5881 182.213 35.7969C182.571 36.0024 182.987 36.1051 183.461 36.1051C183.769 36.1051 184.048 36.062 184.296 35.9759C184.548 35.8864 184.765 35.7538 184.948 35.5781C185.13 35.3991 185.271 35.1771 185.37 34.9119L186.504 35.2301C186.384 35.6146 186.184 35.9527 185.902 36.2443C185.62 36.5327 185.272 36.758 184.858 36.9205C184.444 37.0795 183.978 37.1591 183.461 37.1591ZM188.408 37V29.3636H189.581V32.6847H190.357L193.101 29.3636H194.612L191.53 33.0426L194.652 37H193.141L190.635 33.7784H189.581V37H188.408Z" fill="#777A81"/>
</svg>
