<svg width="230" height="44" viewBox="0 0 230 44" fill="none" xmlns="http://www.w3.org/2000/svg">
<path fill-rule="evenodd" clip-rule="evenodd" d="M19.9129 0.0341201C16.4946 0.288288 12.4018 1.78353 9.52658 3.82864C8.19128 4.77844 6.42691 6.31316 5.90365 6.98005C5.69383 7.2475 5.57984 7.57763 5.57994 7.91756L5.58105 11.5431C5.58181 13.8258 5.61369 15.7432 5.65199 15.804C5.75533 15.9684 5.82636 15.856 6.58699 14.3235C8.35414 10.763 10.9211 8.19094 14.4164 6.47837C16.4522 5.48098 18.041 5.01717 20.082 4.82458C24.0499 4.45015 27.789 5.29829 30.9481 7.28932C34.3256 9.41793 36.855 12.6581 38.1745 16.5463C39.1753 19.4951 39.3124 23.0128 38.5481 26.1317C37.577 30.0944 35.4057 33.3563 32.0051 35.9611C30.1856 37.3549 27.029 38.707 24.9433 38.9861C24.706 39.0178 24.4287 39.1116 24.3272 39.1944C24.2235 39.2792 24.2032 39.43 24.281 39.5392L24.4131 39.7247C24.8532 40.3429 25.0288 40.8969 25.0288 41.6669C25.0288 42.2425 24.9888 42.4356 24.7651 42.9404C24.4504 43.65 24.4784 43.7968 24.9281 43.7968C25.5775 43.7968 27.4642 43.3518 28.9571 42.8465C33.6508 41.258 37.7353 37.9887 40.4497 33.6472C40.9947 32.7756 41.8542 31.0745 42.2381 30.1076C42.5858 29.2323 42.6208 29.212 43.7822 29.212C44.6672 29.212 44.7924 29.1923 45.1138 29.0023C45.5222 28.7609 45.6634 28.5677 45.8595 27.9815C45.9849 27.6064 46 26.955 46 21.9389C46 16.9815 45.9836 16.2596 45.8613 15.8345C45.5813 14.8607 44.8655 14.4567 43.4203 14.4567C42.5159 14.4567 42.4425 14.4064 42.1148 13.5611C41.8377 12.8466 40.8277 10.8864 40.362 10.1595C38.2346 6.8383 35.2489 4.10259 31.8482 2.35839C29.5404 1.17472 27.5306 0.536228 24.8174 0.124784C24.1083 0.0172317 20.9302 -0.0414479 19.9129 0.0341201ZM43.6821 16.8488C43.7792 16.8855 43.96 17.0368 44.0838 17.1852C44.623 17.8316 44.0903 18.8918 43.2262 18.8918C42.9299 18.8918 42.45 18.5817 42.2982 18.2922C42.032 17.7845 42.3322 17.0544 42.9135 16.7954C43.1548 16.6878 43.2775 16.6964 43.6821 16.8488ZM43.713 25.0408C44.2943 25.3704 44.4706 25.9852 44.1389 26.5266C43.9869 26.7748 43.8337 26.873 43.3638 27.024C43.2858 27.0491 43.0928 27.0335 42.9347 26.9895C42.0478 26.7424 41.9507 25.462 42.7853 25.0187C43.1637 24.8178 43.3263 24.8217 43.713 25.0408ZM0.056921 28.926C0.0248724 28.9582 -0.000663352 31.732 1.31368e-05 35.09C0.00136611 41.8322 0.0082963 41.9335 0.51913 42.6509C0.843929 43.1072 1.25456 43.3891 1.8864 43.5901C2.31022 43.7248 2.42176 43.7299 2.81133 43.6327C3.65804 43.4215 4.24549 42.9509 4.57629 42.2189C4.71404 41.9141 4.73062 41.6135 4.73231 39.3957L4.73388 37.297C4.73406 37.0483 4.65245 36.8065 4.50162 36.6087C3.45433 35.2356 3.21131 34.9016 2.90486 34.4148C1.98297 32.9503 1.54604 32.0839 0.843086 30.3259C0.312295 28.9986 0.19391 28.7878 0.056921 28.926Z" fill="#44576E"/>
<path fill-rule="evenodd" clip-rule="evenodd" d="M15.0674 20.9887C13.8951 21.127 12.0193 21.7762 10.7196 22.4936C8.92975 23.4815 6.75925 25.261 6.76172 25.7386C6.76608 26.5856 7.96659 29.3238 9.00071 30.8454C11.2351 34.1331 14.4707 36.3534 18.4513 37.3302C19.2436 37.5247 19.5047 37.5455 21.5798 37.5791C23.7577 37.6145 23.8831 37.6079 24.8777 37.404C26.249 37.123 27.2564 36.7841 28.4542 36.2008C30.738 35.0888 32.437 33.781 33.7983 32.0873C36.1144 29.2057 37.2581 26.2434 37.3652 22.8483C37.4249 20.9576 37.3299 20.8479 36.232 21.5398C35.399 22.0648 34.436 22.5127 33.4182 22.8485C32.1243 23.2754 31.5499 23.3407 29.5473 23.2885C27.5207 23.2357 27.4969 23.231 23.4321 22.1077C22.0285 21.7198 20.5167 21.3263 20.0726 21.2332C18.6849 20.9425 16.404 20.831 15.0674 20.9887ZM32.0693 25.6448C32.1865 25.7853 32.2824 25.9554 32.2824 26.0227C32.2824 26.2503 32.049 26.6024 31.8319 26.7022C31.5049 26.8526 31.3825 26.8253 31.1217 26.5435C30.8047 26.201 30.7958 25.8026 31.0998 25.5613C31.4264 25.302 31.8111 25.335 32.0693 25.6448ZM27.8248 27.003C28.063 27.1273 28.2483 27.4426 28.2483 27.7235C28.2483 28.1357 27.7773 28.6293 27.3839 28.6293C27.1365 28.6293 26.7694 28.3776 26.6353 28.1159C26.5249 27.9005 26.5178 27.7993 26.5947 27.5402C26.765 26.9667 27.304 26.7312 27.8248 27.003ZM30.8662 30.1807C31.1147 30.3374 31.3761 30.7774 31.3765 31.04C31.3773 31.6019 30.7666 32.1665 30.244 32.0867C29.6571 31.9972 29.1858 31.3971 29.29 30.8718C29.3518 30.5595 29.8045 30.0693 30.0767 30.0198C30.3306 29.9736 30.6367 30.036 30.8662 30.1807Z" fill="#869BB5"/>
<path fill-rule="evenodd" clip-rule="evenodd" d="M1.43539 0.496576C0.860574 0.766674 0.461037 1.14262 0.211336 1.64833C0.0723211 1.92989 0.000145276 2.23973 0.000424525 2.55373L0.00724465 10.2227C0.0112787 14.7033 0.0441276 19.9207 0.0804342 21.8171C0.154776 25.708 0.135676 25.5678 0.916228 27.9651C2.48425 32.7813 3.72765 34.9132 6.6358 37.7717C8.46052 39.5652 9.6998 40.4593 11.9077 41.5751C14.9667 43.1211 17.6785 43.8434 20.9189 43.9751C22.0969 44.023 22.1295 44.0197 22.6031 43.8009C23.2842 43.4862 23.5567 43.253 23.8257 42.7541C24.3093 41.8574 24.1577 40.7437 23.4522 40.01C23.0032 39.5431 22.5338 39.3506 21.628 39.2618C21.2111 39.2209 20.4441 39.1467 19.9234 39.0967C16.817 38.7989 13.5483 37.4335 11.032 35.3827C10.3581 34.8335 9.10243 33.5535 8.401 32.7007C6.97483 30.967 5.83467 28.658 5.23186 26.283C4.65384 24.0052 4.67911 24.5784 4.6349 12.7612C4.59769 2.80026 4.58526 2.06274 4.44991 1.74869C3.94145 0.569356 2.52903 -0.0173647 1.43539 0.496576Z" fill="#869BB5"/>
<path d="M58.2642 19V4.45455H64.0028C65.1013 4.45455 66.0388 4.65104 66.8153 5.04403C67.5966 5.43229 68.1908 5.9839 68.598 6.69886C69.0099 7.40909 69.2159 8.24479 69.2159 9.20597C69.2159 10.1719 69.0076 11.0028 68.5909 11.6989C68.1742 12.3902 67.5705 12.9205 66.7798 13.2898C65.9938 13.6591 65.0421 13.8438 63.9247 13.8438H60.0824V11.3722H63.4276C64.0147 11.3722 64.5024 11.2917 64.8906 11.1307C65.2789 10.9697 65.5677 10.7282 65.7571 10.4062C65.9512 10.0843 66.0483 9.68419 66.0483 9.20597C66.0483 8.72301 65.9512 8.31581 65.7571 7.98438C65.5677 7.65294 65.2765 7.40199 64.8835 7.23153C64.4953 7.05634 64.0052 6.96875 63.4134 6.96875H61.3395V19H58.2642ZM66.1193 12.3807L69.7344 19H66.3395L62.8026 12.3807H66.1193ZM71.3892 19V4.45455H77.2131C78.2831 4.45455 79.1757 4.61316 79.8906 4.9304C80.6056 5.24763 81.143 5.68797 81.5028 6.25142C81.8627 6.81013 82.0426 7.45407 82.0426 8.18324C82.0426 8.75142 81.929 9.25095 81.7017 9.68182C81.4744 10.108 81.1619 10.4583 80.7642 10.733C80.3712 11.0028 79.9214 11.1946 79.4148 11.3082V11.4503C79.9688 11.474 80.4872 11.6302 80.9702 11.919C81.4579 12.2079 81.8532 12.6127 82.1562 13.1335C82.4593 13.6496 82.6108 14.2652 82.6108 14.9801C82.6108 15.7519 82.419 16.4408 82.0355 17.0469C81.6567 17.6482 81.0956 18.1241 80.3523 18.4744C79.6089 18.8248 78.6927 19 77.6037 19H71.3892ZM74.4645 16.4858H76.9716C77.8286 16.4858 78.4536 16.3224 78.8466 15.9957C79.2396 15.6643 79.4361 15.224 79.4361 14.6747C79.4361 14.2723 79.339 13.9171 79.1449 13.6094C78.9508 13.3016 78.6738 13.0601 78.3139 12.8849C77.9588 12.7098 77.535 12.6222 77.0426 12.6222H74.4645V16.4858ZM74.4645 10.5412H76.7443C77.1657 10.5412 77.5398 10.4678 77.8665 10.321C78.1979 10.1695 78.4583 9.95644 78.6477 9.68182C78.8419 9.4072 78.9389 9.07812 78.9389 8.6946C78.9389 8.16903 78.7519 7.74527 78.3778 7.4233C78.0085 7.10133 77.483 6.94034 76.8011 6.94034H74.4645V10.5412ZM84.0579 6.99006V4.45455H96.0039V6.99006H91.5508V19H88.511V6.99006H84.0579ZM96.7816 19V8.09091H99.7148V9.99432H99.8285C100.027 9.31723 100.361 8.80587 100.83 8.46023C101.299 8.10985 101.838 7.93466 102.449 7.93466C102.601 7.93466 102.764 7.94413 102.939 7.96307C103.114 7.98201 103.268 8.00805 103.401 8.04119V10.7259C103.259 10.6832 103.062 10.6454 102.811 10.6122C102.56 10.5791 102.331 10.5625 102.123 10.5625C101.677 10.5625 101.28 10.6596 100.929 10.8537C100.584 11.0431 100.309 11.3082 100.105 11.6491C99.9066 11.9901 99.8072 12.383 99.8072 12.8281V19H96.7816ZM109.429 19.2131C108.307 19.2131 107.341 18.9858 106.531 18.5312C105.726 18.072 105.106 17.4233 104.67 16.5852C104.235 15.7424 104.017 14.7457 104.017 13.5952C104.017 12.473 104.235 11.4882 104.67 10.6406C105.106 9.79309 105.719 9.13258 106.51 8.65909C107.305 8.18561 108.238 7.94886 109.308 7.94886C110.028 7.94886 110.698 8.06487 111.318 8.29688C111.943 8.52415 112.488 8.86742 112.952 9.3267C113.42 9.78598 113.785 10.3636 114.045 11.0597C114.306 11.7509 114.436 12.5606 114.436 13.4886V14.3196H105.224V12.4446H111.588C111.588 12.009 111.493 11.6231 111.304 11.2869C111.115 10.9508 110.852 10.688 110.516 10.4986C110.184 10.3045 109.798 10.2074 109.358 10.2074C108.899 10.2074 108.491 10.3139 108.136 10.527C107.786 10.7353 107.511 11.017 107.312 11.3722C107.114 11.7225 107.012 12.1132 107.007 12.544V14.3267C107.007 14.8665 107.107 15.3329 107.305 15.7259C107.509 16.1188 107.795 16.4219 108.165 16.6349C108.534 16.848 108.972 16.9545 109.479 16.9545C109.815 16.9545 110.123 16.9072 110.402 16.8125C110.681 16.7178 110.92 16.5758 111.119 16.3864C111.318 16.197 111.47 15.965 111.574 15.6903L114.372 15.875C114.23 16.5473 113.939 17.1345 113.499 17.6364C113.063 18.1335 112.5 18.5218 111.808 18.8011C111.122 19.0758 110.329 19.2131 109.429 19.2131ZM116.411 19V8.09091H119.294V10.0156H119.422C119.649 9.37642 120.028 8.87216 120.558 8.50284C121.089 8.13352 121.723 7.94886 122.462 7.94886C123.21 7.94886 123.847 8.13589 124.372 8.50994C124.898 8.87926 125.248 9.38116 125.423 10.0156H125.537C125.759 9.39062 126.162 8.8911 126.744 8.51705C127.331 8.13826 128.025 7.94886 128.825 7.94886C129.843 7.94886 130.67 8.2732 131.304 8.92188C131.943 9.56581 132.263 10.4796 132.263 11.6634V19H129.244V12.2599C129.244 11.6539 129.083 11.1993 128.761 10.8963C128.439 10.5933 128.037 10.4418 127.554 10.4418C127.005 10.4418 126.576 10.617 126.268 10.9673C125.961 11.313 125.807 11.7699 125.807 12.3381V19H122.874V12.196C122.874 11.661 122.72 11.2348 122.412 10.9176C122.109 10.6004 121.709 10.4418 121.212 10.4418C120.875 10.4418 120.572 10.527 120.303 10.6974C120.037 10.8632 119.827 11.0975 119.67 11.4006C119.514 11.6989 119.436 12.0492 119.436 12.4517V19H116.411Z" fill="#1F222D"/>
<path d="M58.233 37V26.8182H61.6733C62.4721 26.8182 63.125 26.9624 63.6321 27.2507C64.1425 27.5357 64.5204 27.9219 64.7656 28.4091C65.0109 28.8963 65.1335 29.4399 65.1335 30.0398C65.1335 30.6397 65.0109 31.1849 64.7656 31.6754C64.5237 32.166 64.1491 32.5571 63.642 32.8487C63.1349 33.1371 62.4853 33.2812 61.6932 33.2812H59.2273V32.1875H61.6534C62.2003 32.1875 62.6394 32.093 62.9709 31.9041C63.3023 31.7152 63.5426 31.46 63.6918 31.1385C63.8442 30.8137 63.9205 30.4474 63.9205 30.0398C63.9205 29.6321 63.8442 29.2675 63.6918 28.946C63.5426 28.6245 63.3007 28.3726 62.9659 28.1903C62.6312 28.0047 62.187 27.9119 61.6335 27.9119H59.4659V37H58.233ZM70.0803 37.1591C69.3445 37.1591 68.7098 36.9967 68.1761 36.6719C67.6458 36.3438 67.2365 35.8864 66.9482 35.2997C66.6631 34.7098 66.5206 34.0237 66.5206 33.2415C66.5206 32.4593 66.6631 31.7699 66.9482 31.1733C67.2365 30.5734 67.6375 30.1061 68.1513 29.7713C68.6683 29.4332 69.2715 29.2642 69.9609 29.2642C70.3587 29.2642 70.7514 29.3305 71.1392 29.4631C71.527 29.5956 71.88 29.8111 72.1982 30.1094C72.5163 30.4044 72.7699 30.7955 72.9588 31.2827C73.1477 31.7699 73.2422 32.3698 73.2422 33.0824V33.5795H67.3558V32.5653H72.049C72.049 32.1345 71.9628 31.75 71.7905 31.4119C71.6214 31.0739 71.3795 30.8071 71.0646 30.6115C70.7531 30.416 70.3852 30.3182 69.9609 30.3182C69.4936 30.3182 69.0893 30.4342 68.7479 30.6662C68.4098 30.8949 68.1496 31.1932 67.9673 31.5611C67.785 31.929 67.6939 32.3234 67.6939 32.7443V33.4205C67.6939 33.9972 67.7933 34.486 67.9922 34.8871C68.1944 35.2848 68.4744 35.5881 68.8324 35.7969C69.1903 36.0024 69.6063 36.1051 70.0803 36.1051C70.3885 36.1051 70.6669 36.062 70.9155 35.9759C71.1674 35.8864 71.3845 35.7538 71.5668 35.5781C71.7491 35.3991 71.8899 35.1771 71.9893 34.9119L73.1229 35.2301C73.0036 35.6146 72.803 35.9527 72.5213 36.2443C72.2396 36.5327 71.8916 36.758 71.4773 36.9205C71.063 37.0795 70.5973 37.1591 70.0803 37.1591ZM79.2031 35.4091L81.8679 29.3636H82.9815L79.6804 37H78.7259L75.4844 29.3636H76.5781L79.2031 35.4091ZM76.2003 29.3636V37H75.027V29.3636H76.2003ZM82.206 37V29.3636H83.3793V37H82.206ZM88.6293 37.1591C87.9399 37.1591 87.335 36.995 86.8146 36.6669C86.2976 36.3388 85.8932 35.8797 85.6016 35.2898C85.3132 34.6998 85.169 34.0104 85.169 33.2216C85.169 32.4261 85.3132 31.7318 85.6016 31.1385C85.8932 30.5452 86.2976 30.0845 86.8146 29.7564C87.335 29.4283 87.9399 29.2642 88.6293 29.2642C89.3187 29.2642 89.9219 29.4283 90.4389 29.7564C90.9593 30.0845 91.3636 30.5452 91.652 31.1385C91.9437 31.7318 92.0895 32.4261 92.0895 33.2216C92.0895 34.0104 91.9437 34.6998 91.652 35.2898C91.3636 35.8797 90.9593 36.3388 90.4389 36.6669C89.9219 36.995 89.3187 37.1591 88.6293 37.1591ZM88.6293 36.1051C89.1529 36.1051 89.5838 35.9709 89.9219 35.7024C90.2599 35.4339 90.5102 35.081 90.6726 34.6435C90.835 34.206 90.9162 33.732 90.9162 33.2216C90.9162 32.7112 90.835 32.2356 90.6726 31.7947C90.5102 31.3539 90.2599 30.9976 89.9219 30.7259C89.5838 30.4541 89.1529 30.3182 88.6293 30.3182C88.1056 30.3182 87.6747 30.4541 87.3366 30.7259C86.9986 30.9976 86.7483 31.3539 86.5859 31.7947C86.4235 32.2356 86.3423 32.7112 86.3423 33.2216C86.3423 33.732 86.4235 34.206 86.5859 34.6435C86.7483 35.081 86.9986 35.4339 87.3366 35.7024C87.6747 35.9709 88.1056 36.1051 88.6293 36.1051ZM98.9913 32.6449V33.7386H94.7754V32.6449H98.9913ZM95.0538 29.3636V37H93.8805V29.3636H95.0538ZM99.8862 29.3636V37H98.7129V29.3636H99.8862ZM100.99 30.4574V29.3636H107.194V30.4574H104.689V37H103.515V30.4574H100.99ZM118.511 26.5L119.108 27.2159C118.876 27.4413 118.607 27.5987 118.302 27.6882C117.997 27.7777 117.653 27.8324 117.268 27.8523C116.884 27.8722 116.456 27.892 115.985 27.9119C115.455 27.9318 115.016 28.0611 114.668 28.2997C114.32 28.5384 114.051 28.883 113.863 29.3338C113.674 29.7846 113.553 30.3381 113.5 30.9943H113.599C113.858 30.517 114.216 30.1657 114.673 29.9403C115.13 29.715 115.621 29.6023 116.145 29.6023C116.741 29.6023 117.278 29.7415 117.755 30.0199C118.233 30.2983 118.61 30.7109 118.889 31.2578C119.167 31.8047 119.306 32.4792 119.306 33.2812C119.306 34.08 119.164 34.7694 118.879 35.3494C118.597 35.9295 118.201 36.3769 117.691 36.6918C117.184 37.0033 116.589 37.1591 115.906 37.1591C115.223 37.1591 114.625 36.9983 114.111 36.6768C113.597 36.352 113.198 35.8714 112.913 35.2351C112.628 34.5954 112.485 33.8049 112.485 32.8636V32.0483C112.485 30.348 112.774 29.0587 113.35 28.1804C113.931 27.3021 114.802 26.848 115.966 26.8182C116.377 26.8049 116.743 26.8016 117.064 26.8082C117.386 26.8149 117.666 26.8 117.904 26.7635C118.143 26.727 118.345 26.6392 118.511 26.5ZM115.906 36.1051C116.367 36.1051 116.763 35.9891 117.094 35.7571C117.429 35.5251 117.686 35.1986 117.865 34.7777C118.044 34.3535 118.133 33.8546 118.133 33.2812C118.133 32.7244 118.042 32.2505 117.86 31.8594C117.681 31.4683 117.424 31.17 117.089 30.9645C116.754 30.759 116.353 30.6562 115.886 30.6562C115.545 30.6562 115.238 30.7143 114.966 30.8303C114.694 30.9463 114.462 31.117 114.27 31.3423C114.078 31.5677 113.929 31.8428 113.823 32.1676C113.72 32.4924 113.665 32.8636 113.659 33.2812C113.659 34.1364 113.859 34.8208 114.26 35.3345C114.661 35.8482 115.21 36.1051 115.906 36.1051ZM122.115 32.1278H124.303C125.198 32.1278 125.882 32.3549 126.356 32.8089C126.83 33.263 127.067 33.8381 127.067 34.5341C127.067 34.9915 126.961 35.4074 126.749 35.782C126.537 36.1532 126.225 36.4498 125.814 36.6719C125.403 36.8906 124.9 37 124.303 37H121.101V29.3636H122.275V35.9062H124.303C124.767 35.9062 125.148 35.7836 125.446 35.5384C125.745 35.2931 125.894 34.9782 125.894 34.5938C125.894 34.1894 125.745 33.8596 125.446 33.6044C125.148 33.3492 124.767 33.2216 124.303 33.2216H122.115V32.1278ZM128.28 37V29.3636H129.453V37H128.28ZM131.164 30.4574V29.3636H137.368V30.4574H134.863V37H133.689V30.4574H131.164ZM141.786 37.1591C141.096 37.1591 140.491 36.995 139.971 36.6669C139.454 36.3388 139.049 35.8797 138.758 35.2898C138.469 34.6998 138.325 34.0104 138.325 33.2216C138.325 32.4261 138.469 31.7318 138.758 31.1385C139.049 30.5452 139.454 30.0845 139.971 29.7564C140.491 29.4283 141.096 29.2642 141.786 29.2642C142.475 29.2642 143.078 29.4283 143.595 29.7564C144.116 30.0845 144.52 30.5452 144.808 31.1385C145.1 31.7318 145.246 32.4261 145.246 33.2216C145.246 34.0104 145.1 34.6998 144.808 35.2898C144.52 35.8797 144.116 36.3388 143.595 36.6669C143.078 36.995 142.475 37.1591 141.786 37.1591ZM141.786 36.1051C142.309 36.1051 142.74 35.9709 143.078 35.7024C143.416 35.4339 143.666 35.081 143.829 34.6435C143.991 34.206 144.072 33.732 144.072 33.2216C144.072 32.7112 143.991 32.2356 143.829 31.7947C143.666 31.3539 143.416 30.9976 143.078 30.7259C142.74 30.4541 142.309 30.3182 141.786 30.3182C141.262 30.3182 140.831 30.4541 140.493 30.7259C140.155 30.9976 139.905 31.3539 139.742 31.7947C139.58 32.2356 139.499 32.7112 139.499 33.2216C139.499 33.732 139.58 34.206 139.742 34.6435C139.905 35.081 140.155 35.4339 140.493 35.7024C140.831 35.9709 141.262 36.1051 141.786 36.1051ZM147.037 37V29.3636H150.159C150.981 29.3636 151.634 29.5492 152.118 29.9205C152.602 30.2917 152.844 30.7822 152.844 31.392C152.844 31.8561 152.706 32.2157 152.431 32.4709C152.156 32.7228 151.803 32.8935 151.372 32.983C151.654 33.0227 151.927 33.1222 152.192 33.2812C152.461 33.4403 152.683 33.6591 152.858 33.9375C153.034 34.2126 153.122 34.5507 153.122 34.9517C153.122 35.3428 153.023 35.6925 152.824 36.0007C152.625 36.3089 152.34 36.5526 151.969 36.7315C151.597 36.9105 151.153 37 150.636 37H147.037ZM148.15 35.9261H150.636C151.041 35.9261 151.357 35.83 151.586 35.6378C151.814 35.4455 151.929 35.1837 151.929 34.8523C151.929 34.4579 151.814 34.148 151.586 33.9226C151.357 33.6939 151.041 33.5795 150.636 33.5795H148.15V35.9261ZM148.15 32.5653H150.159C150.474 32.5653 150.744 32.5223 150.969 32.4361C151.195 32.3466 151.367 32.2206 151.486 32.0582C151.609 31.8925 151.67 31.697 151.67 31.4716C151.67 31.1501 151.536 30.8982 151.268 30.7159C150.999 30.5303 150.63 30.4375 150.159 30.4375H148.15V32.5653ZM158 37.1591C157.311 37.1591 156.706 36.995 156.186 36.6669C155.669 36.3388 155.264 35.8797 154.973 35.2898C154.684 34.6998 154.54 34.0104 154.54 33.2216C154.54 32.4261 154.684 31.7318 154.973 31.1385C155.264 30.5452 155.669 30.0845 156.186 29.7564C156.706 29.4283 157.311 29.2642 158 29.2642C158.69 29.2642 159.293 29.4283 159.81 29.7564C160.33 30.0845 160.735 30.5452 161.023 31.1385C161.315 31.7318 161.461 32.4261 161.461 33.2216C161.461 34.0104 161.315 34.6998 161.023 35.2898C160.735 35.8797 160.33 36.3388 159.81 36.6669C159.293 36.995 158.69 37.1591 158 37.1591ZM158 36.1051C158.524 36.1051 158.955 35.9709 159.293 35.7024C159.631 35.4339 159.881 35.081 160.044 34.6435C160.206 34.206 160.287 33.732 160.287 33.2216C160.287 32.7112 160.206 32.2356 160.044 31.7947C159.881 31.3539 159.631 30.9976 159.293 30.7259C158.955 30.4541 158.524 30.3182 158 30.3182C157.477 30.3182 157.046 30.4541 156.708 30.7259C156.37 30.9976 156.119 31.3539 155.957 31.7947C155.795 32.2356 155.713 32.7112 155.713 33.2216C155.713 33.732 155.795 34.206 155.957 34.6435C156.119 35.081 156.37 35.4339 156.708 35.7024C157.046 35.9709 157.477 36.1051 158 36.1051ZM164.425 35.2699L168.104 29.3636H169.456V37H168.283V31.0938L164.624 37H163.252V29.3636H164.425V35.2699ZM167.328 26.8182H168.422C168.422 27.3551 168.236 27.7943 167.865 28.1357C167.494 28.477 166.99 28.6477 166.354 28.6477C165.727 28.6477 165.229 28.477 164.857 28.1357C164.49 27.7943 164.306 27.3551 164.306 26.8182H165.399C165.399 27.0767 165.471 27.3037 165.613 27.4993C165.759 27.6948 166.006 27.7926 166.354 27.7926C166.702 27.7926 166.95 27.6948 167.1 27.4993C167.252 27.3037 167.328 27.0767 167.328 26.8182ZM175.105 30.4574V29.3636H181.31V30.4574H178.804V37H177.631V30.4574H175.105ZM185.826 37.1591C185.091 37.1591 184.456 36.9967 183.922 36.6719C183.392 36.3438 182.983 35.8864 182.694 35.2997C182.409 34.7098 182.267 34.0237 182.267 33.2415C182.267 32.4593 182.409 31.7699 182.694 31.1733C182.983 30.5734 183.384 30.1061 183.897 29.7713C184.414 29.4332 185.018 29.2642 185.707 29.2642C186.105 29.2642 186.498 29.3305 186.885 29.4631C187.273 29.5956 187.626 29.8111 187.944 30.1094C188.262 30.4044 188.516 30.7955 188.705 31.2827C188.894 31.7699 188.988 32.3698 188.988 33.0824V33.5795H183.102V32.5653H187.795C187.795 32.1345 187.709 31.75 187.537 31.4119C187.368 31.0739 187.126 30.8071 186.811 30.6115C186.499 30.416 186.131 30.3182 185.707 30.3182C185.24 30.3182 184.835 30.4342 184.494 30.6662C184.156 30.8949 183.896 31.1932 183.713 31.5611C183.531 31.929 183.44 32.3234 183.44 32.7443V33.4205C183.44 33.9972 183.539 34.486 183.738 34.8871C183.94 35.2848 184.221 35.5881 184.578 35.7969C184.936 36.0024 185.352 36.1051 185.826 36.1051C186.135 36.1051 186.413 36.062 186.662 35.9759C186.913 35.8864 187.131 35.7538 187.313 35.5781C187.495 35.3991 187.636 35.1771 187.735 34.9119L188.869 35.2301C188.75 35.6146 188.549 35.9527 188.267 36.2443C187.986 36.5327 187.638 36.758 187.223 36.9205C186.809 37.0795 186.343 37.1591 185.826 37.1591ZM191.443 29.3636L193.273 32.4858L195.102 29.3636H196.454L193.988 33.1818L196.454 37H195.102L193.273 34.0369L191.443 37H190.091L192.517 33.1818L190.091 29.3636H191.443ZM203.239 32.6449V33.7386H199.023V32.6449H203.239ZM199.302 29.3636V37H198.129V29.3636H199.302ZM204.134 29.3636V37H202.961V29.3636H204.134ZM207.45 35.2699L211.129 29.3636H212.482V37H211.308V31.0938L207.649 37H206.277V29.3636H207.45V35.2699ZM214.631 37V29.3636H215.804V32.6847H216.579L219.324 29.3636H220.835L217.753 33.0426L220.875 37H219.363L216.858 33.7784H215.804V37H214.631ZM223.323 35.2699L227.002 29.3636H228.355V37H227.181V31.0938L223.522 37H222.15V29.3636H223.323V35.2699Z" fill="#777A81"/>
</svg>
