<svg width="24" height="24" viewBox="0 0 24 24" fill="none" xmlns="http://www.w3.org/2000/svg">
<rect width="24" height="24" fill="white"/>
<path fill-rule="evenodd" clip-rule="evenodd" d="M7.72205 2.42124C7.95597 2.46123 8.26197 2.57972 8.4808 2.8787L10.4238 5.53328C10.8226 6.07815 10.9071 6.79201 10.6465 7.41493L9.78147 9.48289C9.76296 9.52716 9.7742 9.55951 9.78361 9.57287C10.332 10.3518 11.0173 11.1825 11.8799 12.0488C11.8934 12.0607 11.9066 12.0732 11.9195 12.0861C12.7979 12.9646 13.64 13.6606 14.429 14.2161C14.4423 14.2255 14.4747 14.2367 14.5189 14.2182L16.5866 13.3533C17.2095 13.0926 17.9234 13.1772 18.4683 13.576L21.1226 15.5189C21.4216 15.7378 21.5401 16.0438 21.58 16.2777C21.6182 16.5011 21.5968 16.7132 21.5677 16.8751C21.5091 17.2014 21.3766 17.5454 21.246 17.8367C20.9789 18.432 20.6159 19.032 20.4398 19.2933L20.312 19.4829L20.3038 19.4951C19.9473 20.024 19.4129 20.8169 18.5353 21.21C17.0178 21.8896 15.059 21.625 13.1402 20.8376C11.2132 20.0469 9.16264 18.666 7.30145 16.8235C7.28602 16.81 7.27095 16.7959 7.25625 16.7812C5.37365 14.8986 3.96424 12.8165 3.16207 10.8615C2.37469 8.94253 2.11015 6.98365 2.78977 5.46607C3.18281 4.58845 3.97566 4.05405 4.50465 3.6975C4.5087 3.69477 4.51274 3.69205 4.51677 3.68933L4.70636 3.56154C4.96765 3.3854 5.56771 3.02232 6.163 2.7553C6.45434 2.62462 6.79832 2.49214 7.12461 2.43353C7.28654 2.40444 7.49863 2.38306 7.72205 2.42124ZM8.4552 15.4342C8.46836 15.4459 8.48126 15.4581 8.49388 15.4707C10.2349 17.2118 12.1222 18.4742 13.8236 19.1724C15.561 19.8853 16.9455 19.9497 17.7996 19.5672C18.1454 19.4123 18.4225 19.0656 18.8194 18.4769L18.9472 18.2872C19.0794 18.0911 19.3877 17.5815 19.6036 17.1C19.6663 16.9603 19.7134 16.84 19.746 16.742L17.4051 15.0285C17.3692 15.0022 17.3222 14.9966 17.2812 15.0138L15.2136 15.8788C14.6278 16.1238 13.9378 16.0717 13.3927 15.6879C12.528 15.079 11.6189 14.3273 10.6817 13.3938C10.6678 13.3815 10.6542 13.3687 10.6408 13.3554C9.69115 12.4057 8.92821 11.4846 8.31179 10.6091C7.92803 10.064 7.87586 9.37406 8.1209 8.78826L8.98593 6.72031C9.00309 6.67929 8.99753 6.63229 8.97127 6.59641L7.25774 4.25531C7.15972 4.28792 7.03944 4.33496 6.89967 4.39765C6.41821 4.61361 5.90862 4.92188 5.71247 5.0541L5.52288 5.1819C4.93412 5.57877 4.58744 5.85593 4.43256 6.20177C4.05004 7.05591 4.11437 8.44061 4.82734 10.1782C5.5156 11.8556 6.75219 13.7137 8.4552 15.4342Z" fill="#1F222D"/>
</svg>
