<?xml version="1.0" encoding="utf-8"?><svg viewBox="0 0 115 115" xmlns="http://www.w3.org/2000/svg" xmlns:xlink="http://www.w3.org/1999/xlink"><style>:root>svg{display:none}:root>svg:target{display:block}</style><svg viewBox="0 0 115 115" id="block-5__decor" xmlns="http://www.w3.org/2000/svg"><path d="M45.575 7.003c5.857-3.38 8.785-5.071 12-5.071 3.216 0 6.144 1.69 12 5.071l25.797 14.894c5.856 3.381 8.784 5.072 10.392 7.856 1.608 2.785 1.608 6.166 1.608 12.929v29.787c0 6.762 0 10.143-1.608 12.928s-4.536 4.475-10.392 7.856l-25.797 14.894c-5.856 3.381-8.784 5.072-12 5.072-3.215 0-6.143-1.691-12-5.072L19.78 93.253c-5.857-3.38-8.785-5.071-10.393-7.856C7.78 82.612 7.78 79.231 7.78 72.469V42.682c0-6.763 0-10.144 1.607-12.929 1.608-2.784 4.536-4.475 10.393-7.856L45.575 7.003z"/></svg><svg viewBox="0 0 24 24" id="check" xmlns="http://www.w3.org/2000/svg"><path fill-rule="evenodd" clip-rule="evenodd" d="M12.5 21.276a9.6 9.6 0 100-19.2 9.6 9.6 0 000 19.2zM17.96 8.93l-1.32-1.225-5.58 6.01-2.7-2.909-1.32 1.225 4.02 4.329 6.9-7.43z"/></svg><svg viewBox="0 0 33 33" id="chevron-r" xmlns="http://www.w3.org/2000/svg"><path d="M12 7l10 9.5L12 26"/></svg><svg viewBox="0 0 20 20" id="eye" xmlns="http://www.w3.org/2000/svg"><path d="M18.225 9.583c-.534-.925-3.467-5.566-8.45-5.416-4.609.116-7.275 4.166-8 5.416a.833.833 0 000 .834c.525.908 3.333 5.416 8.241 5.416h.209c4.608-.116 7.283-4.166 8-5.416a.832.832 0 000-.834zm-8.042 4.584C6.591 14.25 4.25 11.175 3.516 10c.834-1.342 3.009-4.083 6.342-4.167 3.575-.091 5.925 2.992 6.667 4.167-.859 1.342-3.009 4.083-6.342 4.167z"/><path d="M10 7.083a2.917 2.917 0 100 5.834 2.917 2.917 0 000-5.834zm0 4.167a1.25 1.25 0 110-2.5 1.25 1.25 0 010 2.5z"/></svg><svg viewBox="0 0 24 24" id="popup-x" xmlns="http://www.w3.org/2000/svg"><path d="M13.427 12l4.3-4.29a1.004 1.004 0 10-1.42-1.42l-4.29 4.3-4.29-4.3a1.004 1.004 0 00-1.42 1.42l4.3 4.29-4.3 4.29a1 1 0 00.325 1.639 1 1 0 001.095-.219l4.29-4.3 4.29 4.3a1.001 1.001 0 001.638-.325 1 1 0 00-.218-1.095l-4.3-4.29z"/></svg><svg viewBox="0 0 24 24" id="x" xmlns="http://www.w3.org/2000/svg"><path fill-rule="evenodd" clip-rule="evenodd" d="M12.5 21.276a9.6 9.6 0 100-19.2 9.6 9.6 0 000 19.2zM8.024 8.473l3.204 3.203-3.204 3.204 1.273 1.273 3.203-3.204 3.204 3.204 1.273-1.273-3.204-3.204 3.204-3.203L15.704 7.2 12.5 10.403 9.297 7.2 8.024 8.473z"/></svg></svg>