<?xml version="1.0" standalone="no"?>
<!DOCTYPE svg PUBLIC "-//W3C//DTD SVG 20010904//EN"
 "http://www.w3.org/TR/2001/REC-SVG-20010904/DTD/svg10.dtd">
<svg version="1.0" xmlns="http://www.w3.org/2000/svg"
 width="700.000000pt" height="700.000000pt" viewBox="0 0 700.000000 700.000000"
 preserveAspectRatio="xMidYMid meet">
<metadata>
Created by potrace 1.14, written by Peter Selinger 2001-2017
</metadata>
<g transform="translate(0.000000,700.000000) scale(0.100000,-0.100000)"
fill="#000000" stroke="none">
<path d="M3125 6988 c-268 -30 -574 -105 -855 -210 -148 -55 -399 -173 -505
-237 -37 -23 -69 -41 -72 -41 -4 0 -152 -98 -217 -143 -252 -178 -545 -462
-748 -727 -184 -240 -371 -565 -462 -805 -15 -38 -31 -79 -36 -90 -39 -92
-122 -378 -144 -494 -3 -14 -7 -38 -10 -53 -13 -62 -31 -173 -41 -243 -3 -22
-7 -53 -10 -70 -21 -136 -27 -517 -12 -680 9 -95 27 -223 42 -305 3 -14 7 -38
10 -55 17 -109 102 -406 158 -555 41 -108 47 -123 74 -185 146 -328 364 -668
593 -924 92 -102 258 -267 320 -317 19 -16 37 -32 40 -35 8 -10 150 -121 190
-149 19 -13 37 -27 40 -30 8 -9 166 -112 255 -165 238 -143 637 -312 850 -361
6 -1 46 -11 90 -22 93 -24 223 -51 280 -59 22 -2 56 -8 75 -12 60 -13 143 -15
500 -16 304 0 489 7 510 20 3 2 33 9 66 14 97 17 114 20 229 47 560 132 1053
389 1520 795 564 489 984 1246 1125 2023 18 99 20 154 20 565 0 479 -3 527
-51 756 -75 362 -212 721 -392 1028 -29 48 -56 95 -62 105 -68 116 -233 334
-363 477 -282 313 -578 546 -977 767 -42 24 -193 96 -255 123 -36 15 -78 33
-95 40 -96 41 -400 133 -495 150 -18 3 -36 8 -40 10 -4 2 -22 7 -41 10 -19 3
-54 10 -79 15 -25 5 -62 12 -82 15 -21 3 -54 8 -73 11 -109 17 -211 22 -490
21 -170 -1 -341 -5 -380 -9z m635 -1032 c19 -3 55 -7 80 -10 25 -3 70 -10 100
-16 30 -6 69 -13 85 -16 166 -29 429 -120 617 -215 227 -114 398 -239 599
-439 255 -253 360 -396 500 -680 66 -134 156 -375 173 -465 15 -78 64 -257 76
-280 36 -65 62 -70 405 -80 274 -7 337 -31 394 -150 27 -55 33 -105 20 -166
-9 -41 -22 -63 -63 -104 -72 -75 -102 -81 -425 -90 -212 -6 -245 -10 -285 -33
-42 -25 -62 -71 -101 -238 -46 -200 -91 -338 -159 -486 -14 -31 -26 -59 -26
-61 0 -9 -106 -196 -148 -262 -238 -368 -599 -689 -1001 -890 -190 -95 -457
-178 -676 -210 -60 -9 -133 -20 -160 -24 -64 -9 -428 -7 -515 3 -130 16 -330
56 -443 91 -277 84 -584 246 -822 435 -192 152 -435 425 -565 634 -90 146
-189 363 -244 536 -14 47 -31 99 -37 117 -5 18 -12 40 -14 50 -2 10 -10 52
-19 93 -25 123 -29 153 -45 315 -12 124 -4 417 14 515 3 14 7 39 9 55 11 70
17 101 21 115 2 8 7 30 10 47 10 62 77 269 122 378 254 623 760 1125 1378
1368 87 34 232 83 271 92 317 69 431 83 659 80 99 -2 196 -6 215 -9z"/>
<path d="M3437 5454 c-1 -1 -38 -4 -82 -7 -267 -19 -616 -136 -848 -284 -425
-272 -700 -624 -845 -1083 -65 -204 -76 -282 -76 -540 -1 -298 8 -387 55 -558
39 -140 108 -311 176 -434 157 -285 464 -593 748 -750 164 -91 372 -172 520
-203 11 -3 40 -9 65 -14 101 -23 231 -35 370 -35 97 0 255 10 300 19 14 3 39
8 55 11 377 67 734 256 1016 537 271 269 413 511 518 882 50 177 69 331 66
530 -3 172 -19 291 -59 456 -34 137 -123 354 -202 491 -35 61 -132 208 -144
218 -3 3 -25 30 -50 60 -64 80 -222 232 -308 297 -308 232 -646 364 -1018 398
-65 7 -252 13 -257 9z"/>
</g>
</svg>
