<?xml version="1.0" standalone="no"?>
<!DOCTYPE svg PUBLIC "-//W3C//DTD SVG 20010904//EN"
 "http://www.w3.org/TR/2001/REC-SVG-20010904/DTD/svg10.dtd">
<svg version="1.0" xmlns="http://www.w3.org/2000/svg"
 width="144.000000pt" height="144.000000pt" viewBox="0 0 144.000000 144.000000"
 preserveAspectRatio="xMidYMid meet">
<metadata>
Created by potrace 1.14, written by Peter Selinger 2001-2017
</metadata>
<g transform="translate(0.000000,144.000000) scale(0.100000,-0.100000)"
fill="#000000" stroke="none">
<path d="M206 1433 c-3 -3 -6 -16 -6 -27 0 -15 -3 -17 -9 -8 -6 10 -10 10 -21
-2 -7 -9 -17 -13 -23 -9 -6 3 -7 1 -3 -5 4 -7 2 -12 -3 -12 -6 0 -11 -7 -11
-16 0 -8 -3 -13 -8 -10 -4 2 -9 -40 -10 -94 -3 -95 -2 -98 20 -101 13 -2 286
-4 608 -3 l585 1 1 101 c1 56 -2 99 -6 97 -4 -3 -10 5 -13 16 -3 12 -10 18
-15 15 -6 -3 -13 1 -16 10 -3 8 -10 13 -16 9 -5 -3 -12 6 -16 20 -5 22 -9 24
-22 13 -13 -10 -14 -10 -8 0 6 10 -93 12 -497 12 -277 0 -507 -3 -511 -7z
m154 -93 c0 -5 6 -10 14 -10 14 0 26 -27 30 -67 3 -33 -11 -29 -53 15 -53 54
-58 72 -21 72 17 0 30 -4 30 -10z m270 0 c0 -5 7 -10 16 -10 8 0 13 -4 10 -9
-4 -5 -2 -11 4 -13 14 -4 20 -42 10 -58 -6 -9 -18 -3 -46 26 -22 21 -38 42
-36 46 1 5 -2 8 -8 8 -5 0 -10 5 -10 10 0 6 14 10 30 10 17 0 30 -4 30 -10z
m265 0 c-3 -5 1 -10 9 -10 15 0 21 -12 17 -34 -1 -5 4 -4 12 3 12 10 14 6 12
-19 -1 -17 -5 -34 -8 -37 -10 -9 -90 75 -82 86 4 7 0 8 -11 4 -12 -4 -15 -3
-10 5 4 7 21 12 37 12 18 0 28 -4 24 -10z m290 -14 c29 -29 39 -86 14 -86 -5
0 -7 5 -4 10 3 6 1 10 -4 10 -16 0 -51 32 -45 42 3 5 2 8 -3 7 -4 -1 -15 -1
-23 0 -13 1 -13 2 0 11 13 8 12 10 -3 10 -10 0 -15 5 -12 10 11 18 55 10 80
-14z m-66 -66 c6 0 11 -5 11 -11 0 -16 26 -39 35 -31 4 4 6 0 3 -8 -10 -32
-88 -13 -88 22 0 10 -3 9 -10 -2 -7 -11 -10 -2 -10 33 l0 48 24 -25 c13 -15
28 -26 35 -26z m-849 29 c0 -5 5 -7 10 -4 6 3 10 -1 10 -9 0 -9 7 -16 15 -16
8 0 15 -7 15 -17 0 -9 3 -13 7 -10 6 6 32 -21 33 -34 0 -3 -16 -6 -35 -6 -19
0 -32 4 -29 9 3 4 -2 8 -10 8 -9 0 -16 9 -16 21 0 11 -4 17 -10 14 -6 -4 -10
7 -10 24 0 17 5 31 10 31 6 0 10 -5 10 -11z m280 -6 c0 4 14 -7 30 -23 17 -16
30 -34 30 -40 0 -5 5 -10 10 -10 25 0 7 -16 -20 -18 -16 -1 -30 2 -30 8 0 5
-7 10 -15 10 -8 0 -15 7 -15 16 0 8 -4 13 -8 10 -5 -3 -9 11 -10 30 -1 31 1
34 13 24 8 -7 15 -10 15 -7z m303 -32 c26 -27 47 -51 47 -53 0 -2 -16 -4 -35
-5 -19 0 -32 3 -29 8 3 5 0 9 -6 9 -21 0 -40 28 -40 59 0 17 3 31 8 31 4 0 28
-22 55 -49z"/>
<path d="M126 1098 c-11 -6 -13 -100 -14 -455 0 -444 2 -474 33 -455 12 8
1155 10 1150 2 -2 -3 6 -7 18 -7 15 -2 18 0 8 6 -7 5 -9 11 -4 14 6 4 10 183
10 452 l0 445 -26 0 c-304 5 -1166 3 -1175 -2z m337 -63 c10 0 22 7 27 15 9
13 10 13 10 0 0 -16 54 -21 77 -7 6 4 14 4 17 -1 6 -11 67 -3 84 11 9 7 11 5
6 -9 -6 -16 -5 -17 7 -6 15 14 33 16 25 3 -10 -15 28 -7 42 9 8 8 11 10 8 3
-4 -6 -2 -14 4 -18 5 -3 10 -2 10 3 0 6 9 8 20 5 11 -3 27 0 35 7 13 11 14 10
9 -6 -6 -16 -5 -17 7 -6 15 14 33 16 25 3 -10 -15 28 -7 42 9 8 8 11 10 8 3
-4 -6 -2 -14 4 -18 5 -3 10 -2 10 3 0 5 10 8 23 6 12 -1 22 -3 22 -4 0 -1 10
-3 23 -4 12 -2 22 1 22 6 0 5 4 7 9 4 5 -4 12 0 14 6 3 8 6 5 6 -6 1 -17 2
-17 26 -2 18 12 23 13 19 3 -4 -11 4 -13 31 -12 24 2 35 -1 35 -11 0 -8 3 -14
8 -14 4 0 13 -10 21 -22 12 -19 11 -24 -8 -40 -18 -14 -26 -15 -41 -6 -10 7
-16 16 -14 20 5 8 -18 12 -45 8 -8 -1 -18 4 -22 12 -7 10 -9 10 -9 1 0 -7 -7
-13 -15 -13 -8 0 -15 6 -16 13 0 10 -2 10 -6 0 -2 -7 -11 -13 -19 -13 -8 0
-14 6 -15 13 0 10 -2 10 -6 0 -2 -7 -9 -13 -14 -13 -6 0 -7 6 -3 13 6 10 4 10
-7 0 -15 -15 -33 -18 -25 -5 3 5 -1 9 -9 9 -8 0 -12 -4 -9 -9 8 -13 -10 -10
-25 5 -11 10 -13 10 -7 0 5 -9 0 -13 -16 -13 -18 0 -20 2 -8 10 12 7 10 9 -7
7 -12 0 -19 -5 -17 -9 3 -4 -2 -8 -11 -8 -9 0 -14 4 -11 8 3 5 -1 9 -9 9 -8 0
-12 -4 -9 -9 3 -4 -2 -8 -11 -8 -9 0 -14 4 -11 8 3 5 -1 9 -9 9 -8 0 -12 -4
-9 -9 8 -13 -10 -10 -25 5 -11 10 -13 10 -7 0 5 -9 0 -13 -16 -13 -18 0 -20 2
-8 10 12 7 10 9 -7 7 -12 0 -19 -5 -17 -9 3 -4 -2 -8 -11 -8 -9 0 -14 4 -11 8
2 4 -6 8 -19 8 -13 0 -21 -4 -19 -8 3 -4 -7 -8 -23 -8 -21 0 -24 3 -13 10 12
7 10 9 -7 7 -12 0 -19 -5 -17 -9 3 -4 -2 -8 -11 -8 -9 0 -14 4 -11 8 3 5 -1 9
-9 9 -8 0 -12 -4 -9 -9 8 -13 -10 -10 -25 5 -11 10 -13 10 -7 0 5 -9 0 -13
-16 -13 -18 0 -20 2 -8 10 12 7 10 9 -7 7 -12 0 -19 -5 -17 -9 3 -4 -2 -8 -11
-8 -9 0 -14 4 -11 8 3 5 -1 9 -9 9 -8 0 -12 -4 -9 -9 8 -13 -10 -10 -25 5 -11
10 -13 10 -7 0 4 -8 1 -13 -8 -13 -18 0 -57 -36 -48 -44 3 -3 0 -6 -6 -6 -7 0
-12 5 -12 11 0 5 -4 7 -10 4 -17 -10 -11 65 6 82 8 9 31 16 50 17 19 0 34 4
34 8 0 4 14 5 30 3 18 -2 30 1 31 8 0 7 3 5 7 -3 4 -8 15 -15 25 -15z m650
-177 c9 -9 17 -24 17 -33 0 -9 4 -14 8 -11 5 3 9 -1 9 -9 0 -8 -4 -12 -9 -9
-13 8 -9 -11 5 -25 10 -10 8 -11 -8 -6 -19 6 -19 6 -2 -8 18 -15 18 -16 0 -26
-17 -10 -17 -10 2 -11 18 -1 18 -2 3 -10 -13 -8 -15 -17 -8 -40 5 -18 5 -32
-1 -36 -6 -4 -3 -14 8 -27 10 -11 12 -17 6 -13 -9 5 -13 0 -13 -13 0 -12 6
-21 13 -21 7 0 5 -5 -5 -10 -17 -11 -15 -43 6 -69 8 -11 8 -13 -1 -7 -17 9
-17 -6 0 -23 10 -10 8 -11 -8 -6 -20 6 -20 6 -1 -9 17 -14 18 -16 2 -22 -15
-6 -15 -7 1 -21 10 -8 13 -12 6 -9 -6 4 -14 2 -18 -4 -3 -5 0 -10 7 -10 10 0
10 -2 0 -9 -8 -4 -14 -12 -15 -17 -2 -27 -36 -29 -404 -29 -371 0 -383 1 -401
21 -17 18 -19 38 -20 257 0 145 4 237 10 237 5 0 7 4 3 9 -3 5 4 16 15 24 17
12 86 14 398 13 340 -1 380 -3 395 -18z"/>
<path d="M133 142 c8 -10 7 -12 -3 -10 -11 2 -15 -13 -16 -64 l-2 -68 608 0
608 0 0 65 c0 36 -5 65 -10 65 -6 0 -8 6 -5 13 3 7 -3 13 -13 13 -10 0 -17 -3
-14 -7 2 -4 -7 -7 -21 -7 -15 1 -22 5 -18 12 3 6 0 6 -8 -1 -17 -17 -32 -17
-23 0 6 9 4 9 -7 0 -15 -15 -33 -18 -25 -5 3 5 -1 9 -9 9 -8 0 -12 -4 -10 -7
3 -4 -6 -8 -20 -8 -15 0 -22 5 -18 12 3 6 0 6 -8 -1 -17 -17 -32 -17 -23 0 6
9 4 9 -7 0 -15 -15 -33 -18 -25 -5 3 5 -1 9 -9 9 -8 0 -12 -4 -10 -7 3 -4 -6
-8 -20 -7 -15 0 -22 4 -18 11 3 6 0 6 -8 -1 -17 -17 -32 -17 -23 0 6 9 4 9 -7
0 -15 -15 -33 -18 -25 -5 3 5 -1 9 -9 9 -8 0 -12 -4 -10 -7 3 -4 -6 -8 -20 -7
-15 0 -22 4 -18 11 3 6 0 6 -8 -1 -17 -17 -32 -17 -23 0 6 10 4 10 -7 0 -15
-15 -33 -18 -25 -5 3 5 -1 9 -9 9 -8 0 -12 -4 -10 -7 3 -4 -6 -8 -20 -8 -15 0
-22 5 -18 12 3 6 0 6 -8 -1 -17 -17 -32 -17 -23 0 6 9 4 9 -7 -1 -15 -14 -33
-17 -25 -4 3 5 -1 9 -9 9 -8 0 -12 -4 -10 -7 3 -4 -6 -8 -20 -8 -15 0 -22 5
-18 12 3 6 0 6 -8 -1 -17 -17 -32 -17 -23 0 6 9 4 9 -7 0 -15 -15 -33 -18 -25
-5 3 5 -1 9 -9 9 -8 0 -12 -4 -10 -7 3 -4 -6 -8 -20 -7 -15 0 -22 4 -18 11 3
6 0 6 -8 -1 -17 -17 -32 -17 -23 0 6 9 4 9 -7 0 -15 -15 -33 -18 -25 -5 3 5
-1 9 -9 9 -8 0 -12 -4 -10 -7 3 -4 -6 -8 -20 -7 -15 0 -22 4 -18 11 3 6 0 6
-8 -2 -17 -16 -32 -16 -23 1 6 9 4 9 -7 -1 -15 -14 -33 -17 -25 -4 3 5 -1 9
-9 9 -8 0 -12 -4 -10 -7 3 -4 -6 -8 -20 -7 -15 0 -22 4 -18 11 3 6 0 6 -8 -1
-7 -7 -17 -13 -22 -13 -4 0 -5 6 -1 13 6 10 4 10 -7 0 -15 -15 -33 -18 -25 -5
3 5 -1 9 -9 9 -8 0 -12 -3 -10 -7 2 -4 -10 -7 -27 -8 -22 0 -28 2 -19 8 10 5
6 8 -12 7 -20 -2 -23 -5 -14 -15z"/>
</g>
</svg>
