<?xml version="1.0" encoding="utf-8"?><svg xmlns="http://www.w3.org/2000/svg" xmlns:xlink="http://www.w3.org/1999/xlink"><symbol fill="none" viewBox="0 0 44 16" id="arrow" xmlns="http://www.w3.org/2000/svg"><path d="M43.707 8.707a1 1 0 000-1.414L37.343.929a1 1 0 10-1.414 1.414L41.586 8l-5.657 5.657a1 1 0 001.414 1.414l6.364-6.364zM0 9h43V7H0v2z" fill="#8C31F6"/></symbol><symbol fill="none" viewBox="0 0 24 16" id="arrow-white" xmlns="http://www.w3.org/2000/svg"><path d="M23.707 8.707a1 1 0 000-1.414L17.343.929a1 1 0 10-1.414 1.414L21.586 8l-5.657 5.657a1 1 0 001.414 1.414l6.364-6.364zM0 9h23V7H0v2z" fill="#FFFEFE"/></symbol><symbol fill="none" viewBox="0 0 16 15" id="close" xmlns="http://www.w3.org/2000/svg"><path fill-rule="evenodd" clip-rule="evenodd" d="M6.4 7.917L.834 13.482 2.353 15l5.564-5.565L13.482 15 15 13.482 9.435 7.917l5.567-5.567L13.484.832 7.917 6.399 2.35.832.832 2.35l5.567 5.567z" fill="#fff" fill-opacity=".53"/></symbol><symbol fill="none" viewBox="0 0 42 40" id="gift" xmlns="http://www.w3.org/2000/svg"><path d="M13.913 0c-2.86 0-5.217 2.357-5.217 5.217 0 .614.127 1.19.327 1.74H0V17.39h1.74V40H40V17.391h1.74V6.957h-9.023c.2-.55.327-1.126.327-1.74 0-2.86-2.357-5.217-5.218-5.217-3.043 0-5.113 2.313-6.47 4.24-.179.257-.326.508-.486.76-.16-.252-.308-.504-.487-.762C19.026 2.313 16.956 0 13.913 0zm0 3.478c1.089 0 2.497 1.165 3.588 2.719.264.377.226.4.435.76h-4.023c-.983 0-1.74-.757-1.74-1.74 0-.982.757-1.739 1.74-1.739zm13.913 0c.983 0 1.74.757 1.74 1.74 0 .982-.757 1.739-1.74 1.739h-4.023c.21-.359.17-.383.435-.762 1.09-1.548 2.501-2.717 3.588-2.717zM3.478 10.435h34.783v3.478H22.609v-1.74H19.13v1.74H3.478v-3.478zm1.74 6.956h31.304v19.13H22.609v-17.39H19.13v17.39H5.217v-19.13z" fill="#8C31F6"/></symbol><symbol fill="none" viewBox="0 0 44 41" id="idea" xmlns="http://www.w3.org/2000/svg"><path d="M7.42 0L5.25 2.168l3.23 3.228 2.167-2.168L7.42 0zm28.33 0l-3.23 3.228 2.17 2.168 3.228-3.227L35.75 0zM21.585.962a14.13 14.13 0 00-1.542.099c-.015 0-.031-.003-.046 0-6.254.717-11.23 5.769-12.095 11.995-.691 5.01 1.375 9.554 4.817 12.48a8.075 8.075 0 012.699 4.672v9.25h3.515A3.064 3.064 0 0021.585 41a3.064 3.064 0 002.651-1.542h3.516v-6.167h.145V31.46c0-2.26 1.174-4.54 3.083-6.31 2.553-2.557 4.48-6.188 4.48-10.358 0-7.617-6.268-13.9-13.875-13.83zm0 3.084c5.959-.084 10.792 4.794 10.792 10.746 0 3.228-1.496 6.071-3.566 8.14l.05.05a12.013 12.013 0 00-3.763 7.227h-6.743c-.34-2.642-1.473-5.2-3.614-7.035-2.724-2.313-4.348-5.797-3.805-9.731.673-4.857 4.614-8.762 9.443-9.297.399-.056.8-.089 1.202-.099l.004-.001zM0 14.792v3.083h4.625v-3.083H0zm38.544 0v3.083h4.625v-3.083h-4.625zM8.48 27.27l-3.23 3.227 2.17 2.17 3.225-3.229-2.166-2.167zm26.21 0l-2.168 2.167 3.227 3.229 2.169-2.17-3.228-3.226zM18.5 33.293h6.167v3.083H18.5v-3.083z" fill="#8C31F6"/></symbol><symbol fill="none" viewBox="0 0 38 28" id="logo" xmlns="http://www.w3.org/2000/svg"><path d="M0 12.065V23.13a1 1 0 001 1h35.115a1 1 0 001-1V1a1 1 0 00-1-1H1a1 1 0 00-1 1v11.065zm35.247 0v9.198a1 1 0 01-1 1H2.866a1 1 0 01-1-.998l-.016-9.14c-.006-5.58 0-10.174.018-10.216.014-.048 2.228-.065 10.132-.063 1.86 0 4.034.001 6.57.004l6.43.007 9.248.01a1 1 0 01.999 1v9.198z" fill="#fff"/><path d="M11.383 6.676c-.243.077-.492.142-.557.142-.1 0-.107.041-.065.854l.041.848-.201.124-.208.13-.676-.237C9.344 8.407 9 8.3 8.941 8.3c-.06 0-.214.208-.421.575l-.332.581.225.208c.118.112.385.356.587.545.338.303.367.356.367.575v.243l-.74.374c-.647.314-.742.385-.712.486.018.065.095.356.172.652l.136.534.83-.024.83-.018.137.19.136.196-.249.765c-.142.42-.249.77-.237.782.065.048 1.156.658 1.18.658.018 0 .255-.255.533-.563.273-.308.522-.58.552-.599.023-.018.148-.018.266 0 .214.036.232.054.575.765.303.617.374.718.475.694a27.78 27.78 0 001.245-.338c.006-.012-.012-.38-.042-.818l-.059-.795.172-.136c.089-.077.208-.137.255-.137.047 0 .403.107.795.238.812.278.687.326 1.138-.469l.284-.498-.207-.178c-.866-.764-1.002-.9-1.002-1.014 0-.32.065-.379.777-.729l.705-.344-.03-.207a7.536 7.536 0 00-.172-.682c-.124-.427-.154-.474-.278-.468-.077.006-.45.023-.824.047l-.682.036-.13-.208-.13-.213.23-.694c.13-.38.238-.723.238-.765 0-.077-1.103-.747-1.18-.717a9.414 9.414 0 00-.57.605c-.521.575-.533.58-.758.551-.125-.018-.238-.042-.243-.053-.006-.006-.166-.332-.356-.718-.392-.794-.338-.765-1.044-.54zm1.903 3.059c.149.06.368.213.487.332a1.63 1.63 0 01-.64 2.692c-.623.213-1.192.083-1.667-.392-.462-.462-.604-1.031-.415-1.66.279-.925 1.305-1.375 2.235-.972z" fill="#4978F1"/><path d="M23.798 7.986c-.09.522-.51 2.615-.564 2.816-.047.178-.089.226-.243.261a2.594 2.594 0 00-.444.148l-.25.107-1.34-.89-1.345-.895-.148.143c-.083.077-.534.521-1.008.99l-.854.854.854 1.28c.468.706.871 1.316.895 1.358.047.077-.225.824-.338.937-.041.041-.658.183-1.375.32-.718.136-1.412.279-1.542.314l-.237.071-.012 1.382c-.006 1.025.006 1.387.06 1.41.04.013.604.131 1.256.262 1.82.361 1.88.373 1.915.474.012.047.095.255.172.462l.148.368-.39.581-.386.575 6.616.018c3.64.006 6.629 0 6.64-.012.013-.012-.148-.279-.361-.587l-.38-.57.16-.42c.09-.231.19-.445.22-.474.03-.03.73-.19 1.56-.356.83-.166 1.529-.314 1.559-.332.023-.018.047-.658.047-1.417V15.77l-.13-.03c-.078-.018-.747-.148-1.5-.296a49.59 49.59 0 01-1.459-.303c-.053-.012-.184-.231-.285-.474l-.183-.45.89-1.335c.491-.735.888-1.346.888-1.357 0-.042-1.932-1.98-1.974-1.98-.024 0-.64.397-1.37.889l-1.327.883-.362-.142c-.196-.083-.397-.148-.445-.148-.041 0-.1-.072-.118-.155-.042-.148-.629-3.053-.629-3.089 0-.011-.64-.017-1.423-.017H23.84l-.041.22zm2.407 6.048c.717.201 1.518.835 1.92 1.517.273.475.41 1.014.41 1.643.006.9-.297 1.624-.943 2.276-.67.676-1.393.984-2.312.984-2.514 0-4.067-2.614-2.888-4.873.368-.711 1.31-1.423 2.093-1.583l.445-.089c.202-.047.93.024 1.275.124z" fill="#4978F1"/><path fill="#fff" d="M11 26h15v2H11z"/></symbol><symbol fill="none" viewBox="0 0 21 21" id="phone" xmlns="http://www.w3.org/2000/svg"><path d="M.6 2.182l.035-.022L5.02 0l4.734 6.311-2.178 2.904a4.483 4.483 0 004.21 4.209l2.903-2.178L21 15.98l-2.142 4.35-.018.036-.022.035a1.27 1.27 0 01-1.084.6h-1.131A16.602 16.602 0 010 4.397V3.266a1.27 1.27 0 01.6-1.084zm1.02 2.215c0 8.261 6.722 14.982 14.983 14.982h.915l1.434-2.91-4.263-3.197-2.374 1.78h-.27a6.104 6.104 0 01-6.097-6.097v-.27l1.78-2.374L4.53 2.048 1.62 3.482v.915z" fill="#805DE2"/></symbol><symbol fill="none" viewBox="0 0 17 22" id="pin" xmlns="http://www.w3.org/2000/svg"><path d="M8.152 5.156a3 3 0 100 6 3 3 0 000-6zm0 4.5a1.5 1.5 0 110-3 1.5 1.5 0 010 3z" fill="#805DE2"/><path d="M13.917 2.387A8.152 8.152 0 001.32 12.602l5.668 8.7a1.388 1.388 0 002.326 0l5.668-8.7a8.153 8.153 0 00-1.066-10.215zm-.19 9.396L8.151 20.34l-5.574-8.557a6.683 6.683 0 01.87-8.335 6.652 6.652 0 019.408 0 6.683 6.683 0 01.87 8.335z" fill="#805DE2"/></symbol><symbol fill="none" viewBox="0 0 39 42" id="prize" xmlns="http://www.w3.org/2000/svg"><path d="M19.395 0c-.996 0-1.992.34-2.84.948l-2.649 1.844-3.038.399h-.048l-.05.048a5.409 5.409 0 00-4.09 4.09l-.048.048v.051l-.399 3.093-1.844 2.393-.05.048v.05c-1.115 1.784-1.166 4.085.05 5.784l1.89 2.647.502 2.741-5.138 7.829L0 34.454h7.628l1.844 4.289 1.149 2.744 1.643-2.494 5.039-7.578c1.35.558 2.881.606 4.186 0l5.037 7.578 1.643 2.49 1.15-2.745 1.842-4.285h7.628l-1.643-2.445-4.988-7.577.4-2.991 1.843-2.642.051-.048v-.048c1.114-1.787 1.165-4.033-.05-5.736l-1.845-2.643-.598-2.993h.048c0-.04-.043-.064-.048-.101-.287-2.085-1.942-3.781-4.037-4.036h-.05l-2.992-.4L22.236.95A4.91 4.91 0 0019.395 0zm0 3.239c.366 0 .73.111.997.303l2.84 2.042.35.249.4.051 3.49.498h.048c.715.08 1.22.582 1.297 1.297v.099l.65 3.542.048.346.25.3 2.042 2.84c.383.534.431 1.426-.048 2.195l-1.994 2.792-.249.351-.051.4-.498 3.487v.048c-.025.25-.11.49-.249.699l-.1.05v.052a1.41 1.41 0 01-.946.498h-.1l-3.637.649-.399.048-.303.25-2.84 2.042c-.531.383-1.474.431-2.243-.047l-2.594-1.995-.3-.249-.447-.05-3.492-.499h-.051a1.39 1.39 0 01-1.097-.698 1.563 1.563 0 01-.2-.599v-.099l-.648-3.637-.051-.4-.25-.302-2.041-2.84c-.383-.532-.431-1.474.047-2.243l1.995-2.595.249-.3.048-.446.451-3.343c.003-.022.042-.024.048-.048a2.23 2.23 0 011.595-1.595c.024-.007.026-.045.048-.048l3.343-.45.399-.051.35-.249 2.84-2.042c.267-.192.632-.303.998-.303h.005zm11.018 24.283l2.444 3.74h-3.842l-.399.997-1.094 2.541-3.39-5.185.746-.549 3.14-.55v.048c.04 0 .064-.044.1-.048a4.743 4.743 0 002.292-.997l.003.003zm-22.037.048a4.576 4.576 0 002.492 1.148h.048l3.044.4.697.548L11.27 34.8l-1.096-2.541-.4-1H5.93l2.444-3.69h.003z" fill="#8C31F6"/></symbol></svg>