<svg width="253" height="72" viewBox="0 0 253 72" fill="none" xmlns="http://www.w3.org/2000/svg">
<g clip-path="url(#clip0_237_1391)">
<rect opacity="0.9" x="-26" y="-13" width="95" height="97" rx="20" fill="url(#paint0_linear_237_1391)"/>
</g>
<path d="M79.0938 28.8828V6.5293H96.9062V28.8828H93.8594V9.3125H82.1406V28.8828H79.0938ZM110.617 28.8828V6.5293H118.967C120.451 6.5293 121.789 6.72461 122.98 7.11523C124.172 7.50586 125.119 8.16992 125.822 9.10742C126.545 10.0449 126.906 11.3438 126.906 13.0039C126.906 14.6445 126.545 15.9336 125.822 16.8711C125.119 17.8086 124.172 18.4727 122.98 18.8633C121.789 19.2539 120.451 19.4492 118.967 19.4492H113.605V28.8828H110.617ZM113.605 16.666H118.381C119.279 16.666 120.139 16.5879 120.959 16.4316C121.799 16.2754 122.482 15.9434 123.01 15.4355C123.537 14.9082 123.801 14.0879 123.801 12.9746C123.801 12.1348 123.645 11.4707 123.332 10.9824C123.02 10.4941 122.6 10.1328 122.072 9.89844C121.564 9.64453 120.988 9.48828 120.344 9.42969C119.699 9.35156 119.045 9.3125 118.381 9.3125H113.605V16.666ZM148.029 29.0879C145.725 29.0879 143.801 28.5703 142.258 27.5352C140.734 26.5 139.592 25.1035 138.83 23.3457C138.068 21.5879 137.688 19.6348 137.688 17.4863C137.688 15.2988 138.088 13.3555 138.889 11.6562C139.689 9.9375 140.871 8.58984 142.434 7.61328C144.016 6.61719 145.939 6.11914 148.205 6.11914C149.885 6.11914 151.359 6.42188 152.629 7.02734C153.898 7.63281 154.953 8.47266 155.793 9.54688C156.652 10.6016 157.287 11.832 157.697 13.2383C158.127 14.625 158.342 16.0996 158.342 17.6621C158.342 19.791 157.951 21.7246 157.17 23.4629C156.389 25.1816 155.236 26.5488 153.713 27.5645C152.189 28.5801 150.295 29.0879 148.029 29.0879ZM148 26.3047C149.309 26.3047 150.412 26.0703 151.311 25.6016C152.229 25.1133 152.971 24.459 153.537 23.6387C154.104 22.8184 154.514 21.8809 154.768 20.8262C155.021 19.7715 155.148 18.6582 155.148 17.4863C155.148 15.9238 154.895 14.498 154.387 13.209C153.898 11.9004 153.117 10.8555 152.043 10.0742C150.969 9.29297 149.572 8.90234 147.854 8.90234C146.584 8.90234 145.5 9.14648 144.602 9.63477C143.723 10.1035 143 10.748 142.434 11.5684C141.887 12.3887 141.486 13.3262 141.232 14.3809C140.979 15.416 140.852 16.4902 140.852 17.6035C140.852 19.127 141.086 20.5527 141.555 21.8809C142.043 23.209 142.805 24.2832 143.84 25.1035C144.895 25.9043 146.281 26.3047 148 26.3047Z" fill="url(#paint1_linear_237_1391)"/>
<path d="M80.6172 64.8828V42.5293H88.9668C90.4512 42.5293 91.7891 42.7246 92.9805 43.1152C94.1719 43.5059 95.1191 44.1699 95.8223 45.1074C96.5449 46.0449 96.9062 47.3438 96.9062 49.0039C96.9062 50.6445 96.5449 51.9336 95.8223 52.8711C95.1191 53.8086 94.1719 54.4727 92.9805 54.8633C91.7891 55.2539 90.4512 55.4492 88.9668 55.4492H83.6055V64.8828H80.6172ZM83.6055 52.666H88.3809C89.2793 52.666 90.1387 52.5879 90.959 52.4316C91.7988 52.2754 92.4824 51.9434 93.0098 51.4355C93.5371 50.9082 93.8008 50.0879 93.8008 48.9746C93.8008 48.1348 93.6445 47.4707 93.332 46.9824C93.0195 46.4941 92.5996 46.1328 92.0723 45.8984C91.5645 45.6445 90.9883 45.4883 90.3438 45.4297C89.6992 45.3516 89.0449 45.3125 88.3809 45.3125H83.6055V52.666ZM110.588 64.6777V42.5293H125.939V45.3125H113.576V51.8164H125.09V54.5996H113.576V61.8945H126.145V64.6777H110.588ZM137.951 64.8828V42.3242H140.939L148 52.4902L155.061 42.3242H158.049V64.8828H155.061V46.748L148 56.8262L140.939 46.748V64.8828H137.951ZM178.029 65.0879C175.725 65.0879 173.801 64.5703 172.258 63.5352C170.734 62.5 169.592 61.1035 168.83 59.3457C168.068 57.5879 167.688 55.6348 167.688 53.4863C167.688 51.2988 168.088 49.3555 168.889 47.6562C169.689 45.9375 170.871 44.5898 172.434 43.6133C174.016 42.6172 175.939 42.1191 178.205 42.1191C179.885 42.1191 181.359 42.4219 182.629 43.0273C183.898 43.6328 184.953 44.4727 185.793 45.5469C186.652 46.6016 187.287 47.832 187.697 49.2383C188.127 50.625 188.342 52.0996 188.342 53.6621C188.342 55.791 187.951 57.7246 187.17 59.4629C186.389 61.1816 185.236 62.5488 183.713 63.5645C182.189 64.5801 180.295 65.0879 178.029 65.0879ZM178 62.3047C179.309 62.3047 180.412 62.0703 181.311 61.6016C182.229 61.1133 182.971 60.459 183.537 59.6387C184.104 58.8184 184.514 57.8809 184.768 56.8262C185.021 55.7715 185.148 54.6582 185.148 53.4863C185.148 51.9238 184.895 50.498 184.387 49.209C183.898 47.9004 183.117 46.8555 182.043 46.0742C180.969 45.293 179.572 44.9023 177.854 44.9023C176.584 44.9023 175.5 45.1465 174.602 45.6348C173.723 46.1035 173 46.748 172.434 47.5684C171.887 48.3887 171.486 49.3262 171.232 50.3809C170.979 51.416 170.852 52.4902 170.852 53.6035C170.852 55.127 171.086 56.5527 171.555 57.8809C172.043 59.209 172.805 60.2832 173.84 61.1035C174.895 61.9043 176.281 62.3047 178 62.3047ZM199.006 64.8828V42.3242H202.053V51.8164H213.947V42.3242H216.994V64.8828H213.947V54.5996H202.053V64.8828H199.006ZM236.418 65.0879V45.3125H228.332V42.5293H247.639V45.3125H239.582V65.0879H236.418Z" fill="#2E2E2E"/>
<path d="M43.5308 60.9996H40.7953C39.8631 60.591 40.0613 59.7151 40.0148 58.9663H23.411C23.3816 59.7493 23.5431 60.5935 22.628 60.9996H19.8925C19.063 60.5372 19.2025 59.7297 19.2098 59.0226C18.5957 58.8514 17.9865 58.7779 17.458 58.5161C15.7452 57.6965 15.0112 56.2627 15.0112 54.4129V29.1132C15.0041 28.9498 15.0106 28.7861 15.0307 28.6238C15.0498 28.3695 15.1619 28.1311 15.3456 27.9542C15.5293 27.7773 15.7717 27.6742 16.0266 27.6647C16.2371 27.6431 16.4488 27.6349 16.6603 27.6402H46.7557C46.9025 27.6402 47.0493 27.6402 47.1961 27.6402C48.0133 27.6892 48.4048 28.088 48.4048 28.915C48.4048 37.4787 48.4048 46.0425 48.4048 54.6062C48.4048 56.3801 47.5998 57.7405 45.9752 58.521C45.4467 58.7657 44.8374 58.8562 44.2208 59.0275C44.2208 59.7297 44.3627 60.5372 43.5308 60.9996ZM23.3106 33.8918V33.8624C24.4166 33.8624 25.5127 33.882 26.626 33.8624C26.849 33.854 27.0613 33.7651 27.2237 33.6121C27.3861 33.4592 27.4876 33.2525 27.5093 33.0305C27.5474 32.8114 27.5097 32.586 27.4025 32.3912C27.2954 32.1964 27.125 32.0439 26.9196 31.9588C26.6724 31.8836 26.4145 31.8497 26.1563 31.8585C25.0161 31.8585 23.8783 31.8585 22.7308 31.8585C22.5154 31.8585 22.3466 31.8585 22.2414 31.5869C21.9453 30.755 21.182 30.569 20.5115 31.1563C20.2179 31.4132 19.9561 31.7068 19.6796 31.9784C19.3077 32.3454 19.0704 32.7516 19.3028 33.2849C19.5353 33.8183 19.9635 33.9089 20.4675 33.9064C21.4291 33.8869 22.3662 33.8918 23.3106 33.8918Z" fill="white"/>
<path d="M31.7055 25.5926H16.67C16.4914 25.5926 16.3103 25.5926 16.1342 25.5926C15.4173 25.5241 15.0282 25.1448 15.0258 24.423C15.0135 21.3303 14.9671 18.2376 15.0405 15.1448C15.1016 12.654 16.9171 11 19.408 11H44.069C46.1366 11 47.6927 12.1622 48.2408 14.1417C48.3505 14.5825 48.4031 15.0356 48.3974 15.4898C48.4121 18.3721 48.3974 21.252 48.3974 24.1343C48.3974 25.2305 48.0328 25.6024 46.9293 25.6024C41.8612 25.5991 36.7866 25.5959 31.7055 25.5926ZM23.3497 21.389V21.3597C24.4385 21.3597 25.5298 21.3792 26.6186 21.3597C26.841 21.3519 27.053 21.2639 27.2154 21.1118C27.3778 20.9597 27.4796 20.754 27.5019 20.5326C27.5409 20.3138 27.5042 20.0882 27.398 19.893C27.2917 19.6978 27.1221 19.5445 26.9171 19.4585C26.6701 19.3822 26.4121 19.3474 26.1537 19.3557C24.9989 19.3557 23.844 19.3557 22.6891 19.3386C22.6043 19.33 22.5226 19.3019 22.4504 19.2565C22.3783 19.2111 22.3176 19.1496 22.2731 19.0768C21.9208 18.2596 21.1917 18.0638 20.5212 18.6486C20.2276 18.8933 19.9683 19.1967 19.6893 19.4707C19.3174 19.8353 19.0776 20.2415 19.3076 20.7749C19.5376 21.3083 19.9658 21.4037 20.4699 21.4013C21.429 21.3866 22.4077 21.389 23.3546 21.389H23.3497Z" fill="white"/>
<defs>
<linearGradient id="paint0_linear_237_1391" x1="21.5" y1="-13" x2="21.5" y2="84" gradientUnits="userSpaceOnUse">
<stop stop-color="#86D5E7"/>
<stop offset="1" stop-color="#66C3EB"/>
</linearGradient>
<linearGradient id="paint1_linear_237_1391" x1="163" y1="0" x2="163" y2="72" gradientUnits="userSpaceOnUse">
<stop stop-color="#86D5E7"/>
<stop offset="1" stop-color="#66C3EB"/>
</linearGradient>
<clipPath id="clip0_237_1391">
<rect y="4" width="64" height="64" rx="4" fill="white"/>
</clipPath>
</defs>
</svg>
