<svg width="200" height="64" viewBox="0 0 200 64" fill="none" xmlns="http://www.w3.org/2000/svg">
<path d="M188.331 38.2171L190.291 41.1239C191.166 42.0395 190.597 43.3595 189.673 43.6441C189.457 43.7104 189.327 43.8169 189.327 43.9887L189.325 44.3592L200 44.3574V43.9448C200.003 43.8294 199.953 43.6952 199.828 43.6495C199.771 43.6289 199.696 43.611 199.624 43.5851C198.537 43.2056 197.581 42.631 196.685 41.4282L191.463 34.2319L193.808 31.1935C195.345 29.3875 197.286 28.1569 198.444 27.9072C198.662 27.8615 198.718 27.7533 198.718 27.5492V27.2243L198.351 27.2261L192.324 27.2279C192.321 27.2279 192.328 27.2279 192.324 27.2279L191.971 27.2297C191.971 27.2297 191.964 27.4006 191.964 27.5492C191.964 27.7327 192.048 27.8499 192.18 27.9287L192.279 28.0021C192.725 28.2902 193.111 29.0653 192.084 30.32C192.086 30.346 191.35 31.2901 190.3 32.6102L190.296 32.5923L188.784 30.4578C187.88 29.5136 188.508 28.1345 189.48 27.9054C189.698 27.858 189.753 27.7533 189.753 27.5492V27.2225L189.389 27.2243L179.319 27.2261C179.319 27.2261 179.312 27.4006 179.312 27.5492C179.312 27.8096 179.481 27.9412 179.721 28.0074C180.798 28.3851 181.745 28.9597 182.634 30.1535L187.164 36.5775L184.22 40.271C182.702 42.0556 181.396 43.4052 180.336 43.6459C180.114 43.6969 179.997 43.8169 179.997 43.9887L179.994 44.3592L186.18 44.3574V43.9538C186.183 43.892 186.168 43.8309 186.137 43.778C186.106 43.7251 186.061 43.6829 186.008 43.6567C185.936 43.6182 185.892 43.6021 185.832 43.5591C185.403 43.2548 185.059 42.4896 186.062 41.2644C186.06 41.2385 187.275 39.5202 188.324 38.1983M53.5728 23.555C53.0388 22.1795 51.6055 21.5942 50.0908 21.5942H43.9661V30.175L48.7939 30.1858C50.4397 30.1858 51.9355 29.868 52.215 28.5704C52.2484 28.4182 52.3556 28.3046 52.4944 28.3028H52.7816L52.7833 34.3491L52.4936 34.3509C52.3487 34.3527 52.2707 34.2211 52.2107 34.0502C51.8164 32.9315 50.3488 32.3945 48.7939 32.3945H43.9661V39.2714C43.9661 41.3217 44.669 41.8775 46.6346 41.8775H50.0994C51.7109 41.8775 53.5274 41.0452 54.1454 39.4289C54.1664 39.3732 54.2034 39.3257 54.2513 39.2929C54.2992 39.26 54.3556 39.2435 54.4129 39.2454H54.6512V44.3404H36.3935L36.3952 44.0084C36.3884 43.8419 36.505 43.6871 36.7518 43.6674C37.8568 43.5779 38.7431 42.3635 38.7431 40.4966V22.8471C38.7431 20.9784 37.8568 19.7568 36.7518 19.6691C36.505 19.6503 36.3884 19.4946 36.3952 19.3263L36.3935 18.9943H54.0717L54.0725 23.7403H53.842C53.7357 23.7349 53.6122 23.6579 53.5728 23.555ZM65.7057 44.3404L65.71 44.0084C65.7177 43.8419 65.5994 43.6871 65.3534 43.6674C64.2493 43.5779 63.3638 42.3509 63.3638 40.484V22.1848C63.3638 20.7762 63.3612 18 63.3612 18L56.2987 18.9943L56.2996 19.3263C56.2919 19.4946 56.4101 19.6494 56.657 19.6691C57.7611 19.7568 58.6492 20.9731 58.6492 22.8417L58.6569 40.4894C58.6569 42.3563 57.7722 43.5779 56.6682 43.6674C56.4204 43.6862 56.303 43.8419 56.3107 44.0084L56.3167 44.3404H65.7057ZM159.162 44.3404L159.165 44.0084C159.172 43.8419 159.055 43.6871 158.807 43.6674C157.702 43.5779 156.818 42.3509 156.818 40.484L156.816 22.1848V18L149.753 18.9943L149.755 19.3263C149.746 19.4946 149.865 19.6494 150.111 19.6691C151.215 19.7568 152.103 20.9731 152.103 22.8417L152.11 40.4894C152.11 42.3563 151.227 43.5779 150.123 43.6674C149.876 43.6862 149.758 43.8419 149.767 44.0084L149.772 44.3404H159.162ZM122.932 26.9254V30.7532C123.672 29.3427 125.122 26.5997 128.231 26.5997C128.788 26.5997 129.257 26.7303 129.586 26.8529L128.273 31.5694H126.274C124.265 31.5694 123.011 32.9324 123.011 34.6104L123.007 40.4823C123.007 42.3491 123.891 43.5779 124.993 43.6674C125.24 43.6862 125.359 43.8419 125.351 44.0084L125.344 44.3404H116.029L116.025 44.0084C116.019 43.8419 116.134 43.6871 116.382 43.6674C117.485 43.5779 118.376 42.3527 118.376 40.484L118.374 31.76C118.374 29.8949 117.617 28.7708 116.389 28.5909C116.213 28.565 116.027 28.3547 116.027 28.173V27.9197L122.932 26.9254ZM178.993 44.3574H174.67C173.207 44.3574 172.77 43.3944 172.77 42.5917C170.892 44.1086 169.51 44.7557 167.04 44.847C164.249 44.94 161.706 43.143 161.706 39.9247L161.701 31.7707C161.701 29.9038 160.812 28.6894 159.707 28.5999C159.461 28.5811 159.343 28.4254 159.352 28.2571L159.349 27.9251L166.566 26.9308L166.57 37.5325C166.57 42.2749 171.047 41.7656 172.769 40.4303L172.772 31.7689C172.772 29.9003 171.883 28.6894 170.779 28.5999C170.533 28.5811 170.415 28.4254 170.422 28.2571L170.42 27.9251L177.636 26.9308L177.635 40.4635C177.635 41.9249 177.906 43.4293 179.009 43.6728C179.203 43.7148 179.333 43.7972 179.333 44.0648V44.3583H178.993V44.3574ZM100.864 32.2952V27.8392C100.864 27.8392 98.3909 26.6632 94.3861 26.6632C89.206 26.6632 85.5911 29.4143 85.5526 36.0916C85.5123 41.3683 88.4671 44.898 94.1898 44.898C97.9701 44.898 100.159 42.947 100.981 42.1639C101.462 41.7719 101.471 41.4175 101.471 40.97C101.471 40.5225 101.504 39.7359 101.504 39.7359C99.9536 40.8984 97.8861 41.6985 95.8502 41.6985C91.7236 41.6985 90.4978 38.6324 90.4978 35.236C90.4978 33.8345 90.9281 29.0518 94.8155 29.008C97.3134 29.008 98.7347 29.7947 100.198 32.3453C100.444 32.7337 100.605 32.8169 100.864 32.7614V32.2952ZM139.383 28.9722C136.287 28.9722 135.418 31.4996 135.418 35.4714C135.418 38.67 135.457 42.6865 139.423 42.6865C143.233 42.597 143.193 39.2553 143.193 35.6038C143.193 31.342 142.186 28.9981 139.392 28.9722H139.383ZM139.115 26.5791C143.113 26.5128 148.571 27.568 148.611 35.4239C148.611 41.5562 146.418 44.898 139.189 44.898C134.165 44.898 130.081 43.722 130.081 35.8294C130.041 27.8025 135.655 26.6265 139.108 26.5809L139.115 26.5791ZM83.467 35.1546H72.0362C71.8021 40.5664 74.6352 41.6466 77.344 41.694C79.679 41.694 81.4286 40.8671 82.9492 39.7591V41.1293C82.9492 41.4085 82.8155 41.6323 82.7246 41.7656C81.6951 43.2163 79.0815 44.8998 75.459 44.8998C70.512 44.8998 67.0549 42.2373 67.0549 36.1462C67.0549 29.4564 70.5943 26.6981 75.5413 26.6721H75.537C80.6528 26.6721 83.2793 29.1843 83.4618 34.6677L83.467 35.1546ZM75.4976 28.6572C73.9246 28.7485 72.4725 29.468 72.0362 33.0344H78.7987C78.8381 29.3776 77.0697 28.7485 75.459 28.6572H75.4976ZM114.371 28.0173V27.2378H109.11L109.098 22.1472L102.137 29.6756H104.361V39.6634C104.361 41.362 104.871 44.9526 109.463 45C111.498 45 112.949 44.2393 114.069 43.2083C114.488 42.8584 114.488 42.6346 114.51 42.2892C114.528 41.992 114.517 41.6403 114.517 41.0568C111.597 42.768 109.11 41.6931 109.11 38.3719V29.6756H112.837C113.561 29.5521 114.371 29.1342 114.371 28.0173ZM0 18.9862V44.3547H24.2992V18.9862H0ZM14.2836 20.5641C14.2836 26.3079 9.12153 30.9089 3.62684 30.9089L1.32524 30.9071C1.70155 25.0129 6.41447 20.3457 12.1449 20.3457C12.8787 20.3457 13.5979 20.4209 14.2836 20.5641ZM14.2836 42.7724C13.5979 42.9192 12.8787 42.9944 12.1449 42.9944C6.41447 42.9944 1.70155 38.3218 1.3261 32.433H3.6277C9.12153 32.433 14.2836 37.0322 14.2836 42.7724ZM15.7366 20.9856C19.9592 22.5312 22.986 26.7384 22.986 31.666C22.986 36.6026 19.96 40.8098 15.7374 42.3545L15.7366 20.9856Z" fill="#1D5B99"/>
</svg>
