<svg width="200" height="64" viewBox="0 0 200 64" fill="none" xmlns="http://www.w3.org/2000/svg">
<path fill-rule="evenodd" clip-rule="evenodd" d="M152.462 19.536H160.591V31.4761H177.058V19.536H185.19V49.36H177.058V36.2029H160.591V49.36H152.462V19.536ZM0 19.536H8.13284V31.4761H24.5979V19.536H32.7809V49.36H24.5979V36.2029H8.13284V49.36H0V19.536ZM39.5071 19.536H47.7414V49.36H39.5071V19.536ZM191.767 19.536H200V49.36H191.767V19.536ZM50.7529 19.536H82.7313V24.5063H70.7834V49.36H62.7008V24.5063H50.7529V19.536ZM89.7584 37.9566L95.4315 24.6523L101.054 37.9566H89.7584ZM103.112 42.6835L105.924 49.36H115.112L100.603 19.5847H90.3113L75.703 49.36H84.8389L87.7011 42.6835H103.112ZM139.859 29.6725H148.194C148.091 24.2629 143.273 19.0979 132.078 19.0005C123.745 18.9518 113.654 22.2658 113.603 34.3993C113.553 46.4355 123.844 50.1876 132.078 49.9929C139.658 49.7494 148.091 47.7036 148.445 38.6394L140.06 38.6881C139.809 44.3422 135.142 45.4619 132.079 45.5106C128.916 45.5106 122.439 44.8777 122.341 34.5466C122.241 24.8008 128.163 23.4365 132.079 23.4365C135.944 23.484 139.809 25.2389 139.859 29.6725Z" fill="#CF4044"/>
</svg>
