<svg width="200" height="64" viewBox="0 0 200 64" fill="none" xmlns="http://www.w3.org/2000/svg">
<path fill-rule="evenodd" clip-rule="evenodd" d="M39.3874 39.3134C39.2403 41.7394 36.9855 42.5472 36.1841 42.5472H27.6662V35.5641H36.0405C36.4747 35.5641 39.3874 36.227 39.3874 39.3134ZM49.0703 40.1225C49.0703 32.6237 43.391 31.5224 43.391 31.5224C43.391 31.5224 47.4687 29.5384 47.4687 24.5404C47.4687 16.3811 40.5513 13.9564 37.7846 13.9564H19V49.9712H39.0955C42.8096 49.9712 49.0703 46.1493 49.0703 40.1225ZM38.1494 24.8339C38.1494 27.1113 36.0393 28.2886 35.2379 28.2886H27.665V21.4528H34.5812C35.3826 21.4528 38.1494 22.2618 38.1494 24.8339ZM76.228 31.9632C76.228 37.1833 73.3154 42.2538 68.3645 42.2538C63.3406 42.2538 60.4279 37.1821 60.4279 31.9632C60.4279 26.9652 63.3406 21.9672 68.3645 22.1145C73.3166 22.1145 76.228 27.1113 76.228 31.9632ZM85.039 31.9632C85.039 21.9672 78.3405 13.5156 68.3656 13.5156C58.2449 13.5156 51.4734 21.9684 51.4734 31.9632C51.6194 42.2538 58.2437 51 68.3656 51C78.3393 51 85.1825 42.2538 85.039 31.9632ZM115.617 39.1661C115.617 24.5392 95.9588 30.7134 97.1238 23.8775C97.5616 21.3054 100.182 20.9372 102.44 20.9372C106.296 20.9372 108.992 24.0248 108.992 24.0248L114.307 18.3651C110.303 14.6169 107.39 13 101.784 13C94.576 13 87.9493 17.5561 87.9493 24.98C87.9493 35.4179 99.381 35.4179 103.387 36.6665C105.789 37.3283 106.444 37.99 106.297 39.6069C106.297 41.3723 103.532 43.0617 101.638 43.0617C97.5616 43.3551 95.1585 41.2238 92.32 38.3571L86.8595 44.3114C91.8104 49.1621 96.1788 51 101.639 50.8527C108.7 50.6329 115.617 46.5889 115.617 39.1661ZM149.037 42.4023L141.829 37.8439C141.829 37.8439 138.917 42.2538 135.566 42.2538C130.252 42.4023 127.34 37.0348 127.34 31.817C127.34 26.6717 130.034 22.1145 135.059 22.1145C137.972 22.1145 140.01 23.8787 141.32 26.3046L148.236 21.7486C147.071 19.9856 144.377 13.6629 135.566 13.3695C126.029 13.1497 118.456 22.1157 118.456 31.8182C118.456 42.255 124.572 50.4868 135.858 50.4868C141.61 50.6329 146.125 46.9584 149.037 42.4023ZM181 49.9712V13.9552H172.043V27.4784H161.123V13.9552H151.95V49.97H160.904V35.5641H172.043V49.9712H181Z" fill="#CC212F"/>
</svg>
