<svg width="200" height="64" viewBox="0 0 200 64" fill="none" xmlns="http://www.w3.org/2000/svg">
<path fill-rule="evenodd" clip-rule="evenodd" d="M158.642 5H165.956V11.9283H158.643V5H158.642ZM155.362 56.8958V51.1259C158.467 51.1259 158.642 50.0228 158.642 47.281V15.6617H166.276V49.0915C166.276 50.4196 166.13 51.6915 165.869 52.8509C165.259 55.3958 161.893 56.7812 159.542 56.8666C159.018 56.8958 155.421 56.8385 155.362 56.8958ZM143.695 27.7661C143.695 24.7118 141.634 21.3743 138.094 21.3743C133.421 21.3743 131.767 24.8525 131.767 29.0953V45.3289L124.048 45.2716V16.2273H131.332V19.6774C134.088 16.0294 135.656 15.1523 140.793 15.1523C143.202 15.1523 145.292 15.944 147.439 17.2159C151.241 19.4513 150.979 24.4275 150.979 28.189V45.2727H143.695V27.7661ZM110.376 27.6817C110.262 25.9567 109.739 24.5139 108.869 23.3837C107.999 22.2535 106.518 21.5743 104.398 21.3753C102.367 21.5732 100.916 22.2524 100.044 23.4118C99.1454 24.5431 98.5938 25.9858 98.3618 27.6827H110.376V27.6817ZM192.047 27.6817C191.93 25.9567 191.407 24.5139 190.537 23.3837C189.667 22.2535 188.186 21.5743 186.069 21.3753C184.064 21.5732 182.614 22.2524 181.716 23.4118C180.816 24.5431 180.263 25.9858 180.031 27.6827H192.047V27.6817ZM117.925 36.8454C115.022 45.6695 110.145 46.1779 104.139 46.206C99.6692 46.206 95.6347 44.3383 93.4582 41.482C91.2817 38.6277 90.1785 35.0631 90.0919 30.8484V30.6224V30.3682C90.0919 27.8786 90.4981 25.4754 91.3395 23.1566C92.1519 20.8659 93.6325 18.9149 95.7224 17.3596C96.738 16.5679 97.8412 16.0304 99.0887 15.6627C100.316 15.3255 101.586 15.1545 102.861 15.1544H105.068C105.821 15.1544 106.548 15.2106 107.272 15.3242C108.026 15.4377 108.723 15.5794 109.45 15.7492C111.423 16.2575 113.164 17.3044 114.615 18.8878C116.096 20.4711 117.139 22.2253 117.719 24.2045C117.924 25.1379 118.098 26.0431 118.185 26.9192C118.271 27.8244 118.33 28.7286 118.33 29.6338V30.7651C118.33 31.1609 118.301 32.2922 118.271 32.7162H98.1875C98.1298 36.9037 100.625 40.2403 104.225 40.3517C107.708 40.4371 109.362 39.2778 110.552 36.8465H117.925V36.8454ZM199.622 36.8454C196.69 45.6695 191.815 46.1779 185.806 46.206C181.337 46.206 177.275 44.3383 175.096 41.482C172.921 38.6277 171.817 35.0631 171.731 30.8484V30.6224V30.3682C171.731 27.8786 172.136 25.4754 172.978 23.1566C173.821 20.8659 175.272 18.9149 177.363 17.3596C178.407 16.5679 179.538 16.0304 180.758 15.6627C181.985 15.3255 183.255 15.1545 184.53 15.1544H186.765C187.492 15.1544 188.215 15.2106 188.971 15.3242C189.696 15.4377 190.422 15.5794 191.118 15.7492C193.091 16.2575 194.835 17.3044 196.312 18.8878C197.763 20.4711 198.809 22.2253 199.39 24.2045C199.622 25.1379 199.768 26.0431 199.854 26.9192C199.97 27.8244 200 28.7286 200 29.6338V30.7651C200 31.1609 199.971 32.2922 199.941 32.7162H179.858C179.799 36.9037 182.294 40.2403 185.923 40.3517C189.376 40.4371 191.032 39.2778 192.221 36.8465H199.622V36.8454ZM70.7332 15.945H78.1628V20.6118C79.5857 19.169 81.0652 14.9273 88.0597 15.1814V22.8743C86.2018 22.8743 82.719 22.8462 80.6002 24.7129C79.0908 26.0421 78.366 28.0504 78.336 30.7932L78.2783 45.4414H70.7332V15.945ZM42.2901 30.8213C42.2901 33.1693 42.8417 35.2037 44.0026 36.986C45.1347 38.7684 47.138 39.8142 50.0105 40.0424C52.854 39.8142 54.8285 38.7684 55.9306 36.9579C57.0627 35.1204 57.6143 33.113 57.6143 30.8213V30.4536V30.0297C57.5289 28.181 56.97 26.3825 55.9884 24.7983C55.0305 23.1576 53.318 22.1399 50.8507 21.716H50.5311C50.4445 21.6878 50.329 21.6597 50.2414 21.6305C50.1249 21.6305 50.0094 21.6305 49.9217 21.6024H49.632C47.0482 21.8003 45.1914 22.7899 44.0304 24.5723C42.8695 26.3546 42.2901 28.4452 42.2901 30.8213ZM35.0059 31.0755C35.0059 26.466 36.1957 22.7889 38.6041 19.9899C41.0137 17.1898 44.38 15.7762 48.6753 15.7762H50.8806C51.4514 15.7437 52.0239 15.7531 52.5932 15.8044C53.2025 15.8617 53.783 15.946 54.3635 16.0596C58.0494 16.6534 60.7187 18.4346 62.4035 21.3201C64.0861 24.2045 64.9574 27.3442 65.0151 30.6807V31.0766C64.9862 35.4037 63.8541 39.0236 61.59 41.8799C59.3258 44.7362 55.8141 46.1789 51.1126 46.1789L48.9073 46.2362C44.2346 46.1789 40.7518 44.7372 38.4598 41.8799C36.1369 39.0225 35.0059 35.4027 35.0059 31.0755ZM8.52435 32.9797C8.7885 34.5545 9.37489 36.0615 10.2487 37.4111C11.0964 38.7236 12.3086 39.5351 13.9229 39.8257C14.4338 39.9194 14.9341 39.9517 15.4515 39.9174C17.209 39.7955 18.5581 38.8496 19.4785 37.5225C20.3722 36.1902 20.9088 34.5787 21.0884 32.711C21.222 31.3088 21.2156 29.8119 20.9933 28.4296C20.7632 27.0379 20.2903 25.6949 19.595 24.4587C18.8831 23.1972 17.7724 22.3889 16.2618 21.9983C15.4216 21.7816 14.7342 21.6545 13.8726 21.8347C12.159 22.193 10.8473 23.1118 9.95896 24.5712C9.13369 25.9264 8.63446 27.4692 8.44418 29.214C8.31162 30.4411 8.3159 31.7651 8.52435 32.9797ZM22.1189 43.5466C19.1418 45.831 15.1458 45.9289 11.5229 45.6487C7.86478 45.3643 5.08428 43.8258 3.13761 41.059C1.01884 37.9767 -0.0555174 34.5266 0.00220913 30.7359C0.00220913 26.89 1.0477 23.467 3.16541 20.4138C5.28419 17.3877 8.44738 15.8325 12.6849 15.8325C19.3598 15.8044 19.8537 17.444 21.7405 20.5274V16.6815H29.0247L29.1274 42.0247C29.137 44.232 29.4524 50.4394 27.1379 53.5322C25.977 55.0604 24.5542 56.1625 22.7849 56.8114C21.0357 57.4478 19.1942 57.8109 17.3287 57.8875C17.0967 57.8875 16.8637 57.9427 16.6317 57.9427H15.9358L13.7304 58C13.585 57.9719 13.4407 57.9427 13.3242 57.9427H12.3086C9.5506 57.9167 7.46176 57.2656 5.16873 56.0197C2.84684 54.8031 1.6859 52.2311 1.59824 49.1467L9.81251 49.204C10.161 52.3999 11.989 52.8239 14.9202 52.8239C21.6048 52.8228 22.1189 48.3508 22.1189 43.5466Z" fill="black"/>
</svg>
