<svg width="64" height="65" viewBox="0 0 64 65" fill="none" xmlns="http://www.w3.org/2000/svg">
<path d="M60.1541 14.325C60.0541 13.425 59.4541 12.725 58.6541 12.325L33.0541 1.225C32.4541 0.925 31.6541 0.925 31.0541 1.225L5.95411 12.325C5.15411 12.725 4.55411 13.425 4.45411 14.325C0.754111 49.125 20.5541 62.325 31.5541 64.325C31.6541 64.325 31.8541 64.325 31.9541 64.325C32.1541 64.325 32.3541 64.325 32.5541 64.225C43.7541 61.325 52.0541 53.625 56.5541 41.925C61.3541 29.825 60.5541 17.725 60.1541 14.325ZM53.8541 40.925C49.6541 51.825 42.3541 58.625 32.0541 61.425C29.5541 60.925 21.4541 58.725 14.9541 49.925C8.55411 41.225 6.05411 29.525 7.55411 15.025L32.1541 4.125L57.2541 15.025C57.5541 18.625 58.1541 29.725 53.8541 40.925Z" fill="#55BDEA"/>
<path d="M34.4542 31.2248C35.4542 29.9248 36.0542 28.2248 36.0542 26.4248C36.0542 22.0248 32.4542 18.4248 28.0542 18.4248C23.6542 18.4248 20.0542 22.0248 20.0542 26.4248C20.0542 30.8248 23.6542 34.4248 28.0542 34.4248C29.5542 34.4248 31.0542 34.0248 32.2542 33.2248L34.6542 35.6248L31.5542 38.3248C30.9542 38.8248 30.8542 39.8248 31.4542 40.4248C31.7542 40.7248 32.1542 40.9248 32.5542 40.9248C32.9542 40.9248 33.2542 40.8248 33.5542 40.5248L36.7542 37.7248L39.4542 40.4248L36.5542 43.3248C35.9542 43.9248 35.9542 44.8248 36.5542 45.4248C36.8542 45.7248 37.2542 45.8248 37.6542 45.8248C38.0542 45.8248 38.4542 45.7248 38.7542 45.4248L41.6542 42.5248C42.2542 43.0248 43.1542 43.0248 43.7542 42.4248C44.3542 41.8248 44.3542 40.9248 43.7542 40.3248L34.4542 31.2248ZM23.0542 26.4248C23.0542 23.6248 25.2542 21.4248 28.0542 21.4248C30.8542 21.4248 33.0542 23.6248 33.0542 26.4248C33.0542 29.2248 30.8542 31.4248 28.0542 31.4248C25.2542 31.4248 23.0542 29.2248 23.0542 26.4248Z" fill="#55BDEA"/>
</svg>
