<svg width="200" height="64" viewBox="0 0 200 64" fill="none" xmlns="http://www.w3.org/2000/svg">
<path fill-rule="evenodd" clip-rule="evenodd" d="M117.43 18.73H137.063V23.6965H130.611V28.8104H137.063V33.7949H130.611V39.2939H137.063V45.2501H117.43V18.73ZM34.1233 18.73H53.7552V23.6965H47.3044V28.8104H53.7552V33.7949H47.3044V39.2939H53.7552V45.2501H34.1233V18.73ZM85.0585 18.73H98.2396V28.8104H103.585V18.73H116.766V45.2501H103.585V33.7769H98.2396V45.2501H85.0585V18.73ZM67.84 23.5872H70.2182C72.6328 23.5872 72.6701 28.6089 70.2182 28.6089H67.84V23.5872ZM67.84 33.7769H70.3292C72.8365 33.7769 72.8739 39.9537 70.3292 39.9537H67.84V33.7769ZM54.6226 18.73H77.131C82.9555 18.73 84.3564 21.4052 84.3564 24.4666C84.3564 27.546 82.5501 29.9475 80.541 31.1568C84.3564 33.0259 84.3564 35.5006 84.3564 38.1769C84.3564 44.0239 81.0563 45.2703 77.7563 45.2703L66.3089 45.2512H54.6226V18.73ZM181.527 23.5872H183.851C187.261 23.5872 187.151 31.1388 183.851 31.1388H181.527V23.5872ZM192.275 33.3377L200 45.2692H184.477L181.51 38.1759V45.2501H168.347V18.73H190.155C197.547 18.73 198.304 22.5233 198.304 25.4743C198.304 29.8181 196.663 32.732 192.275 33.3377Z" fill="#505E86"/>
<path fill-rule="evenodd" clip-rule="evenodd" d="M151.123 23.5874H153.453C156.874 23.5874 156.762 31.1393 153.453 31.1393H151.123V23.5874ZM161.903 33.3383L169.668 45.2703H154.101L151.124 38.1767V45.2512H137.905V18.73H159.776C167.19 18.73 167.949 22.5234 167.949 25.4746C167.949 29.8186 166.321 32.7326 161.903 33.3383ZM19.8943 18.73H33.0954V45.2512H19.8943V18.73ZM0.00106997 18.73H13.2011V38.1767H19.1538V45.2512H0V18.73H0.00106997Z" fill="#505E86"/>
</svg>
