<svg width="271" height="58" viewBox="0 0 271 58" fill="none" xmlns="http://www.w3.org/2000/svg">
<path d="M67.5602 20.6496H74.0885V18.2246H77.3527V20.6496H83.8557L85.4751 22.2746V32.7746L83.8557 34.3496H77.3527V36.7496H74.0885V34.3496H67.5602L65.9661 32.7746V22.2746L67.5602 20.6496ZM69.2303 31.1496H74.0885V23.8746H69.2303V31.1496ZM77.3527 31.1496H82.2362V23.8746H77.3527V31.1496ZM91.1684 28.7246H99.2908V23.8746H91.1684V28.7246ZM91.1684 36.7496H87.9042V20.6496H100.91L102.504 22.2746V30.3246L100.91 31.9246H91.1684V36.7496ZM108.223 36.7496H104.959V20.6496H108.223V31.3746L116.345 20.6496H119.584V36.7496H116.345V25.9996L108.223 36.7496ZM134.817 36.7496H123.405L121.811 35.1746V31.9496H125.075V33.5246H133.197V30.3246H128.289V27.0996H133.172V23.8496H125.05V25.4496H121.786V22.2746L123.38 20.6496H134.792L136.386 22.2746V27.0996L134.792 28.6996L136.386 30.2996V35.1246L134.817 36.7496Z" fill="#67C7E8"/>
<path d="M142.357 36.7504H139.093V20.6504H142.357L148.025 28.4504L153.794 20.6504H156.932V36.7504H153.668V25.9004L149.417 32.0754H146.684L142.332 25.9004V36.7504H142.357ZM162.651 28.7254H170.773V23.8754H165.889L162.651 27.1254V28.7254ZM162.651 36.7504H159.386V25.5004L164.245 20.6504H173.987V36.7504H170.748V31.9504H162.625V36.7504H162.651ZM189.7 36.7504H178.288L176.694 35.1754V22.2754L178.288 20.6504H189.7L191.294 22.2754V25.4754H188.055V23.8754H179.933V33.5254H188.055V31.9504H191.294V35.1754L189.7 36.7504ZM201.997 36.7504H198.733V23.8754H193.04V20.6504H207.665V23.8754H201.997V36.7504ZM223.48 36.7504H209.664V20.6504H223.48V23.8754H212.903V27.1254H222.645V30.3504H212.903V33.5504H223.48V36.7504ZM229.173 28.7254H237.296V23.8754H229.173V28.7254ZM229.173 36.7504H225.909V20.6504H238.915L240.509 22.2754V30.3254L238.915 31.9254H229.173V36.7504ZM255.97 36.7504H244.558L242.964 35.1754V22.2754L244.558 20.6504H255.97L257.564 22.2754V25.4754H254.325V23.8754H246.203V33.5254H254.325V31.9504H257.564V35.1754L255.97 36.7504Z" fill="#2E2E2E"/>
<path fill-rule="evenodd" clip-rule="evenodd" d="M267.711 0H3.28945C1.4676 0 0 1.45 0 3.25V54.75C0 56.55 1.4676 58 3.28945 58H267.711C269.532 58 271 56.55 271 54.75V3.25C271 1.45 269.532 0 267.711 0ZM40.9916 42.4C40.9916 43.7 40.4096 44.675 39.2204 45.25C38.942 45.375 38.6637 45.45 38.36 45.5C38.2082 45.525 38.0817 45.575 37.9299 45.6C37.9299 45.675 37.9299 45.725 37.9299 45.8C37.9299 45.875 37.9299 45.95 37.9299 46C37.9299 46.4 37.8793 46.775 37.4238 47.025H35.4248C34.8682 46.775 34.8682 46.3 34.8682 45.85C34.8682 45.75 34.8682 45.65 34.8682 45.55H22.6213C22.6213 45.625 22.6213 45.725 22.6213 45.8C22.6213 46.275 22.6213 46.775 22.0393 47.025H20.0403C19.509 46.725 19.509 46.225 19.5343 45.775C19.5343 45.725 19.5343 45.65 19.5343 45.6C19.3824 45.55 19.2559 45.525 19.1041 45.5C18.8005 45.425 18.4968 45.375 18.2438 45.225C16.9786 44.625 16.4472 43.6 16.4472 42.25V23.9C16.4472 23.775 16.4472 23.675 16.4725 23.55C16.4725 23.375 16.5738 23.2 16.7003 23.075C16.8268 22.95 17.0039 22.875 17.2064 22.875C17.3582 22.85 17.51 22.85 17.6618 22.85H40.106C40.7133 22.875 40.9916 23.175 40.9916 23.775V42.4ZM40.9916 18.2C40.9916 18.9 40.9916 19.6 40.9916 20.3C40.9916 21.1 40.7133 21.375 39.9035 21.375H28.7194H17.2823C16.7509 21.325 16.4725 21.05 16.4725 20.525C16.4725 20.025 16.4725 19.525 16.4725 19.025C16.4725 17.275 16.4472 15.525 16.4979 13.775C16.5485 11.975 17.8895 10.775 19.7114 10.775H37.8287C39.3469 10.775 40.4855 11.625 40.8904 13.05C40.9663 13.375 41.0169 13.7 41.0169 14.025C40.9916 15.4 40.9916 16.8 40.9916 18.2ZM267.711 54.75H56.1737V3.25H267.711V54.75Z" fill="#67C7E8"/>
<path fill-rule="evenodd" clip-rule="evenodd" d="M25.6324 17.6748C25.6071 17.8248 25.5312 17.9748 25.43 18.0998C25.3035 18.1998 25.1516 18.2748 24.9998 18.2748C24.4684 18.2748 23.9371 18.2748 23.4057 18.2748C23.1274 18.2748 22.8743 18.2748 22.596 18.2748V18.2998H22.3429C21.7357 18.2998 21.1031 18.2998 20.4958 18.2998C20.1162 18.2998 19.8126 18.2248 19.6355 17.8498C19.4584 17.4748 19.6355 17.1748 19.9138 16.8998C19.9897 16.8248 20.0403 16.7498 20.1162 16.6998C20.2428 16.5748 20.3693 16.4248 20.5211 16.3248C21.0019 15.8998 21.5585 16.0498 21.8116 16.6248C21.8369 16.6748 21.8875 16.7248 21.9381 16.7498C21.9887 16.7748 22.0646 16.7998 22.1152 16.7998C22.9502 16.7998 23.8105 16.7998 24.6709 16.7998C24.8733 16.7998 25.0504 16.8248 25.2275 16.8748C25.3794 16.9248 25.5059 17.0498 25.5818 17.1998C25.6324 17.3498 25.6577 17.4998 25.6324 17.6748Z" fill="#67C7E8"/>
<path fill-rule="evenodd" clip-rule="evenodd" d="M25.6324 26.7502C25.6071 26.9252 25.5312 27.0502 25.43 27.1752C25.3035 27.2752 25.1516 27.3502 24.9998 27.3502C24.4431 27.3502 23.9118 27.3502 23.3804 27.3502C23.1021 27.3502 22.849 27.3502 22.5707 27.3502V27.3752H22.2164C21.6345 27.3752 21.0525 27.3752 20.4705 27.3752C20.0909 27.3752 19.7873 27.3252 19.6102 26.9252C19.4331 26.5252 19.6102 26.2502 19.8885 25.9752C19.9644 25.9002 20.015 25.8252 20.0909 25.7752C20.2175 25.6502 20.344 25.5002 20.4958 25.4002C21.0019 24.9752 21.5585 25.1002 21.761 25.7002C21.8369 25.9002 21.9634 25.9002 22.1152 25.9002H24.6456C24.848 25.9002 25.0251 25.9252 25.2022 25.9752C25.3541 26.0252 25.4806 26.1502 25.5565 26.2752C25.6324 26.4252 25.6577 26.5752 25.6324 26.7502Z" fill="#67C7E8"/>
</svg>
