<?xml version="1.0" encoding="utf-8"?><svg viewBox="0 0 32 30" xmlns="http://www.w3.org/2000/svg" xmlns:xlink="http://www.w3.org/1999/xlink"><style>:root>svg{display:none}:root>svg:target{display:block}</style><svg viewBox="0 0 32 30" id="arrow-r" xmlns="http://www.w3.org/2000/svg"><path d="M31.414 16.414a2 2 0 000-2.828L18.686.858a2 2 0 10-2.828 2.828L27.172 15 15.858 26.314a2 2 0 102.828 2.828l12.728-12.728zM0 17h30v-4H0v4z"/></svg><svg viewBox="0 0 22 22" id="chevron-l" xmlns="http://www.w3.org/2000/svg"><path fill-rule="evenodd" clip-rule="evenodd" d="M16.658.234a.8.8 0 010 1.132l-9.634 9.635 9.633 9.633a.8.8 0 11-1.132 1.132L5.339 11.58a.798.798 0 01-.233-.623.798.798 0 01.234-.537L15.526.235a.8.8 0 011.132 0z"/></svg><svg viewBox="0 0 14 14" id="popup-x" xmlns="http://www.w3.org/2000/svg"><path fill-rule="evenodd" clip-rule="evenodd" d="M13.722.278a.95.95 0 00-1.345 0L7 5.656 1.623.278A.95.95 0 00.279 1.623L5.656 7 .278 12.377a.95.95 0 101.345 1.345L7 8.344l5.377 5.378a.95.95 0 001.345-1.345L8.344 7l5.378-5.377a.95.95 0 000-1.345z"/></svg></svg>