<?xml version="1.0" encoding="utf-8"?>
<!-- Generator: Adobe Illustrator 21.0.2, SVG Export Plug-In . SVG Version: 6.00 Build 0)  -->
<svg version="1.1" id="Layer_1" xmlns="http://www.w3.org/2000/svg" xmlns:xlink="http://www.w3.org/1999/xlink" x="0px" y="0px"
	 viewBox="0 0 454 243.8" enable-background="new 0 0 454 243.8" xml:space="preserve">
<title>Goods car</title>
<path d="M0.2,94.3C0.1,94.8,0,95.4,0,96l0,67c0,0.2,0,0.4,0,0.6c0.1,19.7,16.1,35.5,35.8,35.5h26.4c2.5,25.1,23.3,44.3,48.5,44.8
	c27.4,0.5,50-21.4,50.4-48.8h139.9c0.6,25.4,20.2,46.2,45.5,48.3c27.3,2.3,51.3-18,53.5-45.3H447c0,0,0.1,0,0.1,0
	c3.8,0,6.9-3,6.9-6.8v-58.1c0,0,0-0.1,0-0.1c-0.1-26.1-21.3-47.1-47.4-46.9h-52.8l-40.4-35.1C281.2,18.8,241.9,0,205.7,0L83.4,0
	C64.6,0.2,47.2,10.2,37.5,26.3c0,0,0,0.3-0.1,0.3L2.2,87.4c-0.3,0.6-0.6,1.2-0.7,1.8L0.2,94.3z M43,44.5V86H19.4L43,44.5z M190,86
	V14h13v34.7c0,14.6,6.3,27.3,16.1,37.3H190z M176,86h-12V14h12V86z M150,86h-13V14h13V86z M123,86h-13V14h13V86z M96,86H84V14h12V86
	z M70,86H57V24.4c3.8-3.3,8.2-5.9,13-7.5V86z M332.3,86h-78.1c-20.5-0.2-37.1-16.8-37.2-37.3V15.1c30,3.4,60.4,19.8,86.6,46
	c0.1,0.1,0.3,0.3,0.5,0.4L332.3,86z M440,184h-40.7c-4.6-23.2-25-39.8-48.6-39.7c-22.4,0.1-41.9,15.1-47.9,36.7H217v-81h189.6
	c0.1,0,0.1,0,0.2,0c18.3,0,33.2,14.8,33.2,33.1V184z M350.7,229.6c-19.7,0-35.6-16-35.6-35.6c0,0,0,0,0,0
	c0-19.7,15.9-35.6,35.6-35.6s35.6,15.9,35.6,35.6S370.4,229.6,350.7,229.6L350.7,229.6z M111.6,229.6c-19.7,0-35.6-16-35.6-35.6
	c0-19.7,15.9-35.6,35.6-35.6c19.7,0,35.6,15.9,35.6,35.6S131.3,229.6,111.6,229.6L111.6,229.6z M35.5,185c-12-0.2-21.6-10-21.5-22
	v-63h189v81h-43.5c-5-18.3-20-32.1-38.7-35.6c-26.9-5-52.9,12.7-57.9,39.6H35.8C35.7,185,35.6,185,35.5,185z"/>
</svg>
