<?xml version="1.0" encoding="iso-8859-1"?>
<!-- Generator: Adobe Illustrator 19.0.0, SVG Export Plug-In . SVG Version: 6.00 Build 0)  -->
<svg version="1.1" id="Capa_1" xmlns="http://www.w3.org/2000/svg" xmlns:xlink="http://www.w3.org/1999/xlink" x="0px" y="0px"
	 viewBox="0 0 374.48 374.48" style="enable-background:new 0 0 374.48 374.48;" xml:space="preserve">
<g>
	<g>
		<path d="M206.64,216.015H87.92c-3.778,0-6.84,3.062-6.84,6.84c0,3.778,3.062,6.84,6.84,6.84h118.72c3.778,0,6.84-3.062,6.84-6.84
			C213.48,219.077,210.418,216.015,206.64,216.015z"/>
	</g>
</g>
<g>
	<g>
		<path d="M292.956,73.295c-24.477,0.023-44.301,19.885-44.278,44.362c0.011,11.75,4.688,23.015,13.002,31.318
			c8.31,8.324,19.598,12.989,31.36,12.96h0c24.477-0.023,44.301-19.885,44.278-44.362C337.295,93.096,317.433,73.272,292.956,73.295
			z M314.72,139.238c-11.958,11.974-31.358,11.986-43.331,0.029c-5.748-5.74-8.981-13.528-8.989-21.651
			c-0.016-8.131,3.208-15.933,8.96-21.68c11.958-11.974,31.358-11.986,43.331-0.029C326.665,107.864,326.678,127.264,314.72,139.238
			z"/>
	</g>
</g>
<g>
	<g>
		<path d="M371.04,126.895l0.08,0.08c3.531-7.943,2.359-17.189-3.04-24c-1.478-1.491-3.146-2.782-4.96-3.84
			c0.825-1.944,1.39-3.988,1.68-6.08c1.806-12.819-7.121-24.675-19.94-26.481c-0.206-0.029-0.413-0.055-0.62-0.079
			c-0.815-7.198-4.922-13.61-11.12-17.36h-0.4c-4.515-2.632-9.783-3.675-14.96-2.96c-2.092,0.29-4.136,0.855-6.08,1.68
			c-1.297-1.775-2.831-3.363-4.56-4.72c-10.19-7.985-24.923-6.198-32.908,3.992c-0.126,0.161-0.25,0.324-0.372,0.488
			c-1.944-0.825-3.988-1.39-6.08-1.68c-12.819-1.806-24.675,7.121-26.481,19.94c-0.029,0.206-0.055,0.413-0.079,0.62
			c-7.198,0.815-13.61,4.922-17.36,11.12v0.4c-2.632,4.515-3.675,9.783-2.96,14.96c0.29,2.092,0.855,4.136,1.68,6.08
			c-1.68,1.264-3.186,2.743-4.48,4.4l-0.72,0.96H62.32c-1.816,0.118-3.537,0.852-4.88,2.08l-55.36,55.04
			c-1.263,1.32-2.002,3.055-2.08,4.88v131.2c0.044,21.366,17.354,38.676,38.72,38.72h296.8c10.339,0.084,20.28-3.979,27.6-11.28
			c7.279-7.244,11.367-17.091,11.36-27.36v-154.8C374.494,137.377,373.321,131.92,371.04,126.895z M227.172,115.515
			c0.334-1.332,0.943-2.578,1.788-3.66l0-0.32c1.344-1.739,3.23-2.978,5.36-3.52c3.644-0.909,5.861-4.6,4.951-8.244
			c-0.322-1.289-1.014-2.456-1.992-3.356c-3.182-3.147-3.839-8.045-1.6-11.92c1.09-1.767,2.716-3.14,4.64-3.92
			c2.099-0.725,4.381-0.725,6.48,0c3.672,0.789,7.288-1.547,8.078-5.219c0.226-1.052,0.2-2.142-0.078-3.182
			c-0.713-2.074-0.713-4.326,0-6.4c2.127-5.001,7.905-7.331,12.906-5.204c1.155,0.491,2.205,1.198,3.094,2.084
			c2.183,3.056,6.43,3.764,9.486,1.582c1.664-1.188,2.705-3.062,2.834-5.102c1.287-5.28,6.611-8.517,11.891-7.229
			c3.571,0.871,6.359,3.659,7.229,7.229c0.909,3.644,4.6,5.861,8.244,4.952c1.289-0.322,2.456-1.014,3.356-1.992
			c3.147-3.182,8.045-3.839,11.92-1.6c1.767,1.09,3.14,2.716,3.92,4.64c0.713,2.074,0.713,4.326,0,6.4
			c-0.83,3.663,1.466,7.305,5.128,8.135c1.162,0.263,2.373,0.217,3.512-0.135c2.069-0.543,4.258-0.403,6.24,0.4
			c5.001,2.127,7.331,7.905,5.204,12.906c-0.491,1.155-1.199,2.205-2.084,3.094c-2.711,2.599-2.8,6.904-0.201,9.615
			c0.902,0.94,2.054,1.601,3.321,1.905c5.28,1.287,8.516,6.611,7.229,11.891c-0.871,3.571-3.659,6.359-7.229,7.229
			c-3.684,0.729-6.08,4.306-5.351,7.99c0.381,1.924,1.573,3.589,3.271,4.57c3.182,3.147,3.839,8.045,1.6,11.92
			c-1.09,1.767-2.716,3.14-4.64,3.92c-2.074,0.713-4.326,0.713-6.4,0c-3.608-1.041-7.377,1.041-8.418,4.649
			c-0.361,1.252-0.355,2.582,0.018,3.831c0.713,2.074,0.713,4.326,0,6.4c-0.813,2.019-2.277,3.709-4.16,4.8
			c-3.911,2.261-8.86,1.568-12-1.68c-2.599-2.71-6.904-2.8-9.615-0.201c-0.94,0.902-1.601,2.054-1.905,3.321
			c-1.287,5.28-6.611,8.517-11.891,7.229c-3.571-0.871-6.359-3.659-7.229-7.229c-0.909-3.644-4.6-5.861-8.244-4.952
			c-1.289,0.322-2.456,1.014-3.356,1.992c-3.854,3.832-10.084,3.815-13.916-0.039c-2.513-2.527-3.463-6.215-2.484-9.641
			c1.133-3.58-0.85-7.402-4.431-8.535c-1.539-0.487-3.201-0.411-4.689,0.215c-2.074,0.713-4.326,0.713-6.4,0
			c-2.019-0.813-3.709-2.277-4.8-4.16c-2.261-3.911-1.568-8.86,1.68-12c2.711-2.599,2.8-6.904,0.201-9.615
			c-0.902-0.94-2.054-1.601-3.321-1.905C229.049,126.132,225.849,120.786,227.172,115.515z M269.84,189.215
			c1.48-0.316,2.926-0.771,4.32-1.36c1.264,1.68,2.743,3.186,4.4,4.48c8.474,6.664,20.406,6.664,28.88,0
			c1.657-1.294,3.136-2.8,4.4-4.48c1.341,0.582,2.734,1.037,4.16,1.36v27.28l-0.8-0.48l-18.64-10.8c-2.124-1.246-4.756-1.246-6.88,0
			l-18.72,10.72l-0.8,0.48v-27.2H269.84z M55.44,127.455v19.68c0.01,3.177-1.191,6.238-3.36,8.56c-2.35,2.363-5.547,3.688-8.88,3.68
			H23.28L55.44,127.455z M353.28,315.135c-4.68,4.706-11.042,7.355-17.68,7.36H38.72c-13.793-0.087-24.953-11.247-25.04-25.04
			v-124.16h29.44c6.981-0.094,13.634-2.974,18.48-8v-0.4c4.684-4.742,7.375-11.097,7.52-17.76v-29.36h144
			c0.034,5.164,1.778,10.172,4.96,14.24c1.294,1.656,2.8,3.136,4.48,4.4c-0.825,1.944-1.39,3.988-1.68,6.08
			c-1.806,12.819,7.121,24.675,19.94,26.481c0.206,0.029,0.413,0.055,0.62,0.079c0.85,7.377,5.156,13.91,11.6,17.6
			c1.028,0.585,2.097,1.093,3.2,1.52v30.96c0,9.52,4.48,12.56,10.4,12.56c3.904-0.346,7.652-1.697,10.88-3.92l15.52-8.64l15.2,8.8
			c3.228,2.223,6.976,3.574,10.88,3.92c6,0,10.4-3.04,10.4-12.56v-31.12c1.103-0.427,2.172-0.935,3.2-1.52
			c6.444-3.69,10.75-10.223,11.6-17.6c6.393-0.789,12.179-4.174,16-9.36l0.32,138C360.563,304.247,357.921,310.509,353.28,315.135z"
			/>
	</g>
</g>
<g>
	<g>
		<path d="M206.64,254.415H87.92c-3.778,0-6.84,3.062-6.84,6.84c0,3.778,3.062,6.84,6.84,6.84h118.72c3.778,0,6.84-3.062,6.84-6.84
			C213.48,257.477,210.418,254.415,206.64,254.415z"/>
	</g>
</g>
<g>
	<g>
		<path d="M206.64,177.535H87.92c-3.778,0-6.84,3.062-6.84,6.84c0,3.778,3.062,6.84,6.84,6.84h118.72c3.778,0,6.84-3.062,6.84-6.84
			C213.48,180.597,210.418,177.535,206.64,177.535z"/>
	</g>
</g>
<g>
</g>
<g>
</g>
<g>
</g>
<g>
</g>
<g>
</g>
<g>
</g>
<g>
</g>
<g>
</g>
<g>
</g>
<g>
</g>
<g>
</g>
<g>
</g>
<g>
</g>
<g>
</g>
<g>
</g>
</svg>
