<svg width="142" height="141" fill="none" xmlns="http://www.w3.org/2000/svg"><circle cx="71" cy="70.5" r="70.5" fill="#1DBC61"/><circle cx="71" cy="70.5" r="65.502" stroke="#74E4A4"/><path opacity=".2" d="M71.22 25.451l22.114 5.925L75.09 84.721l-14.742-3.95L71.22 25.45zm-11.497 87.135c-3.25-.87-5.708-2.633-7.375-5.289-1.566-2.713-1.946-5.576-1.14-8.588.808-3.011 2.547-5.221 5.218-6.63 2.692-1.487 5.702-1.784 9.031-.892 3.329.892 5.787 2.655 7.375 5.289 1.61 2.555 2.01 5.338 1.203 8.35-.807 3.012-2.607 5.29-5.4 6.835-2.692 1.488-5.662 1.796-8.912.925z" fill="#fff"/><path d="M53.784 55.42c.531.326.898.724 1.1 1.194.203.47.229.989.077 1.556-.225.839-.72 1.407-1.486 1.704-.757.3-1.726.291-2.907-.025l-4.665-1.25 2.536-9.466 4.409 1.181c1.1.295 1.9.736 2.399 1.324.5.588.644 1.274.434 2.059a2.31 2.31 0 01-.685 1.15c-.329.288-.733.48-1.212.573zm-4.218-1.782l2.042.547c.478.128.864.13 1.158.006.296-.133.495-.39.597-.768.099-.37.049-.687-.15-.953-.19-.264-.52-.458-.99-.584l-2.041-.547-.616 2.299zm1.356 4.567c1.028.275 1.65.007 1.868-.804.21-.785-.199-1.315-1.227-1.59l-2.407-.645-.641 2.394 2.407.645zm11.345-2.034c1.153.31 1.968.803 2.443 1.481.485.68.592 1.526.321 2.536-.287 1.073-.85 1.801-1.687 2.186-.826.377-1.857.4-3.092.07l-4.273-1.145 2.537-9.466 2.177.583-.834 3.11 2.407.645zm-1.701 4.617c.567.153 1.047.131 1.437-.064.4-.192.67-.554.813-1.086.263-.983-.209-1.636-1.417-1.96l-1.974-.529-.834 3.11 1.975.53zm7.321-6.444l2.177.583-2.536 9.466-2.177-.583 2.536-9.466zm4.535 1.215l7.64 2.047-.467 1.744-5.464-1.463-.522 1.947 2.624.703c1.145.307 1.95.779 2.418 1.416.476.64.593 1.41.352 2.312-.254.946-.784 1.592-1.592 1.936-.807.344-1.82.353-3.036.027l-4.49-1.203 2.537-9.466zm2.266 9.014c.559.15 1.016.156 1.371.02.358-.147.594-.431.708-.855.222-.83-.244-1.399-1.398-1.708l-2.19-.587-.682 2.543 2.19.587zm9.654 4.5c-.983-.264-1.814-.714-2.494-1.35a4.964 4.964 0 01-1.385-2.24c-.241-.867-.237-1.765.012-2.694.248-.928.693-1.703 1.332-2.324a4.93 4.93 0 012.324-1.261c.907-.212 1.852-.185 2.835.078.982.263 1.809.712 2.48 1.346a4.93 4.93 0 011.381 2.254c.253.86.255 1.754.006 2.683-.249.929-.699 1.707-1.35 2.334a4.964 4.964 0 01-2.32 1.248c-.898.214-1.838.189-2.82-.075zm.5-1.867c.56.15 1.098.16 1.616.028.521-.141.97-.407 1.345-.8.384-.39.655-.877.812-1.463.157-.586.167-1.144.028-1.674a2.767 2.767 0 00-.768-1.35 3.066 3.066 0 00-1.41-.799 3.068 3.068 0 00-1.62-.014c-.518.132-.97.393-1.354.782-.375.393-.642.882-.799 1.468-.157.586-.17 1.142-.041 1.67.138.53.397.986.778 1.368.383.373.854.635 1.413.784zm13.044-4.824c.839.225 1.527.559 2.065 1.003.547.446.919.97 1.115 1.574.196.603.199 1.256.011 1.96-.186.694-.516 1.258-.99 1.691-.47.424-1.055.693-1.752.806-.685.106-1.447.047-2.286-.178l-1.907-.51-.699 2.61-2.19-.588 2.536-9.466 4.097 1.098zm-1.48 5.039c.658.176 1.196.17 1.613-.017.42-.197.7-.557.84-1.08.143-.532.08-.983-.188-1.355-.265-.38-.727-.658-1.385-.834l-1.785-.479-.88 3.286 1.785.479zm-65.099 8.146c-.983-.263-1.814-.713-2.494-1.349a4.964 4.964 0 01-1.385-2.24c-.241-.867-.237-1.765.011-2.694.25-.928.694-1.703 1.333-2.324a4.931 4.931 0 012.324-1.261c.907-.212 1.852-.186 2.835.078.982.263 1.809.712 2.48 1.346a4.931 4.931 0 011.381 2.254c.253.86.255 1.754.006 2.683-.249.928-.699 1.706-1.35 2.334a4.964 4.964 0 01-2.32 1.248c-.898.214-1.838.189-2.82-.075zm.5-1.866c.56.15 1.098.159 1.616.027.521-.14.97-.407 1.345-.799.385-.39.655-.877.812-1.463.157-.586.167-1.144.029-1.674a2.768 2.768 0 00-.77-1.351 3.068 3.068 0 00-1.409-.798 3.067 3.067 0 00-1.62-.014c-.518.132-.97.393-1.354.782-.375.392-.642.882-.799 1.468-.157.585-.17 1.142-.041 1.67.138.53.397.985.778 1.368.383.373.854.634 1.413.784zm16.524-3.892l-2.536 9.466-2.164-.58.913-3.407c-.9.078-1.701.022-2.404-.166-1.272-.34-2.164-.904-2.679-1.689-.511-.794-.614-1.764-.307-2.909l.793-2.961 2.164.58-.728 2.718c-.174.649-.135 1.186.119 1.611.264.42.726.717 1.384.893a5.128 5.128 0 002.14.124l1.142-4.26 2.163.58zm7.618 10.303l-.471 1.758-7.33-1.964 2.537-9.466 7.154 1.917-.472 1.758-4.976-1.334-.55 2.056 4.394 1.177-.456 1.704-4.395-1.177-.587 2.19 5.152 1.381zm9.18-.946c.53.326.897.723 1.1 1.193.203.47.228.989.076 1.557-.225.838-.72 1.406-1.486 1.703-.756.3-1.725.292-2.906-.025l-4.666-1.25 2.537-9.466 4.408 1.181c1.1.295 1.9.736 2.4 1.324.499.588.644 1.275.433 2.059a2.31 2.31 0 01-.685 1.15c-.328.288-.732.48-1.211.574zm-4.219-1.783l2.042.547c.478.128.864.13 1.158.006.297-.133.496-.389.597-.768.1-.37.049-.687-.15-.953-.19-.264-.52-.458-.989-.584l-2.042-.547-.616 2.3zm1.356 4.567c1.028.275 1.65.007 1.868-.804.21-.785-.199-1.314-1.226-1.59l-2.407-.645-.642 2.394 2.407.645zm7.594-6.372l2.177.583-1.652 6.167 6.169-4.956 2.055.55-2.536 9.466-2.164-.58 1.649-6.152-6.165 4.942-2.07-.554 2.537-9.466zm18.746 13.255l-1.004 3.746-2.029-.543.526-1.961-6.68-1.79-.526 1.96-2.028-.543 1.017-3.742.379.101c.572.135 1.085-.173 1.537-.921.451-.749.906-1.869 1.363-3.36l.902-2.932 7.275 1.95-2.058 7.68 1.326.355zm-5.565-6.332c-.347 1.115-.695 2.036-1.045 2.764-.347.719-.718 1.219-1.112 1.5l4.233 1.133 1.58-5.895-3.246-.87-.41 1.368zm14.362 8.718l-.472 1.759-7.329-1.965 2.536-9.466 7.154 1.917-.47 1.758-4.977-1.333-.551 2.055 4.395 1.178-.457 1.704-4.395-1.178-.587 2.19 5.153 1.382zm12.516-4.907l-2.536 9.466-2.191-.587 1.04-3.881-4.3-1.153-1.04 3.882-2.191-.587 2.536-9.466 2.191.587-1 3.732 4.3 1.152 1-3.732 2.191.587z" fill="#fff"/></svg>