<svg width="50" height="50" fill="none" xmlns="http://www.w3.org/2000/svg"><path d="M25 0l1.765 2.57L28.911.307l1.341 2.814 2.473-1.898.885 2.989 2.74-1.488.406 3.09 2.939-1.04-.082 3.116 3.065-.569-.569 3.065 3.116-.082-1.04 2.939 3.09.406-1.488 2.74 2.99.885-1.899 2.473 2.814 1.341-2.261 2.146L50 25l-2.57 1.765 2.262 2.146-2.814 1.341 1.898 2.473-2.989.885 1.488 2.74-3.09.406 1.04 2.939-3.116-.082.569 3.065-3.065-.569.082 3.116-2.939-1.04-.406 3.09-2.74-1.488-.885 2.99-2.473-1.899-1.341 2.814-2.146-2.261L25 50l-1.765-2.57-2.146 2.262-1.341-2.814-2.473 1.898-.885-2.989-2.74 1.488-.406-3.09-2.939 1.04.082-3.116-3.065.569.569-3.065-3.116.082 1.04-2.939-3.09-.406 1.488-2.74-2.99-.885 1.899-2.473-2.814-1.341 2.261-2.146L0 25l2.57-1.765-2.262-2.146 2.814-1.341-1.898-2.473 2.989-.885-1.488-2.74 3.09-.406-1.04-2.939 3.116.082-.569-3.065 3.065.569-.082-3.116 2.939 1.04.406-3.09 2.74 1.488.885-2.99 2.473 1.899 1.34-2.814 2.146 2.261L25 0z" fill="#1DBC61"/><path opacity=".3" fill-rule="evenodd" clip-rule="evenodd" d="M25 44c10.493 0 19-8.507 19-19S35.493 6 25 6 6 14.507 6 25s8.507 19 19 19zm0 1c11.046 0 20-8.954 20-20S36.046 5 25 5 5 13.954 5 25s8.954 20 20 20z" fill="#fff"/><path d="M22.082 31.719a.934.934 0 001.3 0L33.72 21.383a.934.934 0 000-1.301l-1.266-1.266a.891.891 0 00-1.266 0l-8.437 8.438-3.973-3.938a.891.891 0 00-1.265 0l-1.266 1.266a.934.934 0 000 1.3l5.836 5.837z" fill="#fff"/></svg>