<?xml version="1.0" encoding="utf-8"?><svg viewBox="0 0 22 24" xmlns="http://www.w3.org/2000/svg" xmlns:xlink="http://www.w3.org/1999/xlink"><style>:root>svg{display:none}:root>svg:target{display:block}</style><svg viewBox="0 0 12 22" id="arrow-left" xmlns="http://www.w3.org/2000/svg"><path fill-rule="evenodd" clip-rule="evenodd" d="M10.588.88L0 11.367l.013.013-.013.013L10.588 21.88 12 20.482 2.81 11.38 12 2.278 10.588.88z"/></svg><svg viewBox="0 0 13 22" id="arrow-right" xmlns="http://www.w3.org/2000/svg"><path fill-rule="evenodd" clip-rule="evenodd" d="M2.39.88L12.98 11.367l-.013.013.013.013L2.391 21.88.979 20.482l9.19-9.102-9.19-9.102L2.391.88z"/></svg><svg viewBox="0 0 20 21" id="bullet-check" xmlns="http://www.w3.org/2000/svg"><path d="M0 10.5C0 4.992 4.453.5 10 .5c5.508 0 10 4.492 10 10 0 5.547-4.492 10-10 10a9.97 9.97 0 01-10-10zm14.492-1.719c.43-.43.43-1.094 0-1.523a1.061 1.061 0 00-1.523 0L8.75 11.477l-1.758-1.72a1.061 1.061 0 00-1.523 0c-.43.43-.43 1.095 0 1.524l2.5 2.5c.43.43 1.094.43 1.523 0l5-5z"/></svg><svg viewBox="0 0 20 21" id="bullet-uncheck" xmlns="http://www.w3.org/2000/svg"><path d="M0 10.004c0-5.508 4.453-10 10-10 5.508 0 10 4.492 10 10 0 5.546-4.492 10-10 10a9.97 9.97 0 01-10-10zm6.836-1.836l1.836 1.836-1.836 1.836c-.39.39-.39.976 0 1.328.352.39.938.39 1.29 0l1.835-1.836 1.875 1.836c.352.39.938.39 1.29 0 .39-.352.39-.938 0-1.328l-1.837-1.836 1.836-1.836c.39-.352.39-.938 0-1.328a.92.92 0 00-1.289 0L9.961 8.715 8.125 6.84a.92.92 0 00-1.289 0c-.39.39-.39.976 0 1.328z"/></svg><svg viewBox="0 0 16 16" id="close" xmlns="http://www.w3.org/2000/svg"><path fill-rule="evenodd" clip-rule="evenodd" d="M15.778 1.636L14.364.222 8 6.586 1.636.222.222 1.636 6.586 8 .222 14.364l1.414 1.414L8 9.414l6.364 6.364 1.414-1.414L9.414 8l6.364-6.364z"/></svg><svg viewBox="0 0 22 24" id="pointer-right" xmlns="http://www.w3.org/2000/svg"><path fill-rule="evenodd" clip-rule="evenodd" d="M11.515 1.393l9.546 9.546a1.5 1.5 0 010 2.122l-9.546 9.546a1.5 1.5 0 11-2.122-2.122L16.38 13.5H0v-3h16.379L9.393 3.515a1.5 1.5 0 012.122-2.122z"/></svg></svg>