<svg width="253" height="72" viewBox="0 0 253 72" fill="none" xmlns="http://www.w3.org/2000/svg">
<g clip-path="url(#clip0_237_777)">
<rect opacity="0.9" x="-26" y="-13" width="95" height="97" rx="20" fill="url(#paint0_linear_237_777)"/>
</g>
<path d="M79.0938 28.8828V6.5293H96.9062V28.8828H93.8594V9.3125H82.1406V28.8828H79.0938ZM110.617 28.8828V6.5293H118.967C120.451 6.5293 121.789 6.72461 122.98 7.11523C124.172 7.50586 125.119 8.16992 125.822 9.10742C126.545 10.0449 126.906 11.3438 126.906 13.0039C126.906 14.6445 126.545 15.9336 125.822 16.8711C125.119 17.8086 124.172 18.4727 122.98 18.8633C121.789 19.2539 120.451 19.4492 118.967 19.4492H113.605V28.8828H110.617ZM113.605 16.666H118.381C119.279 16.666 120.139 16.5879 120.959 16.4316C121.799 16.2754 122.482 15.9434 123.01 15.4355C123.537 14.9082 123.801 14.0879 123.801 12.9746C123.801 12.1348 123.645 11.4707 123.332 10.9824C123.02 10.4941 122.6 10.1328 122.072 9.89844C121.564 9.64453 120.988 9.48828 120.344 9.42969C119.699 9.35156 119.045 9.3125 118.381 9.3125H113.605V16.666ZM148.029 29.0879C145.725 29.0879 143.801 28.5703 142.258 27.5352C140.734 26.5 139.592 25.1035 138.83 23.3457C138.068 21.5879 137.688 19.6348 137.688 17.4863C137.688 15.2988 138.088 13.3555 138.889 11.6562C139.689 9.9375 140.871 8.58984 142.434 7.61328C144.016 6.61719 145.939 6.11914 148.205 6.11914C149.885 6.11914 151.359 6.42188 152.629 7.02734C153.898 7.63281 154.953 8.47266 155.793 9.54688C156.652 10.6016 157.287 11.832 157.697 13.2383C158.127 14.625 158.342 16.0996 158.342 17.6621C158.342 19.791 157.951 21.7246 157.17 23.4629C156.389 25.1816 155.236 26.5488 153.713 27.5645C152.189 28.5801 150.295 29.0879 148.029 29.0879ZM148 26.3047C149.309 26.3047 150.412 26.0703 151.311 25.6016C152.229 25.1133 152.971 24.459 153.537 23.6387C154.104 22.8184 154.514 21.8809 154.768 20.8262C155.021 19.7715 155.148 18.6582 155.148 17.4863C155.148 15.9238 154.895 14.498 154.387 13.209C153.898 11.9004 153.117 10.8555 152.043 10.0742C150.969 9.29297 149.572 8.90234 147.854 8.90234C146.584 8.90234 145.5 9.14648 144.602 9.63477C143.723 10.1035 143 10.748 142.434 11.5684C141.887 12.3887 141.486 13.3262 141.232 14.3809C140.979 15.416 140.852 16.4902 140.852 17.6035C140.852 19.127 141.086 20.5527 141.555 21.8809C142.043 23.209 142.805 24.2832 143.84 25.1035C144.895 25.9043 146.281 26.3047 148 26.3047Z" fill="url(#paint1_linear_237_777)"/>
<path d="M80.6172 64.8828V42.5293H88.9668C90.4512 42.5293 91.7891 42.7246 92.9805 43.1152C94.1719 43.5059 95.1191 44.1699 95.8223 45.1074C96.5449 46.0449 96.9062 47.3438 96.9062 49.0039C96.9062 50.6445 96.5449 51.9336 95.8223 52.8711C95.1191 53.8086 94.1719 54.4727 92.9805 54.8633C91.7891 55.2539 90.4512 55.4492 88.9668 55.4492H83.6055V64.8828H80.6172ZM83.6055 52.666H88.3809C89.2793 52.666 90.1387 52.5879 90.959 52.4316C91.7988 52.2754 92.4824 51.9434 93.0098 51.4355C93.5371 50.9082 93.8008 50.0879 93.8008 48.9746C93.8008 48.1348 93.6445 47.4707 93.332 46.9824C93.0195 46.4941 92.5996 46.1328 92.0723 45.8984C91.5645 45.6445 90.9883 45.4883 90.3438 45.4297C89.6992 45.3516 89.0449 45.3125 88.3809 45.3125H83.6055V52.666ZM110.588 64.6777V42.5293H125.939V45.3125H113.576V51.8164H125.09V54.5996H113.576V61.8945H126.145V64.6777H110.588ZM137.951 64.8828V42.3242H140.939L148 52.4902L155.061 42.3242H158.049V64.8828H155.061V46.748L148 56.8262L140.939 46.748V64.8828H137.951ZM178.029 65.0879C175.725 65.0879 173.801 64.5703 172.258 63.5352C170.734 62.5 169.592 61.1035 168.83 59.3457C168.068 57.5879 167.688 55.6348 167.688 53.4863C167.688 51.2988 168.088 49.3555 168.889 47.6562C169.689 45.9375 170.871 44.5898 172.434 43.6133C174.016 42.6172 175.939 42.1191 178.205 42.1191C179.885 42.1191 181.359 42.4219 182.629 43.0273C183.898 43.6328 184.953 44.4727 185.793 45.5469C186.652 46.6016 187.287 47.832 187.697 49.2383C188.127 50.625 188.342 52.0996 188.342 53.6621C188.342 55.791 187.951 57.7246 187.17 59.4629C186.389 61.1816 185.236 62.5488 183.713 63.5645C182.189 64.5801 180.295 65.0879 178.029 65.0879ZM178 62.3047C179.309 62.3047 180.412 62.0703 181.311 61.6016C182.229 61.1133 182.971 60.459 183.537 59.6387C184.104 58.8184 184.514 57.8809 184.768 56.8262C185.021 55.7715 185.148 54.6582 185.148 53.4863C185.148 51.9238 184.895 50.498 184.387 49.209C183.898 47.9004 183.117 46.8555 182.043 46.0742C180.969 45.293 179.572 44.9023 177.854 44.9023C176.584 44.9023 175.5 45.1465 174.602 45.6348C173.723 46.1035 173 46.748 172.434 47.5684C171.887 48.3887 171.486 49.3262 171.232 50.3809C170.979 51.416 170.852 52.4902 170.852 53.6035C170.852 55.127 171.086 56.5527 171.555 57.8809C172.043 59.209 172.805 60.2832 173.84 61.1035C174.895 61.9043 176.281 62.3047 178 62.3047ZM199.006 64.8828V42.3242H202.053V51.8164H213.947V42.3242H216.994V64.8828H213.947V54.5996H202.053V64.8828H199.006ZM236.418 65.0879V45.3125H228.332V42.5293H247.639V45.3125H239.582V65.0879H236.418Z" fill="#2E2E2E"/>
<path d="M5.82538 56.0287C6.43383 54.8793 7.43505 54.4415 8.68415 54.4447C8.76973 54.4351 8.85612 54.4351 8.9417 54.4447C10.0137 54.6894 10.516 54.0649 10.9634 53.2214C12.0454 51.1208 12.8898 48.9062 13.481 46.6185C14.4547 42.9729 15.1796 39.2653 15.6508 35.5215C15.7892 34.4752 15.9953 33.4353 16.0532 32.3858C16.1466 30.7214 15.3933 29.8297 13.7417 29.717C12.2673 29.614 10.7799 29.6687 9.29904 29.6558H8.62298C8.60376 29.531 8.59086 29.4053 8.58435 29.2792C8.58435 27.7983 8.58435 26.3142 8.58435 24.8333C8.63263 22.318 9.54055 19.8952 11.1571 17.9676C12.7736 16.0401 15.0014 14.724 17.4697 14.2384C18.2751 14.0941 19.0918 14.0219 19.91 14.0227C26.7607 14.0066 33.6115 13.9809 40.4622 14.0227C45.0112 14.0517 48.4044 16.1024 50.571 20.1234C50.6143 20.2289 50.6909 20.3174 50.7891 20.3755C50.8873 20.4335 51.0017 20.4581 51.115 20.4453C52.2708 20.4453 53.4298 20.4453 54.5469 20.4453C54.3449 21.191 54.1985 21.9507 54.109 22.7181C54.1214 23.4969 54.1903 24.2737 54.3151 25.0425H51.7911V29.6333H24.6392C24.3173 30.8631 23.9953 32.0542 23.7507 33.2615C23.0479 36.4211 22.7344 39.6548 22.8171 42.8905C22.9233 45.598 23.3257 48.2411 24.6134 50.6781C25.3183 52.0816 26.3603 53.2884 27.6461 54.1904C27.8675 54.3368 28.1245 54.4202 28.3897 54.4319C29.4972 54.4576 30.6046 54.448 31.7121 54.4319C31.8382 54.4247 31.9639 54.4507 32.0768 54.5072C32.1898 54.5637 32.286 54.6487 32.356 54.7538C32.6609 55.092 33.0446 55.3497 33.4731 55.5039C35.1825 56.1703 36.9886 56.2637 38.7979 56.2572C40.5041 56.2572 42.2007 56.1349 43.8232 55.5393C44.348 55.3462 44.8824 55.153 45.1303 54.5735C45.1666 54.5307 45.212 54.4966 45.2633 54.4737C45.3146 54.4508 45.3704 54.4398 45.4265 54.4415C47.1295 54.4415 48.8358 54.4415 50.5356 54.5059C50.913 54.5281 51.2797 54.6402 51.6051 54.8328C51.9304 55.0255 52.205 55.2931 52.406 55.6134C52.5157 55.7565 52.595 55.9206 52.6392 56.0955C52.6833 56.2704 52.6913 56.4524 52.6627 56.6305C52.634 56.8086 52.5694 56.979 52.4727 57.1312C52.376 57.2835 52.2492 57.4144 52.1002 57.516C51.524 57.9188 50.8393 58.1377 50.1364 58.1438C49.9851 58.1438 49.8144 58.1438 49.676 58.1438C36.0582 58.1438 22.4404 58.1438 8.82258 58.1438C8.48228 58.1399 8.14254 58.1152 7.80527 58.0697C7.39695 58.0439 7.00136 57.9175 6.65368 57.7018C6.30601 57.4861 6.01705 57.1878 5.8125 56.8335L5.82538 56.0287ZM43.4466 24.1797H29.172L29.0368 25.9246H43.4466V24.1797ZM26.4259 23.1013C26.0717 23.1039 25.7263 23.212 25.4338 23.4118C25.1412 23.6115 24.9148 23.8938 24.7833 24.2228C24.6519 24.5517 24.6213 24.9123 24.6956 25.2587C24.7699 25.605 24.9456 25.9214 25.2004 26.1675C25.4551 26.4136 25.7774 26.5783 26.1261 26.6405C26.4748 26.7027 26.8342 26.6597 27.1584 26.5169C27.4825 26.3741 27.7569 26.1381 27.9463 25.8388C28.1358 25.5395 28.2319 25.1906 28.2223 24.8365C28.1995 24.3731 28.001 23.9358 27.6674 23.6135C27.3337 23.2912 26.8898 23.1081 26.4259 23.1013ZM23.8505 25.9439L23.7152 24.1797H21.4907V25.9439H23.8505Z" fill="white"/>
<path d="M44.8116 42.356L44.7086 44.088C46.5758 44.8478 47.3291 45.9327 47.2164 47.6615C47.0812 49.7347 46.373 50.5234 44.113 51.0868C44.0357 51.8691 43.9295 52.6611 43.8941 53.4563C43.9073 53.6447 43.8515 53.8316 43.7372 53.982C43.6229 54.1324 43.4579 54.2362 43.2728 54.274C42.2748 54.5385 41.2592 54.7311 40.2337 54.8502C38.4349 55.0376 36.6172 54.9135 34.8606 54.4832C34.5778 54.4264 34.3081 54.3172 34.0654 54.1613C33.8692 54.0152 33.7357 53.8 33.692 53.5593C33.3701 50.0019 33.0481 46.4413 32.752 42.884C32.752 42.6811 32.752 42.4751 32.752 42.2852C36.7407 43.5117 40.7456 43.4441 44.8116 42.356ZM44.2321 49.4643C45.478 49.4868 45.9995 49.02 46.0156 47.948C46.0156 47.6582 46.0156 47.3717 46.0156 47.082C46.0156 46.1162 45.5649 45.6848 44.5412 45.6848C44.4414 46.9274 44.3384 48.1766 44.2321 49.4643Z" fill="white"/>
<path d="M48.573 30.582C48.2916 31.4554 47.7158 32.2041 46.944 32.7004C45.521 33.7305 43.8856 34.2263 42.1826 34.545L41.6449 34.6609C41.6449 35.2372 41.6675 35.7941 41.6449 36.3543C41.6396 36.7842 41.5067 37.2028 41.2632 37.557C41.0196 37.9112 40.6762 38.1851 40.2767 38.3439C40.1237 38.387 39.993 38.4871 39.9116 38.6236C39.8301 38.7602 39.8041 38.9227 39.8389 39.0779C39.8614 39.3837 39.8389 39.6895 39.8389 40.0437C41.5419 40.24 43.2675 40.2658 44.8031 41.0835L44.8321 41.2992C44.3286 41.5094 43.8125 41.6878 43.2868 41.8336C40.2177 42.5171 37.0319 42.4797 33.9797 41.7242C33.5971 41.6176 33.2364 41.4443 32.9141 41.2123C34.4562 40.2626 36.185 40.2465 37.9556 40.0437C37.9556 39.6123 37.9749 39.1616 37.9556 38.7109C37.9556 38.6111 37.7785 38.4887 37.6594 38.434C37.1881 38.2403 36.7873 37.907 36.5111 37.4788C36.2348 37.0506 36.0963 36.5481 36.1141 36.0388C36.1141 35.5817 36.2493 35.0054 36.0272 34.7028C35.8051 34.4002 35.2192 34.471 34.791 34.3648C33.1105 33.9398 31.4847 33.3829 30.2388 32.1112C29.8424 31.6327 29.483 31.1247 29.1636 30.5917L48.573 30.582Z" fill="white"/>
<path d="M58.1856 22.808C58.1829 23.1195 58.1164 23.4271 57.9901 23.7119C57.8639 23.9966 57.6806 24.2525 57.4517 24.4637C57.2227 24.6749 56.9529 24.8369 56.6588 24.9397C56.3648 25.0425 56.0528 25.084 55.7421 25.0615C55.6653 25.0508 55.5919 25.023 55.5272 24.9801C55.4626 24.9372 55.4084 24.8803 55.3687 24.8137C55.0656 24.1726 54.9278 23.466 54.9677 22.758C55.0076 22.0501 55.224 21.3634 55.5973 20.7605C55.6521 20.6438 55.7483 20.5516 55.8672 20.5016C55.9862 20.4517 56.1194 20.4476 56.2411 20.4901C56.7906 20.5763 57.2902 20.8586 57.6477 21.2847C58.0051 21.7108 58.1962 22.2519 58.1856 22.808Z" fill="white"/>
<defs>
<linearGradient id="paint0_linear_237_777" x1="21.5" y1="-13" x2="21.5" y2="84" gradientUnits="userSpaceOnUse">
<stop stop-color="#E68B7C"/>
<stop offset="1" stop-color="#DC614D"/>
</linearGradient>
<linearGradient id="paint1_linear_237_777" x1="163" y1="0" x2="163" y2="72" gradientUnits="userSpaceOnUse">
<stop stop-color="#E68B7C"/>
<stop offset="1" stop-color="#DC614D"/>
</linearGradient>
<clipPath id="clip0_237_777">
<rect y="4" width="64" height="64" rx="4" fill="white"/>
</clipPath>
</defs>
</svg>
