<svg width="200" height="64" viewBox="0 0 200 64" fill="none" xmlns="http://www.w3.org/2000/svg">
<path fill-rule="evenodd" clip-rule="evenodd" d="M22.307 19.4573V25.2325C19.5604 24.2718 16.5528 23.711 14.155 23.711C11.1952 23.711 9.54812 24.6128 9.54812 26.2332C9.54812 27.2672 10.2689 27.9525 12.3369 28.8821L17.8989 31.3776C22.3481 33.3768 24.5904 36.2933 24.5904 40.0827C24.5904 45.9313 19.5282 49.6208 11.5039 49.6208C8.57743 49.6208 5.19224 49.2021 1.60603 48.3913V42.4217C5.16114 43.3891 8.4175 43.9055 10.9508 43.9055C14.2683 43.9055 16.0453 42.9815 16.0453 41.2589C16.0453 40.2238 15.3511 39.463 13.7618 38.7533L7.67449 36.0423C3.16201 34.0298 1.07959 31.3188 1.07959 27.4538C1.07959 21.9151 5.95857 18.3833 13.613 18.3833C16.293 18.3833 19.5915 18.7909 22.307 19.4573ZM28.9219 18.9886H37.9169V49.0155H28.9219V18.9886ZM67.163 18.9886V24.4895H53.5834V31.2621H65.446V36.2377H53.5834V43.2591H67.3385V49.0155H44.8427V18.9886H67.163ZM109.658 18.9886V49.0155H100.955V29.2519L92.4298 49.2498H86.9277L78.4603 29.2519V49.0155H72.4507V18.9886H83.4348L91.2003 37.2528L98.9258 18.9886H109.658ZM138.927 18.9886V24.4895H125.328V31.2621H137.187V36.2377H125.328V43.2591H139.081V49.0155H116.565V18.9886H138.927ZM170.61 18.9886V49.0155H161.011L150.202 29.7572V49.0155H144.192V18.9886H154.044L164.62 37.9925V18.9886H170.61ZM196.714 19.4573V25.2325C193.988 24.2785 190.961 23.711 188.608 23.711C185.601 23.711 183.955 24.5984 183.955 26.2243C183.955 27.2839 184.627 27.9169 186.766 28.8832L192.304 31.3787C196.785 33.399 199 36.2899 199 40.1238C199 45.9413 193.933 49.623 185.927 49.623C182.996 49.623 179.597 49.2021 176.016 48.3935V42.4239C179.566 43.3891 182.816 43.9077 185.333 43.9077C188.628 43.9077 190.454 42.9837 190.454 41.3155C190.454 40.2116 189.814 39.4996 188.148 38.7555L182.085 36.0445C177.545 34.0165 175.487 31.3365 175.487 27.4571C175.487 21.9218 180.368 18.3877 188.005 18.3877C190.692 18.3844 194.004 18.7909 196.714 19.4573Z" fill="#00A0B0"/>
</svg>
