<svg width="64" height="64" viewBox="0 0 64 64" fill="none" xmlns="http://www.w3.org/2000/svg">
<path d="M51.3076 39.5C45.0076 39.5 39.8076 44.7 39.8076 51C39.8076 57.3 45.0076 62.5 51.3076 62.5C57.6076 62.5 62.8076 57.3 62.8076 51C62.8076 44.7 57.6076 39.5 51.3076 39.5ZM51.3076 59.5C46.6076 59.5 42.8076 55.7 42.8076 51C42.8076 46.3 46.6076 42.5 51.3076 42.5C56.0076 42.5 59.8076 46.3 59.8076 51C59.8076 55.7 56.0076 59.5 51.3076 59.5Z" fill="#E68B7C"/>
<path d="M55.3076 49.5H52.8076V46C52.8076 45.2 52.1076 44.5 51.3076 44.5C50.5076 44.5 49.8076 45.2 49.8076 46V52.5H55.3076C56.1076 52.5 56.8076 51.8 56.8076 51C56.8076 50.2 56.1076 49.5 55.3076 49.5Z" fill="#E68B7C"/>
<path d="M31.8076 18.5C24.6076 18.5 18.8076 24.3 18.8076 31.5C18.8076 38.7 24.6076 44.5 31.8076 44.5C39.0076 44.5 44.8076 38.7 44.8076 31.5C44.8076 24.3 39.0076 18.5 31.8076 18.5ZM31.8076 41.5C26.3076 41.5 21.8076 37 21.8076 31.5C21.8076 26 26.3076 21.5 31.8076 21.5C37.3076 21.5 41.8076 26 41.8076 31.5C41.8076 37 37.3076 41.5 31.8076 41.5Z" fill="#E68B7C"/>
<path d="M61.4076 25.4L56.9076 24.3L54.5076 19.1L56.8076 14.9C57.3076 13.9 57.1076 12.6 56.3076 11.9L50.9076 6.89999C50.1076 6.19999 49.0076 6 48.1076 6.5L44.3076 8.39999L39.2076 6.39999L38.5076 2.10001C38.3076 0.900006 37.3076 0 36.0076 0H27.7076C26.5076 0 25.4076 0.900006 25.2076 2.10001L24.5076 6.39999L19.4076 8.39999L15.1076 6.39999C14.2076 5.99999 13.1076 6.2 12.4076 6.8L7.00759 11.8C6.20759 12.6 6.00759 13.8 6.50759 14.8L8.80758 19.1L7.20757 24.2L2.30758 25.3C1.20758 25.5 0.407584 26.5 0.407584 27.6L0.00758988 35C-0.0924101 36.2 0.80759 37.3 2.00759 37.6L7.30758 38.7L8.90758 43.8L6.60757 48.1C6.10757 49.1 6.20759 50.3 7.00759 51.1L12.4076 56.5C13.2076 57.3 14.5076 57.5 15.5076 56.8L19.6076 54.2L24.6076 56.5L25.3076 60.9C25.5076 62.1 26.5076 63 27.8076 63H35.3076C36.3076 63 37.1076 62.5 37.5076 61.6L38.2076 60.2C38.6076 59.5 38.3076 58.6 37.5076 58.2C36.8076 57.8 35.9076 58.1 35.5076 58.9L34.9076 60.1H28.1076L27.4076 55.9C27.3076 55.1 26.7076 54.4 26.0076 54L20.5076 51.5C19.7076 51.1 18.8076 51.2 18.1076 51.7L14.1076 54.3L9.20757 49.4L11.5076 45.3C11.8076 44.7 11.9076 44 11.7076 43.4L10.0076 37.9C9.70759 37 9.00757 36.4 8.10757 36.2L2.90758 35.1L3.30758 28.5L8.10757 27.4C9.00757 27.2 9.70758 26.5 9.90758 25.7L11.6076 20.2C11.8076 19.6 11.7076 18.9 11.4076 18.3L9.20757 14.2L14.1076 9.7L18.3076 11.6C18.9076 11.9 19.6076 11.9 20.2076 11.7L25.8076 9.60001C26.6076 9.30001 27.2076 8.5 27.4076 7.7L28.1076 3.5H35.6076L36.3076 7.7C36.4076 8.6 37.0076 9.30001 37.9076 9.60001L43.5076 11.7C44.2076 11.9 44.9076 11.9 45.5076 11.6L49.2076 9.8L54.1076 14.3L51.9076 18.3C51.5076 19 51.5076 19.8 51.8076 20.5L54.4076 26.1C54.7076 26.8 55.3076 27.3 56.1076 27.5L60.5076 28.6V34.9L59.3076 36.5C58.8076 37.2 58.9076 38.1 59.6076 38.6C60.3076 39.1 61.2076 39 61.7076 38.3L63.0076 36.6C63.3076 36.2 63.5076 35.6 63.5076 35.1V28.2C63.3076 26.6 62.5076 25.6 61.4076 25.4Z" fill="#E68B7C"/>
</svg>
