<svg width="200" height="64" viewBox="0 0 200 64" fill="none" xmlns="http://www.w3.org/2000/svg">
<path fill-rule="evenodd" clip-rule="evenodd" d="M0 12.6034H17.5024C17.5024 12.6034 30.7376 12.8045 30.7376 27.3855C30.7376 41.264 17.2136 42.1677 17.2136 42.1677H10.2454V50.616H0V12.6034ZM10.2454 33.5209H14.3449C14.3449 33.5209 19.775 33.0181 19.775 27.1857C19.775 21.3533 13.9351 20.9511 13.9351 20.9511H10.2468V33.5209H10.2454ZM139.165 12.6034H156.993C156.993 12.6034 169.904 13.4078 169.904 27.3855C169.904 40.056 156.892 42.1677 156.892 42.1677H149.413V50.616H139.166V12.6034H139.165ZM149.412 33.5209H153.51C153.51 33.5209 158.938 33.0181 158.938 27.1857C158.938 21.3533 153.099 20.9511 153.099 20.9511H149.412V33.5209ZM35.2456 12.9063H45.3886V26.7835H56.1476V12.9063H65.8807V50.6173H56.25V35.331H45.491V50.6173H35.2456V12.9063ZM75.4609 12.8058H85.1422V50.6173H75.4609V12.8058ZM120.131 12.8058H129.815V50.6173H120.131V12.8058ZM94.6717 12.9063H104.404V41.6662H114.958V50.6173H94.6717V12.9063ZM195.697 12.5028C195.697 12.5028 191.905 12 188.423 12C183.092 12 173.77 13.4078 173.667 24.2695C173.667 24.2695 172.985 32.7739 182.479 35.1299C191.393 37.3422 189.394 39.1026 189.652 39.3534C189.652 39.3534 189.857 42.0672 183.092 42.0672C176.33 42.0672 174.795 40.8604 174.795 40.8604V49.7096C174.795 49.7096 176.354 50.3809 182.991 50.9164C191.7 51.6203 200 47.9087 200 38.75C200 35.1299 198.155 29.2962 189.652 27.285C184.213 25.9986 183.462 24.4745 183.504 23.7654C183.504 23.7654 183.264 20.716 189.447 20.8492C195.183 20.9733 195.798 21.7542 195.798 21.7542L195.697 12.5028Z" fill="#00A1E3"/>
</svg>
