<svg width="200" height="65" viewBox="0 0 200 65" fill="none" xmlns="http://www.w3.org/2000/svg">
<path fill-rule="evenodd" clip-rule="evenodd" d="M167.041 64.7209C184.911 64.7209 199.4 50.2339 199.4 32.3588C199.4 14.4881 184.911 0 167.041 0H33.4702C15.5972 0 1.10913 14.4881 1.10913 32.3588C1.10913 50.2339 15.5972 64.7209 33.4702 64.7209H167.041Z" fill="#255398"/>
<path fill-rule="evenodd" clip-rule="evenodd" d="M166.543 60.8465C182.259 60.8465 195.001 48.1061 195.001 32.3893C195.001 16.6703 182.259 3.92871 166.543 3.92871H33.8524C18.1345 3.92871 5.39185 16.6703 5.39185 32.3893C5.39185 48.1061 18.1345 60.8465 33.8524 60.8465H166.543Z" fill="white"/>
<path fill-rule="evenodd" clip-rule="evenodd" d="M166.691 54.8439C179.115 54.8439 189.186 44.773 189.186 32.3496C189.186 19.9263 179.115 9.85645 166.691 9.85645H34.0606C21.6372 9.85645 11.5652 19.9251 11.5652 32.3496C11.5652 44.773 21.6372 54.8439 34.0606 54.8439H166.691Z" fill="#255398"/>
<path fill-rule="evenodd" clip-rule="evenodd" d="M33.5608 22.7267H34.2073C35.9911 22.7267 36.5439 23.371 36.5439 25.28V35.2133C36.5439 37.1201 35.9911 37.7666 34.2073 37.7666H33.5608V22.7267ZM24.3044 16.9759V21.6504C25.2567 22.0509 25.3176 22.8181 25.3503 23.7422V36.5661C25.3188 37.4574 25.2262 38.2574 24.3044 38.6568V43.3323H35.9279C38.4191 43.3323 40.7557 43.1789 42.6321 41.3939C44.6302 39.5188 44.7543 37.5195 44.7543 34.9369V25.0645C44.7543 22.5428 44.5388 20.1441 42.3861 18.4528C40.5109 17.0075 37.9272 16.9771 35.6819 16.9771H24.3044V16.9759ZM56.9013 30.7826H54.0727V30.0469C54.0727 29.2763 54.1946 28.0759 55.4864 28.0759C56.7783 28.0759 56.9013 29.2763 56.9013 30.0469V30.7826ZM46.8134 36.2581C46.8134 38.5936 46.9071 40.7475 48.9357 42.2537C50.5345 43.4519 53.5187 43.9461 56.4703 43.7306C59.4534 43.5151 62.4366 42.6238 64.0342 41.2394V36.3799H56.7783V37.0873C56.7783 38.0712 56.6847 39.2096 55.4244 39.2096C54.163 39.2096 54.04 37.9482 54.0716 36.9937V35.2122H64.0342V30.6291C64.1583 25.8927 62.4039 23.5255 55.2698 23.556C48.4742 23.5865 46.6904 25.7087 46.8134 30.9981V36.2581ZM65.6961 43.3312V38.6556C66.6811 38.0407 66.5886 37.0569 66.5886 36.073V24.2341C66.5886 23.2491 66.6811 22.2653 65.6961 21.6504V16.9759H75.6915V21.6504C74.7076 22.2653 74.799 23.2491 74.799 24.2341V37.7338H75.5978C77.6896 37.7338 77.6592 36.4724 77.6592 34.8116V30.5366H84.8857V43.3301H65.6961V43.3312ZM94.0191 30.9687C94.0191 29.8912 93.8341 28.077 95.4035 28.077C96.9718 28.077 96.7563 29.9217 96.7563 30.9687V36.5661C96.7563 37.6109 96.8477 39.2107 95.373 39.2107C93.9277 39.2107 94.0191 37.6109 94.0191 36.5661V30.9687ZM104.012 30.9056C104.012 28.4471 103.858 26.1082 101.522 24.6944C99.8308 23.7095 96.877 23.5571 94.9104 23.5571C92.7272 23.5571 90.359 23.741 88.6057 25.1254C86.7914 26.5392 86.7609 28.816 86.7609 30.9067V35.9512C86.7609 38.5033 86.7609 40.8704 89.128 42.4387C90.8204 43.576 93.6501 43.7317 95.6483 43.7317C97.862 43.7317 100.446 43.5467 102.199 42.0404C103.951 40.5331 104.012 38.1039 104.012 35.9523V30.9056ZM113.73 25.157C115.698 23.8324 117.421 23.4962 118.959 23.5571C120.467 23.6181 121.787 24.1111 122.525 24.8479C123.849 26.1082 124.002 27.5241 124.002 29.1838V36.442C124.002 37.3954 123.911 38.4717 124.864 38.9952V43.3312H117.146C116.714 41.3624 116.746 39.3033 116.746 37.304V31.6457C116.746 31.5216 116.838 30.6303 116.53 29.9217C116.038 29.1838 115.238 28.631 114.04 29.1838V36.442C114.04 37.3954 113.948 38.4717 114.93 38.9952V43.3312H105.888V38.9952C106.843 38.4413 106.781 37.5488 106.781 36.5661V30.6923C106.781 29.6464 106.811 28.9694 105.888 28.2914V23.9565H113.731V25.157H113.73ZM136.857 37.8862C136.46 38.1026 136.016 38.2195 135.564 38.2269C134.09 38.2269 134.09 36.5334 134.09 35.4886V31.2147C134.09 30.1079 134.09 28.816 135.535 28.816C135.995 28.816 136.487 28.9683 136.857 29.2143V37.8862ZM145.007 23.9554H137.042V25.0634C135.656 24.0175 133.965 23.5571 132.243 23.5571C127.908 23.5571 126.83 26.2007 126.83 30.4136V37.7034C126.83 41.9457 128.922 43.7306 132.582 43.7306C133.967 43.7306 135.564 43.2996 136.857 42.3157V43.5456C136.857 44.6513 137.042 46.5592 135.442 46.5592C134.858 46.5592 134.519 46.2523 134.305 45.8224C134.12 45.3914 134.09 44.8397 134.09 44.4076H127.353V49.0504C130.182 50.6187 132.613 51.1106 135.841 51.1106C138.055 51.1106 140.854 50.8342 142.515 49.205C144.206 47.5746 144.115 44.623 144.115 42.4387V30.6912C144.115 29.7062 144.051 28.8758 145.006 28.2902V23.9554H145.007ZM155.152 24.8185C156.635 23.9294 158.345 23.4911 160.072 23.5571C161.582 23.6181 162.902 24.1111 163.642 24.8479C164.962 26.1082 165.117 27.5241 165.117 29.1838V36.442C165.117 37.3954 165.024 38.4717 165.979 38.9952V43.3312H158.262C157.829 41.3624 157.861 39.3033 157.861 37.304V31.6457C157.861 31.5216 157.954 30.6303 157.648 29.9217C157.154 29.1838 156.353 28.631 155.153 29.1838V36.442C155.153 37.3954 155.063 38.4717 156.046 38.9952V43.3312H147.006V38.9952C147.958 38.4413 147.898 37.5488 147.898 36.5661V23.8652C147.927 22.879 147.989 21.8331 146.976 21.313V16.9759H155.153V24.8185H155.152ZM175.88 36.442C175.88 37.4258 175.789 38.4097 176.802 38.9952V43.3312H167.73V38.9952C168.685 38.4097 168.623 37.5488 168.623 36.5661V30.8446C168.623 29.8608 168.715 28.8758 167.73 28.2914V23.9565H175.88V36.442ZM168.039 19.6827C168.039 17.5908 170.192 16.73 171.977 16.73C173.788 16.73 175.88 17.715 175.88 19.8068C175.88 21.8343 173.822 22.7888 172.037 22.7888C170.133 22.7877 168.039 21.8659 168.039 19.6827ZM47.742 19.9354H63.3832V21.2882H47.742V19.9354Z" fill="white"/>
</svg>
