<svg width="201" height="64" viewBox="0 0 201 64" fill="none" xmlns="http://www.w3.org/2000/svg">
<path fill-rule="evenodd" clip-rule="evenodd" d="M188.203 36.5543C188.203 40.3598 185.831 42.2359 183.406 42.2359C181.034 42.2359 178.663 40.3598 178.663 36.5543C178.663 32.8599 180.979 30.8194 183.406 30.8194C185.887 30.8194 188.203 32.8599 188.203 36.5543ZM200.002 36.4453C200.002 29.3856 194.212 21.1699 183.46 21.1699C172.543 21.1699 166.862 29.6078 166.862 36.4988C166.862 43.5008 172.597 51.8853 183.406 51.8853C194.212 51.8853 200.002 43.5585 200.002 36.4453Z" fill="#D71921"/>
<path d="M165.827 32.58L165.82 23.2532C163.47 21.9583 160.598 21.1699 157.273 21.1699C146.355 21.1699 140.675 29.6035 140.675 36.4987C140.675 43.5008 146.41 51.8831 157.22 51.8831C160.581 51.8831 163.455 51.0754 165.82 49.755V40.4218C165.82 40.4218 161.613 42.0948 159.173 42.0948C154.69 42.0948 152.478 39.3 152.478 36.4453C152.478 33.6526 154.686 30.8578 159.166 30.8578C161.66 30.8578 165.827 32.5778 165.827 32.5778M8.22411 48.255L8.64291 48.5392C11.8878 50.7358 15.7179 51.9067 19.6363 51.9002C22.2151 51.9005 24.7687 51.3928 27.1512 50.4061C29.5338 49.4193 31.6986 47.9729 33.522 46.1495C35.3455 44.326 36.7919 42.1612 37.7786 39.7786C38.7654 37.3961 39.2731 34.8425 39.2728 32.2638C39.2758 29.4894 38.6893 26.746 37.5522 24.2153C36.415 21.6847 34.7532 19.4245 32.6768 17.5845L7.48267 30.9625V37.5735L32.2601 24.4391C33.9542 27.1702 34.7166 30.3772 34.4328 33.5785C34.149 36.7798 32.8343 39.8026 30.6861 42.1931C28.5379 44.5835 25.6722 46.2126 22.5193 46.8356C19.3664 47.4586 16.0965 47.0419 13.2005 45.6482L8.22411 48.255Z" fill="#D71921"/>
<path d="M26.0296 18.8623C23.1348 17.4775 19.8693 17.0679 16.7221 17.6946C13.575 18.3214 10.7156 19.9508 8.57216 22.339C6.42874 24.7271 5.11668 27.7453 4.83247 30.9417C4.54827 34.138 5.30721 37.3404 6.99564 40.0692L6.98496 40.0842L31.9333 26.8493L31.9226 33.4582L6.57898 46.9345C4.50731 45.0939 2.8497 42.8347 1.71562 40.3061C0.581546 37.7776 -0.00319641 35.0372 1.31412e-05 32.2659C-0.000267477 29.6873 0.507383 27.1339 1.49397 24.7515C2.48057 22.3691 3.92678 20.2044 5.75002 18.381C7.57327 16.5575 9.73783 15.1111 12.1201 14.1242C14.5024 13.1374 17.0557 12.6295 19.6343 12.6295C23.6963 12.6295 27.4697 13.8623 30.6021 15.9777L31.0252 16.264L26.0296 18.8623ZM51.1574 49.2806C52.7065 50.1118 55.9693 51.881 62.8816 51.881C76.4284 51.881 77.5331 42.3683 77.5331 40.4923C77.5331 34.4625 72.3366 31.4753 69.5161 29.8728C66.0333 27.8856 63.8218 26.6677 63.8218 24.7874C63.8218 23.7361 64.7619 22.3558 66.9734 22.3558C70.2896 22.3558 73.8302 25.2853 75.875 27.219V16.9905C73.4947 14.779 69.4606 12.623 64.4841 12.623C56.8539 12.623 51.3241 17.2106 51.3241 24.5118C51.3241 26.1143 51.3241 30.5929 57.5184 34.298C62.4372 37.2274 64.0397 38.1676 64.0397 39.7701C64.0397 40.5436 63.435 42.1504 60.0056 42.1504C56.8005 42.1504 53.8133 40.8214 51.1595 38.9987L51.1574 49.2806ZM125.022 29.0309C127.084 29.0309 129.009 30.7254 129.009 33.798H121.088C121.088 30.7254 123.007 29.0309 125.024 29.0309H125.022ZM139.233 38.6675C139.904 28.407 132.445 21.311 124.74 21.311C116.033 21.311 109.543 27.798 109.543 36.3236C109.543 45.0307 116.214 51.8832 126.261 51.8832C131.955 51.8832 135.671 51.0306 138.96 49.4174L139.019 41.9581C135.671 43.6312 131.438 44.5158 128.421 44.5158C123.917 44.5158 120.872 41.6825 121.086 38.6675H139.233ZM96.9174 41.1718C96.7636 44.0008 94.9858 45.4153 92.6995 45.4153C90.8684 45.4153 89.55 44.1589 89.55 42.9004C89.55 41.0671 90.7167 40.4923 92.9538 39.9667C94.3256 39.6526 95.6952 39.2872 96.9153 38.6569L96.9174 41.1718ZM109.4 43.2444C107.947 43.0393 107.402 42.4324 107.443 39.2167L107.437 32.5458C107.437 23.8494 99.5777 21.1657 94.082 21.1657C91.3855 21.1657 84.0971 21.8537 81.4518 26.5011C80.4754 28.2211 80.0822 29.3514 80.001 31.3642H89.3321C90.0009 29.3942 91.597 28.3344 93.2572 28.3344C94.6696 28.3344 96.0115 29.0673 96.8341 30.454C96.9623 30.6762 97.0285 30.9155 97.0285 31.1719C97.0285 32.9924 95.832 33.3492 94.3876 33.627C88.9859 34.674 78.8002 34.3428 78.8002 43.3897C78.8002 48.9024 83.157 51.8832 88.5052 51.8832C91.9282 51.8832 94.9431 51.2742 97.1888 48.6268L97.4345 48.9452C98.4302 49.8875 100.172 51.3298 105.663 51.3298H109.402L109.4 43.2444Z" fill="#D71921"/>
</svg>
