<svg width="201" height="64" viewBox="0 0 201 64" fill="none" xmlns="http://www.w3.org/2000/svg">
<path fill-rule="evenodd" clip-rule="evenodd" d="M0.765137 7.11328H201V56.3168H0.765137V7.11328Z" fill="#CC2229"/>
<path fill-rule="evenodd" clip-rule="evenodd" d="M78.358 22.5587L86.034 18.5816L83.6291 13.958L75.9542 17.842L78.358 22.5587ZM89.0864 41.7957V23.1131H68.5544V28.3852H72.2532V41.7957H68.5544V47.0679H92.7853V41.7957H89.0864ZM112.207 21.9112V26.9061C111.867 26.9057 111.531 26.9724 111.216 27.1024C110.902 27.2323 110.617 27.423 110.376 27.6636C110.136 27.9041 109.945 28.1896 109.815 28.5039C109.686 28.8182 109.619 29.1551 109.62 29.4951V32.8258H112.207V36.8939H109.62V39.2999C109.62 40.6859 110.449 41.982 111.745 42.6295C111.931 42.7215 112.115 42.8136 112.207 42.8136V48.1778C108.88 48.2698 105.455 47.6234 102.033 46.3273C98.889 45.1253 96.5772 42.9056 95.2833 39.7612C92.6922 33.6574 95.4674 26.6279 101.571 24.1299C105.088 22.5587 108.694 21.9112 112.207 21.9112ZM37.479 27.6457L46.4501 15.253H65.1316V20.523H61.4328V41.7957H65.1316V47.0679H40.8076V41.7957H44.6006V28.0149L30.7278 47.0679L16.8539 28.0149V41.7957H20.6458V47.0679H7.23535V41.7957H10.9353V20.523H7.23535V15.253H28.4139L37.479 27.6457ZM135.423 41.7957H131.723V47.0679H156.786V41.7957H152.994V15.253H131.723V20.523H135.423V41.7957ZM112.207 36.8939V32.8258H114.89V29.4951C114.89 28.0149 113.688 26.9061 112.207 26.9061V21.9112C116.094 22.0032 119.883 22.9279 123.586 24.7784C128.209 27.0913 130.705 31.808 130.057 36.8939H112.207Z" fill="white"/>
<path fill-rule="evenodd" clip-rule="evenodd" d="M112.213 48.1782V42.814C112.4 42.906 112.492 42.906 112.678 42.9981C116.005 44.0159 119.522 42.0744 120.538 38.7438H129.88C128.77 41.9813 126.551 44.2021 123.592 45.5881C119.797 47.3455 116.005 48.1782 112.213 48.1782ZM176.214 21.9116V26.9066C174.734 26.9066 173.532 28.0164 173.532 29.4956V32.8262H176.214V36.8943H173.532V39.3003C173.532 40.6863 174.364 41.9824 175.658 42.6278C175.844 42.722 176.028 42.814 176.214 42.814V48.1782C172.793 48.2702 169.37 47.6217 165.948 46.3277C162.804 45.1258 160.584 42.906 159.196 39.7616C156.606 33.6578 159.474 26.6283 165.578 24.1303C169.092 22.5591 172.607 21.9116 176.214 21.9116ZM176.214 36.8943V32.8262H178.805V29.4956C178.805 29.1553 178.739 28.8182 178.609 28.5037C178.479 28.1892 178.288 27.9035 178.047 27.6629C177.807 27.4223 177.521 27.2317 177.206 27.1019C176.892 26.9721 176.555 26.9057 176.214 26.9066V21.9116C180.006 22.0037 183.798 22.9284 187.59 24.7789C192.214 27.0917 194.712 31.8084 194.064 36.8943H176.214ZM176.214 48.1782V42.814C176.307 42.906 176.399 42.906 176.585 42.9981C179.914 44.0159 183.52 42.0744 184.539 38.7438H193.881C192.677 41.9813 190.552 44.2021 187.499 45.5881C183.706 47.3455 180.006 48.1782 176.214 48.1782Z" fill="white"/>
</svg>
