<svg width="64" height="64" viewBox="0 0 64 64" fill="none" xmlns="http://www.w3.org/2000/svg">
<path d="M60.5 55.5H3.5C2.1 55.5 1 54.4 1 53V17C1 15.6 2.1 14.5 3.5 14.5H21V8.5C21 7.1 22.1 6 23.5 6H40C41.4 6 42.5 7.1 42.5 8.5V14.5H60.5C61.9 14.5 63 15.6 63 17V53C63 54.4 61.9 55.5 60.5 55.5ZM4 52.5H60V36.5H50C49.2 36.5 48.5 35.8 48.5 35C48.5 34.2 49.2 33.5 50 33.5H60V17.5H4V33.5H14.5C15.3 33.5 16 34.2 16 35C16 35.8 15.3 36.5 14.5 36.5H4V52.5ZM24 14.5H39.5V9H24V14.5ZM39.5 36.5H24.5C23.7 36.5 23 35.8 23 35C23 34.2 23.7 33.5 24.5 33.5H39.5C40.3 33.5 41 34.2 41 35C41 35.8 40.3 36.5 39.5 36.5Z" fill="#E68B7C"/>
<mask id="mask0_237_684" style="mask-type:alpha" maskUnits="userSpaceOnUse" x="13" y="28" width="13" height="13">
<path d="M14 28H25C25.6 28 26 28.4 26 29V40C26 40.6 25.6 41 25 41H14C13.4 41 13 40.6 13 40V29C13 28.4 13.4 28 14 28Z" fill="white"/>
</mask>
<g mask="url(#mask0_237_684)">
<path d="M25 44H14C11.8 44 10 42.2 10 40V29C10 26.8 11.8 25 14 25H25C27.2 25 29 26.8 29 29V40C29 42.2 27.2 44 25 44ZM16 38H23V31H16V38Z" fill="#E68B7C"/>
</g>
<mask id="mask1_237_684" style="mask-type:alpha" maskUnits="userSpaceOnUse" x="38" y="28" width="13" height="13">
<path d="M39 28H50C50.6 28 51 28.4 51 29V40C51 40.6 50.6 41 50 41H39C38.4 41 38 40.6 38 40V29C38 28.4 38.4 28 39 28Z" fill="white"/>
</mask>
<g mask="url(#mask1_237_684)">
<path d="M50 44H39C36.8 44 35 42.2 35 40V29C35 26.8 36.8 25 39 25H50C52.2 25 54 26.8 54 29V40C54 42.2 52.2 44 50 44ZM41 38H48V31H41V38Z" fill="#E68B7C"/>
</g>
</svg>
