<svg width="64" height="64" viewBox="0 0 64 64" fill="none" xmlns="http://www.w3.org/2000/svg">
<path d="M44.8076 32.5C44.8076 25.3 39.0076 19.5 31.8076 19.5C24.6076 19.5 18.8076 25.3 18.8076 32.5C18.8076 39.7 24.6076 45.5 31.8076 45.5C39.0076 45.5 44.8076 39.7 44.8076 32.5ZM31.8076 42.5C26.3076 42.5 21.8076 38 21.8076 32.5C21.8076 27 26.3076 22.5 31.8076 22.5C37.3076 22.5 41.8076 27 41.8076 32.5C41.8076 38 37.3076 42.5 31.8076 42.5Z" fill="#E68B7C"/>
<path d="M61.4076 26.4L56.9076 25.3L54.5076 20.1L56.8076 15.9C57.3076 14.9 57.1076 13.6 56.3076 12.9L50.9076 7.89999C50.1076 7.19999 49.0076 7 48.1076 7.5L44.3076 9.39999L39.2076 7.39999L38.5076 3.10001C38.3076 1.90001 37.3076 1 36.0076 1H27.7076C26.5076 1 25.4076 1.90001 25.2076 3.10001L24.5076 7.39999L19.4076 9.39999L15.1076 7.39999C14.2076 6.99999 13.1076 7.2 12.4076 7.8L7.00759 12.8C6.20759 13.6 6.00759 14.8 6.50759 15.8L8.80759 20.1L7.20759 25.2L2.30759 26.3C1.20759 26.5 0.40759 27.5 0.40759 28.6L0.00758988 36C-0.0924101 37.2 0.80759 38.3 2.00759 38.6L7.30759 39.7L8.90759 44.8L6.60759 49.1C6.10759 50.1 6.20759 51.3 7.00759 52.1L12.4076 57.5C13.2076 58.3 14.5076 58.5 15.5076 57.8L19.6076 55.2L24.6076 57.5L25.3076 61.9C25.5076 63.1 26.5076 64 27.8076 64H35.3076C36.3076 64 37.1076 63.5 37.5076 62.6L38.2076 61.2C38.6076 60.5 38.3076 59.6 37.5076 59.2C36.8076 58.8 35.9076 59.1 35.5076 59.9L34.9076 61.1H28.1076L27.4076 56.9C27.3076 56.1 26.7076 55.4 26.0076 55L20.5076 52.5C19.7076 52.1 18.8076 52.2 18.1076 52.7L14.1076 55.3L9.20759 50.4L11.5076 46.3C11.8076 45.7 11.9076 45 11.7076 44.4L10.0076 38.9C9.70759 38 9.00759 37.4 8.10759 37.2L2.90759 36.1L3.30759 29.5L8.10759 28.4C9.00759 28.2 9.70759 27.5 9.90759 26.7L11.6076 21.2C11.8076 20.6 11.7076 19.9 11.4076 19.3L9.20759 15.2L14.1076 10.7L18.3076 12.6C18.9076 12.9 19.6076 12.9 20.2076 12.7L25.8076 10.6C26.6076 10.3 27.2076 9.5 27.4076 8.7L28.1076 4.5H35.6076L36.3076 8.7C36.4076 9.6 37.0076 10.3 37.9076 10.6L43.5076 12.7C44.2076 12.9 44.9076 12.9 45.5076 12.6L49.2076 10.8L54.1076 15.3L51.9076 19.3C51.5076 20 51.5076 20.8 51.8076 21.5L54.4076 27.1C54.7076 27.8 55.3076 28.3 56.1076 28.5L60.5076 29.6V35.9L59.3076 37.5C58.8076 38.2 58.9076 39.1 59.6076 39.6C60.3076 40.1 61.2076 40 61.7076 39.3L63.0076 37.6C63.3076 37.2 63.5076 36.6 63.5076 36.1V29.2C63.3076 27.6 62.5076 26.6 61.4076 26.4Z" fill="#E68B7C"/>
<path d="M59.6077 48.6002H54.7077L53.2077 43.9002C52.9077 42.9002 51.9077 42.2002 50.8077 42.2002C49.7077 42.2002 48.8077 42.9002 48.4077 43.9002L46.9077 48.6002H42.0077C40.9077 48.6002 40.0077 49.3002 39.6077 50.3002C39.2077 51.3002 39.6077 52.5002 40.5077 53.1002L44.5077 56.0002L43.0077 60.7002C42.7077 61.7002 43.0077 62.9002 43.9077 63.5002C44.8077 64.1002 46.0077 64.1002 46.8077 63.5002L50.8077 60.6002L54.8077 63.5002C55.2077 63.8002 55.8077 64.0002 56.3077 64.0002C56.8077 64.0002 57.3077 63.8002 57.8077 63.5002C58.7077 62.9002 59.0077 61.7002 58.7077 60.7002L57.2077 56.0002L61.2077 53.1002C62.1077 52.5002 62.4077 51.3002 62.1077 50.3002C61.8077 49.3002 60.7077 48.6002 59.6077 48.6002ZM55.0077 53.8002C54.1077 54.4002 53.8077 55.6002 54.1077 56.6002L55.3077 60.2002L52.3077 58.0002C51.4077 57.4002 50.2077 57.4002 49.4077 58.0002L46.4077 60.2002L47.6077 56.6002C47.9077 55.6002 47.6077 54.4002 46.7077 53.8002L43.7077 51.6002H47.3077C48.4077 51.6002 49.3077 50.9002 49.7077 49.9002L50.9077 46.3002L52.1077 49.9002C52.4077 50.9002 53.4077 51.6002 54.5077 51.6002H58.2077L55.0077 53.8002Z" fill="#E68B7C"/>
</svg>
