<svg width="256" height="90" viewBox="0 0 256 90" fill="none" xmlns="http://www.w3.org/2000/svg">
<path d="M23.8367 71.0186H77.3017C75.2844 73.5871 69.9945 79.1729 64.8093 81.2062C64.7454 81.2313 64.6815 81.2558 64.6176 81.2798H102C101.553 82.812 95.8063 86.1364 76.3923 87.1764C76.0413 88.105 74.5064 89.9623 71.175 89.9623H31.5908C29.8836 90.1325 26.3544 89.8137 25.8949 87.1764C19.1459 86.9907 4.51844 85.5514 0 81.2798L35.8986 81.2062C32.4683 79.2497 25.2535 74.4731 23.8367 71.0186Z" fill="url(#paint0_linear_274_405)"/>
<path d="M18.6585 43.4691V39.0118H84.6642V43.4691H18.6585Z" fill="url(#paint1_linear_274_405)"/>
<path d="M54.8444 16.3073C63.4218 8.20984 50.285 3.35847 44.7805 0C56.5196 14.3986 45.4629 7.94983 39.6712 18.7681C35.0379 27.4228 45.782 33.8271 51.7332 35.9474C45.0321 28.4257 44.1226 26.4292 54.8444 16.3073Z" fill="url(#paint2_linear_274_405)"/>
<path d="M60.0616 28.0078C54.7008 30.1993 55.4666 34.8021 56.5196 36.8296C52.2597 35.8545 50.01 26.5684 56.2324 24.4326C61.2104 22.724 60.8594 18.3038 60.0616 16.3073C61.1147 16.3073 66.7627 25.2684 60.0616 28.0078Z" fill="url(#paint3_linear_274_405)"/>
<path d="M20.4697 63.3043C20.3199 63.3043 20.2042 63.2609 20.1225 63.1739C20.0408 63.0725 20 62.9493 20 62.8043V48.6087C20 48.4493 20.0408 48.3261 20.1225 48.2391C20.2042 48.1377 20.3199 48.087 20.4697 48.087H21.5111C21.6609 48.087 21.7766 48.1377 21.8583 48.2391C21.9536 48.3261 22.0012 48.4493 22.0012 48.6087V54.6087H24.3088L27.9437 48.4348C28.0117 48.3188 28.1002 48.2319 28.2091 48.1739C28.318 48.1159 28.461 48.087 28.638 48.087H29.7407C29.8904 48.087 29.9993 48.1304 30.0674 48.2174C30.1355 48.3043 30.1695 48.4058 30.1695 48.5217C30.1695 48.6087 30.1355 48.7029 30.0674 48.8043L26.1466 55.4565L30.4554 62.5435C30.4962 62.6014 30.5167 62.6812 30.5167 62.7826C30.5167 62.9275 30.469 63.0507 30.3737 63.1522C30.292 63.2536 30.1831 63.3043 30.047 63.3043H28.883C28.7333 63.3043 28.6175 63.2754 28.5359 63.2174C28.4678 63.1449 28.4065 63.0652 28.3521 62.9783L24.3905 56.5652H22.0012V62.8043C22.0012 62.9493 21.9536 63.0725 21.8583 63.1739C21.7766 63.2609 21.6609 63.3043 21.5111 63.3043H20.4697Z" fill="black"/>
<path d="M41.3529 63.5217C40.1957 63.5217 39.2019 63.3116 38.3715 62.8913C37.541 62.4565 36.9012 61.7971 36.4519 60.913C36.0027 60.0145 35.7508 58.8913 35.6964 57.5435C35.6827 56.9058 35.6759 56.2971 35.6759 55.7174C35.6759 55.1232 35.6827 54.5072 35.6964 53.8696C35.7508 52.5362 36.0095 51.4275 36.4723 50.5435C36.9488 49.6449 37.6023 48.9783 38.4327 48.5435C39.2768 48.0942 40.2502 47.8696 41.3529 47.8696C42.4692 47.8696 43.4426 48.0942 44.2731 48.5435C45.1171 48.9783 45.7774 49.6449 46.2539 50.5435C46.7303 51.4275 46.989 52.5362 47.0299 53.8696C47.0571 54.5072 47.0707 55.1232 47.0707 55.7174C47.0707 56.2971 47.0571 56.9058 47.0299 57.5435C46.989 58.8913 46.7372 60.0145 46.2743 60.913C45.825 61.7971 45.1852 62.4565 44.3547 62.8913C43.5243 63.3116 42.5237 63.5217 41.3529 63.5217ZM41.3529 61.6739C42.4012 61.6739 43.252 61.3406 43.9055 60.6739C44.5726 60.0072 44.9333 58.9275 44.9878 57.4348C45.015 56.7826 45.0286 56.2029 45.0286 55.6957C45.0286 55.1739 45.015 54.5942 44.9878 53.9565C44.9606 52.9565 44.7836 52.1449 44.4568 51.5217C44.1437 50.8986 43.7217 50.442 43.1908 50.1522C42.6598 49.8623 42.0472 49.7174 41.3529 49.7174C40.6858 49.7174 40.0868 49.8623 39.5559 50.1522C39.0249 50.442 38.5961 50.8986 38.2694 51.5217C37.9562 52.1449 37.7793 52.9565 37.7384 53.9565C37.7248 54.5942 37.718 55.1739 37.718 55.6957C37.718 56.2029 37.7248 56.7826 37.7384 57.4348C37.7929 58.9275 38.1536 60.0072 38.8207 60.6739C39.4878 61.3406 40.3319 61.6739 41.3529 61.6739Z" fill="black"/>
<path d="M59.6449 64C59.5088 64 59.3931 63.9493 59.2978 63.8478C59.2161 63.7609 59.1752 63.6449 59.1752 63.5V61.7826C57.1604 61.7826 55.6152 61.3188 54.5397 60.3913C53.4779 59.4493 52.8584 58.0362 52.6814 56.1522C52.6814 55.9928 52.6746 55.8261 52.661 55.6522C52.661 55.4783 52.661 55.3043 52.661 55.1304C52.6746 54.9565 52.6814 54.7899 52.6814 54.6304C52.7495 53.3696 53.049 52.3261 53.58 51.5C54.1245 50.6594 54.8733 50.0362 55.8262 49.6304C56.7792 49.2101 57.8955 49 59.1752 49V47.5C59.1752 47.3551 59.2161 47.2391 59.2978 47.1522C59.3931 47.0507 59.5088 47 59.6449 47H60.7068C60.8429 47 60.9518 47.0507 61.0335 47.1522C61.1288 47.2391 61.1765 47.3551 61.1765 47.5V49C62.4562 49 63.5725 49.2101 64.5255 49.6304C65.4784 50.0362 66.2272 50.6594 66.7717 51.5C67.3163 52.3261 67.6158 53.3696 67.6702 54.6304C67.6839 54.9058 67.6907 55.1594 67.6907 55.3913C67.7043 55.6087 67.6975 55.8623 67.6702 56.1522C67.5069 58.0362 66.8875 59.4493 65.812 60.3913C64.7501 61.3188 63.2049 61.7826 61.1765 61.7826V63.5C61.1765 63.6449 61.1288 63.7609 61.0335 63.8478C60.9518 63.9493 60.8429 64 60.7068 64H59.6449ZM59.1752 59.913V50.8478C57.8411 50.8478 56.7928 51.1522 56.0304 51.7609C55.2817 52.3696 54.846 53.3623 54.7235 54.7391C54.7099 54.971 54.7031 55.1884 54.7031 55.3913C54.7031 55.5797 54.7099 55.7971 54.7235 56.0435C54.7916 57.4058 55.2136 58.3913 55.9896 59C56.7656 59.6087 57.8275 59.913 59.1752 59.913ZM61.1765 59.913C62.5242 59.913 63.5861 59.6087 64.3621 59C65.1381 58.3913 65.5601 57.4058 65.6282 56.0435C65.6418 55.8986 65.6486 55.7536 65.6486 55.6087C65.6486 55.4638 65.6486 55.3188 65.6486 55.1739C65.6486 55.0145 65.6418 54.8696 65.6282 54.7391C65.492 53.3623 65.0496 52.3696 64.3008 51.7609C63.5521 51.1522 62.5106 50.8478 61.1765 50.8478V59.913Z" fill="black"/>
<path d="M74.3365 63.3043C74.1867 63.3043 74.071 63.2609 73.9893 63.1739C73.9077 63.0725 73.8668 62.9493 73.8668 62.8043V48.6087C73.8668 48.4493 73.9077 48.3261 73.9893 48.2391C74.071 48.1377 74.1867 48.087 74.3365 48.087H82.7702C82.92 48.087 83.0357 48.1377 83.1174 48.2391C83.1991 48.3261 83.2399 48.4493 83.2399 48.6087V49.4348C83.2399 49.5942 83.1991 49.7174 83.1174 49.8043C83.0357 49.8913 82.92 49.9348 82.7702 49.9348H75.8272V54.6957H82.321C82.4707 54.6957 82.5865 54.7464 82.6681 54.8478C82.7498 54.9348 82.7907 55.058 82.7907 55.2174V56.0217C82.7907 56.1667 82.7498 56.2899 82.6681 56.3913C82.5865 56.4783 82.4707 56.5217 82.321 56.5217H75.8272V61.4565H82.9336C83.0834 61.4565 83.1991 61.5 83.2808 61.587C83.3625 61.6739 83.4033 61.7971 83.4033 61.9565V62.8043C83.4033 62.9493 83.3625 63.0725 83.2808 63.1739C83.1991 63.2609 83.0834 63.3043 82.9336 63.3043H74.3365Z" fill="black"/>
<path d="M89.8857 63.3043C89.7496 63.3043 89.6339 63.2609 89.5386 63.1739C89.4569 63.0725 89.4161 62.9493 89.4161 62.8043V48.6087C89.4161 48.4493 89.4569 48.3261 89.5386 48.2391C89.6339 48.1377 89.7496 48.087 89.8857 48.087H90.9068C91.0702 48.087 91.1927 48.1304 91.2744 48.2174C91.356 48.3043 91.4037 48.3768 91.4173 48.4348L95.7465 57.2174L100.096 48.4348C100.123 48.3768 100.171 48.3043 100.239 48.2174C100.321 48.1304 100.443 48.087 100.607 48.087H101.607C101.757 48.087 101.873 48.1377 101.954 48.2391C102.05 48.3261 102.097 48.4493 102.097 48.6087V62.8043C102.097 62.9493 102.05 63.0725 101.954 63.1739C101.873 63.2609 101.757 63.3043 101.607 63.3043H100.607C100.47 63.3043 100.355 63.2609 100.259 63.1739C100.178 63.0725 100.137 62.9493 100.137 62.8043V52.1087L96.7267 59.1957C96.6722 59.3406 96.5906 59.4565 96.4816 59.5435C96.3727 59.6159 96.2366 59.6522 96.0732 59.6522H95.4402C95.2632 59.6522 95.1203 59.6159 95.0114 59.5435C94.9161 59.4565 94.8344 59.3406 94.7663 59.1957L91.356 52.1087V62.8043C91.356 62.9493 91.3084 63.0725 91.2131 63.1739C91.1314 63.2609 91.0225 63.3043 90.8864 63.3043H89.8857Z" fill="black"/>
<path d="M107.834 63.3043C107.726 63.3043 107.63 63.2609 107.549 63.1739C107.467 63.087 107.426 62.9855 107.426 62.8696C107.426 62.7971 107.433 62.7174 107.446 62.6304L112.511 48.5652C112.565 48.4203 112.64 48.3043 112.735 48.2174C112.831 48.1304 112.974 48.087 113.164 48.087H114.553C114.73 48.087 114.866 48.1304 114.961 48.2174C115.07 48.3043 115.152 48.4203 115.206 48.5652L120.25 62.6304C120.277 62.7174 120.291 62.7971 120.291 62.8696C120.291 62.9855 120.25 63.087 120.169 63.1739C120.087 63.2609 119.992 63.3043 119.883 63.3043H118.841C118.678 63.3043 118.555 63.2609 118.474 63.1739C118.406 63.087 118.358 63.0072 118.331 62.9348L117.208 59.8478H110.51L109.386 62.9348C109.373 63.0072 109.325 63.087 109.243 63.1739C109.162 63.2609 109.039 63.3043 108.876 63.3043H107.834ZM111.102 57.9783H116.615L113.859 50.2609L111.102 57.9783Z" fill="black"/>
<path d="M126.109 63.3043C125.96 63.3043 125.844 63.2609 125.762 63.1739C125.681 63.0725 125.64 62.9493 125.64 62.8043V48.587C125.64 48.442 125.681 48.3261 125.762 48.2391C125.844 48.1377 125.96 48.087 126.109 48.087H127.151C127.301 48.087 127.416 48.1377 127.498 48.2391C127.593 48.3261 127.641 48.442 127.641 48.587V61.3478H132.644V48.587C132.644 48.442 132.685 48.3261 132.767 48.2391C132.862 48.1377 132.978 48.087 133.114 48.087H134.155C134.305 48.087 134.421 48.1377 134.502 48.2391C134.598 48.3261 134.645 48.442 134.645 48.587V61.3478H139.648V48.587C139.648 48.442 139.689 48.3261 139.771 48.2391C139.866 48.1377 139.982 48.087 140.118 48.087H141.159C141.309 48.087 141.425 48.1377 141.507 48.2391C141.602 48.3261 141.65 48.442 141.65 48.587V62.8043C141.65 62.9493 141.602 63.0725 141.507 63.1739C141.425 63.2609 141.309 63.3043 141.159 63.3043H126.109Z" fill="black"/>
<path d="M148.47 57.6957C148.334 57.6957 148.218 57.6522 148.123 57.5652C148.041 57.4638 148.001 57.3406 148.001 57.1957V56.3696C148.001 56.2246 148.041 56.1087 148.123 56.0217C148.218 55.9203 148.334 55.8696 148.47 55.8696H154.596C154.733 55.8696 154.841 55.9203 154.923 56.0217C155.018 56.1087 155.066 56.2246 155.066 56.3696V57.1957C155.066 57.3406 155.018 57.4638 154.923 57.5652C154.841 57.6522 154.733 57.6957 154.596 57.6957H148.47Z" fill="black"/>
<path d="M166.571 63.5217C165.318 63.5217 164.277 63.2754 163.446 62.7826C162.629 62.2899 162.01 61.6014 161.588 60.7174C161.166 59.8333 160.935 58.8043 160.894 57.6304C160.88 57.0362 160.873 56.3986 160.873 55.7174C160.873 55.0362 160.88 54.3841 160.894 53.7609C160.935 52.587 161.166 51.558 161.588 50.6739C162.01 49.7899 162.629 49.1014 163.446 48.6087C164.277 48.1159 165.318 47.8696 166.571 47.8696C167.51 47.8696 168.334 48.0072 169.042 48.2826C169.749 48.558 170.335 48.9275 170.798 49.3913C171.274 49.8551 171.635 50.3768 171.88 50.9565C172.125 51.5217 172.261 52.1087 172.288 52.7174C172.302 52.8478 172.261 52.9565 172.166 53.0435C172.084 53.1304 171.982 53.1739 171.86 53.1739H170.736C170.614 53.1739 170.505 53.1377 170.41 53.0652C170.328 52.9928 170.267 52.8623 170.226 52.6739C169.995 51.5435 169.559 50.7681 168.919 50.3478C168.293 49.9275 167.503 49.7174 166.55 49.7174C165.461 49.7174 164.597 50.0507 163.957 50.7174C163.317 51.3696 162.97 52.4203 162.915 53.8696C162.874 55.058 162.874 56.2754 162.915 57.5217C162.97 58.971 163.317 60.029 163.957 60.6957C164.597 61.3478 165.461 61.6739 166.55 61.6739C167.503 61.6739 168.293 61.4638 168.919 61.0435C169.559 60.6232 169.995 59.8478 170.226 58.7174C170.267 58.529 170.328 58.3986 170.41 58.3261C170.505 58.2536 170.614 58.2174 170.736 58.2174H171.86C171.982 58.2174 172.084 58.2609 172.166 58.3478C172.261 58.4348 172.302 58.5435 172.288 58.6739C172.261 59.2826 172.125 59.8768 171.88 60.4565C171.635 61.0217 171.274 61.5362 170.798 62C170.335 62.4638 169.749 62.8333 169.042 63.1087C168.334 63.3841 167.51 63.5217 166.571 63.5217Z" fill="black"/>
<path d="M178.66 63.3043C178.51 63.3043 178.395 63.2609 178.313 63.1739C178.231 63.0725 178.19 62.9493 178.19 62.8043V48.6087C178.19 48.4493 178.231 48.3261 178.313 48.2391C178.395 48.1377 178.51 48.087 178.66 48.087H187.094C187.244 48.087 187.359 48.1377 187.441 48.2391C187.523 48.3261 187.563 48.4493 187.563 48.6087V49.4348C187.563 49.5942 187.523 49.7174 187.441 49.8043C187.359 49.8913 187.244 49.9348 187.094 49.9348H180.151V54.6957H186.645C186.794 54.6957 186.91 54.7464 186.992 54.8478C187.073 54.9348 187.114 55.058 187.114 55.2174V56.0217C187.114 56.1667 187.073 56.2899 186.992 56.3913C186.91 56.4783 186.794 56.5217 186.645 56.5217H180.151V61.4565H187.257C187.407 61.4565 187.523 61.5 187.604 61.587C187.686 61.6739 187.727 61.7971 187.727 61.9565V62.8043C187.727 62.9493 187.686 63.0725 187.604 63.1739C187.523 63.2609 187.407 63.3043 187.257 63.3043H178.66Z" fill="black"/>
<path d="M194.209 63.3043C194.06 63.3043 193.944 63.2609 193.862 63.1739C193.78 63.0725 193.74 62.9493 193.74 62.8043V48.6087C193.74 48.4493 193.78 48.3261 193.862 48.2391C193.944 48.1377 194.06 48.087 194.209 48.087H199.396C200.404 48.087 201.275 48.2609 202.01 48.6087C202.759 48.9565 203.337 49.4783 203.746 50.1739C204.154 50.8551 204.358 51.7101 204.358 52.7391C204.358 53.7681 204.154 54.6232 203.746 55.3043C203.337 55.9855 202.759 56.5 202.01 56.8478C201.275 57.1957 200.404 57.3696 199.396 57.3696H195.782V62.8043C195.782 62.9493 195.734 63.0725 195.639 63.1739C195.557 63.2609 195.441 63.3043 195.292 63.3043H194.209ZM195.761 55.5435H199.294C200.301 55.5435 201.057 55.3043 201.561 54.8261C202.064 54.3478 202.316 53.6522 202.316 52.7391C202.316 51.8406 202.071 51.1449 201.581 50.6522C201.091 50.1594 200.329 49.913 199.294 49.913H195.761V55.5435Z" fill="black"/>
<path d="M210.476 63.3043C210.327 63.3043 210.211 63.2609 210.129 63.1739C210.048 63.0725 210.007 62.9493 210.007 62.8043V48.6087C210.007 48.4493 210.048 48.3261 210.129 48.2391C210.211 48.1377 210.327 48.087 210.476 48.087H216.072C217.093 48.087 217.923 48.2681 218.563 48.6304C219.217 48.9783 219.693 49.4565 219.993 50.0652C220.306 50.6739 220.462 51.3551 220.462 52.1087C220.462 52.7029 220.367 53.2174 220.176 53.6522C219.999 54.0725 219.775 54.4203 219.502 54.6957C219.23 54.9565 218.965 55.1594 218.706 55.3043C219.237 55.5797 219.707 56.029 220.115 56.6522C220.537 57.2754 220.748 58.029 220.748 58.913C220.748 59.7101 220.578 60.442 220.238 61.1087C219.897 61.7754 219.387 62.3116 218.706 62.7174C218.039 63.1087 217.208 63.3043 216.215 63.3043H210.476ZM212.008 61.5435H215.949C216.834 61.5435 217.515 61.2899 217.991 60.7826C218.468 60.2754 218.706 59.6522 218.706 58.913C218.706 58.1449 218.468 57.5145 217.991 57.0217C217.515 56.5145 216.834 56.2609 215.949 56.2609H212.008V61.5435ZM212.008 54.5217H215.765C216.637 54.5217 217.297 54.3116 217.746 53.8913C218.195 53.4565 218.42 52.8696 218.42 52.1304C218.42 51.3913 218.195 50.8261 217.746 50.4348C217.297 50.0435 216.637 49.8478 215.765 49.8478H212.008V54.5217Z" fill="black"/>
<path d="M227.282 63.3043C227.132 63.3043 227.017 63.2536 226.935 63.1522C226.853 63.0507 226.812 62.9275 226.812 62.7826V48.6087C226.812 48.4493 226.853 48.3261 226.935 48.2391C227.03 48.1377 227.146 48.087 227.282 48.087H228.344C228.48 48.087 228.589 48.1377 228.671 48.2391C228.766 48.3261 228.814 48.4493 228.814 48.6087V59.8478L236.431 48.3913C236.471 48.3333 236.526 48.2681 236.594 48.1957C236.676 48.1232 236.791 48.087 236.941 48.087H237.942C238.078 48.087 238.187 48.1377 238.268 48.2391C238.364 48.3261 238.411 48.4493 238.411 48.6087V62.8043C238.411 62.9493 238.364 63.0725 238.268 63.1739C238.187 63.2609 238.078 63.3043 237.942 63.3043H236.9C236.764 63.3043 236.648 63.2609 236.553 63.1739C236.458 63.0725 236.41 62.9493 236.41 62.8043V51.6522L228.814 63C228.786 63.0435 228.732 63.1087 228.65 63.1957C228.569 63.2681 228.453 63.3043 228.303 63.3043H227.282Z" fill="black"/>
<path d="M250.28 63.5217C249.027 63.5217 247.986 63.2754 247.155 62.7826C246.338 62.2899 245.719 61.6014 245.297 60.7174C244.875 59.8333 244.644 58.8043 244.603 57.6304C244.589 57.0362 244.582 56.3986 244.582 55.7174C244.582 55.0362 244.589 54.3841 244.603 53.7609C244.644 52.587 244.875 51.558 245.297 50.6739C245.719 49.7899 246.338 49.1014 247.155 48.6087C247.986 48.1159 249.027 47.8696 250.28 47.8696C251.219 47.8696 252.043 48.0072 252.751 48.2826C253.458 48.558 254.044 48.9275 254.507 49.3913C254.983 49.8551 255.344 50.3768 255.589 50.9565C255.834 51.5217 255.97 52.1087 255.997 52.7174C256.011 52.8478 255.97 52.9565 255.875 53.0435C255.793 53.1304 255.691 53.1739 255.569 53.1739H254.445C254.323 53.1739 254.214 53.1377 254.119 53.0652C254.037 52.9928 253.976 52.8623 253.935 52.6739C253.704 51.5435 253.268 50.7681 252.628 50.3478C252.002 49.9275 251.212 49.7174 250.259 49.7174C249.17 49.7174 248.306 50.0507 247.666 50.7174C247.026 51.3696 246.679 52.4203 246.624 53.8696C246.583 55.058 246.583 56.2754 246.624 57.5217C246.679 58.971 247.026 60.029 247.666 60.6957C248.306 61.3478 249.17 61.6739 250.259 61.6739C251.212 61.6739 252.002 61.4638 252.628 61.0435C253.268 60.6232 253.704 59.8478 253.935 58.7174C253.976 58.529 254.037 58.3986 254.119 58.3261C254.214 58.2536 254.323 58.2174 254.445 58.2174H255.569C255.691 58.2174 255.793 58.2609 255.875 58.3478C255.97 58.4348 256.011 58.5435 255.997 58.6739C255.97 59.2826 255.834 59.8768 255.589 60.4565C255.344 61.0217 254.983 61.5362 254.507 62C254.044 62.4638 253.458 62.8333 252.751 63.1087C252.043 63.3841 251.219 63.5217 250.28 63.5217Z" fill="black"/>
<defs>
<linearGradient id="paint0_linear_274_405" x1="51" y1="1.83673" x2="51" y2="89.9995" gradientUnits="userSpaceOnUse">
<stop stop-color="#E38B7C"/>
<stop offset="1" stop-color="#DE7564"/>
</linearGradient>
<linearGradient id="paint1_linear_274_405" x1="51" y1="1.83673" x2="51" y2="89.9995" gradientUnits="userSpaceOnUse">
<stop stop-color="#E38B7C"/>
<stop offset="1" stop-color="#DE7564"/>
</linearGradient>
<linearGradient id="paint2_linear_274_405" x1="51" y1="1.83673" x2="51" y2="89.9995" gradientUnits="userSpaceOnUse">
<stop stop-color="#E38B7C"/>
<stop offset="1" stop-color="#DE7564"/>
</linearGradient>
<linearGradient id="paint3_linear_274_405" x1="51" y1="1.83673" x2="51" y2="89.9995" gradientUnits="userSpaceOnUse">
<stop stop-color="#E38B7C"/>
<stop offset="1" stop-color="#DE7564"/>
</linearGradient>
</defs>
</svg>
