<svg width="253" height="72" viewBox="0 0 253 72" fill="none" xmlns="http://www.w3.org/2000/svg">
<g clip-path="url(#clip0_237_2437)">
<rect opacity="0.9" x="-26" y="-13" width="95" height="97" rx="20" fill="url(#paint0_linear_237_2437)"/>
<path d="M12.62 60.7125C11.4041 60.2588 10.9539 59.362 11.0071 58.0964C11.0603 56.9195 11.0071 55.7391 11.0071 54.5303H52.4467C52.4467 54.6969 52.4751 54.867 52.4751 55.0372C52.4751 56.0581 52.4361 57.0791 52.4751 58.0964C52.5389 59.362 52.0781 60.2588 50.8657 60.7125H12.62Z" fill="white"/>
<path d="M52.4751 52.4207H11V51.8252C11 39.0282 11 26.2311 11 13.4341C11 12.1473 11.4963 11.3675 12.5172 11.0768C12.7196 11.0235 12.9283 10.9985 13.1376 11.0023H50.3482C50.6161 10.9895 50.884 11.0298 51.1362 11.1211C51.3885 11.2123 51.6202 11.3526 51.818 11.5339C52.0157 11.7152 52.1756 11.9338 52.2884 12.1772C52.4012 12.4206 52.4646 12.684 52.4751 12.952C52.4857 13.1622 52.4857 13.3728 52.4751 13.583V52.4207ZM31.7801 23.4271C29.3212 23.4229 26.9164 24.1482 24.8698 25.5111C22.8233 26.874 21.227 28.8134 20.283 31.0838C19.3389 33.3542 19.0896 35.8536 19.5664 38.2658C20.0433 40.6779 21.2249 42.8944 22.9619 44.6348C24.6988 46.3753 26.9129 47.5613 29.3242 48.043C31.7354 48.5247 34.2353 48.2803 36.5076 47.3408C38.7798 46.4013 40.7224 44.8089 42.0894 42.7651C43.4564 40.7213 44.1865 38.3179 44.1872 35.859C44.1769 32.5693 42.8672 29.4169 40.5434 27.0884C38.2195 24.7599 35.0698 23.4439 31.7801 23.4271ZM46.2077 15.1995H37.9943V19.2265H46.2077V15.1995ZM27.583 19.2584C27.859 19.2698 28.1344 19.2254 28.3928 19.1277C28.6512 19.03 28.8872 18.8811 29.0865 18.6898C29.2859 18.4986 29.4445 18.269 29.5529 18.0149C29.6612 17.7608 29.7171 17.4874 29.7171 17.2112C29.7171 16.9349 29.6612 16.6616 29.5529 16.4074C29.4445 16.1533 29.2859 15.9238 29.0865 15.7326C28.8872 15.5413 28.6512 15.3924 28.3928 15.2947C28.1344 15.197 27.859 15.1525 27.583 15.164C27.3069 15.1525 27.0315 15.197 26.7731 15.2947C26.5147 15.3924 26.2787 15.5413 26.0794 15.7326C25.88 15.9238 25.7214 16.1533 25.613 16.4074C25.5047 16.6616 25.4488 16.9349 25.4488 17.2112C25.4488 17.4874 25.5047 17.7608 25.613 18.0149C25.7214 18.269 25.88 18.4986 26.0794 18.6898C26.2787 18.8811 26.5147 19.03 26.7731 19.1277C27.0315 19.2254 27.3069 19.2698 27.583 19.2584ZM19.2808 19.2584C19.6878 19.2661 20.0879 19.1525 20.43 18.9319C20.7721 18.7114 21.0408 18.3939 21.2017 18.0201C21.3627 17.6462 21.4087 17.2329 21.3338 16.8328C21.2589 16.4327 21.0666 16.064 20.7813 15.7737C20.496 15.4834 20.1307 15.2846 19.7319 15.2027C19.3332 15.1209 18.9192 15.1596 18.5425 15.314C18.1659 15.4684 17.8438 15.7315 17.6174 16.0697C17.3909 16.4079 17.2703 16.8059 17.2709 17.213C17.2686 17.4792 17.3187 17.7434 17.4184 17.9903C17.5182 18.2372 17.6656 18.462 17.8522 18.652C18.0389 18.8419 18.2611 18.9932 18.5062 19.0972C18.7513 19.2013 19.0146 19.256 19.2808 19.2584Z" fill="white"/>
<path d="M38.3291 30.8855C37.5741 31.4738 36.9634 32.2267 36.5434 33.0867C36.1233 33.9467 35.9049 34.8912 35.9049 35.8483C35.9049 36.8054 36.1233 37.7499 36.5434 38.6099C36.9634 39.4699 37.5741 40.2227 38.3291 40.8111C36.7445 43.1826 33.2599 44.7991 29.6654 43.8845C27.8901 43.4254 26.317 42.391 25.1919 40.9429C24.0669 39.4949 23.4534 37.7149 23.4473 35.8812C23.4412 34.0475 24.0429 32.2635 25.1583 30.808C26.2737 29.3526 27.84 28.3077 29.6122 27.8369C33.1145 26.901 36.6488 28.4182 38.3291 30.8855Z" fill="white"/>
</g>
<path d="M79.0938 28.8828V6.5293H96.9062V28.8828H93.8594V9.3125H82.1406V28.8828H79.0938ZM110.617 28.8828V6.5293H118.967C120.451 6.5293 121.789 6.72461 122.98 7.11523C124.172 7.50586 125.119 8.16992 125.822 9.10742C126.545 10.0449 126.906 11.3438 126.906 13.0039C126.906 14.6445 126.545 15.9336 125.822 16.8711C125.119 17.8086 124.172 18.4727 122.98 18.8633C121.789 19.2539 120.451 19.4492 118.967 19.4492H113.605V28.8828H110.617ZM113.605 16.666H118.381C119.279 16.666 120.139 16.5879 120.959 16.4316C121.799 16.2754 122.482 15.9434 123.01 15.4355C123.537 14.9082 123.801 14.0879 123.801 12.9746C123.801 12.1348 123.645 11.4707 123.332 10.9824C123.02 10.4941 122.6 10.1328 122.072 9.89844C121.564 9.64453 120.988 9.48828 120.344 9.42969C119.699 9.35156 119.045 9.3125 118.381 9.3125H113.605V16.666ZM148.029 29.0879C145.725 29.0879 143.801 28.5703 142.258 27.5352C140.734 26.5 139.592 25.1035 138.83 23.3457C138.068 21.5879 137.688 19.6348 137.688 17.4863C137.688 15.2988 138.088 13.3555 138.889 11.6562C139.689 9.9375 140.871 8.58984 142.434 7.61328C144.016 6.61719 145.939 6.11914 148.205 6.11914C149.885 6.11914 151.359 6.42188 152.629 7.02734C153.898 7.63281 154.953 8.47266 155.793 9.54688C156.652 10.6016 157.287 11.832 157.697 13.2383C158.127 14.625 158.342 16.0996 158.342 17.6621C158.342 19.791 157.951 21.7246 157.17 23.4629C156.389 25.1816 155.236 26.5488 153.713 27.5645C152.189 28.5801 150.295 29.0879 148.029 29.0879ZM148 26.3047C149.309 26.3047 150.412 26.0703 151.311 25.6016C152.229 25.1133 152.971 24.459 153.537 23.6387C154.104 22.8184 154.514 21.8809 154.768 20.8262C155.021 19.7715 155.148 18.6582 155.148 17.4863C155.148 15.9238 154.895 14.498 154.387 13.209C153.898 11.9004 153.117 10.8555 152.043 10.0742C150.969 9.29297 149.572 8.90234 147.854 8.90234C146.584 8.90234 145.5 9.14648 144.602 9.63477C143.723 10.1035 143 10.748 142.434 11.5684C141.887 12.3887 141.486 13.3262 141.232 14.3809C140.979 15.416 140.852 16.4902 140.852 17.6035C140.852 19.127 141.086 20.5527 141.555 21.8809C142.043 23.209 142.805 24.2832 143.84 25.1035C144.895 25.9043 146.281 26.3047 148 26.3047Z" fill="url(#paint1_linear_237_2437)"/>
<path d="M80.6172 64.8828V42.5293H88.9668C90.4512 42.5293 91.7891 42.7246 92.9805 43.1152C94.1719 43.5059 95.1191 44.1699 95.8223 45.1074C96.5449 46.0449 96.9062 47.3438 96.9062 49.0039C96.9062 50.6445 96.5449 51.9336 95.8223 52.8711C95.1191 53.8086 94.1719 54.4727 92.9805 54.8633C91.7891 55.2539 90.4512 55.4492 88.9668 55.4492H83.6055V64.8828H80.6172ZM83.6055 52.666H88.3809C89.2793 52.666 90.1387 52.5879 90.959 52.4316C91.7988 52.2754 92.4824 51.9434 93.0098 51.4355C93.5371 50.9082 93.8008 50.0879 93.8008 48.9746C93.8008 48.1348 93.6445 47.4707 93.332 46.9824C93.0195 46.4941 92.5996 46.1328 92.0723 45.8984C91.5645 45.6445 90.9883 45.4883 90.3438 45.4297C89.6992 45.3516 89.0449 45.3125 88.3809 45.3125H83.6055V52.666ZM110.588 64.6777V42.5293H125.939V45.3125H113.576V51.8164H125.09V54.5996H113.576V61.8945H126.145V64.6777H110.588ZM137.951 64.8828V42.3242H140.939L148 52.4902L155.061 42.3242H158.049V64.8828H155.061V46.748L148 56.8262L140.939 46.748V64.8828H137.951ZM178.029 65.0879C175.725 65.0879 173.801 64.5703 172.258 63.5352C170.734 62.5 169.592 61.1035 168.83 59.3457C168.068 57.5879 167.688 55.6348 167.688 53.4863C167.688 51.2988 168.088 49.3555 168.889 47.6562C169.689 45.9375 170.871 44.5898 172.434 43.6133C174.016 42.6172 175.939 42.1191 178.205 42.1191C179.885 42.1191 181.359 42.4219 182.629 43.0273C183.898 43.6328 184.953 44.4727 185.793 45.5469C186.652 46.6016 187.287 47.832 187.697 49.2383C188.127 50.625 188.342 52.0996 188.342 53.6621C188.342 55.791 187.951 57.7246 187.17 59.4629C186.389 61.1816 185.236 62.5488 183.713 63.5645C182.189 64.5801 180.295 65.0879 178.029 65.0879ZM178 62.3047C179.309 62.3047 180.412 62.0703 181.311 61.6016C182.229 61.1133 182.971 60.459 183.537 59.6387C184.104 58.8184 184.514 57.8809 184.768 56.8262C185.021 55.7715 185.148 54.6582 185.148 53.4863C185.148 51.9238 184.895 50.498 184.387 49.209C183.898 47.9004 183.117 46.8555 182.043 46.0742C180.969 45.293 179.572 44.9023 177.854 44.9023C176.584 44.9023 175.5 45.1465 174.602 45.6348C173.723 46.1035 173 46.748 172.434 47.5684C171.887 48.3887 171.486 49.3262 171.232 50.3809C170.979 51.416 170.852 52.4902 170.852 53.6035C170.852 55.127 171.086 56.5527 171.555 57.8809C172.043 59.209 172.805 60.2832 173.84 61.1035C174.895 61.9043 176.281 62.3047 178 62.3047ZM199.006 64.8828V42.3242H202.053V51.8164H213.947V42.3242H216.994V64.8828H213.947V54.5996H202.053V64.8828H199.006ZM236.418 65.0879V45.3125H228.332V42.5293H247.639V45.3125H239.582V65.0879H236.418Z" fill="#2E2E2E"/>
<defs>
<linearGradient id="paint0_linear_237_2437" x1="21.5" y1="-13" x2="21.5" y2="84" gradientUnits="userSpaceOnUse">
<stop stop-color="#97E5D6"/>
<stop offset="1" stop-color="#60CBB6"/>
</linearGradient>
<linearGradient id="paint1_linear_237_2437" x1="163" y1="0" x2="163" y2="72" gradientUnits="userSpaceOnUse">
<stop stop-color="#97E5D6"/>
<stop offset="1" stop-color="#60CBB6"/>
</linearGradient>
<clipPath id="clip0_237_2437">
<rect y="4" width="64" height="64" rx="4" fill="white"/>
</clipPath>
</defs>
</svg>
