<svg width="200" height="64" viewBox="0 0 200 64" fill="none" xmlns="http://www.w3.org/2000/svg">
<path fill-rule="evenodd" clip-rule="evenodd" d="M39.2963 9.77917H15.8326V17.4481H28.6463L15 45.4291V54.2106H39.3026V46.2823H25.5572L39.3026 17.449L39.2963 9.77917ZM57.0146 46.0511L58.1343 54.2097H67.8194L59.5439 9.77917H47.4619C44.7491 24.5906 42.0293 39.4008 39.3026 54.2097H48.9174L50.0776 46.0511H57.0146ZM50.9768 38.6116L53.4953 20.7367L56.0749 38.6116H50.9768ZM94.1093 9.77917L94.1039 54.2097H83.4126L77.111 30.0087V54.216L67.8203 54.2097L67.8284 9.77917H78.2938L85.1192 34.6402L85.1273 9.77917H94.1093ZM118.064 52.0363C118.435 51.6981 118.794 51.3137 119.109 50.8957C119.423 50.4777 119.695 50.0261 119.917 49.5519C120.138 49.0764 120.312 48.5798 120.435 48.0695C120.751 46.5988 120.934 45.1023 120.982 43.5985L121.037 42.2121V9.77917H111.472L111.476 42.2121C111.459 42.9295 111.415 43.646 111.345 44.3601C111.321 44.5707 111.286 44.7798 111.24 44.9866C111.2 45.182 111.152 45.3753 111.094 45.566C110.959 45.9994 110.801 46.3313 110.415 46.6641C110.1 46.9207 109.644 47.1555 109.231 47.2271C108.777 47.3124 108.29 47.2897 107.805 47.2181C107.562 47.1613 107.328 47.0719 107.109 46.9524C106.895 46.8378 106.7 46.6893 106.532 46.5126C106.226 46.1572 106.081 45.7601 105.957 45.3702C105.892 45.1323 105.845 44.8898 105.817 44.6448C105.773 44.3293 105.727 43.9077 105.694 43.4842C105.681 43.0599 105.667 42.6356 105.664 37.0185C105.66 31.4005 105.667 20.5908 105.673 9.77917H96.2417L96.2354 42.2121C96.2948 44.5532 96.2759 46.8762 97.4109 49.2962C97.8223 50.1313 98.369 50.8916 99.0284 51.5458C99.8317 52.3444 100.754 53.0117 101.762 53.5233C102.274 53.7835 102.806 54.0057 103.678 54.2514C104.55 54.4971 105.759 54.7637 106.987 54.8988C108.212 55.033 109.453 55.0339 110.681 54.9006C111.908 54.7682 113.118 54.4989 113.946 54.2722C114.774 54.0456 115.22 53.8606 115.652 53.6484C116.084 53.4363 116.506 53.1987 116.908 52.9321C117.308 52.6674 117.694 52.3754 118.064 52.0363ZM125.597 11.5989C125.237 11.9018 124.804 12.308 124.417 12.7541C124.028 13.2011 123.689 13.6898 123.399 14.2057C123.109 14.7216 122.872 15.2675 122.677 15.8432C122.082 17.6186 121.889 19.51 122.047 21.3479C122.144 22.5692 122.394 23.8331 122.857 25.059C123.081 25.6538 123.346 26.2332 123.708 26.8552C124.068 27.4781 124.524 28.1427 125.012 28.7838C125.972 30.055 127.06 31.1847 128.33 32.3299C128.954 32.8984 129.617 33.4841 130.287 34.0635C130.955 34.6429 131.63 35.216 132.268 35.7564C132.908 36.2968 133.513 36.8045 134.092 37.3395C134.673 37.8747 135.232 38.4344 135.766 39.0169C135.919 39.1991 136.063 39.3886 136.201 39.5836C136.338 39.7785 136.47 39.9789 136.65 40.3289C136.829 40.6789 137.056 41.1803 137.225 41.7007C137.395 42.2212 137.507 42.7607 137.568 43.3065C137.625 43.8533 137.629 44.4045 137.59 44.8316C137.55 45.2587 137.469 45.5597 137.341 45.839C137.212 46.12 137.038 46.3775 136.828 46.6033C136.617 46.8264 136.369 47.0168 136.061 47.1691C135.445 47.4728 134.619 47.6061 133.877 47.4429C133.528 47.3661 133.191 47.2413 132.876 47.0721C132.424 46.833 132.055 46.4628 131.815 46.0094C131.376 45.0628 131.282 43.9893 131.269 42.9556V38.8763H121.659C121.659 40.2491 121.656 41.6209 121.661 42.9937C121.663 43.2449 121.665 43.4987 121.676 43.8777C121.694 44.6539 121.776 45.7909 121.999 46.7656C122.108 47.2598 122.242 47.7494 122.399 48.2109C122.556 48.6724 122.739 49.1058 122.956 49.5202C123.174 49.9364 123.431 50.3326 123.716 50.7034C124.002 51.0743 124.319 51.4216 124.662 51.7398C125.145 52.159 125.661 52.5383 126.204 52.8741C127.812 53.8923 129.701 54.4046 131.429 54.693C133.741 55.0629 136.047 55.1336 138.394 54.6966C138.943 54.5944 139.486 54.4643 140.022 54.3067C140.506 54.1598 140.9 54.0048 141.284 53.827C141.669 53.6484 142.044 53.448 142.406 53.2277C142.769 53.0074 143.121 52.768 143.619 52.3328C144.117 51.8976 144.757 51.2656 145.288 50.5484C145.819 49.8312 146.239 49.0278 146.54 48.1819C146.839 47.335 147.018 46.4474 147.073 45.5497C147.208 44.0622 147.179 42.5642 146.985 41.0833C146.884 40.2773 146.7 39.4842 146.435 38.7168C146.295 38.3 146.127 37.8929 145.934 37.4981C145.38 36.3578 144.711 35.2777 143.939 34.2748C143.536 33.758 143.107 33.2638 142.471 32.5965C141.834 31.9291 140.993 31.0868 140.134 30.2644C138.506 28.6976 136.79 27.2288 135.104 25.7309C134.218 24.9312 133.371 24.0625 132.712 23.1839C132.509 22.9254 132.326 22.6527 132.162 22.3679C131.773 21.6969 131.472 20.8165 131.437 20.0032C131.415 19.6052 131.433 19.206 131.492 18.8118C131.547 18.4754 131.623 18.2315 131.735 18.0057C131.848 17.7781 131.997 17.5714 132.176 17.3928C132.353 17.2142 132.56 17.0655 132.798 16.9422C133.57 16.5521 134.456 16.4546 135.294 16.6674C135.582 16.7445 135.873 16.866 136.129 17.0419C136.646 17.3756 136.975 17.9903 137.118 18.5262C137.299 19.1884 137.394 19.8713 137.402 20.5581V24.0598H146.507C146.505 23.3292 146.494 22.5986 146.473 21.8683C146.456 21.1804 146.43 20.4927 146.394 19.8055C146.338 18.6413 146.239 17.8307 146.038 16.8714C145.861 15.9829 145.578 15.039 145.052 14.1187C144.801 13.6774 144.506 13.2633 144.171 12.8828C143.58 12.2195 142.896 11.6467 142.14 11.1827C141.817 10.9815 141.488 10.7929 141.15 10.6161C140.814 10.4383 140.471 10.2715 139.66 10.0022C138.851 9.73292 137.571 9.36027 136.262 9.16533C134.951 8.97016 133.621 8.95156 132.306 9.11002C130.994 9.26869 129.704 9.60508 128.899 9.84626C128.093 10.0874 127.774 10.2343 127.459 10.393C127.146 10.5517 126.839 10.724 126.542 10.9107C126.21 11.1155 125.895 11.3456 125.597 11.5989ZM148.033 42.2339C148.031 43.7309 148.028 45.2478 148.372 46.7629C148.48 47.257 148.614 47.7467 148.771 48.2082C148.929 48.6697 149.112 49.1031 149.33 49.5175C149.548 49.9336 149.803 50.3299 150.09 50.7007C150.377 51.0716 150.691 51.4188 151.036 51.7371C151.519 52.1562 152.034 52.5356 152.578 52.8714C154.184 53.8896 156.073 54.4019 157.801 54.6902C160.114 55.0602 162.419 55.1309 164.766 54.6939C165.315 54.5917 165.859 54.4616 166.396 54.304C166.877 54.1571 167.274 54.002 167.658 53.8243C168.043 53.6457 168.416 53.4453 168.779 53.225C169.143 53.0047 169.495 52.7653 169.993 52.3301C170.489 51.8949 171.13 51.2629 171.661 50.5457C172.193 49.8285 172.613 49.0251 172.899 48.1792C173.185 47.3332 173.338 46.4437 173.423 45.7456C173.509 45.0492 173.526 44.5451 173.53 44.0409C173.534 43.5368 173.522 43.0327 173.493 42.5295C173.465 42.0447 173.419 41.5611 173.356 41.0796C173.257 40.2736 173.073 39.4804 172.808 38.7131C172.667 38.2964 172.499 37.8893 172.305 37.4945C171.752 36.3538 171.083 35.2736 170.31 34.2712C169.85 33.6863 169.361 33.1261 168.843 32.5928C168.081 31.7982 167.301 31.0207 166.505 30.2608C164.878 28.694 163.163 27.2251 161.475 25.7273C160.336 24.699 159.262 23.5448 158.561 22.4169C157.892 21.311 157.65 19.9966 157.88 18.7229C157.917 18.4727 157.993 18.2279 158.107 18.0021C158.219 17.7745 158.369 17.5678 158.546 17.3892C158.73 17.2074 158.94 17.0554 159.17 16.9385C159.942 16.5485 160.828 16.451 161.666 16.6638C161.954 16.7409 162.245 16.8624 162.501 17.0383C163.018 17.3719 163.346 17.9867 163.488 18.5226C163.692 19.267 163.757 19.8754 163.774 20.5545V24.0562H172.877C172.875 23.3253 172.864 22.5944 172.845 21.8638C172.828 21.1762 172.801 20.4888 172.766 19.8019C172.708 18.6359 172.611 17.8271 172.41 16.8678C172.231 15.9792 171.95 15.0354 171.424 14.115C171.172 13.6741 170.877 13.2601 170.543 12.8792C169.951 12.2158 169.266 11.643 168.51 11.1791C168.189 10.9778 167.858 10.7892 167.522 10.6124C167.184 10.4347 166.843 10.2679 166.033 9.99859C165.221 9.7293 163.941 9.35664 162.635 9.1617C161.325 8.96655 159.994 8.94795 158.679 9.10639C157.365 9.26506 156.076 9.60145 155.272 9.84264C154.466 10.0838 154.147 10.2307 153.832 10.3894C153.518 10.5481 153.212 10.7208 152.913 10.9071C152.616 11.0948 152.328 11.2961 151.969 11.5998C151.607 11.9027 151.174 12.3089 150.786 12.755C150.399 13.202 150.06 13.6907 149.77 14.2066C149.48 14.7225 149.243 15.2684 149.048 15.8441C148.453 17.6195 148.26 19.5109 148.417 21.3488C148.513 22.5701 148.765 23.834 149.228 25.0599C149.452 25.6547 149.717 26.2341 150.077 26.8561C150.439 27.479 150.896 28.1436 151.381 28.7847C152.343 30.0559 153.429 31.1856 154.699 32.3308C155.323 32.8993 155.988 33.4851 156.656 34.0644C157.324 34.6438 158.001 35.2169 158.639 35.7573C159.277 36.2977 159.884 36.8054 160.462 37.3413C161.042 37.8762 161.598 38.4393 161.945 38.8165C162.295 39.1937 162.436 39.3868 162.572 39.5827C162.711 39.7794 162.841 39.9798 163.019 40.3298C163.198 40.6807 163.423 41.1812 163.594 41.7016C163.922 42.7102 164.046 43.7748 163.959 44.8325C163.921 45.2596 163.84 45.5606 163.712 45.8399C163.453 46.4054 163.015 46.868 162.466 47.1546C161.779 47.496 160.998 47.5975 160.247 47.4429C159.898 47.3658 159.561 47.241 159.246 47.0721C159.011 46.9488 158.797 46.7881 158.613 46.5961C158.444 46.4215 158.3 46.224 158.185 46.0094C157.746 45.0628 157.654 43.9893 157.641 42.9556V38.8763H148.031V42.2339H148.033ZM184 9.77463H174.535V54.2106H184V9.77463Z" fill="black"/>
</svg>
