<svg width="200" height="64" viewBox="0 0 200 64" fill="none" xmlns="http://www.w3.org/2000/svg">
<path fill-rule="evenodd" clip-rule="evenodd" d="M39.9321 9.39775C37.3312 8.61095 35.4497 11.4855 36.9891 13.1618C43.833 16.7889 48.4522 23.9054 48.4522 32.015C48.4522 43.8554 38.6653 53.5044 26.6218 53.5044H26.4165C14.4745 53.4018 4.79134 43.787 4.79134 32.015C4.79134 24.0433 9.27374 17.0284 15.9113 13.3328C17.3138 11.3829 15.706 9.05673 13.4825 9.29512C5.44131 13.8117 0 22.2976 0 32.0139C0 46.3516 11.8394 58.0883 26.4155 58.1899H26.6207C41.2663 58.1899 53.2414 46.42 53.2414 32.0139C53.2425 22.366 47.8707 13.9144 39.9321 9.39775ZM64.6029 45.0517H69.7695V21.0992H64.6029V45.0517Z" fill="black"/>
<path fill-rule="evenodd" clip-rule="evenodd" d="M26.4142 12.3065C26.4484 12.3065 26.4484 12.3407 26.4826 12.3407C28.4667 12.3407 30.0756 10.6976 30.0756 8.74776C30.0757 8.27588 29.9829 7.8086 29.8024 7.37262C29.6219 6.93664 29.3572 6.5405 29.0235 6.20683C28.6899 5.87317 28.2937 5.60852 27.8578 5.428C27.4218 5.24749 26.9545 5.15464 26.4826 5.15479H26.4142C25.4738 5.17461 24.5785 5.56166 23.9198 6.23313C23.2612 6.90459 22.8914 7.80716 22.8896 8.74776C22.8896 10.6976 24.4632 12.2712 26.4142 12.3065ZM86.6363 21.0992H74.9338V45.0506H80.1003V25.7868H86.0548C89.1004 25.7868 91.1871 27.2931 91.1187 30.8166V45.0506H96.2853V29.3467C96.2853 24.1106 91.9055 21.0992 86.6363 21.0992ZM26.4142 17.9178C26.0409 17.9168 25.6711 17.9896 25.3261 18.132C24.981 18.2744 24.6675 18.4836 24.4035 18.7475C24.1396 19.0115 23.9304 19.325 23.788 19.67C23.6456 20.0151 23.5728 20.3849 23.5738 20.7582V45.3606C23.5738 46.8989 24.8406 48.1668 26.4142 48.1668C27.9536 48.1668 29.2546 46.8989 29.2546 45.3606V20.7571C29.2507 20.0051 28.9501 19.285 28.4182 18.7534C27.8864 18.2217 27.1662 17.9215 26.4142 17.9178ZM136.867 20.4845C130.639 20.7582 126.637 24.8985 126.021 32.8017C125.61 38.8257 128.86 45.1201 136.867 45.6674C137.038 45.7027 137.209 45.7027 137.415 45.7027C141.042 45.7358 143.505 45.429 145.901 44.5374L145.969 40.0208C142.821 41.2887 139.536 41.6971 136.867 41.1861C133.685 40.6034 131.426 38.6536 131.529 35.3H146.756C148.74 26.4037 144.052 20.5177 136.867 20.4845ZM142.582 31.0571H131.187V30.9887C131.187 27.4641 133.752 24.6248 136.867 24.6248C140.013 24.6248 142.582 27.4641 142.582 30.9887V31.0571ZM173.788 45.0516H178.954V21.0992H173.788V45.0516ZM161.263 31.1939C152.607 29.723 154.797 22.3991 167.969 25.8221V21.5792C164.309 20.4161 158.423 20.1082 155.275 21.5792C148.775 24.7617 149.253 34.7185 160.031 35.8121C167.046 36.6684 165.917 44.7438 151.137 39.9877V44.6753C155.789 45.9763 161.606 46.5237 165.643 44.6753C168.311 43.0323 169.339 40.8087 169.372 38.6183C169.477 34.7869 166.944 32.0492 161.263 31.1939ZM194.044 21.0992H182.923V25.8221H188.878V45.0516H194.044V25.8221H199.998V21.0992H194.044ZM112.025 21.2702C111.307 21.1676 110.52 21.1345 109.699 21.1345H101.59V45.0869H109.802C110.589 45.0869 111.34 45.0516 112.025 44.949C120.547 44.0264 122.461 37.7641 122.427 33.4859C122.394 26.8826 118.972 22.0923 112.025 21.2702ZM112.025 40.3308C111.272 40.5019 110.418 40.6045 109.424 40.6045H106.686V25.5827H109.356C110.348 25.5827 111.238 25.6853 112.024 25.8905C115.549 26.781 117.295 29.5861 117.328 33.3491C117.362 35.8121 116.337 39.3367 112.025 40.3308Z" fill="black"/>
</svg>
