<svg width="64" height="64" viewBox="0 0 64 64" fill="none" xmlns="http://www.w3.org/2000/svg">
<path d="M63.1 15.125C63.1 14.925 63 14.825 62.9 14.625C62.9 14.625 62.9 14.625 62.9 14.525C62.8 14.425 62.8 14.325 62.7 14.225L62.6 14.125C62.5 14.125 62.5 14.025 62.4 14.025L32.9 0.225C32.2 -0.075 31.4 -0.075 30.8 0.225L1.8 14.025C1.7 14.025 1.7 14.125 1.6 14.125L1.5 14.225L1.4 14.325L1.3 14.425L1.2 14.525C1.1 14.625 1 14.825 1 15.025C1 15.125 1 15.225 1 15.325V46.625C1 47.625 1.6 48.425 2.4 48.925L31.3 62.625C31.4 62.725 31.5 62.725 31.6 62.725C31.7 62.725 31.8 62.725 31.9 62.725C32 62.725 32.1 62.725 32.2 62.725C32.3 62.725 32.4 62.625 32.5 62.625L61.9 48.925C62.8 48.525 63.3 47.625 63.3 46.625V15.425C63.1 15.325 63.1 15.225 63.1 15.125ZM30.1 59.025L3.6 46.525V17.825L30.1 30.325V59.025ZM31.6 27.725L5.6 15.425L31.6 3.12499L58.1 15.425L31.6 27.725ZM60.1 46.425L33.1 59.025V30.425L60.1 17.825V46.425Z" fill="#5FCBB5"/>
<path d="M41.5999 35.925C41.7999 35.925 42.0999 35.825 42.2999 35.725L52.2999 30.725C52.9999 30.325 53.2999 29.425 52.9999 28.725C52.5999 28.025 51.6999 27.725 50.9999 28.025L40.9999 33.025C40.2999 33.425 39.9999 34.325 40.2999 35.025C40.4999 35.625 41.0999 35.925 41.5999 35.925Z" fill="#5FCBB5"/>
</svg>
