<svg width="64" height="64" viewBox="0 0 64 64" fill="none" xmlns="http://www.w3.org/2000/svg">
<path d="M40.8689 12.2908C40.1689 11.8908 39.2689 12.0908 38.7689 12.7908C38.3689 13.4908 38.5689 14.3908 39.2689 14.8908C42.1689 16.7908 43.4689 21.0908 42.3689 24.9908C41.8689 26.8908 39.8689 31.1908 33.5689 31.1908C27.4689 31.1908 25.3689 27.5908 24.6689 25.4908C23.4689 21.6908 24.8689 17.0908 27.9689 14.8908C28.6689 14.3908 28.7689 13.4908 28.2689 12.7908C27.7689 12.0908 26.8689 11.9908 26.1689 12.4908C21.9689 15.4908 20.1689 21.2908 21.7689 26.3908C23.3689 31.2908 27.7689 34.1908 33.5689 34.1908C39.3689 34.1908 43.6689 31.0908 45.2689 25.8908C46.7689 20.4908 44.9689 14.8908 40.8689 12.2908Z" fill="#5FCBB5"/>
<path d="M33.5688 23.4907C34.3688 23.4907 35.0688 22.7907 35.0688 21.9907V11.4907C35.0688 10.6907 34.3688 9.99072 33.5688 9.99072C32.7688 9.99072 32.0688 10.6907 32.0688 11.4907V21.9907C32.0688 22.7907 32.7688 23.4907 33.5688 23.4907Z" fill="#5FCBB5"/>
<path d="M52.2687 8.59085C51.3687 7.39085 42.7688 -3.40916 26.6688 1.09084C14.5688 4.49084 12.1687 16.0908 12.5687 21.7908L8.16875 33.5908C7.86875 34.3908 7.96874 35.1908 8.46874 35.8908C8.96874 36.5908 9.66875 36.9908 10.5687 36.9908H12.1688C11.5688 39.6908 11.0687 45.2908 14.5687 49.0908C17.3687 52.0908 21.8687 53.0908 28.0687 52.1908L30.8688 60.9908C31.0688 61.6908 31.5688 62.1908 32.1688 62.4908C32.4688 62.6908 32.8687 62.6908 33.2687 62.6908C33.5687 62.6908 33.8688 62.5908 34.1688 62.4908L50.5687 56.2908C51.2687 56.0908 51.7687 55.4908 51.9687 54.8908C52.2687 54.1908 52.1688 53.4908 51.8688 52.7908C49.5688 47.8908 48.2688 39.7908 52.3688 33.2908C59.2688 22.0908 54.0687 10.9908 52.2687 8.59085ZM48.9687 53.6908L33.4687 59.5908L30.6688 50.9908C30.3688 49.9908 29.3687 49.2908 28.2687 49.2908C28.1687 49.2908 27.9688 49.2908 27.8688 49.2908C22.5688 50.1908 18.7688 49.4908 16.6688 47.1908C13.7688 44.0908 14.7687 38.7908 15.0687 37.2908C15.2687 36.4908 15.0687 35.6908 14.5687 35.0908C14.0687 34.4908 13.3687 34.0908 12.5687 34.0908H11.0687L15.2687 22.7908C15.3687 22.4908 15.4687 22.0908 15.4687 21.6908C15.4687 21.0908 14.4688 7.59084 27.3688 3.99084C41.4688 0.0908384 48.9687 9.39084 49.7687 10.4908C51.1687 12.3908 55.6688 22.1908 49.6688 31.7908C44.0688 40.8908 47.7687 50.8908 48.9687 53.6908Z" fill="#5FCBB5"/>
</svg>
