<svg width="200" height="64" viewBox="0 0 200 64" fill="none" xmlns="http://www.w3.org/2000/svg">
<path fill-rule="evenodd" clip-rule="evenodd" d="M51.1416 47.6033V12.3086H58.5783V26.175H73.074V12.3086H80.5119V47.6033H73.074V32.1631H58.5783V47.6033H51.1416ZM93.4588 29.8302L87.0929 28.6956C87.8121 26.2102 89.0491 24.3701 90.8062 23.1752C92.5609 21.9815 95.1703 21.384 98.6321 21.384C101.776 21.384 104.117 21.7425 105.657 22.4583C107.193 23.1752 108.278 24.0845 108.905 25.1872C109.532 26.291 109.845 28.3144 109.845 31.2595L109.718 39.1765C109.718 41.4297 109.834 43.0923 110.065 44.162C110.296 45.2328 110.725 46.3799 111.359 47.6021H104.363C104.179 47.1549 103.954 46.4926 103.687 45.6175C103.569 45.2192 103.484 44.9575 103.436 44.8289C102.23 45.9646 100.944 46.8158 99.5732 47.3825C98.182 47.9536 96.6913 48.2429 95.1874 48.2337C92.446 48.2337 90.285 47.5156 88.7054 46.0818C87.1259 44.6479 86.3361 42.834 86.3361 40.6411C86.3361 39.1924 86.6946 37.8985 87.4115 36.7628C88.1285 35.6271 89.1333 34.7577 90.4261 34.1534C91.7188 33.5491 93.5817 33.02 96.0181 32.5682C99.3035 31.973 101.579 31.4165 102.848 30.901V30.216C102.848 28.8959 102.513 27.9559 101.848 27.3938C101.183 26.8327 99.9249 26.5516 98.0779 26.5516C96.8295 26.5516 95.8543 26.794 95.1544 27.2788C94.4568 27.7647 93.8912 28.6148 93.4588 29.8302ZM102.851 35.3141C101.953 35.6032 100.529 35.9503 98.5832 36.3543C96.6383 36.7571 95.3661 37.152 94.7663 37.5389C93.8514 38.1682 93.3951 38.9682 93.3951 39.9344C93.3951 40.8857 93.7604 41.7108 94.4921 42.4038C95.2238 43.0946 96.1558 43.4416 97.2859 43.4416C98.5502 43.4416 99.7553 43.0388 100.902 42.2331C101.751 41.6197 102.307 40.8709 102.574 39.981C102.756 39.4029 102.849 38.2968 102.849 36.6672V35.3141H102.851ZM140.975 47.6033H133.917V34.5028C133.917 31.7329 133.767 29.9394 133.469 29.1269C133.171 28.3132 132.686 27.6805 132.016 27.2287C131.346 26.777 130.538 26.5528 129.596 26.5528C128.387 26.5528 127.301 26.876 126.342 27.5201C125.383 28.1642 124.724 29.0177 124.367 30.0817C124.011 31.1457 123.833 33.1099 123.833 35.9799V47.6044H116.774V22.0145H123.329V25.7698C125.642 22.8475 128.554 21.384 132.066 21.384C133.613 21.384 135.029 21.6537 136.31 22.1931C137.592 22.7326 138.562 23.4199 139.22 24.2575C139.875 25.095 140.334 26.0441 140.591 27.1058C140.849 28.1687 140.978 29.6902 140.978 31.6692V47.6033H140.975ZM145.738 40.3554L152.797 39.346C153.1 40.6468 153.718 41.6334 154.646 42.3071C155.572 42.9808 156.873 43.3188 158.547 43.3188C160.387 43.3188 161.772 42.9944 162.701 42.3492C163.326 41.8963 163.636 41.2909 163.636 40.5307C163.636 40.0152 163.468 39.5862 163.13 39.2459C162.775 38.9238 161.98 38.6257 160.747 38.3503C154.997 37.1395 151.354 36.0345 149.817 35.0365C147.685 33.6515 146.62 31.7272 146.62 29.2612C146.62 27.0387 147.541 25.1701 149.376 23.6555C151.214 22.1408 154.063 21.384 157.927 21.384C161.603 21.384 164.335 21.9519 166.122 23.0887C167.908 24.2256 169.14 25.9041 169.813 28.1278L163.134 29.3249C162.843 28.328 162.297 27.5633 161.49 27.033C160.683 26.5027 159.534 26.2364 158.041 26.2364C156.156 26.2364 154.807 26.4868 153.991 26.9875C153.448 27.3425 153.175 27.8034 153.175 28.3679C153.175 28.8527 153.413 29.2646 153.884 29.6026C154.525 30.0555 156.742 30.6939 160.53 31.5167C164.319 32.3417 166.966 33.35 168.469 34.546C169.954 35.7568 170.696 37.4445 170.696 39.6089C170.696 41.9645 169.674 43.9924 167.627 45.688C165.582 47.3836 162.553 48.2326 158.546 48.2326C154.906 48.2326 152.025 47.5259 149.902 46.1125C147.781 44.7003 146.392 42.7805 145.738 40.3554ZM182.1 29.8302L175.734 28.6956C176.452 26.2102 177.69 24.3701 179.446 23.1752C181.202 21.9815 183.812 21.384 187.275 21.384C190.418 21.384 192.757 21.7425 194.298 22.4583C195.837 23.1752 196.919 24.0845 197.546 25.1872C198.173 26.291 198.486 28.3144 198.486 31.2595L198.362 39.1765C198.362 41.4297 198.478 43.0923 198.707 44.162C198.938 45.2328 199.369 46.3799 200.001 47.6021H193.004C192.822 47.1549 192.596 46.4926 192.328 45.6175C192.21 45.2192 192.126 44.9575 192.077 44.8289C190.874 45.9646 189.587 46.8158 188.216 47.3825C186.844 47.9492 185.382 48.2337 183.829 48.2337C181.088 48.2337 178.927 47.5156 177.348 46.0818C175.768 44.6479 174.979 42.834 174.979 40.6411C174.979 39.1924 175.338 37.8985 176.054 36.7628C176.772 35.6271 177.777 34.7577 179.07 34.1534C180.361 33.5491 182.225 33.02 184.662 32.5682C187.947 31.973 190.223 31.4165 191.492 30.901V30.216C191.492 28.8959 191.158 27.9559 190.492 27.3938C189.827 26.8327 188.57 26.5516 186.723 26.5516C185.473 26.5516 184.498 26.794 183.8 27.2788C183.098 27.7647 182.531 28.6148 182.1 29.8302ZM191.491 35.3141C190.593 35.6032 189.17 35.9503 187.223 36.3543C185.278 36.7571 184.007 37.152 183.409 37.5389C182.493 38.1682 182.035 38.9682 182.035 39.9344C182.035 40.8857 182.402 41.7108 183.133 42.4038C183.865 43.0946 184.796 43.4416 185.927 43.4416C187.191 43.4416 188.397 43.0388 189.544 42.2331C190.393 41.6197 190.95 40.8709 191.215 39.981C191.4 39.4029 191.491 38.2968 191.491 36.6672V35.3141Z" fill="black"/>
<path fill-rule="evenodd" clip-rule="evenodd" d="M0.269438 37.7576C0.269438 37.7576 -3.83983 12.0938 20.0374 12.0938C43.9682 12.0938 41.3087 37.8419 41.3087 37.8419L0.269438 37.7576Z" fill="#BF6B34"/>
<path fill-rule="evenodd" clip-rule="evenodd" d="M39.2271 41.4005C39.2271 42.1345 38.6319 42.7296 37.8979 42.7296H3.56257C3.21005 42.7296 2.87197 42.5896 2.6227 42.3403C2.37344 42.0911 2.2334 41.753 2.2334 41.4005C2.2334 41.0479 2.37344 40.7099 2.6227 40.4606C2.87197 40.2113 3.21005 40.0713 3.56257 40.0713H37.8979C38.6319 40.0713 39.2271 40.6642 39.2271 41.4005ZM35.8746 46.543C35.8746 47.1814 35.3568 47.6992 34.7184 47.6992H6.51109C6.20445 47.6992 5.91037 47.5774 5.69354 47.3606C5.47671 47.1437 5.3549 46.8497 5.3549 46.543C5.3549 46.2364 5.47671 45.9423 5.69354 45.7255C5.91037 45.5086 6.20445 45.3868 6.51109 45.3868H34.7184C35.0249 45.3871 35.3188 45.509 35.5356 45.7258C35.7524 45.9426 35.8743 46.2365 35.8746 46.543Z" fill="#3169B1"/>
</svg>
