<svg width="64" height="64" viewBox="0 0 64 64" fill="none" xmlns="http://www.w3.org/2000/svg">
<path d="M35.4 19.9C38.2 19.9 40.7 18.8 42.5 17L48.4 22.9C48.7 23.2 49.1 23.3 49.5 23.3C49.9 23.3 50.3 23.2 50.6 22.9C51.2 22.3 51.2 21.4 50.6 20.8L44.7 14.9C44.6 14.8 44.5 14.7 44.3 14.7C45.1 13.3 45.5 11.7 45.5 10C45.5 4.5 41 0 35.5 0C30 0 25.5 4.5 25.5 10C25.5 15.5 29.9 19.9 35.4 19.9ZM35.4 2.9C39.3 2.9 42.4 6 42.4 9.9C42.4 13.8 39.3 16.9 35.4 16.9C31.5 16.9 28.4 13.8 28.4 9.9C28.4 6 31.5 2.9 35.4 2.9Z" fill="#5FCBB5"/>
<path d="M56.9 43.8999H52.7L46.9 34.5999C46.4 33.8999 45.6 33.3999 44.8 33.3999H27.4C26.7 33.3999 26 33.6999 25.5 34.2999L17.2 43.9999L6.19998 45.2999C4.89998 45.3999 4 46.4999 4 47.7999V57.3999C4 58.7999 5.1 59.8999 6.5 59.8999H9.89999C10.7 62.1999 12.9 63.8999 15.5 63.8999C18.1 63.8999 20.4 62.1999 21.2 59.8999C21.3 59.8999 21.4 59.8999 21.5 59.8999H40.9C41.7 62.1999 43.9 63.8999 46.5 63.8999C49.1 63.8999 51.4 62.1999 52.2 59.8999C52.3 59.8999 52.4 59.8999 52.5 59.8999H57C58.4 59.8999 59.5 58.7999 59.5 57.3999V46.3999C59.4 44.9999 58.3 43.8999 56.9 43.8999ZM27.6 36.3999H44.6L49.2 43.8999H21.2L27.6 36.3999ZM15.4 60.8999C13.7 60.8999 12.4 59.5999 12.4 57.8999C12.4 56.1999 13.7 54.8999 15.4 54.8999C17.1 54.8999 18.4 56.1999 18.4 57.8999C18.4 59.5999 17.1 60.8999 15.4 60.8999ZM46.4 60.8999C44.7 60.8999 43.4 59.5999 43.4 57.8999C43.4 56.1999 44.7 54.8999 46.4 54.8999C48.1 54.8999 49.4 56.1999 49.4 57.8999C49.4 59.5999 48.1 60.8999 46.4 60.8999ZM56.4 56.8999H52.4H52.3C51.8 54.0999 49.4 51.8999 46.4 51.8999C43.4 51.8999 41 54.0999 40.5 56.8999H21.4H21.3C20.8 54.0999 18.4 51.8999 15.4 51.8999C12.4 51.8999 10 54.0999 9.5 56.8999H6.89999V48.1999L18 46.8999H51.9H56.4V56.8999Z" fill="#5FCBB5"/>
</svg>
