<svg width="277" height="45" viewBox="0 0 277 45" fill="none" xmlns="http://www.w3.org/2000/svg">
<path d="M23.2357 44.6777C22.188 44.2405 21.8001 43.3763 21.8459 42.1569C21.8917 41.0229 21.8459 39.8855 21.8459 38.7207H57.5548C57.5548 38.8812 57.5792 39.0452 57.5792 39.2092C57.5792 40.1929 57.5456 41.1766 57.5792 42.1569C57.6342 43.3763 57.2371 44.2405 56.1924 44.6777H23.2357Z" fill="#6AD1BC"/>
<path d="M57.5774 37.7283H21.8423V37.2144C21.8423 26.1718 21.8423 15.1293 21.8423 4.08673C21.8423 2.97636 22.2699 2.3034 23.1495 2.05258C23.3239 2.00662 23.5038 1.985 23.684 1.98834H55.7448C55.9757 1.97725 56.2064 2.01208 56.4238 2.09081C56.6412 2.16954 56.8408 2.29061 57.0112 2.44703C57.1815 2.60345 57.3193 2.79212 57.4165 3.00215C57.5137 3.21218 57.5683 3.43941 57.5774 3.67072C57.5865 3.8521 57.5865 4.03383 57.5774 4.21521V37.7283ZM39.7465 12.7097C37.6279 12.7061 35.5559 13.3319 33.7926 14.508C32.0293 15.684 30.6539 17.3575 29.8405 19.3166C29.0271 21.2758 28.8123 23.4325 29.2231 25.514C29.634 27.5954 30.6521 29.5081 32.1487 31.0098C33.6452 32.5116 35.5529 33.5351 37.6304 33.9508C39.7079 34.3664 41.8619 34.1555 43.8197 33.3448C45.7775 32.5341 47.4512 31.16 48.629 29.3964C49.8068 27.6328 50.4358 25.5589 50.4364 23.4372C50.4276 20.5985 49.2992 17.8783 47.297 15.869C45.2947 13.8598 42.5809 12.7242 39.7465 12.7097ZM52.1774 5.61005H45.1006V9.08494H52.1774V5.61005ZM36.1302 9.11247C36.368 9.12238 36.6054 9.08403 36.828 8.99972C37.0506 8.91542 37.2539 8.78689 37.4257 8.62188C37.5975 8.45687 37.7341 8.25878 37.8275 8.03951C37.9209 7.82025 37.969 7.58433 37.969 7.34596C37.969 7.10759 37.9209 6.87168 37.8275 6.65242C37.7341 6.43315 37.5975 6.23506 37.4257 6.07005C37.2539 5.90503 37.0506 5.77651 36.828 5.6922C36.6054 5.6079 36.368 5.56955 36.1302 5.57946C35.8924 5.56955 35.655 5.6079 35.4324 5.6922C35.2098 5.77651 35.0065 5.90503 34.8347 6.07005C34.663 6.23506 34.5263 6.43315 34.4329 6.65242C34.3395 6.87168 34.2914 7.10759 34.2914 7.34596C34.2914 7.58433 34.3395 7.82025 34.4329 8.03951C34.5263 8.25878 34.663 8.45687 34.8347 8.62188C35.0065 8.78689 35.2098 8.91542 35.4324 8.99972C35.655 9.08403 35.8924 9.12238 36.1302 9.11247ZM28.9771 9.11247C29.3277 9.11915 29.6724 9.02109 29.9672 8.83078C30.262 8.64048 30.4934 8.36657 30.6321 8.04397C30.7708 7.72137 30.8104 7.36471 30.7459 7.01947C30.6814 6.67423 30.5157 6.35606 30.2699 6.10554C30.024 5.85502 29.7093 5.6835 29.3658 5.61286C29.0222 5.54221 28.6655 5.57564 28.341 5.70889C28.0165 5.84213 27.739 6.06914 27.5438 6.36098C27.3487 6.65282 27.2448 6.99626 27.2453 7.34749C27.2433 7.57727 27.2865 7.80519 27.3724 8.01824C27.4584 8.2313 27.5854 8.42531 27.7462 8.5892C27.907 8.75309 28.0985 8.88366 28.3097 8.97345C28.5209 9.06323 28.7476 9.11047 28.9771 9.11247Z" fill="#6AD1BC"/>
<path d="M44.6777 18.6745C44.0733 19.1676 43.5844 19.7985 43.2481 20.5192C42.9118 21.2399 42.737 22.0314 42.737 22.8334C42.737 23.6355 42.9118 24.427 43.2481 25.1477C43.5844 25.8684 44.0733 26.4993 44.6777 26.9924C43.4091 28.9797 40.6194 30.3344 37.7417 29.5679C36.3205 29.1832 35.0611 28.3163 34.1604 27.1028C33.2597 25.8894 32.7686 24.3977 32.7637 22.861C32.7588 21.3244 33.2405 19.8293 34.1335 18.6096C35.0265 17.3899 36.2804 16.5144 37.6992 16.1198C40.5031 15.3355 43.3325 16.6069 44.6777 18.6745Z" fill="#6AD1BC"/>
<path d="M99.7758 21.5546C100.552 21.118 101.34 20.845 102.139 20.7359C102.961 20.6267 103.795 20.5721 104.64 20.5721H109.024C110.188 20.5721 111.113 20.2992 111.798 19.7534C112.483 19.1857 112.826 18.3343 112.826 17.199C112.826 16.0418 112.472 15.234 111.764 14.7755C111.056 14.317 110.143 14.0878 109.024 14.0878H99.7758V21.5546ZM99.7758 31.3466H109.401C109.903 31.3466 110.428 31.2811 110.976 31.1501C111.547 30.9973 112.061 30.779 112.517 30.4952C112.974 30.1895 113.351 29.8183 113.648 29.3817C113.945 28.9232 114.093 28.3883 114.093 27.777C114.093 27.0565 113.945 26.467 113.648 26.0085C113.351 25.55 112.963 25.1898 112.483 24.9278C112.004 24.6658 111.456 24.4802 110.839 24.371C110.245 24.2619 109.64 24.2073 109.024 24.2073H104.64C103.818 24.2073 102.995 24.2728 102.173 24.4038C101.351 24.5348 100.552 24.7968 99.7758 25.1898V31.3466ZM117.792 28.2355C117.792 29.4581 117.53 30.4952 117.004 31.3466C116.502 32.1763 115.828 32.864 114.984 33.4098C114.161 33.9338 113.225 34.3159 112.175 34.5561C111.125 34.7962 110.074 34.9163 109.024 34.9163H96.0767V10.4854H109.024C110.097 10.4854 111.09 10.6382 112.004 10.9438C112.94 11.2277 113.739 11.6534 114.401 12.2211C115.086 12.7887 115.611 13.4874 115.977 14.317C116.365 15.1467 116.559 16.0964 116.559 17.1662C116.559 18.2142 116.365 19.1639 115.977 20.0154C115.589 20.8669 115.018 21.5219 114.264 21.9804C114.698 22.1768 115.132 22.4607 115.566 22.8318C116 23.1812 116.376 23.6178 116.696 24.1418C117.016 24.6658 117.278 25.2662 117.484 25.943C117.689 26.6198 117.792 27.384 117.792 28.2355Z" fill="black"/>
<path d="M127.809 31.5104H138.941V34.9163H124.315V17.9522H138.29V21.3254H127.809V25.4518C128.585 25.0151 129.442 24.7422 130.378 24.633C131.337 24.5239 132.33 24.4693 133.358 24.4693H135.961V27.8425H133.358C132.536 27.8425 131.851 27.8643 131.303 27.908C130.778 27.9298 130.321 27.9735 129.933 28.039C129.545 28.1045 129.191 28.2027 128.871 28.3337C128.551 28.4647 128.197 28.6285 127.809 28.825V31.5104Z" fill="black"/>
<path d="M145.622 34.9163V17.9522H149.287V31.5104H158.706V34.9163H145.622Z" fill="black"/>
<path d="M170.264 17.9522H174.272L178.313 30.3969L183.074 17.9522H186.842L180.608 34.9163H175.847L173.621 28.2027L171.806 34.9163H167.113L160.982 17.9522H164.784L169.374 30.3969L171.703 22.3733L170.264 17.9522Z" fill="black"/>
<path d="M201.833 29.2834L198.373 22.9956L194.16 30.7572C194.731 30.4733 195.61 30.1568 196.798 29.8074C197.985 29.4581 199.504 29.2834 201.353 29.2834H201.833ZM195.393 17.5592H199.195L208.786 34.9163H204.915L203.511 32.3619H201.387C200.291 32.3619 199.207 32.4492 198.133 32.6239C197.06 32.7985 196.078 33.0169 195.188 33.2789C194.32 33.519 193.578 33.781 192.961 34.0648C192.368 34.3268 192.002 34.5452 191.865 34.7198L191.763 34.9163H188.063L196.558 19.6879L195.393 17.5592Z" fill="black"/>
<path d="M225.494 22.1441C224.809 21.5983 224.01 21.2162 223.096 20.9979C222.206 20.7795 221.247 20.6704 220.219 20.6704C219.785 20.6704 219.351 20.725 218.917 20.8341C218.506 20.9215 218.13 21.0525 217.787 21.2271C217.445 21.3799 217.159 21.5764 216.931 21.8166C216.725 22.0349 216.623 22.2642 216.623 22.5043C216.623 22.7663 216.657 23.0065 216.725 23.2248C216.817 23.4213 216.988 23.596 217.239 23.7488C217.513 23.8798 217.901 23.989 218.404 24.0763C218.929 24.1636 219.625 24.2073 220.493 24.2073C222.365 24.2073 223.873 24.3492 225.014 24.633C226.179 24.9169 227.069 25.2989 227.686 25.7793C228.302 26.2596 228.713 26.8163 228.919 27.4495C229.124 28.0826 229.227 28.7376 229.227 29.4144C229.227 30.4406 228.999 31.3357 228.542 32.0999C228.085 32.8422 227.446 33.4644 226.624 33.9666C225.825 34.4469 224.877 34.8071 223.781 35.0473C222.685 35.3093 221.509 35.4403 220.253 35.4403C218.678 35.4403 217.182 35.1237 215.766 34.4906C214.373 33.8356 213.186 32.9514 212.204 31.8379L214.739 29.3817C215.013 29.6437 215.298 29.9384 215.595 30.2659C215.915 30.5934 216.28 30.8991 216.691 31.1829C217.125 31.4667 217.627 31.7069 218.198 31.9034C218.769 32.078 219.454 32.1654 220.253 32.1654C221.897 32.1654 223.222 31.9361 224.226 31.4776C225.231 31.0191 225.734 30.3314 225.734 29.4144C225.734 28.6503 225.277 28.1481 224.363 27.908C223.473 27.6678 222.103 27.5477 220.253 27.5477C219.18 27.5477 218.198 27.4604 217.308 27.2857C216.417 27.1111 215.641 26.8272 214.979 26.4343C214.339 26.0194 213.837 25.4954 213.471 24.8623C213.106 24.2073 212.923 23.4213 212.923 22.5043C212.923 21.7402 213.118 21.0415 213.506 20.4084C213.917 19.7752 214.453 19.2403 215.116 18.8037C215.778 18.3452 216.554 17.9959 217.445 17.7557C218.335 17.5155 219.271 17.3955 220.253 17.3955C221.555 17.3955 222.822 17.5374 224.055 17.8212C225.288 18.105 226.556 18.6727 227.857 19.5242L225.494 22.1441Z" fill="black"/>
<path d="M238.893 34.9163H235.399V17.9522H238.893V24.7313C239.486 24.4475 240.183 24.3055 240.982 24.3055C241.713 24.3055 242.557 24.3929 243.516 24.5675C244.498 24.7204 245.435 24.7968 246.325 24.7968C246.713 24.7968 247.09 24.775 247.455 24.7313C247.821 24.6658 248.186 24.5457 248.551 24.371V17.9522H252.045V34.9163H248.551V27.8097C248.209 27.9844 247.866 28.1045 247.524 28.17C247.181 28.2136 246.827 28.2355 246.462 28.2355C245.503 28.2355 244.59 28.159 243.722 28.0062C242.854 27.8534 241.987 27.777 241.119 27.777C240.731 27.777 240.354 27.8097 239.989 27.8752C239.623 27.9189 239.258 28.0171 238.893 28.17V34.9163Z" fill="black"/>
<path d="M72.3691 27.9533V23.8187C74.9645 20.9835 79.6844 20.406 81.7199 20.4716H88.5899V24.6062H81.7199C77.7506 24.1337 73.8322 26.6407 72.3691 27.9533Z" fill="black"/>
<path d="M277 20.4676V24.6022C274.405 27.4374 269.685 28.0149 267.649 27.9493H260.779V23.8147H267.649C271.619 24.2872 275.537 21.7802 277 20.4676Z" fill="black"/>
<path d="M8.6975 10.3552C7.7064 10.0889 6.78905 10.1954 5.93624 10.7147C5.32314 11.0831 4.88982 11.6023 4.62707 12.2547C4.10155 13.5596 4.51643 15.0109 5.65966 15.8985C6.70608 16.7107 8.47623 16.9504 9.90988 15.7964C9.91449 15.8453 9.92371 15.8852 9.92371 15.9296C9.92371 16.8084 9.92371 17.6916 9.92832 18.5703C9.92832 18.6813 9.90066 18.739 9.78541 18.7701C9.5918 18.8189 9.40741 18.8943 9.2138 18.9432C9.10777 18.9698 9.06168 19.0008 9.05246 19.1118C9.02941 19.5024 8.99253 19.8929 8.96026 20.2879C8.95104 20.3723 8.94643 20.4521 8.9326 20.5365C8.89572 20.7318 8.75282 20.8472 8.54999 20.8472C7.99682 20.8516 7.44825 20.8516 6.89508 20.8472C6.68764 20.8472 6.54013 20.7318 6.51708 20.532C6.47559 20.1548 6.43871 19.7731 6.42027 19.3914C6.39722 18.9964 6.39722 19.0142 6.01922 18.881C5.58129 18.7257 5.15258 18.5304 4.72848 18.3396C4.62246 18.2907 4.55792 18.2774 4.46111 18.3573C4.12921 18.6414 3.7927 18.9165 3.45618 19.1917C3.19803 19.4047 3.02286 19.4003 2.78315 19.1695C2.43281 18.8322 2.08247 18.4949 1.73213 18.1576C1.50164 17.9357 1.49703 17.7626 1.70908 17.5229C1.99949 17.1945 2.28991 16.8661 2.58954 16.5421C2.67252 16.4533 2.66791 16.3912 2.60798 16.298C2.31757 15.8364 2.10552 15.3437 1.97183 14.82C1.94878 14.7313 1.91191 14.6913 1.8151 14.6869C1.40022 14.6603 0.98995 14.6292 0.57968 14.5937C0.492094 14.5848 0.409118 14.5804 0.321532 14.5671C0.127921 14.5316 0.00345734 14.3984 0.00345734 14.212C-0.00115245 13.675 -0.00115245 13.1379 0.00345734 12.6009C0.00345734 12.4056 0.127921 12.2592 0.330752 12.237C0.722583 12.197 1.11902 12.166 1.51547 12.1438C1.92113 12.1216 1.90269 12.1216 2.04098 11.771C2.21154 11.3405 2.41437 10.9188 2.6172 10.4972C2.6633 10.404 2.67252 10.3507 2.59876 10.2664C2.29913 9.94243 2.01332 9.614 1.72291 9.28557C1.50164 9.03703 1.50625 8.87281 1.75056 8.63759C2.10091 8.30028 2.45125 7.96298 2.80159 7.62567C3.03208 7.40376 3.21186 7.39932 3.46079 7.60792C3.80192 7.88753 4.14304 8.16714 4.47955 8.45562C4.56253 8.52663 4.62246 8.53551 4.71926 8.47781C5.19407 8.19376 5.71036 7.99404 6.25432 7.8609C6.36495 7.83427 6.40183 7.78989 6.40644 7.68781C6.4341 7.28837 6.46637 6.89336 6.49864 6.49836C6.50325 6.42735 6.51247 6.35634 6.5263 6.28533C6.56778 6.07673 6.70147 5.96577 6.91813 5.96134C7.46208 5.9569 8.01065 5.9569 8.55921 5.96134C8.89111 5.96577 9.05246 6.24538 8.8865 6.52499C8.1766 7.71887 8.10745 8.94826 8.66984 10.2132C8.65601 10.2531 8.66984 10.293 8.6975 10.3552Z" fill="#A1E7D9"/>
<path d="M6.19508 10.3552C7.18618 10.0889 8.10352 10.1954 8.95633 10.7147C9.56943 11.0831 10.0028 11.6023 10.2655 12.2547C10.791 13.5596 10.3761 15.0109 9.23292 15.8985C8.1865 16.7107 6.41634 16.9504 4.9827 15.7964C4.97809 15.8453 4.96887 15.8852 4.96887 15.9296C4.96887 16.8084 4.96887 17.6916 4.96426 18.5703C4.96426 18.6813 4.99192 18.739 5.10717 18.7701C5.30078 18.8189 5.48517 18.8943 5.67878 18.9432C5.7848 18.9698 5.8309 19.0008 5.84012 19.1118C5.86317 19.5024 5.90005 19.8929 5.93232 20.2879C5.94154 20.3723 5.94615 20.4521 5.95998 20.5365C5.99685 20.7318 6.13976 20.8472 6.34259 20.8472C6.89576 20.8516 7.44433 20.8516 7.9975 20.8472C8.20494 20.8472 8.35245 20.7318 8.3755 20.532C8.41699 20.1548 8.45387 19.7731 8.47231 19.3914C8.49536 18.9964 8.49536 19.0142 8.87336 18.881C9.31129 18.7257 9.74 18.5304 10.1641 18.3396C10.2701 18.2907 10.3347 18.2774 10.4315 18.3573C10.7634 18.6414 11.0999 18.9165 11.4364 19.1917C11.6945 19.4047 11.8697 19.4003 12.1094 19.1695C12.4598 18.8322 12.8101 18.4949 13.1605 18.1576C13.3909 17.9357 13.3956 17.7626 13.1835 17.5229C12.8931 17.1945 12.6027 16.8661 12.303 16.5421C12.2201 16.4533 12.2247 16.3912 12.2846 16.298C12.575 15.8364 12.7871 15.3437 12.9207 14.82C12.9438 14.7313 12.9807 14.6913 13.0775 14.6869C13.4924 14.6603 13.9026 14.6292 14.3129 14.5937C14.4005 14.5848 14.4835 14.5804 14.571 14.5671C14.7647 14.5316 14.8891 14.3984 14.8891 14.212C14.8937 13.675 14.8937 13.1379 14.8891 12.6009C14.8891 12.4056 14.7647 12.2592 14.5618 12.237C14.17 12.197 13.7736 12.166 13.3771 12.1438C12.9715 12.1216 12.9899 12.1216 12.8516 11.771C12.681 11.3405 12.4782 10.9188 12.2754 10.4972C12.2293 10.404 12.2201 10.3507 12.2938 10.2664C12.5935 9.94243 12.8793 9.614 13.1697 9.28557C13.3909 9.03703 13.3863 8.87281 13.142 8.63759C12.7917 8.30028 12.4413 7.96298 12.091 7.62567C11.8605 7.40376 11.6807 7.39932 11.4318 7.60792C11.0907 7.88753 10.7495 8.16714 10.413 8.45562C10.33 8.52663 10.2701 8.53551 10.1733 8.47781C9.69851 8.19376 9.18221 7.99404 8.63826 7.8609C8.52762 7.83427 8.49075 7.78989 8.48614 7.68781C8.45848 7.28837 8.42621 6.89336 8.39394 6.49836C8.38933 6.42735 8.38011 6.35634 8.36628 6.28533C8.32479 6.07673 8.19111 5.96577 7.97445 5.96134C7.4305 5.9569 6.88193 5.9569 6.33337 5.96134C6.00146 5.96577 5.84012 6.24538 6.00607 6.52499C6.71598 7.71887 6.78513 8.94826 6.22273 10.2132C6.23656 10.2531 6.22273 10.293 6.19508 10.3552Z" fill="#A1E7D9"/>
<path d="M14.154 30.1459C13.5594 30.0039 13.009 30.0607 12.4973 30.3377C12.1294 30.5341 11.8694 30.8111 11.7118 31.159C11.3965 31.855 11.6454 32.629 12.3313 33.1024C12.9592 33.5356 14.0213 33.6634 14.8815 33.0479C14.8842 33.074 14.8898 33.0953 14.8898 33.119C14.8898 33.5876 14.8898 34.0587 14.8925 34.5274C14.8925 34.5865 14.8759 34.6173 14.8068 34.6339C14.6906 34.6599 14.58 34.7002 14.4638 34.7262C14.4002 34.7404 14.3726 34.757 14.367 34.8161C14.3532 35.0244 14.3311 35.2327 14.3117 35.4434C14.3062 35.4884 14.3034 35.531 14.2951 35.576C14.273 35.6801 14.1872 35.7417 14.0655 35.7417C13.7336 35.744 13.4045 35.744 13.0726 35.7417C12.9481 35.7417 12.8596 35.6801 12.8458 35.5736C12.8209 35.3724 12.7988 35.1688 12.7877 34.9653C12.7739 34.7546 12.7739 34.7641 12.5471 34.6931C12.2843 34.6102 12.0271 34.5061 11.7726 34.4043C11.709 34.3782 11.6703 34.3711 11.6122 34.4137C11.4131 34.5652 11.2112 34.712 11.0093 34.8587C10.8544 34.9724 10.7493 34.97 10.6054 34.8469C10.3952 34.667 10.185 34.4871 9.97482 34.3072C9.83653 34.1889 9.83376 34.0966 9.96099 33.9687C10.1352 33.7936 10.3095 33.6184 10.4893 33.4456C10.5391 33.3983 10.5363 33.3651 10.5003 33.3154C10.3261 33.0693 10.1989 32.8065 10.1186 32.5272C10.1048 32.4799 10.0827 32.4586 10.0246 32.4562C9.77568 32.442 9.52952 32.4254 9.28335 32.4065C9.2308 32.4017 9.18102 32.3994 9.12847 32.3923C9.0123 32.3733 8.93762 32.3023 8.93762 32.2029C8.93486 31.9165 8.93486 31.6301 8.93762 31.3437C8.93762 31.2395 9.0123 31.1614 9.134 31.1496C9.3691 31.1283 9.60696 31.1117 9.84483 31.0999C10.0882 31.088 10.0772 31.088 10.1601 30.901C10.2625 30.6714 10.3842 30.4466 10.5059 30.2217C10.5335 30.172 10.5391 30.1436 10.4948 30.0986C10.315 29.9258 10.1435 29.7506 9.96929 29.5755C9.83653 29.4429 9.83929 29.3553 9.98589 29.2299C10.1961 29.05 10.4063 28.8701 10.6165 28.6902C10.7548 28.5718 10.8627 28.5695 11.012 28.6807C11.2167 28.8299 11.4214 28.979 11.6233 29.1328C11.6731 29.1707 11.709 29.1754 11.7671 29.1447C12.052 28.9932 12.3618 28.8867 12.6881 28.8157C12.7545 28.8015 12.7766 28.7778 12.7794 28.7233C12.796 28.5103 12.8154 28.2996 12.8347 28.089C12.8375 28.0511 12.843 28.0132 12.8513 27.9754C12.8762 27.8641 12.9564 27.8049 13.0864 27.8026C13.4128 27.8002 13.7419 27.8002 14.0711 27.8026C14.2702 27.8049 14.367 27.954 14.2674 28.1032C13.8415 28.7399 13.8 29.3956 14.1375 30.0702C14.1292 30.0915 14.1375 30.1128 14.154 30.1459Z" fill="#A1E7D9"/>
<path d="M12.6526 30.1459C13.2473 30.0039 13.7977 30.0607 14.3093 30.3377C14.6772 30.5341 14.9372 30.8111 15.0949 31.159C15.4102 31.855 15.1612 32.629 14.4753 33.1024C13.8474 33.5356 12.7854 33.6634 11.9252 33.0479C11.9224 33.074 11.9169 33.0953 11.9169 33.119C11.9169 33.5876 11.9169 34.0587 11.9141 34.5274C11.9141 34.5865 11.9307 34.6173 11.9998 34.6339C12.116 34.6599 12.2266 34.7002 12.3428 34.7262C12.4064 34.7404 12.4341 34.757 12.4396 34.8161C12.4534 35.0244 12.4756 35.2327 12.4949 35.4434C12.5005 35.4884 12.5032 35.531 12.5115 35.576C12.5337 35.6801 12.6194 35.7417 12.7411 35.7417C13.073 35.744 13.4021 35.744 13.734 35.7417C13.8585 35.7417 13.947 35.6801 13.9608 35.5736C13.9857 35.3724 14.0079 35.1688 14.0189 34.9653C14.0328 34.7546 14.0328 34.7641 14.2596 34.6931C14.5223 34.6102 14.7795 34.5061 15.034 34.4043C15.0976 34.3782 15.1363 34.3711 15.1944 34.4137C15.3936 34.5652 15.5955 34.712 15.7974 34.8587C15.9523 34.9724 16.0574 34.97 16.2012 34.8469C16.4114 34.667 16.6216 34.4871 16.8318 34.3072C16.9701 34.1889 16.9729 34.0966 16.8456 33.9687C16.6714 33.7936 16.4971 33.6184 16.3174 33.4456C16.2676 33.3983 16.2703 33.3651 16.3063 33.3154C16.4806 33.0693 16.6078 32.8065 16.688 32.5272C16.7018 32.4799 16.7239 32.4586 16.782 32.4562C17.031 32.442 17.2771 32.4254 17.5233 32.4065C17.5758 32.4017 17.6256 32.3994 17.6782 32.3923C17.7943 32.3733 17.869 32.3023 17.869 32.2029C17.8718 31.9165 17.8718 31.6301 17.869 31.3437C17.869 31.2395 17.7943 31.1614 17.6726 31.1496C17.4375 31.1283 17.1997 31.1117 16.9618 31.0999C16.7184 31.088 16.7295 31.088 16.6465 30.901C16.5442 30.6714 16.4225 30.4466 16.3008 30.2217C16.2731 30.172 16.2676 30.1436 16.3118 30.0986C16.4916 29.9258 16.6631 29.7506 16.8374 29.5755C16.9701 29.4429 16.9673 29.3553 16.8208 29.2299C16.6105 29.05 16.4003 28.8701 16.1901 28.6902C16.0518 28.5718 15.944 28.5695 15.7946 28.6807C15.5899 28.8299 15.3853 28.979 15.1834 29.1328C15.1336 29.1707 15.0976 29.1754 15.0395 29.1447C14.7547 28.9932 14.4449 28.8867 14.1185 28.8157C14.0521 28.8015 14.03 28.7778 14.0272 28.7233C14.0106 28.5103 13.9913 28.2996 13.9719 28.089C13.9691 28.0511 13.9636 28.0132 13.9553 27.9754C13.9304 27.8641 13.8502 27.8049 13.7202 27.8026C13.3938 27.8002 13.0647 27.8002 12.7356 27.8026C12.5364 27.8049 12.4396 27.954 12.5392 28.1032C12.9651 28.7399 13.0066 29.3956 12.6692 30.0702C12.6775 30.0915 12.6692 30.1128 12.6526 30.1459Z" fill="#A1E7D9"/>
<path d="M67.5205 3.81088C66.7276 3.5801 65.9937 3.67241 65.3115 4.12245C64.821 4.4417 64.4744 4.89174 64.2642 5.45717C63.8437 6.58803 64.1756 7.84582 65.0902 8.61512C65.9274 9.31902 67.3435 9.52673 68.4904 8.52665C68.4941 8.56896 68.5015 8.60358 68.5015 8.64204C68.5015 9.40364 68.5015 10.1691 68.5052 10.9307C68.5052 11.0268 68.483 11.0769 68.3908 11.1038C68.2359 11.1461 68.0884 11.2115 67.9335 11.2538C67.8487 11.2769 67.8118 11.3038 67.8045 11.4C67.786 11.7384 67.7565 12.0769 67.7307 12.4193C67.7233 12.4924 67.7196 12.5616 67.7086 12.6347C67.6791 12.8039 67.5648 12.9039 67.4025 12.9039C66.96 12.9078 66.5211 12.9078 66.0786 12.9039C65.9126 12.9039 65.7946 12.8039 65.7762 12.6308C65.743 12.3039 65.7135 11.9731 65.6987 11.6423C65.6803 11.2999 65.6803 11.3153 65.3779 11.1999C65.0275 11.0653 64.6846 10.8961 64.3453 10.7307C64.2605 10.6884 64.2088 10.6768 64.1314 10.7461C63.8659 10.9922 63.5967 11.2307 63.3274 11.4692C63.1209 11.6538 62.9808 11.65 62.789 11.45C62.5087 11.1576 62.2285 10.8653 61.9482 10.573C61.7638 10.3806 61.7601 10.2306 61.9298 10.0229C62.1621 9.73828 62.3944 9.45365 62.6341 9.17285C62.7005 9.09593 62.6968 9.04208 62.6489 8.9613C62.4166 8.56127 62.2469 8.13431 62.14 7.68043C62.1215 7.6035 62.092 7.56888 62.0146 7.56503C61.6827 7.54195 61.3545 7.51503 61.0262 7.48426C60.9562 7.47656 60.8898 7.47272 60.8197 7.46118C60.6648 7.43041 60.5653 7.31501 60.5653 7.15346C60.5616 6.68804 60.5616 6.22262 60.5653 5.75719C60.5653 5.58795 60.6648 5.46102 60.8271 5.44178C61.1406 5.40717 61.4577 5.38024 61.7749 5.36101C62.0994 5.34178 62.0846 5.34178 62.1953 5.03791C62.3317 4.6648 62.494 4.29938 62.6563 3.93397C62.6931 3.85319 62.7005 3.80704 62.6415 3.73395C62.4018 3.45316 62.1732 3.16852 61.9408 2.88389C61.7638 2.66848 61.7675 2.52617 61.963 2.3223C62.2432 2.02997 62.5235 1.73764 62.8038 1.44531C62.9882 1.25299 63.132 1.24914 63.3311 1.42992C63.604 1.67225 63.8769 1.91458 64.1461 2.1646C64.2125 2.22614 64.2605 2.23383 64.3379 2.18383C64.7178 1.93766 65.1308 1.76457 65.566 1.64917C65.6545 1.62609 65.684 1.58763 65.6877 1.49916C65.7098 1.15298 65.7356 0.810642 65.7614 0.468307C65.7651 0.406763 65.7725 0.34522 65.7835 0.283677C65.8167 0.102893 65.9237 0.00673131 66.097 0.00288485C66.5322 -0.000961616 66.971 -0.000961616 67.4099 0.00288485C67.6754 0.00673131 67.8045 0.249058 67.6717 0.491386C67.1038 1.52608 67.0485 2.59155 67.4984 3.6878C67.4873 3.72241 67.4984 3.75703 67.5205 3.81088Z" fill="#A1E7D9"/>
<path d="M66.3883 3.81088C67.0821 3.5801 67.7242 3.67241 68.3212 4.12245C68.7504 4.4417 69.0537 4.89174 69.2376 5.45717C69.6055 6.58803 69.3151 7.84582 68.5148 8.61512C67.7823 9.31902 66.5432 9.52673 65.5396 8.52665C65.5364 8.56896 65.53 8.60358 65.53 8.64204C65.53 9.40364 65.53 10.1691 65.5267 10.9307C65.5267 11.0268 65.5461 11.0769 65.6268 11.1038C65.7623 11.1461 65.8914 11.2115 66.0269 11.2538C66.1011 11.2769 66.1334 11.3038 66.1398 11.4C66.156 11.7384 66.1818 12.0769 66.2044 12.4193C66.2108 12.4924 66.2141 12.5616 66.2237 12.6347C66.2496 12.8039 66.3496 12.9039 66.4916 12.9039C66.8788 12.9078 67.2628 12.9078 67.65 12.9039C67.7952 12.9039 67.8985 12.8039 67.9146 12.6308C67.9437 12.3039 67.9695 11.9731 67.9824 11.6423C67.9985 11.2999 67.9985 11.3153 68.2631 11.1999C68.5697 11.0653 68.8698 10.8961 69.1666 10.7307C69.2408 10.6884 69.286 10.6768 69.3538 10.7461C69.5861 10.9922 69.8217 11.2307 70.0572 11.4692C70.2379 11.6538 70.3606 11.65 70.5284 11.45C70.7736 11.1576 71.0188 10.8653 71.2641 10.573C71.4254 10.3806 71.4286 10.2306 71.2802 10.0229C71.0769 9.73828 70.8736 9.45365 70.6639 9.17285C70.6058 9.09593 70.609 9.04208 70.651 8.9613C70.8543 8.56127 71.0027 8.13431 71.0963 7.68043C71.1124 7.6035 71.1382 7.56888 71.206 7.56503C71.4964 7.54195 71.7836 7.51503 72.0708 7.48426C72.1321 7.47656 72.1902 7.47272 72.2515 7.46118C72.387 7.43041 72.4741 7.31501 72.4741 7.15346C72.4774 6.68804 72.4774 6.22262 72.4741 5.75719C72.4741 5.58795 72.387 5.46102 72.245 5.44178C71.9708 5.40717 71.6932 5.38024 71.4157 5.36101C71.1318 5.34178 71.1447 5.34178 71.0479 5.03791C70.9285 4.6648 70.7865 4.29938 70.6445 3.93397C70.6123 3.85319 70.6058 3.80704 70.6574 3.73395C70.8672 3.45316 71.0672 3.16852 71.2705 2.88389C71.4254 2.66848 71.4222 2.52617 71.2512 2.3223C71.0059 2.02997 70.7607 1.73764 70.5154 1.44531C70.3541 1.25299 70.2283 1.24914 70.054 1.42992C69.8152 1.67225 69.5764 1.91458 69.3409 2.1646C69.2828 2.22614 69.2408 2.23383 69.1731 2.18383C68.8407 1.93766 68.4793 1.76457 68.0985 1.64917C68.0211 1.62609 67.9953 1.58763 67.9921 1.49916C67.9727 1.15298 67.9501 0.810642 67.9275 0.468307C67.9243 0.406763 67.9178 0.34522 67.9082 0.283677C67.8791 0.102893 67.7855 0.00673131 67.6339 0.00288485C67.2531 -0.000961616 66.8691 -0.000961616 66.4851 0.00288485C66.2528 0.00673131 66.1398 0.249058 66.256 0.491386C66.7529 1.52608 66.8013 2.59155 66.4077 3.6878C66.4174 3.72241 66.4077 3.75703 66.3883 3.81088Z" fill="#A1E7D9"/>
</svg>
