<?xml version="1.0" standalone="no"?>
<!DOCTYPE svg PUBLIC "-//W3C//DTD SVG 20010904//EN"
 "http://www.w3.org/TR/2001/REC-SVG-20010904/DTD/svg10.dtd">
<svg version="1.0" xmlns="http://www.w3.org/2000/svg"
 width="700.000000pt" height="700.000000pt" viewBox="0 0 700.000000 700.000000"
 preserveAspectRatio="xMidYMid meet">
<metadata>
Created by potrace 1.11, written by Peter Selinger 2001-2013
</metadata>
<g transform="translate(0.000000,700.000000) scale(0.100000,-0.100000)"
fill="#000000" stroke="none">
<path d="M3030 6985 c-199 -34 -313 -82 -558 -235 -100 -63 -194 -122 -209
-131 -208 -119 -368 -198 -628 -310 -162 -69 -382 -137 -615 -189 -178 -40
-188 -43 -265 -80 -246 -117 -422 -357 -462 -631 -8 -59 -8 -1805 1 -1939 3
-58 8 -118 11 -135 2 -16 6 -50 9 -75 7 -68 45 -265 56 -295 5 -14 12 -40 15
-58 3 -18 22 -81 41 -142 176 -544 497 -1048 970 -1520 152 -152 248 -239 374
-340 41 -33 100 -80 130 -106 238 -199 728 -511 1070 -683 234 -117 238 -118
281 -98 221 103 416 206 609 324 119 73 140 88 115 88 -51 1 -137 11 -225 27
-47 8 -98 17 -115 19 -96 15 -410 123 -518 180 -161 84 -463 270 -635 391
-150 105 -391 298 -532 423 -144 129 -415 414 -469 493 -8 12 -18 24 -21 27
-17 13 -158 213 -220 311 -142 227 -236 436 -320 714 -27 89 -63 285 -77 415
-4 41 -7 494 -7 1005 0 926 0 930 21 975 46 98 109 140 255 170 514 105 1076
342 1598 673 268 170 306 185 474 194 163 9 266 -25 466 -153 122 -79 254
-158 375 -225 64 -35 352 -179 359 -179 2 0 38 -16 79 -35 140 -66 525 -203
615 -220 13 -2 38 -8 55 -14 18 -5 88 -22 157 -36 139 -30 193 -55 239 -114
62 -78 61 -68 61 -691 l0 -568 28 -24 c81 -70 269 -299 324 -395 12 -21 27
-45 34 -53 18 -23 108 -199 130 -255 l19 -50 6 45 c3 25 5 475 4 1000 -1 790
-4 964 -16 1007 -8 28 -17 55 -22 59 -4 4 -7 15 -7 23 0 49 -113 232 -191 310
-33 33 -173 141 -183 141 -2 0 -33 13 -68 29 -57 27 -178 61 -268 76 -19 3
-53 11 -75 16 -22 6 -47 13 -55 14 -46 10 -292 89 -363 116 -339 132 -620 278
-1027 536 -142 89 -319 159 -460 179 -78 11 -299 11 -370 -1z"/>
<path d="M4077 4254 c-1 -1 -45 -4 -97 -8 -129 -8 -158 -13 -286 -46 -101 -26
-548 -191 -567 -210 -5 -4 188 -205 428 -446 481 -481 479 -478 479 -594 1
-193 -176 -317 -365 -255 -51 17 -81 45 -499 461 l-444 443 -44 -112 c-24 -62
-50 -125 -57 -142 -19 -44 -97 -258 -100 -275 -2 -8 -8 -35 -15 -60 -32 -119
-48 -266 -45 -425 2 -88 6 -173 9 -190 4 -16 13 -67 21 -112 43 -234 153 -470
322 -690 137 -176 354 -350 573 -458 121 -59 332 -125 447 -140 21 -3 67 -9
102 -14 68 -9 298 -7 371 4 62 8 193 36 203 42 5 3 203 -188 441 -424 245
-245 455 -445 486 -465 157 -101 324 -146 509 -134 199 13 373 92 522 237 182
180 268 432 234 694 -15 115 -60 232 -133 345 -20 31 -220 240 -461 482 l-424
427 11 53 c7 29 15 64 17 78 15 69 20 161 19 325 -2 204 -19 309 -80 493 -122
365 -390 696 -718 886 -118 69 -313 152 -399 171 -12 2 -40 9 -62 15 -22 5
-56 12 -75 15 -19 3 -44 7 -55 10 -41 8 -261 24 -268 19z m251 -573 c17 -5 32
-8 32 -6 0 9 177 -58 240 -90 355 -180 588 -556 593 -957 2 -161 -20 -270 -91
-458 l-47 -125 515 -515 c283 -284 527 -530 542 -548 48 -58 65 -159 41 -240
-46 -157 -223 -236 -373 -166 -46 21 -137 107 -583 552 -290 290 -533 526
-540 524 -7 -2 -59 -21 -117 -42 -190 -71 -255 -84 -435 -84 -175 0 -240 10
-386 64 -287 105 -528 343 -639 632 -25 64 -56 193 -65 268 l-7 55 123 -121
c172 -169 287 -238 464 -278 69 -15 280 -17 333 -2 12 3 32 8 43 11 45 9 96
29 154 58 282 141 455 417 457 727 1 140 -25 256 -84 375 -24 49 -94 153 -117
175 -3 3 -51 52 -106 109 l-100 103 60 -6 c33 -3 75 -10 93 -15z"/>
</g>
</svg>
