<svg width="42" height="40" viewBox="0 0 42 40" fill="none" xmlns="http://www.w3.org/2000/svg">
<path d="M13.913 0C11.0522 0 8.69565 2.35652 8.69565 5.21739C8.69565 5.8313 8.82261 6.40696 9.02261 6.95652H0V17.3913H1.73913V40H40V17.3913H41.7391V6.95652H32.7165C32.9165 6.40696 33.0435 5.8313 33.0435 5.21739C33.0435 2.35652 30.687 0 27.8261 0C24.7826 0 22.713 2.31304 21.3565 4.24C21.1774 4.49739 21.0296 4.74783 20.8696 5C20.7096 4.74783 20.5617 4.49565 20.3826 4.23826C19.0261 2.31304 16.9565 0 13.913 0ZM13.913 3.47826C15.0017 3.47826 16.4104 4.64348 17.5009 6.19652C17.7652 6.57391 17.727 6.59652 17.9357 6.95652H13.913C12.9304 6.95652 12.1739 6.2 12.1739 5.21739C12.1739 4.23478 12.9304 3.47826 13.913 3.47826ZM27.8261 3.47826C28.8087 3.47826 29.5652 4.23478 29.5652 5.21739C29.5652 6.2 28.8087 6.95652 27.8261 6.95652H23.8035C24.0122 6.59826 23.9739 6.57391 24.2383 6.19478C25.3287 4.64696 26.7391 3.47826 27.8261 3.47826ZM3.47826 10.4348H38.2609V13.913H22.6087V12.1739H19.1304V13.913H3.47826V10.4348ZM5.21739 17.3913H36.5217V36.5217H22.6087V19.1304H19.1304V36.5217H5.21739V17.3913Z" fill="#8C31F6"/>
</svg>
