<svg width="44" height="41" viewBox="0 0 44 41" fill="none" xmlns="http://www.w3.org/2000/svg">
<path d="M7.42049 0L5.24969 2.16771L8.47968 5.39616L10.6474 3.22844L7.42049 0ZM35.7503 0L32.5203 3.22844L34.6896 5.39616L37.918 2.16926L35.7503 0ZM21.5846 0.962058C21.0758 0.968225 20.5609 0.997518 20.0429 1.06073C20.0275 1.06073 20.012 1.05765 19.9966 1.06073C13.7432 1.77765 8.76644 6.82999 7.90152 13.0556C7.21081 18.0663 9.27676 22.6099 12.7195 25.5362C14.1278 26.738 15.0803 28.3873 15.4176 30.2077V39.4582H18.9328C19.4693 40.3787 20.4484 41 21.5846 41C22.7209 41 23.6999 40.3787 24.2365 39.4582H27.7517V33.2912H27.8966V31.4596C27.8966 29.1994 29.0714 26.9207 30.9801 25.1492C33.5333 22.5929 35.4605 18.9621 35.4605 14.7916C35.4605 7.17535 29.1917 0.891137 21.5846 0.962058ZM21.5846 4.04558C27.5435 3.96232 32.3769 8.84045 32.3769 14.7916C32.3769 18.0201 30.8814 20.8631 28.8109 22.9321L28.8602 22.9815C26.8025 24.8789 25.472 27.4353 25.0983 30.2092H18.3546C18.0155 27.5667 16.8823 25.0089 14.7408 23.1742C12.0165 20.8615 10.393 17.3772 10.9357 13.4426C11.6094 8.58606 15.5502 4.68078 20.379 4.14579C20.7776 4.09021 21.1791 4.05726 21.5815 4.04712L21.5846 4.04558ZM0 14.7916V17.8752H4.62528V14.7916H0ZM38.544 14.7916V17.8752H43.1693V14.7916H38.544ZM8.47968 27.2706L5.25123 30.4975L7.42049 32.6668L10.6458 29.4383L8.47968 27.2706ZM34.6896 27.2706L32.5219 29.4383L35.7488 32.6668L37.918 30.4975L34.6896 27.2706ZM18.5011 33.2927H24.6681V36.3763H18.5011V33.2927Z" fill="#8C31F6"/>
</svg>
