<svg width="38" height="28" viewBox="0 0 38 28" fill="none" xmlns="http://www.w3.org/2000/svg">
<path d="M0 12.0652V23.1304C0 23.6827 0.447715 24.1304 1 24.1304H18.5573H36.1146C36.6669 24.1304 37.1146 23.6827 37.1146 23.1304V12.0652V0.999954C37.1146 0.447668 36.6669 -4.57764e-05 36.1146 -4.57764e-05H25H18.5573H12H1C0.447715 -4.57764e-05 0 0.44767 0 0.999954V12.0652ZM35.247 12.0652V21.2628C35.247 21.8151 34.7993 22.2628 34.247 22.2628H18.5573H2.86584C2.31424 22.2628 1.8668 21.8161 1.86584 21.2645L1.8498 12.1245C1.84387 6.5454 1.8498 1.95055 1.86759 1.90904C1.88199 1.86105 4.09561 1.84414 12 1.84573C13.8596 1.8461 16.0342 1.8475 18.5692 1.84976L25 1.85662L34.2481 1.86648C34.7999 1.86707 35.247 2.31461 35.247 2.86648V12.0652Z" fill="white"/>
<path d="M11.3833 6.67569C11.1402 6.75276 10.8912 6.81798 10.826 6.81798C10.7252 6.81798 10.7192 6.85948 10.7607 7.67174L10.8022 8.51956L10.6007 8.64407L10.3931 8.7745L9.71726 8.53735C9.34374 8.40691 8.99987 8.30019 8.94058 8.30019C8.88129 8.30019 8.72714 8.5077 8.51963 8.87529L8.18762 9.45632L8.41291 9.66383C8.53149 9.77648 8.79829 10.0196 8.99987 10.2093C9.33781 10.5117 9.36746 10.565 9.36746 10.7844V11.0275L8.62635 11.401C7.98011 11.7152 7.88524 11.7864 7.91489 11.8871C7.93268 11.9524 8.00975 12.2429 8.08683 12.5393L8.22319 13.0729L9.05323 13.0492L9.88327 13.0314L10.0196 13.2211L10.156 13.4168L9.90698 14.1816C9.76469 14.6026 9.65797 14.9524 9.66983 14.9642C9.73505 15.0117 10.826 15.6223 10.8497 15.6223C10.8675 15.6223 11.1046 15.3674 11.3833 15.0591C11.656 14.7508 11.905 14.4781 11.9347 14.4603C11.9584 14.4425 12.0829 14.4425 12.2014 14.4603C12.4149 14.4958 12.4327 14.5136 12.7765 15.2251C13.0789 15.8417 13.1501 15.9425 13.2509 15.9188C13.6837 15.812 14.4841 15.5927 14.4959 15.5808C14.5018 15.569 14.4841 15.2014 14.4544 14.7626L14.3951 13.9682L14.5671 13.8318C14.656 13.7547 14.7746 13.6954 14.822 13.6954C14.8694 13.6954 15.2252 13.8022 15.6165 13.9326C16.4287 14.2113 16.3042 14.2587 16.7548 13.4642L17.0394 12.9662L16.8319 12.7883C15.9663 12.0235 15.8299 11.8871 15.8299 11.7745C15.8299 11.4543 15.8951 11.3951 16.6066 11.0453L17.3121 10.7014L17.2825 10.4939C17.2647 10.3812 17.1876 10.0729 17.1105 9.81205C16.986 9.38517 16.9564 9.33774 16.8319 9.34367C16.7548 9.3496 16.3813 9.36739 16.0078 9.3911L15.326 9.42668L15.1955 9.21917L15.0651 9.00573L15.2963 8.31205C15.4267 7.93261 15.5335 7.58873 15.5335 7.54723C15.5335 7.47015 14.4307 6.80019 14.3536 6.82984C14.3299 6.8417 14.075 7.10849 13.7845 7.43458C13.2627 8.00968 13.2509 8.01561 13.0256 7.98596C12.9011 7.96818 12.7884 7.94446 12.7825 7.93261C12.7765 7.92668 12.6165 7.60059 12.4267 7.21521C12.0354 6.42075 12.0888 6.45039 11.3833 6.67569ZM13.2864 9.73498C13.4346 9.79426 13.654 9.94841 13.7726 10.067C14.6204 10.9385 14.2765 12.3615 13.1323 12.7587C12.5097 12.9721 11.9406 12.8417 11.4663 12.3674C11.0038 11.9049 10.8615 11.3358 11.0513 10.7073C11.3299 9.78241 12.3556 9.33181 13.2864 9.73498Z" fill="#4978F1"/>
<path d="M23.7977 7.98606C23.7087 8.5078 23.2878 10.6007 23.2344 10.8023C23.187 10.9801 23.1455 11.0276 22.9914 11.0631C22.8846 11.0809 22.689 11.1521 22.5467 11.2114L22.2977 11.3181L20.9578 10.4287L19.6119 9.53349L19.4637 9.67578C19.3807 9.75286 18.9301 10.1975 18.4558 10.6659L17.602 11.5197L18.4558 12.8003C18.9242 13.5058 19.3273 14.1165 19.351 14.158C19.3985 14.2351 19.1257 14.9821 19.0131 15.0948C18.9716 15.1363 18.355 15.2785 17.6376 15.4149C16.9202 15.5513 16.2265 15.6936 16.0961 15.7291L15.8589 15.8003L15.8471 17.1817C15.8412 18.2074 15.853 18.5691 15.9064 18.5928C15.9479 18.6046 16.5111 18.7232 17.1633 18.8536C18.9835 19.2153 19.0427 19.2272 19.0783 19.328C19.0902 19.3754 19.1732 19.5829 19.2503 19.7904L19.3985 20.158L19.0072 20.739L18.6218 21.3141L25.2384 21.3319C28.8787 21.3378 31.8669 21.3319 31.8787 21.32C31.8906 21.3082 31.7305 21.0414 31.517 20.7331L31.1376 20.1639L31.2977 19.743C31.3866 19.5117 31.4874 19.2983 31.517 19.2687C31.5467 19.239 32.2463 19.0789 33.0763 18.9129C33.9064 18.7469 34.606 18.5987 34.6356 18.5809C34.6593 18.5631 34.6831 17.9228 34.6831 17.1639V15.7706L34.5526 15.741C34.4755 15.7232 33.8056 15.5928 33.0526 15.4446C32.3056 15.2963 31.6475 15.16 31.5941 15.1422C31.5408 15.1303 31.4103 14.911 31.3095 14.6679L31.1257 14.2173L32.0151 12.8833C32.5072 12.1481 32.9044 11.5374 32.9044 11.5256C32.9044 11.4841 30.9716 9.54535 30.9301 9.54535C30.9064 9.54535 30.2898 9.94258 29.5605 10.4347L28.2325 11.3181L27.8708 11.1758C27.6752 11.0928 27.4736 11.0276 27.4261 11.0276C27.3846 11.0276 27.3253 10.9564 27.3076 10.8734C27.2661 10.7252 26.6791 7.82005 26.6791 7.78448C26.6791 7.77262 26.0388 7.76669 25.2562 7.76669H23.8392L23.7977 7.98606ZM26.2048 14.0335C26.9222 14.2351 27.7226 14.8695 28.1257 15.5513C28.3985 16.0256 28.5348 16.5651 28.5348 17.1936C28.5408 18.0948 28.2384 18.8181 27.5921 19.4702C26.9222 20.1461 26.1989 20.4544 25.2799 20.4544C22.7661 20.4544 21.2127 17.8398 22.3925 15.5809C22.7601 14.8695 23.7028 14.158 24.4854 13.9979C24.6633 13.9623 24.8649 13.9208 24.9301 13.909C25.1317 13.8616 25.8609 13.9327 26.2048 14.0335Z" fill="#4978F1"/>
<rect x="11" y="26" width="15" height="2" fill="white"/>
</svg>
