<svg width="21" height="21" viewBox="0 0 21 21" fill="none" xmlns="http://www.w3.org/2000/svg">
<path d="M0.600435 2.18217L0.635126 2.1605L5.02049 0L9.75377 6.31103L7.57611 9.21477C7.64127 10.3098 8.10566 11.343 8.88137 12.1187C9.65708 12.8944 10.6903 13.3588 11.7853 13.4239L14.689 11.2463L21 15.9795L18.8575 20.3282L18.8395 20.3649L18.8177 20.3995C18.7034 20.5837 18.5438 20.7356 18.3542 20.8407C18.1645 20.9459 17.9511 21.0007 17.7343 21H16.6027C14.4224 21 12.2635 20.5706 10.2491 19.7362C8.2348 18.9018 6.40452 17.6789 4.86281 16.1371C3.32111 14.5954 2.09816 12.7652 1.2638 10.7508C0.42944 8.73648 0 6.57752 7.62939e-06 4.39721V3.26559C-0.000686646 3.04877 0.0541248 2.83538 0.159225 2.64574C0.264326 2.4561 0.416216 2.29651 0.600435 2.18217ZM1.6206 4.39721C1.6206 12.6584 8.34158 19.3794 16.6027 19.3794H17.5184L18.9519 16.4693L14.6887 13.2719L12.3152 15.052H12.0451C10.4285 15.0502 8.87868 14.4072 7.73557 13.2641C6.59247 12.121 5.94948 10.5711 5.94767 8.95451V8.68443L7.72773 6.31098L4.53072 2.04807L1.6206 3.48183V4.39721Z" fill="#805DE2"/>
</svg>
