<svg width="17" height="22" viewBox="0 0 17 22" fill="none" xmlns="http://www.w3.org/2000/svg">
<path d="M8.15234 5.15625C7.559 5.15625 6.97898 5.3322 6.48563 5.66184C5.99229 5.99149 5.60777 6.46002 5.38071 7.0082C5.15364 7.55638 5.09423 8.15958 5.20999 8.74152C5.32574 9.32346 5.61147 9.85801 6.03102 10.2776C6.45058 10.6971 6.98513 10.9829 7.56707 11.0986C8.14902 11.2144 8.75222 11.155 9.3004 10.9279C9.84857 10.7008 10.3171 10.3163 10.6468 9.82296C10.9764 9.32961 11.1523 8.74959 11.1523 8.15625C11.1514 7.36088 10.8351 6.59834 10.2727 6.03593C9.71025 5.47352 8.94772 5.15716 8.15234 5.15625ZM8.15234 9.65625C7.85567 9.65625 7.56566 9.56828 7.31899 9.40345C7.07232 9.23863 6.88006 9.00436 6.76653 8.73028C6.65299 8.45619 6.62329 8.15459 6.68117 7.86361C6.73904 7.57264 6.88191 7.30537 7.09168 7.09559C7.30146 6.88581 7.56874 6.74295 7.85971 6.68507C8.15068 6.62719 8.45228 6.6569 8.72637 6.77043C9.00046 6.88396 9.23473 7.07622 9.39955 7.32289C9.56437 7.56957 9.65235 7.85958 9.65235 8.15625C9.65189 8.55393 9.4937 8.9352 9.2125 9.2164C8.93129 9.49761 8.55003 9.65579 8.15234 9.65625Z" fill="#805DE2"/>
<path d="M13.9166 2.38712C12.4913 0.962136 10.5886 0.11564 8.57587 0.0110023C6.56311 -0.0936351 4.58293 0.551004 3.01751 1.8205C1.45209 3.09 0.412406 4.89437 0.0991169 6.88535C-0.214173 8.87633 0.221142 10.9128 1.32105 12.6017L6.98856 21.3023C7.11468 21.4959 7.28713 21.655 7.49027 21.7651C7.69341 21.8752 7.92082 21.9329 8.15188 21.9329C8.38294 21.9329 8.61035 21.8752 8.81349 21.7651C9.01663 21.655 9.18908 21.4959 9.3152 21.3023L14.9829 12.6017C16.0035 11.035 16.4545 9.16509 16.2604 7.3054C16.0663 5.44571 15.2388 3.70926 13.9166 2.38712ZM13.7261 11.7829L8.15191 20.34L2.57767 11.7829C0.87142 9.1636 1.23737 5.65829 3.44781 3.44776C4.06556 2.82999 4.79893 2.33996 5.60606 2.00563C6.41319 1.6713 7.27827 1.49922 8.15191 1.49922C9.02554 1.49922 9.89062 1.6713 10.6978 2.00563C11.5049 2.33996 12.2383 2.82999 12.856 3.44776C15.0664 5.65829 15.4323 9.1636 13.7261 11.7829Z" fill="#805DE2"/>
</svg>
