<svg width="39" height="42" viewBox="0 0 39 42" fill="none" xmlns="http://www.w3.org/2000/svg">
<path d="M19.3945 0C18.3989 0 17.4033 0.339834 16.5545 0.947706L13.9061 2.79206L10.8683 3.19093H10.8204L10.7694 3.23879C9.77047 3.46367 8.8559 3.96748 8.13203 4.69164C7.40815 5.4158 6.9047 6.33056 6.68021 7.32957L6.63235 7.37743V7.42849L6.23348 10.5205L4.38912 12.9137L4.33807 12.9616V13.0126C3.22444 14.7963 3.17338 17.097 4.38912 18.7962L6.27975 21.4431L6.78073 24.1841L1.64333 32.013L0 34.4541H7.62792L9.47228 38.7427L10.621 41.4869L12.2643 38.9932L17.3028 31.4147C18.6526 31.9731 20.1842 32.021 21.4893 31.4147L26.5262 38.9932L28.1695 41.4821L29.3183 38.7379L31.161 34.4525H38.7889L37.1456 32.0082L32.1582 24.4314L32.5571 21.4399L34.4014 18.7978L34.4525 18.7499V18.702C35.5661 16.9151 35.6172 14.6687 34.4014 12.9663L32.5571 10.3227L31.9588 7.32957H32.0066C32.0066 7.28968 31.9635 7.26575 31.9588 7.22905C31.6716 5.14378 30.0171 3.4478 27.9222 3.19253H27.8712L24.8797 2.79366L22.236 0.949302C21.4108 0.344624 20.4174 0.0127412 19.3945 0ZM19.3945 3.23879C19.7614 3.23879 20.1252 3.35048 20.3916 3.54193L23.2316 5.58413L23.5826 5.83302L23.9814 5.88408L27.4723 6.38186H27.5202C28.2349 6.46163 28.7391 6.96421 28.8173 7.67897V7.77789L29.4666 11.3198L29.5145 11.666L29.765 11.966L31.8072 14.8059C32.1901 15.3404 32.238 16.2323 31.7593 17.0013L29.765 19.7933L29.5161 20.1443L29.465 20.5432L28.9673 24.0309V24.0788C28.9424 24.3285 28.857 24.5684 28.7184 24.7776L28.6179 24.8286V24.8797C28.3801 25.1635 28.0403 25.3423 27.6717 25.3775H27.5728L23.9352 26.0268L23.5363 26.0747L23.2332 26.3252L20.3932 28.3674C19.8619 28.7503 18.919 28.7981 18.15 28.3195L15.5558 26.3252L15.2558 26.0763L14.8091 26.0252L11.3166 25.5274H11.2656C11.0398 25.509 10.8219 25.4357 10.6309 25.3139C10.4399 25.1921 10.2815 25.0255 10.1695 24.8286C10.0625 24.6449 9.99411 24.4414 9.96847 24.2303V24.1314L9.32071 20.4937L9.26965 20.0949L9.02076 19.7917L6.97857 16.9518C6.59565 16.4205 6.54779 15.4776 7.02643 14.7086L9.02076 12.1144L9.26965 11.8144L9.31752 11.3677L9.76903 8.02519C9.77222 8.00285 9.81051 8.00126 9.8169 7.97733C9.91697 7.59356 10.1176 7.24341 10.398 6.96297C10.6784 6.68253 11.0286 6.48194 11.4124 6.38186C11.4363 6.37548 11.4379 6.33719 11.4602 6.334L14.8027 5.88408L15.2016 5.83302L15.5526 5.58413L18.3925 3.54193C18.659 3.35048 19.0243 3.23879 19.3897 3.23879H19.3945ZM30.4128 27.5218L32.857 31.2615H29.0151L28.6163 32.2587L27.5218 34.8003L24.1314 29.615L24.8781 29.0662L28.018 28.5157V28.5636C28.0578 28.5636 28.0818 28.5205 28.1185 28.5157C28.9576 28.3941 29.7487 28.0498 30.4096 27.5186L30.4128 27.5218ZM8.37619 27.5696C9.05746 28.1791 9.91901 28.6035 10.8683 28.7184H10.9162L13.9603 29.1172L14.6575 29.6661L11.2688 34.8003L10.1727 32.2587L9.77382 31.2599H5.92875L8.373 27.5696H8.37619Z" fill="#8C31F6"/>
</svg>
