<?xml version="1.0" standalone="no"?>
<!DOCTYPE svg PUBLIC "-//W3C//DTD SVG 20010904//EN"
 "http://www.w3.org/TR/2001/REC-SVG-20010904/DTD/svg10.dtd">
<svg version="1.0" xmlns="http://www.w3.org/2000/svg"
 width="700.000000pt" height="700.000000pt" viewBox="0 0 700.000000 700.000000"
 preserveAspectRatio="xMidYMid meet">
<metadata>
Created by potrace 1.14, written by Peter Selinger 2001-2017
</metadata>
<g transform="translate(0.000000,700.000000) scale(0.100000,-0.100000)"
fill="#000000" stroke="none">
<path d="M330 6985 c-69 -19 -141 -59 -191 -107 -61 -58 -103 -123 -95 -145 4
-10 3 -14 -1 -9 -4 4 -16 -16 -25 -46 -15 -49 -16 -285 -17 -3174 0 -3280 -2
-3146 40 -3251 8 -18 17 -33 21 -33 4 0 8 -6 8 -14 0 -19 102 -122 140 -141
17 -9 30 -12 30 -8 0 4 6 0 13 -9 6 -9 41 -23 77 -32 59 -14 375 -15 3175 -15
3154 0 3134 0 3220 33 70 27 185 116 185 144 0 7 4 12 8 12 12 0 53 87 68 145
11 40 13 604 13 3166 0 3354 3 3157 -52 3265 -27 53 -106 144 -125 144 -7 0
-12 4 -12 8 0 12 -108 60 -160 72 -72 15 -6263 11 -6320 -5z"/>
</g>
</svg>
