<?xml version="1.0" standalone="no"?>
<!DOCTYPE svg PUBLIC "-//W3C//DTD SVG 20010904//EN"
 "http://www.w3.org/TR/2001/REC-SVG-20010904/DTD/svg10.dtd">
<svg version="1.0" xmlns="http://www.w3.org/2000/svg"
 width="700.000000pt" height="700.000000pt" viewBox="0 0 700.000000 700.000000"
 preserveAspectRatio="xMidYMid meet">
<metadata>
Created by potrace 1.14, written by Peter Selinger 2001-2017
</metadata>
<g transform="translate(0.000000,700.000000) scale(0.100000,-0.100000)"
fill="#000000" stroke="none">
<path d="M332 6985 c-23 -7 -50 -16 -60 -21 -9 -4 -19 -8 -22 -9 -76 -19 -239
-206 -214 -246 4 -7 3 -9 -3 -6 -30 19 -32 -106 -32 -3204 0 -3275 -2 -3141
40 -3246 8 -18 17 -33 21 -33 4 0 8 -6 8 -14 0 -8 10 -22 22 -30 12 -9 18 -16
13 -16 -5 0 11 -18 35 -41 55 -50 137 -93 206 -107 68 -15 6237 -16 6304 -1
44 9 63 16 128 48 38 19 132 104 132 120 0 6 4 11 8 11 10 0 51 83 68 139 19
65 20 6263 0 6337 -41 156 -140 259 -303 315 -50 17 -186 18 -3180 18 -2555
-1 -3136 -3 -3171 -14z m238 -3181 c0 -8 -19 -13 -24 -6 -3 5 1 9 9 9 8 0 15
-2 15 -3z"/>
</g>
</svg>
