<?xml version="1.0" standalone="no"?>
<!DOCTYPE svg PUBLIC "-//W3C//DTD SVG 20010904//EN"
 "http://www.w3.org/TR/2001/REC-SVG-20010904/DTD/svg10.dtd">
<svg version="1.0" xmlns="http://www.w3.org/2000/svg"
 width="736.000000pt" height="736.000000pt" viewBox="0 0 736.000000 736.000000"
 preserveAspectRatio="xMidYMid meet">
<metadata>
Created by potrace 1.14, written by Peter Selinger 2001-2017
</metadata>
<g transform="translate(0.000000,736.000000) scale(0.100000,-0.100000)"
fill="#000000" stroke="none">
<path d="M3179 7196 c-2 -2 -33 -6 -69 -9 -88 -8 -251 -35 -325 -54 -33 -8
-71 -17 -85 -20 -14 -2 -49 -11 -79 -20 -29 -8 -59 -16 -65 -18 -6 -1 -18 -5
-26 -8 -8 -3 -53 -18 -100 -32 -184 -59 -638 -259 -648 -286 -2 -5 -7 -9 -12
-9 -10 0 -151 -87 -225 -138 -47 -33 -256 -194 -281 -217 -6 -5 -38 -32 -70
-60 -33 -27 -106 -97 -164 -155 -78 -78 -109 -117 -121 -151 -15 -41 -16 -112
-13 -680 1 -349 4 -642 6 -651 11 -50 29 -25 136 187 92 180 124 238 135 243
4 2 7 8 7 14 0 17 126 199 213 308 118 147 242 270 422 419 11 9 42 32 70 51
27 19 54 39 60 43 45 35 193 123 291 172 65 33 122 65 126 70 4 6 8 6 8 1 0
-4 10 -2 23 6 19 12 59 30 192 83 11 5 22 9 25 10 3 1 48 15 102 33 53 17 129
39 170 47 40 9 82 18 93 21 21 5 82 14 125 19 14 1 48 6 75 9 49 7 198 18 223
17 29 -2 39 -1 82 2 25 1 57 0 72 -4 15 -4 30 -3 34 2 3 5 9 7 14 4 4 -3 49
-7 99 -10 50 -3 104 -7 119 -9 15 -3 51 -8 81 -11 30 -4 63 -9 75 -11 12 -2
37 -7 56 -10 19 -3 37 -7 40 -9 3 -2 25 -6 50 -10 25 -4 48 -9 52 -12 5 -2 21
-7 36 -9 15 -3 70 -19 122 -35 145 -46 136 -43 290 -109 94 -40 264 -130 268
-142 2 -4 9 -8 15 -8 13 0 120 -71 125 -82 2 -5 8 -8 13 -8 6 0 24 -10 41 -22
191 -137 407 -343 557 -532 53 -67 73 -94 124 -171 15 -22 30 -44 35 -50 18
-23 72 -116 72 -124 0 -5 4 -11 8 -13 13 -5 126 -237 175 -358 43 -108 106
-301 112 -345 1 -11 8 -38 13 -60 6 -22 14 -53 16 -70 3 -16 8 -39 10 -50 3
-18 10 -63 21 -150 28 -211 23 -606 -10 -761 -3 -12 -7 -39 -10 -60 -3 -21
-10 -59 -16 -84 -5 -25 -12 -55 -14 -68 -3 -12 -7 -31 -10 -42 -3 -11 -7 -28
-9 -37 -8 -36 -48 -169 -56 -188 -5 -11 -17 -44 -26 -73 -9 -29 -20 -55 -25
-58 -5 -3 -9 -16 -9 -30 0 -13 -4 -24 -10 -24 -5 0 -10 -7 -10 -15 0 -9 -28
-70 -62 -138 -33 -67 -66 -132 -72 -144 -6 -13 -14 -23 -18 -23 -5 0 -8 -4 -8
-10 0 -5 -13 -31 -30 -57 -43 -69 -52 -83 -77 -113 -13 -15 -23 -31 -23 -35 0
-18 -188 -234 -305 -350 -104 -103 -252 -231 -350 -303 -63 -46 -139 -92 -150
-92 -8 0 -15 -4 -15 -9 0 -7 -301 -164 -319 -167 -3 0 -17 -6 -31 -11 -101
-44 -306 -116 -360 -127 -14 -3 -40 -9 -58 -15 -18 -5 -35 -10 -37 -10 -5 1
-69 -10 -105 -16 -60 -11 -100 -28 -113 -49 -15 -22 -14 -26 9 -57 75 -99 107
-199 107 -324 0 -88 -7 -121 -42 -208 -17 -43 -31 -86 -31 -97 0 -27 27 -38
80 -35 52 3 165 20 165 25 0 1 9 3 20 5 11 1 43 8 70 15 28 6 57 13 65 15 8 2
30 8 48 14 18 5 33 10 35 10 1 0 9 2 17 4 8 3 56 17 105 32 98 29 242 79 291
100 16 8 61 28 100 45 109 49 157 73 187 93 15 10 27 15 27 12 0 -3 12 2 28
12 54 36 67 43 95 54 15 6 27 15 27 19 0 5 9 11 19 15 41 13 270 174 391 274
30 26 63 53 73 61 74 58 254 239 355 355 152 175 329 422 392 546 13 24 25 46
29 49 3 3 40 75 82 160 68 137 86 175 119 255 67 157 65 156 261 161 146 3
181 12 243 59 41 31 83 116 93 188 9 60 10 1797 1 1842 -24 127 -67 188 -163
231 -63 29 -95 34 -228 39 -67 3 -118 10 -136 19 -27 15 -71 75 -71 98 0 18
-181 382 -234 471 -25 43 -46 83 -46 88 0 5 -4 9 -10 9 -5 0 -10 7 -10 15 0 8
-4 15 -10 15 -5 0 -10 5 -10 11 0 15 -92 144 -200 279 -138 173 -352 392 -500
510 -24 19 -48 40 -54 45 -6 6 -29 24 -51 40 -22 17 -44 34 -50 38 -5 4 -41
30 -80 57 -38 27 -75 54 -82 60 -7 5 -14 10 -17 10 -3 0 -47 26 -99 59 -118
73 -384 206 -513 257 -55 21 -101 39 -104 39 -3 0 -9 3 -15 7 -27 16 -362 110
-445 124 -14 2 -46 9 -72 15 -26 6 -51 8 -57 5 -5 -4 -12 -2 -16 3 -3 5 -13 9
-23 9 -9 0 -32 2 -51 6 -19 4 -55 9 -80 12 -58 6 -736 16 -742 10z m3776
-2681 c78 -20 142 -109 131 -181 -12 -70 -67 -137 -124 -150 -15 -3 -33 -7
-39 -10 -7 -2 -13 0 -13 4 0 4 -11 8 -25 8 -29 2 -88 44 -112 80 -52 80 5 214
107 252 26 10 27 10 75 -3z m23 -1314 c48 -25 80 -56 94 -89 34 -86 2 -174
-79 -215 -52 -27 -94 -27 -150 -1 -43 21 -54 32 -70 72 -41 98 -3 197 90 237
44 19 71 18 115 -4z"/>
<path d="M225 7115 c-107 -52 -169 -118 -206 -217 -20 -52 -20 -74 -14 -1583
5 -1537 8 -1794 19 -2025 7 -131 8 -142 32 -258 21 -100 201 -646 244 -737 5
-11 26 -60 46 -110 38 -96 141 -303 182 -370 92 -148 157 -240 243 -345 78
-96 333 -358 462 -475 56 -52 226 -185 235 -185 6 0 12 -4 14 -8 4 -11 124
-92 137 -92 5 0 11 -4 13 -8 12 -30 631 -332 679 -332 5 0 17 -4 27 -10 49
-26 366 -116 477 -135 17 -3 68 -11 115 -19 47 -8 112 -17 145 -21 33 -3 85
-8 115 -11 30 -4 127 -7 215 -8 l160 -1 70 35 c83 41 152 106 184 175 29 62
35 92 34 181 -1 110 -64 226 -158 291 -43 30 -139 60 -211 67 -33 4 -71 9 -85
11 -13 2 -58 7 -99 10 -41 3 -93 8 -115 10 -22 3 -58 7 -80 10 -22 2 -49 6
-60 8 -11 3 -40 8 -65 12 -25 3 -58 10 -75 15 -16 5 -43 12 -60 14 -63 11
-260 75 -395 129 -157 62 -565 294 -578 328 -2 5 -10 9 -17 9 -7 0 -15 3 -17
8 -2 4 -23 23 -48 42 -141 109 -376 354 -505 525 -201 266 -356 597 -451 965
-41 158 -43 164 -49 210 -3 19 -7 44 -9 55 -6 31 -19 201 -22 300 -1 50 -5
527 -8 1060 -9 1451 -15 2154 -21 2209 -6 66 -12 83 -48 136 -42 62 -81 95
-155 132 -53 26 -77 32 -145 34 -76 3 -87 1 -152 -31z"/>
<path d="M2557 3854 c-1 -1 -38 -4 -82 -8 -90 -6 -132 -13 -190 -28 -22 -5
-47 -11 -55 -13 -65 -13 -265 -86 -384 -140 -30 -14 -60 -25 -65 -25 -6 0 -11
-3 -11 -8 0 -4 -15 -14 -32 -21 -63 -28 -327 -198 -358 -231 -3 -3 -34 -27
-70 -55 -83 -63 -208 -188 -220 -220 -16 -42 8 -140 80 -320 55 -139 206 -438
230 -455 3 -3 9 -12 12 -20 7 -18 133 -195 157 -219 9 -10 34 -39 56 -65 50
-61 200 -211 251 -251 20 -16 44 -36 52 -44 19 -19 140 -109 175 -129 15 -9
27 -20 27 -24 0 -4 4 -8 10 -8 5 0 33 -15 63 -32 29 -18 61 -38 72 -45 38 -23
164 -85 171 -83 4 1 10 -2 13 -8 16 -23 395 -157 501 -176 14 -3 36 -8 50 -11
81 -19 225 -26 560 -27 l285 -1 142 32 c149 33 340 90 389 116 16 8 33 15 37
15 16 0 242 112 245 121 2 5 10 9 18 9 37 0 366 226 473 324 89 83 175 173
230 241 31 39 61 75 66 81 6 6 17 22 25 34 8 12 29 41 46 64 108 143 252 418
319 604 55 156 101 348 111 462 1 19 3 35 4 35 7 0 14 144 14 281 1 184 -8
218 -53 208 -26 -7 -122 -54 -131 -65 -3 -4 -25 -17 -50 -29 -25 -12 -48 -27
-51 -32 -3 -5 -12 -10 -20 -12 -8 -1 -42 -17 -76 -34 -35 -18 -63 -30 -63 -27
0 3 -10 -1 -22 -9 -33 -21 -249 -92 -343 -112 -62 -14 -133 -18 -317 -19 -139
0 -238 3 -238 8 0 5 -6 4 -13 -2 -8 -6 -16 -9 -18 -7 -2 2 -40 7 -84 11 -44 4
-83 9 -87 12 -4 2 -24 6 -45 8 -21 2 -65 11 -98 20 -33 9 -70 18 -83 21 -12 2
-64 16 -115 30 -50 14 -126 34 -167 45 -92 26 -120 33 -190 52 -52 15 -104 29
-285 77 -41 11 -83 22 -93 24 -9 1 -24 6 -32 9 -8 3 -28 8 -45 11 -41 7 -87
16 -105 21 -8 2 -40 7 -70 10 -30 3 -73 8 -95 11 -69 8 -422 23 -428 18z
m2538 -730 c21 -10 41 -31 54 -56 20 -40 20 -41 1 -78 -20 -39 -52 -65 -93
-75 -21 -6 -34 1 -66 32 -65 61 -64 133 1 173 40 24 60 25 103 4z m-636 -251
c40 -29 64 -87 56 -131 -9 -51 -83 -122 -126 -122 -65 0 -129 57 -136 121 -12
117 115 198 206 132z m469 -498 c105 -67 119 -188 30 -263 -72 -62 -148 -59
-218 8 -37 36 -45 52 -54 110 -6 38 39 112 85 142 47 31 111 32 157 3z"/>
<path d="M11 2558 c-9 -24 -8 -1917 1 -1978 15 -98 36 -170 49 -170 4 0 10 -8
14 -19 17 -56 150 -146 253 -172 99 -25 231 20 320 109 49 48 84 105 97 157 4
17 9 199 10 405 2 285 0 382 -10 406 -7 17 -60 94 -117 170 -100 133 -193 270
-234 344 -10 19 -24 42 -30 50 -34 44 -252 517 -260 565 -3 19 -67 145 -75
151 -5 3 -13 -5 -18 -18z"/>
</g>
</svg>
