<?xml version="1.0" standalone="no"?>
<!DOCTYPE svg PUBLIC "-//W3C//DTD SVG 20010904//EN"
 "http://www.w3.org/TR/2001/REC-SVG-20010904/DTD/svg10.dtd">
<svg version="1.0" xmlns="http://www.w3.org/2000/svg"
 width="700.000000pt" height="700.000000pt" viewBox="0 0 700.000000 700.000000"
 preserveAspectRatio="xMidYMid meet">
<metadata>
Created by potrace 1.14, written by Peter Selinger 2001-2017
</metadata>
<g transform="translate(0.000000,700.000000) scale(0.100000,-0.100000)"
fill="#000000" stroke="none">
<path d="M335 6988 c-166 -55 -267 -151 -313 -299 -20 -63 -20 -90 -21 -3185
0 -3335 -3 -3158 48 -3265 23 -49 110 -149 129 -149 7 0 12 -4 12 -8 0 -12
108 -61 161 -72 63 -13 6236 -13 6298 1 25 5 53 12 61 16 8 3 20 7 27 9 22 4
119 73 146 103 39 45 87 134 103 193 19 74 21 4673 1 4662 -9 -6 -9 -4 1 8 18
23 17 1593 -2 1664 -41 156 -155 272 -314 320 -39 11 -554 13 -3176 12 -2040
0 -3141 -4 -3161 -10z"/>
</g>
</svg>
