<?xml version="1.0" standalone="no"?>
<!DOCTYPE svg PUBLIC "-//W3C//DTD SVG 20010904//EN"
 "http://www.w3.org/TR/2001/REC-SVG-20010904/DTD/svg10.dtd">
<svg version="1.0" xmlns="http://www.w3.org/2000/svg"
 width="192.000000pt" height="192.000000pt" viewBox="0 0 192.000000 192.000000"
 preserveAspectRatio="xMidYMid meet">
<metadata>
Created by potrace 1.11, written by Peter Selinger 2001-2013
</metadata>
<g transform="translate(0.000000,192.000000) scale(0.100000,-0.100000)"
fill="#000000" stroke="none">
<path d="M0 960 l0 -960 960 0 960 0 0 960 0 960 -960 0 -960 0 0 -960z m1668
78 l2 -458 -710 0 -710 0 0 453 c0 250 3 457 7 460 3 4 322 6 707 5 l701 -3 3
-457z m-428 -573 l0 -35 -280 0 -280 0 0 35 0 35 280 0 280 0 0 -35z"/>
<path d="M320 1035 l0 -395 638 2 637 3 3 393 2 392 -640 0 -640 0 0 -395z"/>
</g>
</svg>
