<svg width="119" height="35" fill="none" xmlns="http://www.w3.org/2000/svg"><g clip-path="url(#clip0_47_614)"><path d="M45.232 14h1.729v-3.536h1.3c1.989 0 3.406-.871 3.406-2.834v-.052c0-1.95-1.365-2.873-3.445-2.873h-2.99V14zm1.729-4.784V6.044h1.261c1.105 0 1.755.429 1.755 1.534v.052c0 1.027-.611 1.586-1.755 1.586h-1.261zm8.863 4.914c1.742 0 2.898-.78 3.12-2.21h-1.522c-.116.663-.61 1.04-1.56 1.04-1.17 0-1.82-.728-1.872-2.015h4.98v-.455c0-2.431-1.521-3.432-3.212-3.432-1.937 0-3.38 1.404-3.38 3.51v.104c0 2.145 1.444 3.458 3.446 3.458zm-1.807-4.238c.155-1.053.792-1.69 1.741-1.69.975 0 1.573.52 1.651 1.69h-3.392zM63.793 14h.52l2.145-5.135V14h1.547V7.201h-2.04l-1.716 4.238-1.703-4.238h-2.172V14h1.352V8.865L63.794 14zm9.12.13c2.001 0 3.496-1.378 3.496-3.497v-.104c0-2.08-1.495-3.471-3.484-3.471-2.002 0-3.497 1.404-3.497 3.51v.104c0 2.067 1.482 3.458 3.484 3.458zm.012-1.222c-1.196 0-1.885-.871-1.885-2.262v-.104c0-1.404.715-2.249 1.885-2.249s1.872.858 1.872 2.262v.091c0 1.391-.702 2.262-1.872 2.262zm9.3 1.092h1.573V7.201h-1.573v2.743h-2.822V7.201H77.83V14h1.573v-2.886h2.822V14zm8.522-6.799h-5.734v1.17h2.08V14h1.573V8.371h2.08v-1.17zM49.222 29h1.82l-2.86-3.653 2.639-3.146h-1.716l-2.431 3.016v-3.016h-1.573V29h1.573v-3.328L49.223 29zm5.598.13c2.002 0 3.497-1.378 3.497-3.497v-.104c0-2.08-1.495-3.471-3.484-3.471-2.002 0-3.497 1.404-3.497 3.51v.104c0 2.067 1.482 3.458 3.484 3.458zm.013-1.222c-1.196 0-1.885-.871-1.885-2.262v-.104c0-1.404.715-2.249 1.885-2.249s1.872.858 1.872 2.262v.091c0 1.391-.702 2.262-1.872 2.262zm9.638-5.837v-3.016h-1.547v3.016c-2.015.091-3.588 1.313-3.588 3.497v.104c0 2.184 1.573 3.354 3.588 3.445v2.21h1.547v-2.21c2.002-.078 3.575-1.313 3.575-3.497v-.104c0-2.171-1.573-3.354-3.575-3.445zm0 1.157c1.183.065 1.976.884 1.976 2.34v.091c0 1.417-.806 2.249-1.976 2.314v-4.745zm-1.547 4.732c-1.196-.065-1.99-.871-1.99-2.327v-.104c0-1.417.807-2.249 1.99-2.301v4.732zm9.58 1.17c1.742 0 2.9-.78 3.12-2.21h-1.52c-.118.663-.612 1.04-1.56 1.04-1.17 0-1.82-.728-1.873-2.015h4.98v-.455c0-2.431-1.522-3.432-3.212-3.432-1.937 0-3.38 1.404-3.38 3.51v.104c0 2.145 1.443 3.458 3.445 3.458zm-1.807-4.238c.156-1.053.793-1.69 1.742-1.69.975 0 1.573.52 1.651 1.69h-3.393zM80.475 29h.52l2.145-5.135V29h1.547v-6.799h-2.04l-1.717 4.238-1.703-4.238h-2.17V29h1.351v-5.135L80.475 29zm8.248-1.001c-.78 0-1.092-.377-1.092-.949 0-.832.767-1.105 1.963-1.105h.806v.676c0 .871-.715 1.378-1.677 1.378zm-.377 1.131c1.04 0 1.638-.377 2.08-.962V29h1.547v-4.459c0-1.859-1.196-2.483-2.717-2.483-1.521 0-2.782.663-2.912 2.249h1.52c.079-.676.482-1.066 1.3-1.066.924 0 1.236.455 1.236 1.365v.351h-.845c-1.95 0-3.484.572-3.484 2.158 0 1.417 1.027 2.015 2.275 2.015zm5.43-.13h8.853v-6.799h-1.573v5.629h-2.067v-5.629h-1.573v5.629h-2.067v-5.629h-1.573V29zm12.3 0l2.938-4.81V29h1.56v-6.799h-1.56l-2.938 4.81v-4.81h-1.573V29h1.573zm10.705 0h1.573v-6.799h-1.573v2.743h-2.821v-2.743h-1.573V29h1.573v-2.886h2.821V29z" fill="#fff"/><path fill-rule="evenodd" clip-rule="evenodd" d="M14.795.175c-4.737.8-8.761 3.302-11.512 7.154C1.466 9.875.447 12.621.086 15.95c-.27 2.48.098 5.182 1.046 7.701a17.587 17.587 0 008.712 9.61c1.623.797 3.067 1.26 4.934 1.578.74.126 1.231.154 2.787.16 1.734.008 1.975-.007 2.952-.183 3.356-.604 5.956-1.839 8.63-4.098 1.588-1.342 3.165-3.394 4.136-5.38 1.24-2.538 1.84-4.956 1.857-7.482.033-4.79-1.669-9.137-4.88-12.473a16.6 16.6 0 00-3.068-2.546C25.059 1.434 22.968.623 20.346.18c-.962-.164-1.289-.185-2.824-.18-1.449.005-1.9.034-2.727.174zm4.145 5.067c2.13.25 3.888.898 5.688 2.095.972.647 2.506 2.194 3.216 3.245a12.7 12.7 0 011.847 4.32c.281 1.316.262 1.303 1.917 1.303 1.613 0 2.024.13 2.334.737.258.505.165 1.075-.233 1.436-.368.333-.485.356-1.98.394-1.835.047-1.751-.01-2.052 1.378-.771 3.561-3.04 6.52-6.381 8.325-2.822 1.524-6.614 1.798-9.725.705a12.718 12.718 0 01-4.61-2.89c-1.305-1.295-2.16-2.584-2.819-4.245-1.592-4.022-.988-8.481 1.62-11.952a12.316 12.316 0 018.464-4.853c1.104-.129 1.602-.128 2.714.002zm-2.604 2.569c-1.396.221-2.513.607-3.576 1.235-2.543 1.503-4.143 3.75-4.743 6.66-.08.39-.116.96-.116 1.835 0 1.489.158 2.346.66 3.598.392.978.691 1.504 1.307 2.3 1.879 2.43 4.723 3.842 7.742 3.842 2.643 0 5.064-1.02 6.941-2.924 1.176-1.193 1.844-2.282 2.351-3.836.806-2.467.617-4.99-.552-7.36a9.784 9.784 0 00-7.068-5.286c-.938-.168-2.128-.194-2.946-.064z" fill="#fff"/><path d="M25.746 17.53a8.142 8.142 0 11-16.284.001 8.142 8.142 0 0116.284 0z" fill="#8D2148"/><mask id="a" style="mask-type:alpha" maskUnits="userSpaceOnUse" x="9" y="9" width="17" height="17"><path d="M25.453 17.604a7.849 7.849 0 11-15.697 0 7.849 7.849 0 0115.697 0z" fill="#8D2148"/></mask><g mask="url(#a)"><path fill-rule="evenodd" clip-rule="evenodd" d="M22.02 10.639c-.509-.442-2.28-1.13-3.141-1.222-.794-.084-.988-.088-1.698-.031a14.9 14.9 0 00-1.698.232l.11.268a.793.793 0 00.241-.094c.132-.107 2.5-.151 3.19-.06.852.113 1.628.323 2.092.565.1.052.216.095.258.096.042 0 .113.037.158.082.044.044.221.142.393.216l.312.135-.216-.187zm-2.977 14.504a.834.834 0 01-.002.126l1.706.037.492-.303c.271-.167.93-.604 1.466-.971 1.02-.701 1.048-.73 2.128-2.29.12-.173.278-.687.501-1.627.447-1.877.484-2.169.449-3.482-.03-1.1-.04-1.167-.278-1.758-.267-.664-1.795-2.486-1.795-2.486s1.222 1.747 1.314 1.871c.03.04.076.195.104.345.028.149.08.29.115.31.035.023.064.17.064.328s.049.404.109.548c.06.143.13.435.154.648.04.345.024.418-.155.676-.11.16-.214.29-.23.29-.017 0-.16-.103-.316-.23-.25-.2-.284-.265-.284-.53 0-.275-.165-.74-.294-.83-.145-.102-.274-.643-.321-1.347-.03-.432-.081-.84-.116-.908-.035-.067-.166-.132-.291-.145-.306-.03-.514-.32-.539-.75-.024-.429-.242-.687-.56-.662-.17.013-.228-.017-.25-.128-.042-.213-.155-.325-.329-.327-.084-.001-.279-.115-.432-.253-.303-.274-.542-.33-.526-.125.007.088-.042.127-.164.127-.23 0-.28-.165-.074-.24.16-.06.16-.062-.048-.202a5.502 5.502 0 00-.57-.314c-.2-.095-.384-.206-.41-.246-.21-.316-3.227-.25-3.985.088l-.35.155.303.253c.314.263.65.337.65.144 0-.163.41-.136.637.042l.19.15.067-.15c.09-.202.163-.189.275.046.13.27.233.19.212-.165-.027-.443.058-.48 1.015-.44.738.03.931.033 1.074.12.061.037.113.09.195.168.193.182.235.276.235.528 0 .169.032.327.072.352.084.052.097.302.018.348-.16.095-.546-.066-.837-.348-.175-.17-.38-.33-.454-.353-.074-.024-.265-.158-.424-.297-.163-.143-.352-.246-.433-.236-.188.024-.232.258-.06.316.072.024.234.088.36.144.124.055.263.1.306.1.044 0 .082.025.085.055.003.03.023.119.044.199.02.079.035.235.033.347-.004.17.018.195.136.158.149-.047.432.152 1.05.739.305.29.425.6.23.598-.237-.003-.432-.107-.491-.262-.066-.175-.242-.219-.42-.106-.13.083-.04.224.141.224.174 0 .26.194.16.353-.048.075-.177.117-.354.117-.223 0-.285.03-.305.145a.522.522 0 01-.176.262c-.093.073-.166.237-.192.433-.033.244-.083.335-.227.403a1.241 1.241 0 00-.321.24c-.12.131-.126.187-.054.454.081.304.028.472-.12.38-.043-.027-.078-.107-.078-.178 0-.297-.417-.46-.738-.288-.112.06-.222.057-.438-.014-.28-.093-.292-.09-.459.118-.248.311-.232.706.04.978.26.26.42.269.513.026.056-.147.112-.18.27-.163.183.021.198.047.198.348 0 .28.022.329.157.348.218.031.298.15.325.485.022.27.038.29.276.312.139.013.292.056.34.096.113.094.23.02.313-.2.058-.153.11-.173.449-.173.23 0 .447.045.544.113.134.094.2.098.404.025.227-.083.262-.073.559.158.174.135.327.27.34.3.014.03.133.054.267.054.204 0 .278.051.475.326.18.25.28.325.434.325.11 0 .22.032.245.072.024.04.14.073.258.073.117 0 .27.03.339.067.069.036.182.084.251.106.212.065.167.54-.079.84-.258.316-.372.53-.372.7 0 .29-.264.621-.674.845-.294.16-.49.337-.683.616-.258.374-.56.612-.85.668-.074.014-.153.107-.176.206-.03.127-.098.187-.233.203a.488.488 0 00-.277.126c-.047.057-.128.104-.18.104-.11 0-.583 1.131-.663 1.522zm-1.383-6.996c.195.173.35.217.455.13.021-.018-.15-.065-.455-.13zm.49-6.001a4.361 4.361 0 01.014-.625c.03-.14-.085-.232-.174-.142-.028.028-.05.122-.05.21 0 .145-.028.157-.307.125-.25-.028-.334-.006-.45.123-.142.157-.142.158.037.298.098.077.27.16.383.185a.512.512 0 01.288.18c.178.285.273.155.258-.354zm-.385 4.242c-.116.096-.288.039-.22-.073.056-.09.663-.086.72.004.023.04.147.098.274.131.265.069.31.257.07.29-.098.015-.272-.067-.449-.208-.236-.19-.308-.217-.395-.143zm1.515.51c-.254 0-.373-.087-.293-.216.056-.09.123-.09.357-.002.263.1.229.219-.064.219z" fill="#DFC4CE"/></g><rect x="37.702" width="1.76" height="34.988" rx=".147" fill="#fff"/></g><defs><clipPath id="clip0_47_614"><path fill="#fff" d="M0 0h119v35H0z"/></clipPath></defs></svg>