<?xml version="1.0" encoding="utf-8"?><svg viewBox="0 0 62 62" xmlns="http://www.w3.org/2000/svg" xmlns:xlink="http://www.w3.org/1999/xlink"><style>:root>svg{display:none}:root>svg:target{display:block}</style><svg viewBox="0 0 62 62" id="clock" xmlns="http://www.w3.org/2000/svg"><path fill-rule="evenodd" clip-rule="evenodd" d="M27.558.13C22.78.669 17.989 2.418 13.943 5.1c-1.892 1.255-2.934 2.104-4.642 3.781-2.648 2.6-4.504 5.178-6.18 8.587C.11 23.588-.74 30.415.647 37.344c.93 4.655 3.363 9.7 6.451 13.386 5.383 6.422 12.648 10.308 20.863 11.16 2.181.226 6.127.091 8.248-.282 13.82-2.428 24.245-13.61 25.689-27.553.203-1.96.09-6.09-.216-7.905-.747-4.435-2.38-8.615-4.78-12.236-1.252-1.89-2.1-2.934-3.778-4.646-2.598-2.651-5.312-4.597-8.715-6.245a30.468 30.468 0 00-10.098-2.9c-1.547-.167-5.232-.164-6.753.008zm6.786 3.04c8.888 1.103 16.593 6.224 21.028 13.977 4.891 8.55 4.81 19.532-.206 28.06-2.361 4.014-5.95 7.595-9.994 9.978-8.616 5.073-19.704 5.065-28.343-.022-7.07-4.162-11.894-11.136-13.431-19.415-.302-1.626-.424-6.103-.214-7.882C4.711 14.914 14.668 4.828 27.558 3.175c1.323-.17 5.434-.173 6.786-.005zm-4.087 1.4c-.74.407-1.009 1.501-.536 2.177.523.747 1.68.842 2.328.193.434-.433.54-.771.43-1.358-.172-.921-1.384-1.473-2.222-1.012zm-18.008 7.65c-.533.532-.61 1.071-.254 1.762.258.498 1.034.864 1.578.745.496-.11 1.087-.734 1.184-1.253.098-.518-.295-1.314-.764-1.549-.64-.32-1.23-.22-1.744.294zm35.705-.205c-.488.297-.816 1.07-.666 1.566.14.465.74 1.05 1.176 1.146.544.12 1.32-.247 1.577-.745.357-.69.28-1.23-.254-1.763-.553-.553-1.151-.62-1.833-.204zM30.37 14.86c-.891.387-.874.223-.874 8.688 0 7.3.013 7.677.265 8.073.146.228 1.998 2.178 4.118 4.332 3.72 3.782 3.87 3.918 4.378 3.912 1.042-.01 1.62-.588 1.62-1.619 0-.459-.254-.75-3.668-4.217l-3.668-3.725v-7.207c0-8.003.016-7.858-.905-8.243-.573-.24-.704-.239-1.266.006zM5.038 29.744c-.586.358-.855 1.181-.592 1.816.35.844 1.42 1.197 2.213.729 1.026-.607.981-2.099-.078-2.602-.598-.284-1.009-.269-1.543.057zm50.246-.008c-.862.541-1.004 1.509-.331 2.262.357.4.486.453 1.118.453.633 0 .762-.053 1.12-.453 1.16-1.3-.43-3.189-1.907-2.262zm-42.632 17.66c-.508.227-.874.843-.874 1.471 0 .605.773 1.378 1.378 1.378.655 0 1.247-.37 1.478-.924.259-.618.146-1.149-.341-1.616-.473-.453-1.068-.566-1.64-.31zm35.668-.105c-.395.153-.956.779-1.04 1.159-.194.889.613 1.795 1.6 1.795.596 0 1.378-.773 1.378-1.362 0-.6-.214-1.083-.59-1.33-.378-.247-1.05-.378-1.348-.262zm-17.942 7.444c-.599.263-.882.726-.882 1.44 0 .499.075.676.43 1.007 1.214 1.135 3.127-.207 2.42-1.698-.365-.77-1.199-1.087-1.968-.749z"/></svg><svg viewBox="0 0 25 25" id="close" xmlns="http://www.w3.org/2000/svg"><path d="M12.5 0C19.404 0 25 5.596 25 12.5S19.404 25 12.5 25 0 19.404 0 12.5 5.596 0 12.5 0zm0 1.744a10.756 10.756 0 100 21.512 10.756 10.756 0 000-21.512zm2.759 6.802a.853.853 0 011.203 1.205l-2.743 2.742 2.743 2.74a.852.852 0 01-1.203 1.207l-2.747-2.744L9.77 16.44a.853.853 0 01-1.1.089l-.105-.09a.852.852 0 010-1.205l2.743-2.742-2.743-2.74a.852.852 0 111.205-1.206l2.743 2.742 2.747-2.742z"/></svg><svg viewBox="0 0 32 32" id="phone" xmlns="http://www.w3.org/2000/svg"><path d="M25.33 26.667C13.954 26.683 5.32 17.947 5.332 6.67c0-.738.598-1.338 1.334-1.338h3.52c.66 0 1.22.486 1.318 1.139a16.557 16.557 0 001.354 4.53l.137.295a.942.942 0 01-.307 1.163c-1.09.779-1.506 2.345-.657 3.567a15.779 15.779 0 003.941 3.942c1.223.848 2.79.432 3.567-.657a.943.943 0 011.164-.308l.295.136a16.512 16.512 0 004.529 1.355 1.335 1.335 0 011.139 1.32v3.518a1.333 1.333 0 01-1.335 1.334h-.003z"/></svg><svg viewBox="0 0 62 62" id="repair" xmlns="http://www.w3.org/2000/svg"><path fill-rule="evenodd" clip-rule="evenodd" d="M48.382.087c-1.606.263-4.126 1.09-5.532 1.815-1.979 1.02-3.75 2.608-4.35 3.9-.31.662-.412 1.226-.904 4.934l-.554 4.185-3.837 3.97-3.837 3.971-3.42-3.527-3.419-3.527.177-.505c.255-.727.336-2.267.166-3.176-.189-1.016-.864-2.42-1.482-3.088-.294-.317-2.9-2.144-6.412-4.497C9.812 1.082 9.002.58 8.6.58c-.439 0-.576.12-3.074 2.678C2.94 5.907 2.491 6.493 2.651 7.02c.044.148 1.794 2.983 3.888 6.301 2.518 3.99 3.995 6.213 4.36 6.565 1.437 1.383 3.67 1.938 5.756 1.431l.77-.188 3.406 3.514 3.405 3.513-4.176 4.308-4.176 4.308-4.169.617c-3.137.464-4.302.683-4.705.885-.786.392-2.183 1.824-2.89 2.963a17.999 17.999 0 00-2.694 8.772c-.078 1.996.111 3.33.692 4.885.46 1.23.875 1.701 1.498 1.701.254 0 .578-.083.72-.186.141-.102.645-.864 1.12-1.693 1.147-2.004 2.413-3.946 3.017-4.624 1.16-1.304 2.522-1.33 4.368-.084 1.527 1.03 2.18 2.033 2.244 3.448l.04.862-1.737 3.016c-1.82 3.162-1.967 3.55-1.566 4.141.322.474.76.557 2.706.515l1.833-.04 1.691-1.319c3.664-2.859 5.997-4.98 6.537-5.944.269-.478.279-.608.353-4.494l.077-4 4.202-4.267 4.203-4.266 1.552 1.558 1.553 1.557-1.463 1.55c-1.426 1.51-1.463 1.563-1.463 2.095v.546l7.427 7.645c8.061 8.299 7.933 8.184 9.873 8.806.728.234 1.163.288 2.327.288 1.258 0 1.56-.044 2.489-.358 2.323-.785 4.689-3.068 5.67-5.47.328-.804.611-2.273.611-3.176 0-1.654-.698-3.716-1.712-5.06-.295-.39-3.696-3.965-7.558-7.943l-7.021-7.233h-.525c-.511 0-.562.039-2.03 1.537L41.65 35.54l-1.536-1.589-1.537-1.589 3.732-3.938 3.732-3.939 1.209-.068a168.58 168.58 0 013.942-.134c2.637-.063 2.752-.076 3.238-.37.905-.547 3.465-3.583 6.059-7.183l.915-1.271v-2.03c0-1.158-.052-2.133-.122-2.268-.15-.288-.723-.609-1.086-.609-.147 0-1.478.74-2.96 1.646-3.383 2.069-3.128 1.942-3.896 1.942-1.065 0-2.022-.452-2.811-1.329-.59-.655-1.266-1.88-1.473-2.67-.19-.725-.192-.838-.02-1.45.308-1.09 1.585-2.164 5.238-4.41.901-.555 1.72-1.128 1.82-1.274.271-.4.223-1-.114-1.414-.353-.433-1.382-.927-2.65-1.273-1.06-.29-3.807-.418-4.947-.232zm3.096 2.445l.755.078-1.647 1.108c-2.64 1.777-3.675 3.027-4 4.83-.406 2.254 1.208 5.531 3.496 7.097 1.057.723 1.894.974 3.267.98 1.414.006 1.442-.005 3.81-1.45.95-.58 1.756-1.054 1.792-1.054.036 0 .066.133.066.296 0 .424-3.964 5.645-5.21 6.862l-.458.447-3.927.148c-2.16.082-4.066.202-4.236.268-.17.065-2.12 1.985-4.336 4.265l-4.027 4.147-.982-1.013-.98-1.012 4.024-4.165 4.024-4.164v-.525c0-.74-.488-1.245-1.206-1.245h-.509l-4.035 4.152-4.035 4.152-1.013-1.04-1.013-1.04 4.046-4.19c3.455-3.578 4.062-4.26 4.165-4.68.065-.272.371-2.35.679-4.618.502-3.705.59-4.171.865-4.591 1.11-1.692 5.044-3.653 8.052-4.014 1.045-.125 1.582-.131 2.573-.029zm-37.27 4.475c2.825 1.904 5.231 3.546 5.348 3.648.116.102.381.542.589.976.323.678.377.924.377 1.733 0 1.407-.341 2.08-1.863 3.675-1.571 1.647-2.117 1.945-3.563 1.945-.938 0-1.096-.037-1.84-.43l-.814-.432-3.499-5.54C7.02 9.535 5.444 6.988 5.444 6.921c0-.067.738-.885 1.64-1.818C8.155 3.996 8.785 3.431 8.9 3.477c.096.038 2.485 1.626 5.31 3.53zM30.62 27.602l9.366 9.664-.865.892-.865.893-9.394-9.694-9.394-9.692.83-.864c.457-.475.859-.863.894-.863.035 0 4.277 4.349 9.428 9.664zm-6.965 8.924c-2.897 3-4.366 4.608-4.416 4.833-.2.883.691 1.736 1.518 1.454.253-.086 1.804-1.6 4.672-4.56l4.294-4.432.986 1.013.986 1.012-4.465 4.619-4.465 4.62-.072.676c-.106.988-.282 7.014-.22 7.456.048.334-.032.46-.69 1.089-.913.872-2.868 2.524-4.826 4.078-.959.761-1.573 1.166-1.769 1.166-.285 0-.241-.102.887-2.062.653-1.134 1.24-2.256 1.303-2.493.305-1.129.071-2.944-.54-4.189-.828-1.686-2.954-3.387-5.005-4.002-.504-.151-.982-.194-1.723-.156-1.972.103-3.129 1.01-5.02 3.934-1.396 2.158-1.38 2.164-1.288-.49.068-1.954.3-3.014 1.09-4.988.615-1.537 1.288-2.746 1.976-3.551.915-1.072.897-1.066 5.703-1.776 3.964-.585 4.37-.667 4.735-.955.22-.173 2.245-2.255 4.5-4.627l4.1-4.313 1.045 1.074 1.045 1.073-4.34 4.496zM58.928 50.03c1.21 2.528.717 5.087-1.394 7.242-1.126 1.149-2.093 1.7-3.385 1.929-1.133.2-2.351.022-3.445-.504-.761-.366-1.258-.849-7.528-7.31l-6.714-6.92 4.387-4.526 4.387-4.526 6.635 6.866c6.167 6.382 6.664 6.927 7.057 7.749zm-16.075-8.053c-.336.346-.421.53-.421.907 0 .459.154.631 5.34 5.976 3.593 3.704 5.447 5.531 5.67 5.587.415.104 1.003-.14 1.241-.516.225-.354.236-1.059.02-1.376-.09-.131-2.508-2.631-5.376-5.555-5.866-5.982-5.683-5.84-6.474-5.023z"/></svg><svg viewBox="0 0 24 24" id="sandwich" xmlns="http://www.w3.org/2000/svg"><path d="M4 8a1 1 0 011-1h14a1 1 0 110 2H5a1 1 0 01-1-1zM4 16a1 1 0 011-1h14a1 1 0 110 2H5a1 1 0 01-1-1zM4 12a1 1 0 011-1h14a1 1 0 110 2H5a1 1 0 01-1-1z"/></svg><svg viewBox="0 0 62 62" id="wagon" xmlns="http://www.w3.org/2000/svg"><path fill-rule="evenodd" clip-rule="evenodd" d="M2.32 8.208c-.76.268-1.833 1.364-2.097 2.14-.186.547-.203 1.974-.203 17.019 0 18.736-.096 17.112 1.08 18.289.976.977 1.363 1.08 4.024 1.08h2.157l.002.454c.004 1.135.62 2.827 1.4 3.85l.411.539H.727l-.353.354c-.499.498-.499 1.215 0 1.713L.727 54h60.546l.353-.354c.498-.498.498-1.215 0-1.713l-.353-.354h-3.527l.411-.54c.807-1.056 1.397-2.717 1.401-3.94.002-.496.037-.561.386-.716.644-.285 1.33-1 1.692-1.765l.344-.727v-8.406l-3.4-6.813c-1.871-3.748-3.58-7.033-3.799-7.301-.218-.269-.69-.65-1.046-.848l-.65-.36-5.596-.034-5.597-.035V15.52c0-5.365 0-5.361-1.08-6.442-1.181-1.182.661-1.082-19.908-1.072-16.146.01-18.097.03-18.584.202zm36.755 2.606l.336.336.031 16.583.032 16.582H21.447l-.314-.664c-.686-1.45-1.952-2.74-3.374-3.436a7.29 7.29 0 00-9.811 3.442l-.318.673-2.23-.038-2.229-.037-.331-.332c-.284-.285-.338-.451-.38-1.18l-.047-.85h4.16l.354-.353.354-.354v-5.848l-.354-.354-.354-.354H2.437l.032-11.73c.031-11.537.036-11.734.274-12 .133-.147.35-.313.484-.368.133-.055 8.178-.09 17.877-.077l17.636.024.335.335zm-26.6 4.8c-.277.278-.354.463-.354.857a1.2 1.2 0 002.067.857c.78-.78.246-2.067-.856-2.067-.395 0-.58.076-.857.353zm4.84 0c-.277.278-.353.463-.353.857 0 .395.076.58.354.857l.354.354h16.253l.354-.354c.498-.498.498-1.215 0-1.714l-.354-.353H17.67l-.354.353zm4.841 4.843c-.277.277-.353.462-.353.857 0 .394.076.579.354.856l.353.354h11.413l.354-.354c.277-.277.353-.462.353-.856 0-.395-.076-.58-.353-.857l-.354-.354H22.51l-.354.354zm30.391 2.252c.251.13.501.47.841 1.148.266.529.484.99.484 1.025 0 .035-1.992.063-4.426.063h-4.427l-.353.354-.354.354V36.344l.354.354.353.353h14.54l-.001 3.118c-.002 3.072-.065 3.632-.422 3.74-.066.02-.221-.182-.344-.448-.575-1.247-1.924-2.584-3.276-3.246a7.344 7.344 0 00-6.332-.057c-1.474.697-2.857 2.09-3.496 3.522l-.284.635h-3.513V22.524h5.15c4.38 0 5.202.028 5.506.185zm4.382 8.23c.98 1.964 1.784 3.598 1.784 3.631 0 .033-2.696.06-5.99.06h-5.99v-7.263H55.144l1.784 3.571zM4.86 38.261v1.21H2.44v-2.42h2.42v1.21zm11.277 3.94c.784.274 1.742.982 2.23 1.648 1.442 1.964 1.258 4.57-.443 6.27-2.76 2.763-7.433 1.248-8.116-2.631-.43-2.442 1.302-4.954 3.771-5.47.677-.14 1.875-.055 2.558.184zm37.757 0c.784.274 1.742.982 2.23 1.648 1.442 1.964 1.258 4.57-.443 6.27-2.76 2.763-7.433 1.248-8.116-2.631-.43-2.442 1.302-4.954 3.771-5.47.677-.14 1.875-.055 2.558.184zm-40.38 2.314c-1.909 1.007-1.856 3.642.088 4.454a2.418 2.418 0 003.131-1.205c.556-1.205.065-2.608-1.128-3.22-.55-.282-1.584-.297-2.092-.029zm37.756 0c-1.908 1.007-1.855 3.642.089 4.454.849.355 1.946.165 2.618-.454.954-.877.954-2.682 0-3.56-.673-.619-1.968-.83-2.707-.44zm-6.23 2.674c.004 1.135.62 2.827 1.4 3.85l.412.539H19.99l.41-.54c.78-1.022 1.397-2.714 1.401-3.849l.002-.454h23.235l.002.454z"/></svg><svg viewBox="0 0 62 62" id="worker" xmlns="http://www.w3.org/2000/svg"><path fill-rule="evenodd" clip-rule="evenodd" d="M28.446.173c-6.857 1.238-11.99 7.264-11.985 14.07 0 1.402.113 1.857.693 2.816.275.454.47.98.526 1.416.397 3.07 1.61 7.021 2.992 9.744 1.035 2.04 1.838 3.234 2.975 4.42.426.444.747.834.714.867-.033.033-1.109.416-2.39.851-4.031 1.37-10.435 3.972-11.658 4.739-2.602 1.63-4.24 5.742-4.96 12.447-.11 1.026-.235 3.647-.277 5.826L5 61.329l.337.336.337.335H56.325l.337-.336.338-.336-.078-3.96c-.116-5.901-.56-9.435-1.593-12.692-.853-2.686-2.118-4.624-3.643-5.58-1.23-.771-7.774-3.43-11.683-4.748-1.264-.427-2.327-.804-2.362-.838-.035-.035.285-.427.711-.871 1.136-1.186 1.94-2.38 2.975-4.42 1.386-2.732 2.606-6.712 2.992-9.761.056-.448.22-.902.444-1.228.568-.83.776-1.62.776-2.959 0-6.851-5.154-12.902-12-14.09-1.368-.238-3.8-.242-5.093-.008zm5.138 2.196c3.647.764 6.868 3.259 8.51 6.592.315.64.663 1.475.773 1.856l.2.692-.29-.08c-.616-.168-4.007-.717-5.676-.918-2.414-.29-7.5-.393-9.996-.204-2.274.172-5.18.555-6.932.912-.65.133-1.193.23-1.208.214-.086-.085.771-2.244 1.18-2.97 1.793-3.192 5.146-5.591 8.583-6.141.5-.08 1.054-.17 1.233-.2.554-.093 2.694.053 3.623.247zm3.792 10.325c2.056.26 4.59.686 5.144.866.568.185.812.572.812 1.292 0 .501-.106.762-.636 1.57-.725 1.105-1.292 1.588-2.182 1.86-.807.246-1.471.145-2.808-.425-1.912-.816-3.783-1.222-6.004-1.302-2.925-.106-4.155.133-8.09 1.574-.77.282-1.08.334-1.555.264-.81-.122-1.434-.462-2.014-1.101-.656-.723-1.506-2.047-1.506-2.347 0-.463.371-1.123.736-1.307.45-.227 4.02-.818 6.404-1.06 2.374-.241 9.42-.171 11.7.116zm-4.686 6.027c1.605.196 2.611.468 4.216 1.14 1.394.584 1.46.598 2.791.597.884-.001 1.47-.061 1.666-.171.167-.094.34-.133.387-.088.126.126-.587 2.795-1.175 4.396-1.405 3.827-3.38 6.7-5.642 8.205-2.475 1.648-5.392 1.648-7.867 0-3-1.997-5.45-6.334-6.755-11.958l-.181-.782.664.228c.894.308 2.411.302 3.26-.011.357-.132 1.18-.446 1.83-.698a14.325 14.325 0 016.806-.858zM29.013 35.95c1.816.407 3.982.196 5.686-.552l.779-.343 1.345.463c1.54.53 1.55.456-.179 1.317-1.898.944-3.555 1.317-5.774 1.301-2.333-.016-4.082-.489-6.225-1.682l-.837-.465 1.357-.467 1.356-.466.779.342c.428.188 1.199.436 1.713.551zm-6.77 1.505c1.166.879 3.476 1.978 5.057 2.406 1.194.324 1.49.352 3.7.351 2.197 0 2.511-.03 3.7-.347 1.555-.417 3.824-1.498 5.028-2.396l.875-.653 2.468.913 2.468.913v21.291H34.115v-4.098l.763-.47c2.078-1.276 3.391-3.66 3.391-6.156 0-2.656-1.57-5.221-3.911-6.387-1.07-.532-1.593-.58-2.02-.18-.295.275-.3.329-.3 2.907v2.626H29.96v-2.59c0-2.578-.002-2.592-.319-2.907-.438-.437-.902-.403-2.001.144-1.74.867-3.202 2.697-3.713 4.65-.25.953-.253 2.62-.007 3.54.47 1.753 1.706 3.436 3.2 4.354l.763.469v4.098H16.46V38.642l2.434-.91 2.46-.919c.014-.004.414.285.888.642zm-7.86 12.27v10.208h-7.27l.003-.679c.002-.373.06-1.899.129-3.391.354-7.661 1.41-12.05 3.426-14.245.51-.556.933-.84 2.08-1.394.79-.382 1.481-.697 1.535-.7.053-.003.097 4.587.097 10.201zm34.84-9.506c1.18.564 1.588.835 2.105 1.399 2.016 2.195 3.072 6.583 3.426 14.245.07 1.492.127 3.018.129 3.391l.002.679h-7.269V49.725c0-5.614.032-10.207.071-10.207.04 0 .73.315 1.535.7zm-21.001 9.777c.326.306.374.31 2.777.31 2.41 0 2.45-.004 2.78-.312l.336-.314v-4.53l.569.555c1.098 1.073 1.66 2.804 1.395 4.303-.316 1.79-1.333 3.12-2.98 3.895-.783.37-.984.41-2.1.41-1.115 0-1.316-.04-2.1-.41-1.646-.776-2.664-2.106-2.98-3.895-.26-1.481.272-3.153 1.357-4.261l.543-.555.035 2.247c.035 2.223.04 2.25.368 2.557zm3.816 8.203v1.734H29.96v-3.468h2.077v1.734z"/></svg></svg>